<?xml version="1.0" encoding="utf-8"?>
<!-- Generator: Adobe Illustrator 24.0.1, SVG Export Plug-In . SVG Version: 6.00 Build 0)  -->
<svg version="1.1" id="Layer_1" xmlns="http://www.w3.org/2000/svg" xmlns:xlink="http://www.w3.org/1999/xlink" x="0px" y="0px"
	 viewBox="0 0 1366 489" style="enable-background:new 0 0 1366 489;" xml:space="preserve">
<style type="text/css">
	.st0{opacity:0.67;fill:#E2E8FE;}
	.st1{fill:none;stroke:#8097ED;stroke-width:2;stroke-miterlimit:10;}
	.st2{fill:none;stroke:#8097ED;stroke-width:2;stroke-miterlimit:10;stroke-dasharray:9.9943,9.9943;}
	.st3{fill:none;stroke:#8097ED;stroke-width:2;stroke-miterlimit:10;stroke-dasharray:10;}
	.st4{fill:#E2E8FE;}
	.st5{fill:#CAD2F9;}
	.st6{fill:#EBF1FF;}
	.st7{fill:#C5D2FF;}
	.st8{fill:#D2E0FF;}
	.st9{fill:#B1C5FC;}
	.st10{fill:#F0F5FF;}
	.st11{fill:#ADBDEA;}
	.st12{fill:#8B9AFF;}
	.st13{fill:#FFFFFF;}
	.st14{fill:#C7DAE5;}
	.st15{fill:#EF758A;}
	.st16{fill:#FE8291;}
	.st17{fill:#4258A0;}
	.st18{fill:#F9C796;}
	.st19{fill:#5162BC;}
	.st20{fill:#F8FBFF;}
	.st21{fill:#4CACFB;}
	.st22{fill:#3A92CE;}
	.st23{fill:#151C74;}
	.st24{filter:url(#Adobe_OpacityMaskFilter);}
	.st25{fill:url(#SVGID_2_);}
	.st26{mask:url(#SVGID_1_);}
	.st27{fill:#FFF6A4;}
	.st28{fill:#9AACFE;}
	.st29{fill:#768EE5;}
	.st30{filter:url(#Adobe_OpacityMaskFilter_1_);}
	.st31{fill:url(#SVGID_4_);}
	.st32{mask:url(#SVGID_3_);}
	.st33{fill:#E3F4FF;}
	.st34{fill:#6A88E5;}
	.st35{fill:#DCE2F8;}
	.st36{fill:#7F9FEF;}
	.st37{fill:#9EB8EF;}
	.st38{fill:#7C81EA;}
	.st39{fill:#263287;}
	.st40{fill:#A6B5FF;}
	.st41{fill:#B0B6F0;}
	.st42{fill:#4A5DAF;}
	.st43{fill:#FFBEBF;}
	.st44{fill:#9FAFFF;}
	.st45{fill:#B6C1FF;}
	.st46{fill:#98B0E5;}
	.st47{fill:#EBF0FF;}
	.st48{fill:#F8FAFF;}
	.st49{fill:none;stroke:#98B0E5;stroke-miterlimit:10;}
	.st50{fill:#979FFC;}
	.st51{fill:#F5F8FF;}
	.st52{fill:#DEE7FF;}
	.st53{fill:#F3F7FF;}
	.st54{fill:#8896A0;}
	.st55{fill:#EA6E83;}
	.st56{fill:#021551;}
</style>
<circle class="st0" cx="649.66" cy="244.36" r="148.94"/>
<g>
	<g>
		<path class="st1" d="M347.07,44.74c0,0,1.77,0.16,4.97,0.48"/>
		<path class="st2" d="M361.98,46.27c55.63,6.11,244.18,30.57,170.66,74.97c-127.93,77.26,143.79,80.22,77.09,134.63"/>
		<path class="st1" d="M605.74,258.91c-1.29,0.92-2.67,1.85-4.15,2.79"/>
	</g>
</g>
<path class="st3" d="M1262.11,51.29c0,0-242.44-68.26-250.28,77.96"/>
<path class="st4" d="M454.99,270.35c0,0,48.12-34.52,84.77-3.49c36.64,31.03,16.34,34.17,67.99,38.35
	c51.65,4.18,60.04-8.37,90.95,26.5s49.89,42.85,78.59,44.63c57.65,3.58,41.5,71.12,41.5,71.12H454.99V270.35z"/>
<path class="st5" d="M430.92,334.06c0,0,5.92-12.01,40.53-13.87c34.61-1.87,47.82,28.01,66.94,21.61
	c19.13-6.4,39.76-1.33,46.45,10.94c6.69,12.27,30.28,18.41,50.2,10.14s75.93,10.56,88,42.77s0,41.83,0,41.83H430.92V334.06z"/>
<rect x="643.57" y="174.1" class="st6" width="282.95" height="273.37"/>
<rect x="622.61" y="163.21" class="st7" width="303.58" height="10.88"/>
<polygon class="st8" points="926.96,447.46 703.33,447.46 926.96,174.1 "/>
<ellipse class="st4" cx="763.2" cy="468.55" rx="46.56" ry="7.03"/>
<ellipse class="st4" cx="397.08" cy="468.39" rx="91.95" ry="7.03"/>
<ellipse class="st4" cx="854.09" cy="468.55" rx="37.6" ry="7.03"/>
<ellipse class="st4" cx="913.67" cy="465.51" rx="28.77" ry="5.17"/>
<ellipse class="st4" cx="1014.41" cy="470.67" rx="58.24" ry="6.85"/>
<rect x="158.1" y="133.29" class="st7" width="298.96" height="314.18"/>
<path class="st7" d="M577.85,249.43h92.3c5.15,0,9.32,4.17,9.32,9.32v43.21c0,5.15-4.17,9.32-9.32,9.32h-92.3
	c-5.15,0-9.32-4.17-9.32-9.32v-43.21C568.53,253.6,572.7,249.43,577.85,249.43z"/>
<path class="st9" d="M149.79,133.29h317.91v-5.73c0-7.15-5.8-12.94-12.94-12.94H162.73c-7.15,0-12.94,5.8-12.94,12.94V133.29z"/>
<path class="st10" d="M219.24,114.61h178.99v-5.73c0-7.15-5.8-12.94-12.94-12.94H232.19c-7.15,0-12.94,5.8-12.94,12.94V114.61z"/>
<path class="st10" d="M987.96,114.61h178.99v-5.73c0-7.15-5.8-12.94-12.94-12.94h-153.11c-7.15,0-12.94,5.8-12.94,12.94V114.61z"/>
<path class="st10" d="M719.94,163.19h148.04v-0.37c0-10.11-8.19-18.3-18.3-18.3H738.24c-10.11,0-18.3,8.19-18.3,18.3V163.19z"/>
<rect x="1170.28" y="129.25" class="st9" width="59.45" height="318.21"/>
<rect x="926.19" y="129.25" class="st7" width="244.09" height="318.21"/>
<rect x="903.69" y="114.61" class="st9" width="266.59" height="14.64"/>
<rect x="1170.28" y="114.61" class="st11" width="68.19" height="14.64"/>
<g>
	<path class="st12" d="M762.47,471.11L762.47,471.11c1.02-0.15,1.72-1.09,1.57-2.11l-8.54-57.88l-5.68,0.84l10.55,57.65
		C760.55,470.59,761.47,471.25,762.47,471.11z"/>
	<path class="st12" d="M721.57,471.07L721.57,471.07c1,0.22,2-0.43,2.23-1.46l13.16-58.84l-5.6-1.25l-11.19,59.35
		C719.97,469.88,720.59,470.85,721.57,471.07z"/>
	<path class="st13" d="M710.99,333.33c0,0,0-6.53,30.71-5.86c19.14,0.42,11.93,78.05,11.93,78.05l-24.24,2.33l-8.9-8.2
		L710.99,333.33z"/>
	<path class="st14" d="M709.55,334.48c0,0,6.53,59.02,9.51,66.16c2.97,7.14,8.91,10.39,16.29,11.13c7.38,0.73,22.61,0.14,22.61,0.14
		l-18.48-6.39c0,0-12.8-0.15-15.75-6.65c-1.63-3.59-7.69-63.95-8.93-65.17C713.54,332.47,711.85,330.45,709.55,334.48z"/>
	<path class="st15" d="M787.7,453.4c0.23,0.36,3.52,4.5,7.47,6.13c3.95,1.63,6.4,2.61,7.13,4.7s0.43,2.71,0.43,2.71l-15.1-0.73
		l-8.8-3.57l-1.61-6.04L787.7,453.4z"/>
	<path class="st16" d="M779.4,458.2c0.09,0.08,1.38,4.02,5.47,6.03c4.09,2.01,9.19,4.04,9.78,5.54c0.6,1.5,0.57,2.53,0.57,2.53
		s-24.75,0.6-25.81-0.35s2.12-11.65,2.07-12.8C771.44,457.98,779.4,458.2,779.4,458.2z"/>
	<g>
		<path class="st17" d="M772.22,388.64c0,0,25.82,0.99,29.86,6c4.04,5.01,3,14.4,0,20.4c-3,6-13.6,40.19-13.6,40.19
			s-7.46,1.81-8.99-0.28c-1.53-2.09,2.9-40.85,4.99-44.23c0,0-6.21,0.98-9.24-1.65S772.22,388.64,772.22,388.64z"/>
		<path class="st18" d="M795.56,362.37c0.16-0.13,2.51-2.13,3.27-3.32c0.76-1.19,3.35-7.34,3.87-7.73c0.52-0.39,1.29,1.24,1.09,2.38
			c-0.2,1.14-0.5,2.1-0.5,2.1s9.11-2.26,11.13-1.05c0,0,0.17,1.06-1.08,1.78s-5.8,1.37-5.97,1.56c-0.16,0.19,1.56,4.8,0.59,6.36
			c-0.98,1.56-5.95,1.43-7,1.25c-1.04-0.18-2.13,0.42-2.13,0.42L795.56,362.37z"/>
		<path class="st19" d="M732.57,392.47c0,0-4.56,18.01,27.59,19.57c0,0,6.08,39.96,10.96,47.82c0,0,6.01,0.6,9.42-0.88
			c0,0,1.86-52.22-1.8-57.9c-3.66-5.68-8.15-8.52-12.75-11.31c-4.6-2.79-13.7-3.7-13.7-3.7L732.57,392.47z"/>
		<path class="st20" d="M763.12,340.39c0,0,0.2,15.73,0.34,22.45c0.14,6.72-1.73,17.93-1.73,17.93s-4.76-1.84-5.1-1.91
			c-0.34-0.07-2.25-34.84-2.25-34.84l2.25-5.67L763.12,340.39z"/>
		<path class="st21" d="M768.01,342.72l0.68-1.1c0,0,3.65,1.59,5.43,8.39c1.78,6.8,3,18.71,3.3,18.78
			c0.3,0.07,14.72-4.58,18.13-7.26c0,0,3.97,3.16,4.51,6.11c0.53,2.96-20.2,15.77-27.22,13.82s-7.41-11.6-7.41-11.6L768.01,342.72z"
			/>
		<path class="st22" d="M763.86,338.89c0,0,9.24,3.26,7.91,9.7c-1.33,6.45-6.6,28.63-6.6,32.01c0,3.38-0.65,9.45-0.65,9.45
			s-3.47-2.4-3.3-8.19c0.17-5.79-1.16-10.47,0.13-15.49c1.28-5.01,1.67-9.7,1.25-13.57C762.17,348.95,762.94,339.49,763.86,338.89z"
			/>
		<path class="st22" d="M757.43,338.12c0,0-1.83,4.67-1.18,8.83c0.65,4.16,2.08,10.02,1.5,13.99c-0.58,3.98-1.28,7.61-0.76,11.52
			s-2.66,21.08-4.83,23.84c0,0-16.5,1.56-21.6-4.45c0,0,3.95-16.44,6.12-21.31c2.17-4.87,6.85-33.6,6.85-33.6s6.97-3.18,12.71-1.35
			S757.43,338.12,757.43,338.12z"/>
		<path class="st23" d="M756.07,335.63c0,0,0.28-1.91-1.39-2.84s-2.01-1.48-2.44-4.13c-0.43-2.65-0.08-5.89-0.94-7.56
			s0.6-7.15,3.39-8.38c2.79-1.23,7.61-6.94,12.58-4.83c4.97,2.11,5.79,4.72,9.41,4.32c3.62-0.39,4.62,1.52,4.93,4.08
			s-1.65,4.87-3.47,5.67c-1.44,0.64-14.17,9.15-19.51,12.53C757.23,335.37,756.07,335.63,756.07,335.63z"/>
		<path class="st18" d="M778.13,321.96c0,0-1.57,15.3-4.57,16.53s-7.01-0.35-7.01-0.35s-2.28,3.37-2.28,4.85s-5.45,0.16-6.77-1.27
			c-1.33-1.42-1.43-6.09-1.43-6.09s5.11-2.4,6.66-5.47c0,0-2.28-1.77-0.81-3.92c1.47-2.15,3.63-1.17,4.96,0.6
			c0,0,1.03,0.6,2.09-0.97S772.91,321.84,778.13,321.96z"/>
		<path class="st18" d="M764.6,381.46c0.24,0.08,5.92,1.88,7.48,3.93c1.56,2.05,3.26,5.71,4.33,6.75c1.08,1.04,1.73,2.96,0.62,3.05
			c-1.11,0.08-4.06,0.33-5.78-0.69c-1.72-1.02-4.62-4.74-6.09-5.23c-1.47-0.49-2.94-0.19-3.4-1.24
			C761.32,386.99,764.6,381.46,764.6,381.46z"/>
		<path class="st21" d="M743.54,336.95c0,0,4.73,0.6,5.68,5.62c0.95,5.02-0.66,21.82-1.85,25.9s16.65,11.49,17.55,11.61
			c0.9,0.12-0.74,7.4-2.83,8.54c-2.09,1.14-25.04-7.96-27.09-15.8C732.95,364.99,734.65,340.48,743.54,336.95z"/>
	</g>
</g>
<g>
	<defs>
		<filter id="Adobe_OpacityMaskFilter" filterUnits="userSpaceOnUse" x="698.2" y="218.65" width="86.4" height="61.56">
			<feColorMatrix  type="matrix" values="1 0 0 0 0  0 1 0 0 0  0 0 1 0 0  0 0 0 1 0"/>
		</filter>
	</defs>
	<mask maskUnits="userSpaceOnUse" x="698.2" y="218.65" width="86.4" height="61.56" id="SVGID_1_">
		<g class="st24">
			<linearGradient id="SVGID_2_" gradientUnits="userSpaceOnUse" x1="741.402" y1="220.7859" x2="741.402" y2="270.0766">
				<stop  offset="0" style="stop-color:#FFFFFF"/>
				<stop  offset="0.0901" style="stop-color:#F2F2F2"/>
				<stop  offset="0.2579" style="stop-color:#CFCFCF"/>
				<stop  offset="0.4851" style="stop-color:#969696"/>
				<stop  offset="0.7596" style="stop-color:#494949"/>
				<stop  offset="1" style="stop-color:#000000"/>
			</linearGradient>
			<polygon class="st25" points="749.16,218.65 741.4,218.65 733.65,218.65 698.2,280.21 741.4,280.21 784.6,280.21 			"/>
		</g>
	</mask>
	<g class="st26">
		<polygon class="st27" points="749.16,218.65 741.4,218.65 733.65,218.65 698.2,280.21 741.4,280.21 784.6,280.21 		"/>
	</g>
	<circle class="st13" cx="741.4" cy="244.36" r="5.07"/>
	<polygon class="st28" points="745.47,212.08 741.4,212.08 737.34,212.08 718.75,244.36 741.4,244.36 764.06,244.36 	"/>
	<path class="st29" d="M741.4,212.08h-4.07l-18.59,32.28h22.65h2.88C717.8,241.37,741.4,212.08,741.4,212.08z"/>
	<rect x="740.67" y="174.11" class="st29" width="1.46" height="37.96"/>
</g>
<g>
	<defs>
		<filter id="Adobe_OpacityMaskFilter_1_" filterUnits="userSpaceOnUse" x="949.22" y="170.52" width="80.07" height="57.05">
			<feColorMatrix  type="matrix" values="1 0 0 0 0  0 1 0 0 0  0 0 1 0 0  0 0 0 1 0"/>
		</filter>
	</defs>
	<mask maskUnits="userSpaceOnUse" x="949.22" y="170.52" width="80.07" height="57.05" id="SVGID_3_">
		<g class="st30">
			<linearGradient id="SVGID_4_" gradientUnits="userSpaceOnUse" x1="989.2552" y1="172.5051" x2="989.2552" y2="218.1858">
				<stop  offset="0" style="stop-color:#FFFFFF"/>
				<stop  offset="0.0901" style="stop-color:#F2F2F2"/>
				<stop  offset="0.2579" style="stop-color:#CFCFCF"/>
				<stop  offset="0.4851" style="stop-color:#969696"/>
				<stop  offset="0.7596" style="stop-color:#494949"/>
				<stop  offset="1" style="stop-color:#000000"/>
			</linearGradient>
			<polygon class="st31" points="996.44,170.52 989.26,170.52 982.07,170.52 949.22,227.58 989.26,227.58 1029.29,227.58 			"/>
		</g>
	</mask>
	<g class="st32">
		<polygon class="st27" points="996.44,170.52 989.26,170.52 982.07,170.52 949.22,227.58 989.26,227.58 1029.29,227.58 		"/>
	</g>
	<circle class="st13" cx="989.26" cy="194.35" r="4.7"/>
	<polygon class="st28" points="993.02,164.43 989.26,164.43 985.49,164.43 968.26,194.35 989.26,194.35 1010.25,194.35 	"/>
	<path class="st29" d="M989.26,164.43h-3.77l-17.23,29.92h20.99h2.67C967.38,191.58,989.26,164.43,989.26,164.43z"/>
	<rect x="988.58" y="129.25" class="st29" width="1.35" height="35.18"/>
</g>
<g>
	<rect x="1014.65" y="270.24" class="st33" width="121.06" height="6.28"/>
	<rect x="1031.18" y="226.63" class="st34" width="20.21" height="43.61"/>
	<rect x="1051.39" y="226.63" class="st35" width="8.21" height="43.61"/>
	<rect x="1059.6" y="226.63" class="st36" width="9.66" height="43.61"/>
	<rect x="1069.25" y="226.63" class="st35" width="8.21" height="43.61"/>
	<rect x="1077.46" y="226.63" class="st36" width="9.66" height="43.61"/>
	<rect x="1087.12" y="226.63" class="st35" width="4.51" height="43.61"/>
	<path class="st13" d="M1123.13,248.51c-1.85-1.45-2.33-3.97-1.27-6.06c0.59-1.16,0.86-2.51,0.72-3.93
		c-0.09-0.89-0.37-1.74-0.77-2.5h-12.44c-0.51,0.98-0.81,2.08-0.81,3.26c0,1.17,0.29,2.28,0.8,3.25c1.09,2.07,0.46,4.57-1.36,6.03
		c-3.07,2.45-4.93,6.36-4.53,10.68c0.53,5.66,5.06,10.29,10.71,10.92c7.36,0.82,13.58-4.91,13.58-12.1
		C1127.77,254.19,1125.95,250.74,1123.13,248.51z"/>
	<path class="st35" d="M1108.56,239.28c0,1.17,0.29,2.28,0.8,3.25c1.09,2.07,0.46,4.57-1.36,6.03c-3.07,2.45-4.93,6.36-4.53,10.68
		c0.53,5.66,5.06,10.29,10.71,10.92c1.73,0.19,3.39,0.02,4.92-0.44c-16.59-4.98-5.23-24.29-5.89-28.17
		c-0.39-2.29,0.61-4.25,1.55-5.53h-5.4C1108.86,236.99,1108.56,238.1,1108.56,239.28z"/>
</g>
<polygon class="st37" points="1229.72,188.7 1170.28,129.25 1229.72,129.25 "/>
<path class="st38" d="M1326.17,413.63c-15.62,5.36-20.85,17.8-22.59,26.01c1.58-16.24,4.22-51.47-4.02-39.39
	c-5.5,8.07-6.51,18.01-1.07,35.28c-2.82-3.69-7.54-7.08-15.43-8.2c-19.91-2.83,17.26,12.27,19.64,20.13c0,0,0-0.09,0-0.25
	c0,0,0,0.01,0,0.01c0,0.15,0,0.24,0,0.24c0.01-0.04,0.03-0.09,0.04-0.14c0.01,0.01,0.01,0.03,0.02,0.04c0,0,0.01-0.06,0.02-0.19
	C1306.08,434.9,1350.29,405.34,1326.17,413.63z"/>
<path class="st39" d="M1361.07,430.42c-7.69,2.64-10.26,8.76-11.12,12.8c0.78-7.99,2.08-25.33-1.98-19.38
	c-2.71,3.97-3.2,8.86-0.52,17.36c-1.39-1.82-3.71-3.49-7.59-4.04c-9.8-1.39,8.49,6.04,9.67,9.91c0,0,0-0.05,0-0.12c0,0,0,0,0,0.01
	c0,0.07,0,0.12,0,0.12c0-0.02,0.01-0.05,0.02-0.07c0,0.01,0.01,0.01,0.01,0.02c0,0,0-0.03,0.01-0.09
	C1351.18,440.89,1372.94,426.35,1361.07,430.42z"/>
<path class="st39" d="M54.72,413.63c-15.62,5.36-20.85,17.8-22.59,26.01c1.58-16.24,4.22-51.47-4.02-39.39
	c-5.5,8.07-6.51,18.01-1.07,35.28c-2.82-3.69-7.54-7.08-15.43-8.2c-19.91-2.83,17.26,12.27,19.64,20.13c0,0,0-0.09,0-0.25
	c0,0,0,0.01,0,0.01c0,0.15,0,0.24,0,0.24c0.01-0.04,0.03-0.09,0.04-0.14c0.01,0.01,0.01,0.03,0.02,0.04c0,0,0.01-0.06,0.02-0.19
	C34.63,434.9,78.83,405.34,54.72,413.63z"/>
<path class="st38" d="M150.59,424.53c-10.59,3.64-14.13,12.07-15.31,17.63c1.07-11.01,2.86-34.89-2.73-26.7
	c-3.73,5.47-4.41,12.21-0.72,23.91c-1.91-2.5-5.11-4.8-10.46-5.56c-13.5-1.92,11.7,8.32,13.31,13.65c0,0,0-0.06,0-0.17
	c0,0,0,0,0,0.01c0,0.1,0,0.16,0,0.16c0.01-0.03,0.02-0.06,0.03-0.09c0,0.01,0.01,0.02,0.01,0.03c0,0,0.01-0.04,0.01-0.13
	C136.98,438.95,166.94,418.91,150.59,424.53z"/>
<path class="st38" d="M1140.12,166l1.16-1.8c0.57-0.89,1.95-0.45,1.9,0.6l-0.09,2.14c-0.02,0.37,0.16,0.72,0.48,0.92l1.8,1.16
	c0.89,0.57,0.45,1.95-0.6,1.9l-2.14-0.09c-0.37-0.02-0.72,0.16-0.92,0.48l-1.16,1.8c-0.57,0.89-1.95,0.45-1.9-0.6l0.09-2.14
	c0.02-0.37-0.16-0.72-0.48-0.92l-1.8-1.16c-0.89-0.57-0.45-1.95,0.6-1.9l2.14,0.09C1139.57,166.5,1139.92,166.31,1140.12,166z"/>
<path class="st38" d="M545.16,246.6l1.16-1.8c0.57-0.89,1.95-0.45,1.9,0.6l-0.09,2.14c-0.02,0.37,0.16,0.72,0.48,0.92l1.8,1.16
	c0.89,0.57,0.45,1.95-0.6,1.9l-2.14-0.09c-0.37-0.02-0.72,0.16-0.92,0.48l-1.16,1.8c-0.57,0.89-1.95,0.45-1.9-0.6l0.09-2.14
	c0.02-0.37-0.16-0.72-0.48-0.92l-1.8-1.16c-0.89-0.57-0.45-1.95,0.6-1.9l2.14,0.09C544.61,247.09,544.96,246.91,545.16,246.6z"/>
<path class="st38" d="M49.87,158.36l1.16-1.8c0.57-0.89,1.95-0.45,1.9,0.6l-0.09,2.14c-0.02,0.37,0.16,0.72,0.48,0.92l1.8,1.16
	c0.89,0.57,0.45,1.95-0.6,1.9l-2.14-0.09c-0.37-0.02-0.72,0.16-0.92,0.48l-1.16,1.8c-0.57,0.89-1.95,0.45-1.9-0.6l0.09-2.14
	c0.02-0.37-0.16-0.72-0.48-0.92l-1.8-1.16c-0.89-0.57-0.45-1.95,0.6-1.9l2.14,0.09C49.32,158.85,49.67,158.67,49.87,158.36z"/>
<path class="st38" d="M1332.54,130.64l1.16-1.8c0.57-0.89,1.95-0.45,1.9,0.6l-0.09,2.14c-0.02,0.37,0.16,0.72,0.48,0.92l1.8,1.16
	c0.89,0.57,0.45,1.95-0.6,1.9l-2.14-0.09c-0.37-0.02-0.72,0.16-0.92,0.48l-1.16,1.8c-0.57,0.89-1.95,0.45-1.9-0.6l0.09-2.14
	c0.02-0.37-0.16-0.72-0.48-0.92l-1.8-1.16c-0.89-0.57-0.45-1.95,0.6-1.9l2.14,0.09C1332,131.13,1332.34,130.95,1332.54,130.64z"/>
<path class="st38" d="M1329.67,328.77l-1.44-2.51c-0.71-1.24,0.67-2.62,1.91-1.91l2.51,1.44c0.43,0.25,0.96,0.25,1.39,0l2.51-1.44
	c1.24-0.71,2.62,0.67,1.91,1.91l-1.44,2.51c-0.25,0.43-0.25,0.96,0,1.39l1.44,2.51c0.71,1.24-0.67,2.62-1.91,1.91l-2.51-1.44
	c-0.43-0.25-0.96-0.25-1.39,0l-2.51,1.44c-1.24,0.71-2.62-0.67-1.91-1.91l1.44-2.51C1329.92,329.73,1329.92,329.2,1329.67,328.77z"
	/>
<g>
	<path class="st13" d="M1196.43,286.29l-1.47-2.55c-0.72-1.26,0.68-2.66,1.94-1.94l2.55,1.47c0.44,0.25,0.98,0.25,1.42,0l2.55-1.47
		c1.26-0.72,2.66,0.68,1.94,1.94l-1.47,2.55c-0.25,0.44-0.25,0.98,0,1.42l1.47,2.55c0.72,1.26-0.68,2.66-1.94,1.94l-2.55-1.47
		c-0.44-0.25-0.98-0.25-1.42,0l-2.55,1.47c-1.26,0.72-2.66-0.68-1.94-1.94l1.47-2.55C1196.68,287.27,1196.68,286.73,1196.43,286.29z
		"/>
</g>
<path class="st38" d="M67.37,385.38l-1.44-2.51c-0.71-1.24,0.67-2.62,1.91-1.91l2.51,1.44c0.43,0.25,0.96,0.25,1.39,0l2.51-1.44
	c1.24-0.71,2.62,0.67,1.91,1.91l-1.44,2.51c-0.25,0.43-0.25,0.96,0,1.39l1.44,2.51c0.71,1.24-0.67,2.62-1.91,1.91l-2.51-1.44
	c-0.43-0.25-0.96-0.25-1.39,0l-2.51,1.44c-1.24,0.71-2.62-0.67-1.91-1.91l1.44-2.51C67.62,386.35,67.62,385.81,67.37,385.38z"/>
<g>
	<path class="st13" d="M1283.86,229.62l-0.16-1.96c-0.08-0.97,1.17-1.41,1.73-0.62l1.12,1.62c0.19,0.28,0.52,0.43,0.86,0.41
		l1.96-0.16c0.97-0.08,1.41,1.17,0.62,1.73l-1.62,1.12c-0.28,0.19-0.43,0.52-0.41,0.86l0.16,1.96c0.08,0.97-1.17,1.41-1.73,0.62
		l-1.12-1.62c-0.19-0.28-0.52-0.43-0.86-0.41l-1.96,0.16c-0.97,0.08-1.41-1.17-0.62-1.73l1.62-1.12
		C1283.74,230.28,1283.89,229.96,1283.86,229.62z"/>
</g>
<g>
	<path class="st13" d="M70.9,260.81l-0.16-1.96c-0.08-0.97,1.17-1.41,1.73-0.62l1.12,1.62c0.19,0.28,0.52,0.43,0.86,0.41l1.96-0.16
		c0.97-0.08,1.41,1.17,0.62,1.73l-1.62,1.12c-0.28,0.19-0.43,0.52-0.41,0.86l0.16,1.96c0.08,0.97-1.17,1.41-1.73,0.62l-1.12-1.62
		c-0.19-0.28-0.52-0.43-0.86-0.41l-1.96,0.16c-0.97,0.08-1.41-1.17-0.62-1.73l1.62-1.12C70.77,261.47,70.92,261.15,70.9,260.81z"/>
</g>
<g>
	<path class="st13" d="M422.7,375.72l-0.44-2.5c-0.22-1.23,1.34-1.96,2.14-1l1.64,1.94c0.28,0.33,0.72,0.49,1.15,0.42l2.5-0.44
		c1.23-0.22,1.96,1.34,1,2.14l-1.94,1.64c-0.33,0.28-0.49,0.72-0.42,1.15l0.44,2.5c0.22,1.23-1.34,1.96-2.14,1l-1.64-1.94
		c-0.28-0.33-0.72-0.49-1.15-0.42l-2.5,0.44c-1.23,0.22-1.96-1.34-1-2.14l1.94-1.64C422.62,376.59,422.78,376.15,422.7,375.72z"/>
</g>
<g>
	<path class="st16" d="M902.25,455.65c0,0-2.64,4.57-7.35,6.55c-4.71,1.98-4.96,2.71-5.38,3.94s19.7,1.39,24.24-0.63
		c0,0,2.27-4.17,0.58-9.44C912.65,450.81,902.25,455.65,902.25,455.65z"/>
	<path class="st16" d="M926.41,455.65c0,0-2.64,4.57-7.35,6.55c-4.71,1.98-4.96,2.71-5.38,3.94s19.7,1.39,24.24-0.63
		c0,0,2.27-4.17,0.58-9.44C936.8,450.81,926.41,455.65,926.41,455.65z"/>
	<path class="st23" d="M900.35,349.31l2.48,106.47c0,0,10.4,2.56,11.78,1.23s9.83-63.87,9.83-63.87l-11.58-44.67L900.35,349.31z"/>
	<path class="st39" d="M909.34,350.78c0,0,10.3,97.16,17.84,104.55c0,0,6.74,3.2,10.8-0.48c0,0,2.91-94.66-0.56-101.65
		C933.95,346.21,909.34,350.78,909.34,350.78z"/>
	<path class="st23" d="M906.82,304.02c0,0-4.21-4.4-3.92-7.64c0.29-3.24,6.62-8.73,5.14-15.02c-1.47-6.3-4-12.21,1.63-17.43
		c5.63-5.22,16-4.77,20.32-0.66c4.32,4.11,9.3,14.32,15.74,17.22c6.44,2.89,14.24,6.77,13.87,13s-4.57,5.45-3.84,8.63
		s4.85,9-0.33,11.32s-8.46,1.38-9.12,1.29C945.64,314.63,906.82,304.02,906.82,304.02z"/>
	<path class="st18" d="M871.86,305.11c0,0-2.8-8.75-3.55-8.98c-0.76-0.23-1.39,2.23-1.39,2.67s-5.89-2.78-6.86-3.97
		s-3.08,0.43-2.46,3.18c0.61,2.75,4.84,8.95,8.19,10.96C869.13,310.98,871.86,305.11,871.86,305.11z"/>
	<path class="st34" d="M910.57,295.22c0,0-22.29,16.11-23.86,17.68c0,0-13.81-6.79-14.84-9.11c0,0-4.84,4.27-5.88,6.8
		c0,0,13.83,12.81,21.76,15.3c7.93,2.5,23.57-15.44,23.57-15.44L910.57,295.22z"/>
	<path class="st12" d="M927.42,291.99c0.38-0.22,10.69,5.17,11.22,6.54c0.54,1.36-3.73,43.93,0,58.21c0,0-26.25,10.67-38.77-7.87
		c0,0,2.73-12.77,1.73-19.95c-1-7.19,4.93-32.35,8.96-33.7c4.03-1.36,9.13-3.42,10.37-3.22
		C922.18,292.19,927.42,291.99,927.42,291.99z"/>
	<path class="st34" d="M911.98,322.97l-9.68-4.13c0,0-0.35,1.7-0.24,2.58c0.11,0.88,9.05,5.49,14.41,11.11
		c4.88,5.11,11.58,10.61,20.68,9.75l-0.09-2.96l-5.82-5.07L911.98,322.97z"/>
	<path class="st34" d="M936.01,297.58c0,0-4.16,1.17-6.05,21.32c-0.7,7.5-0.5,8.9-0.5,8.9h3.37L936.01,297.58z"/>
	<path class="st18" d="M914.04,319.29c0,0-2.58-2.09-3.22-3.3s-0.35-5.08-1.08-5.95s-2.03,2.16-2.03,2.16s-5.2-1.5-6.08-3.02
		c-0.88-1.52-3.02,0.81-3.41,2.31s4.18,8.11,6.35,9.68s7.37,3.56,7.37,3.56L914.04,319.29z"/>
	<path class="st12" d="M913.54,316.61c0,0-4.19,5.1-3.6,7.58c0,0,15.37,17.08,27.29,15.98c11.91-1.09,8.83-24.6,8.19-27.93
		c-1.12-5.85-4.64-14.4-9.04-14.66s-4.17,25.86-4.55,27.47C931.5,326.39,915.28,318.53,913.54,316.61z"/>
	<path class="st34" d="M930.69,293.45c0,0-3.68,8.32-10.57,7.06c-4.39-0.8-4.13-7.06-4.13-7.06s3.42-1.31,3.62-1.47
		c0.2-0.16,8.2,0,8.2,0L930.69,293.45z"/>
	<g>
		<circle class="st40" cx="929.64" cy="305.26" r="1.05"/>
		<circle class="st40" cx="933.53" cy="297.58" r="1.05"/>
		<circle class="st40" cx="923.15" cy="306.31" r="1.05"/>
		<circle class="st40" cx="926.52" cy="319.49" r="1.05"/>
		<circle class="st40" cx="931.21" cy="345.43" r="1.05"/>
		<circle class="st40" cx="939.25" cy="309.02" r="1.05"/>
		<circle class="st40" cx="943.05" cy="312.69" r="1.05"/>
		<circle class="st40" cx="937.44" cy="300.2" r="1.05"/>
		<circle class="st40" cx="935.64" cy="305.06" r="1.05"/>
		<circle class="st40" cx="936.01" cy="312.39" r="1.05"/>
		<circle class="st40" cx="939.63" cy="316.22" r="1.05"/>
		<circle class="st40" cx="940.14" cy="323.5" r="1.05"/>
		<circle class="st40" cx="938.69" cy="328.86" r="1.05"/>
		<circle class="st40" cx="943.43" cy="319.89" r="1.05"/>
		<circle class="st40" cx="944.1" cy="328.23" r="1.05"/>
		<circle class="st40" cx="940.68" cy="333.58" r="1.05"/>
		<circle class="st40" cx="936.39" cy="319.59" r="1.05"/>
		<circle class="st40" cx="934.29" cy="326.13" r="1.05"/>
		<circle class="st40" cx="934.54" cy="331.88" r="1.05"/>
		<circle class="st40" cx="928.74" cy="335.02" r="1.05"/>
		<circle class="st40" cx="935.59" cy="337.13" r="1.05"/>
		<circle class="st40" cx="929.11" cy="329.05" r="1.05"/>
		<circle class="st40" cx="924.42" cy="330.59" r="1.05"/>
		<circle class="st40" cx="926.52" cy="342.86" r="1.05"/>
		<circle class="st40" cx="923.37" cy="346.61" r="1.05"/>
		<circle class="st40" cx="925.85" cy="352.69" r="1.05"/>
		<circle class="st40" cx="923.75" cy="356" r="1.05"/>
		<circle class="st40" cx="931.21" cy="356" r="1.05"/>
		<circle class="st40" cx="917.82" cy="337.56" r="1.05"/>
		<circle class="st40" cx="932.7" cy="351.64" r="1.05"/>
		<circle class="st40" cx="928.01" cy="349.07" r="1.05"/>
		<circle class="st40" cx="920.59" cy="349.54" r="1.05"/>
		<circle class="st40" cx="914.67" cy="349.13" r="1.05"/>
		<circle class="st40" cx="909.88" cy="347.53" r="1.05"/>
		<circle class="st40" cx="907.81" cy="351.64" r="1.05"/>
		<circle class="st40" cx="910.93" cy="343.33" r="1.05"/>
		<circle class="st40" cx="906.97" cy="344.64" r="1.05"/>
		<circle class="st40" cx="903.55" cy="349.13" r="1.05"/>
		<circle class="st40" cx="907.81" cy="338.93" r="1.05"/>
		<circle class="st40" cx="903.82" cy="342.28" r="1.05"/>
		<circle class="st40" cx="909.41" cy="334.24" r="1.05"/>
		<circle class="st40" cx="904.87" cy="334.86" r="1.05"/>
		<circle class="st40" cx="914.23" cy="332.14" r="1.05"/>
		<circle class="st40" cx="907.81" cy="329.54" r="1.05"/>
		<circle class="st40" cx="905.06" cy="325.36" r="1.05"/>
		<circle class="st40" cx="920.33" cy="329.05" r="1.05"/>
		<circle class="st40" cx="921.64" cy="341.81" r="1.05"/>
		<circle class="st40" cx="916.77" cy="343.91" r="1.05"/>
		<circle class="st40" cx="913.62" cy="338.93" r="1.05"/>
		<circle class="st40" cx="917.82" cy="353.74" r="1.05"/>
		<circle class="st40" cx="912.36" cy="354.58" r="1.05"/>
		<circle class="st40" cx="924.8" cy="325.61" r="1.05"/>
		<circle class="st40" cx="919.54" cy="324.02" r="1.05"/>
		<circle class="st40" cx="914.73" cy="325.36" r="1.05"/>
		<circle class="st40" cx="915.78" cy="321.15" r="1.05"/>
		<circle class="st40" cx="941.19" cy="304.82" r="1.05"/>
		<circle class="st40" cx="928.06" cy="311.14" r="1.05"/>
		<circle class="st40" cx="921.91" cy="312.56" r="1.05"/>
		<circle class="st40" cx="915.42" cy="313.61" r="1.05"/>
		<circle class="st40" cx="920.33" cy="318.44" r="1.05"/>
		<circle class="st40" cx="917.75" cy="302.09" r="1.05"/>
		<circle class="st40" cx="928.06" cy="300.2" r="1.05"/>
		<circle class="st40" cx="911.26" cy="303.14" r="1.05"/>
		<circle class="st40" cx="903.79" cy="302.82" r="1.05"/>
		<circle class="st40" cx="899.88" cy="305.42" r="1.05"/>
		<circle class="st40" cx="896.09" cy="308.41" r="1.05"/>
		<circle class="st40" cx="896.09" cy="312.33" r="1.05"/>
		<circle class="st40" cx="898.52" cy="317.39" r="1.05"/>
		<circle class="st40" cx="891.35" cy="312.04" r="1.05"/>
		<circle class="st40" cx="885.55" cy="314.43" r="1.05"/>
		<circle class="st40" cx="881.03" cy="313.38" r="1.05"/>
		<circle class="st40" cx="877.46" cy="315.29" r="1.05"/>
		<circle class="st40" cx="872.8" cy="312.56" r="1.05"/>
		<circle class="st40" cx="877.46" cy="311.28" r="1.05"/>
		<circle class="st40" cx="874.24" cy="307.97" r="1.05"/>
		<circle class="st40" cx="893.99" cy="316.03" r="1.05"/>
		<circle class="st40" cx="893.99" cy="320.7" r="1.05"/>
		<circle class="st40" cx="890.3" cy="317.39" r="1.05"/>
		<circle class="st40" cx="886.6" cy="319.49" r="1.05"/>
		<circle class="st40" cx="882.08" cy="319.05" r="1.05"/>
		<circle class="st40" cx="889.7" cy="322.8" r="1.05"/>
		<circle class="st40" cx="903.12" cy="306.79" r="1.05"/>
		<circle class="st40" cx="912.31" cy="298.1" r="1.05"/>
		<circle class="st40" cx="916.17" cy="307.97" r="1.05"/>
		<circle class="st40" cx="909.16" cy="308.69" r="1.05"/>
	</g>
	<path class="st18" d="M907.62,273.44c0,0,2.7,16.34,5.18,17.41c2.48,1.06,3.91,0.41,4.88,0c0.97-0.41-0.37,5.77-0.63,6.44
		c-0.26,0.67,5.07,2.08,7.71,0.21s4.3-2.62,3.7-3.98c-0.6-1.36-2.32-6.8-2.46-7.84s3.87-2.27,1.63-5.5
		c-2.24-3.23-4.42-0.72-4.42-0.72s-0.38-1.01-1.12-2.73C921.36,275,911.85,277.64,907.62,273.44z"/>
</g>
<g>
	<g>
		<path class="st20" d="M867.81,432.81l0.07,0.05c0.89,0.64,2.13,0.44,2.77-0.45l27.9-38.8c0.64-0.89,0.44-2.13-0.45-2.77
			l-0.07-0.05c-0.89-0.64-2.13-0.44-2.77,0.45l-27.9,38.8C866.72,430.93,866.92,432.17,867.81,432.81z"/>
	</g>
	<g>
		<path class="st20" d="M842.41,432.71l-0.07,0.05c-0.89,0.64-2.13,0.44-2.77-0.45l-27.83-38.7c-0.64-0.89-0.44-2.13,0.45-2.77
			l0.07-0.05c0.89-0.64,2.13-0.44,2.77,0.45l27.83,38.7C843.5,430.84,843.29,432.08,842.41,432.71z"/>
	</g>
	<g>
		<path class="st41" d="M884.46,471.54l-0.07,0.04c-0.96,0.53-2.16,0.17-2.69-0.79l-16.98-31.07c-0.53-0.96-0.17-2.16,0.79-2.69
			l0.07-0.04c0.96-0.53,2.16-0.17,2.69,0.79l16.98,31.07C885.77,469.81,885.42,471.01,884.46,471.54z"/>
	</g>
	<g>
		<path class="st41" d="M825.63,471.54l0.07,0.04c0.96,0.53,2.16,0.17,2.69-0.79l16.98-31.07c0.53-0.96,0.17-2.16-0.79-2.69
			l-0.07-0.04c-0.96-0.53-2.16-0.17-2.69,0.79l-16.98,31.07C824.32,469.81,824.67,471.01,825.63,471.54z"/>
	</g>
	<g>
		<path class="st41" d="M928.8,382.39v5.58c0,2.92-33.49,5.29-74.8,5.29s-74.8-2.37-74.8-5.29v-5.58H928.8z"/>
	</g>
	<g>
		<ellipse class="st7" cx="854.01" cy="382.68" rx="74.8" ry="5.29"/>
	</g>
	<g>
		<path class="st41" d="M839.66,433.87c0-3.81,7.79-5.81,15.48-5.81c7.69,0,15.48,1.99,15.48,5.81c0,3.81-7.79,5.81-15.48,5.81
			C847.45,439.68,839.66,437.68,839.66,433.87z M841.74,433.87c0,1.52,5.22,3.73,13.4,3.73s13.4-2.21,13.4-3.73
			c0-1.52-5.22-3.73-13.4-3.73S841.74,432.35,841.74,433.87z"/>
	</g>
	<g>
		<path class="st20" d="M854.05,438.78h0.08c1.09,0,1.98-0.89,1.98-1.98v-43.45c0-1.09-0.89-1.98-1.98-1.98h-0.08
			c-1.09,0-1.98,0.89-1.98,1.98v43.45C852.07,437.9,852.96,438.78,854.05,438.78z"/>
	</g>
</g>
<g>
	<polygon class="st38" points="811.74,379.4 839.01,379.73 839.01,376.16 835.19,376.16 	"/>
	<polygon class="st13" points="861.28,381.66 833.91,381.66 842.58,349.27 869.95,349.27 	"/>
	<rect x="811.74" y="379.4" class="st9" width="22.81" height="2.25"/>
	
		<ellipse transform="matrix(0.1829 -0.9831 0.9831 0.1829 338.2932 1136.2974)" class="st41" cx="852.77" cy="364.62" rx="2.96" ry="1.32"/>
</g>
<g>
	<path class="st13" d="M879.42,280.21l-10.13-7.97c0.02-0.26,0.04-0.52,0.04-0.78v-11.75c0-11.32-9.18-20.5-20.5-20.5H838.3
		c-11.32,0-20.5,9.18-20.5,20.5v0c0,11.32,9.18,20.5,20.5,20.5h22.28c0.18,0,0.36-0.02,0.54-0.03v0.03H879.42z"/>
	<circle class="st9" cx="834.59" cy="259.71" r="2.15"/>
	<circle class="st9" cx="843.73" cy="259.71" r="2.15"/>
	<circle class="st9" cx="852.87" cy="259.71" r="2.15"/>
</g>
<polygon class="st9" points="457.06,447.46 158.1,447.46 457.06,179.39 "/>
<g>
	<path class="st12" d="M1030.51,472.85L1030.51,472.85c0.77,0.04,1.42-0.79,1.43-1.81l0.79-49.95l-4.56,0.31l1.07,49.74
		C1029.25,472.08,1029.81,472.82,1030.51,472.85z"/>
	<path class="st12" d="M1065.6,472.6L1065.6,472.6c0.76-0.06,1.31-0.99,1.2-2.06l-5.31-52.07l-4.49,0.9l7.13,51.62
		C1064.26,471.95,1064.9,472.66,1065.6,472.6z"/>
	<path class="st13" d="M1070.64,353.78c-0.28,0.21-1.68-1.35-9.39-0.34s-13.86,51.92-13.86,51.92l-4.57,10.01l6.19,3.6
		c0,0,11.03,2.42,15.01-3.87c3.98-6.29,8.78-24.27,8.78-24.27l1.19-26.95L1070.64,353.78z"/>
	<path class="st16" d="M979.47,453.15c-0.13,0.25-1.66,2.53-1.66,2.53s-2.75,4.58-8.03,7.43c-5.29,2.85-10.7,3.6-11.51,5.21
		c-0.81,1.61,0,2.53,0,2.53s20.64,1.06,21.62-0.07s2.55-2.35,2.55-2.35s0.42,2.81,1.29,3.01c0.87,0.2,8.99-0.36,8.99-0.36
		s0.94-8.47,0.34-10.4s-2.5-5.62-2.5-5.62L979.47,453.15z"/>
	<path class="st16" d="M1010.7,454.66c-0.13,0.25-1.66,2.53-1.66,2.53s-2.75,4.58-8.03,7.43s-10.7,3.6-11.51,5.21
		c-0.81,1.61,0,2.53,0,2.53s20.64,1.06,21.62-0.07s2.55-2.35,2.55-2.35s0.42,2.81,1.29,3.01c0.87,0.2,8.99-0.36,8.99-0.36
		s0.94-8.47,0.34-10.4c-0.6-1.93-2.5-5.62-2.5-5.62L1010.7,454.66z"/>
	<path class="st42" d="M1023.89,389.39c-1.47,0-41.31,1.33-42.47,13.94s-3.62,52.34-3.62,52.34s9.22,3.8,12.95,1.01
		c3.73-2.79,6.58-38.27,6.58-38.27l6.46-2.87l27.3-19.42l2.03-5.29L1023.89,389.39z"/>
	<path class="st34" d="M1021.51,341.84h-1.92c0,0-3.16,1.82-5.46,6.55c-1.42,2.9-1.64,19.95-1.35,25.02s-7.9,13.98-7.9,13.98
		l3.35,2.42l8.32-1.13l7.26-5.39L1021.51,341.84z"/>
	<path class="st12" d="M1024.93,337.28c0,0-8.96,7.02-9.54,9.57s1.97,11.31,3.01,17.65c1.03,6.34,2.48,26.67,2.67,27.61
		c0.19,0.94,28.95,2.83,37.94-0.02c0,0,1.21-28.87-13.85-54.11c0,0-5.77-4.5-9.9-3.69C1031.12,335.11,1024.93,337.28,1024.93,337.28
		z"/>
	<path class="st43" d="M1022.23,383.54c-0.55,0.37-9.13,0.32-10.97,1.63c-1.84,1.3-3.59,2.79-3.95,3.62
		c-0.37,0.83,0.41,3.73,0.57,3.71c0.16-0.02,2.64,0.53,5.76-0.4c3.13-0.93,10.45-0.52,10.9-0.65
		C1024.99,391.32,1022.23,383.54,1022.23,383.54z"/>
	<path class="st19" d="M1059.01,392.1c0,0,4.18,25.22-17.31,25.7c-21.48,0.47-22.03,0.29-22.03,0.29s5.29,26.01,3.22,42.4
		c0,0-6.86,1.17-13.31-2.28c0,0-5.21-31.19-10.63-43.11c-5.43-11.92,4.22-18.44,9.74-18.98c5.52-0.53,25.67-2.67,25.88-2.66
		S1057.32,390.23,1059.01,392.1z"/>
	<path class="st14" d="M1070.52,353.78c0,0,4.34,33.06-2.68,48.1c-7.02,15.05-8.15,14.59-21.4,15.34
		c-13.25,0.75-26.76,0.87-26.76,0.87l0.66,4.65c0,0,34.58-0.06,39.84-2.1s9.04-10.56,11.99-18.02c3.19-8.05,4.62-17.35,3.88-30.77
		C1075.3,358.42,1075.88,354.66,1070.52,353.78z"/>
	<path class="st13" d="M970.21,392.99h38.68l-6.68-31.85c-0.24-1.13-1.22-1.94-2.35-1.94H966.1c-1.53,0-2.67,1.44-2.35,2.97
		L970.21,392.99z"/>
	<path class="st23" d="M1033.64,331.81c0,0,2.43-1.31,3.45-4.72c1.02-3.41,3.03-7.09,2.17-13.47s-8.97-8.87-13.13-8.81
		c-4.16,0.06-7.94,2.28-9.66,2.27c-1.72-0.01-4.62,0.2-4.62,0.2s0.25,5.75,2.81,8.65S1033.64,331.81,1033.64,331.81z"/>
	<path class="st18" d="M1014.64,315.94c0,0-0.21,16.33,3.11,18.65c3.32,2.32,6.25,1.77,6.25,1.77l0.21,3.92c0,0,2.48,1.37,5.33-0.25
		c2.85-1.62,5.71-5.72,5.71-5.72l-0.53-3.49c0,0-1.52-3.04-1.44-3.9c0.09-0.87,3-2.22,0.42-4.78c-2.59-2.55-3.81,1.52-3.81,1.52
		s-2.96-1.81-3.44-5.49C1026.46,318.15,1017.16,319.17,1014.64,315.94z"/>
	<path class="st44" d="M1045.16,337.99c0,0,8.9,6.59,13.29,11.81c7.23,8.59,14.75,23.5,9.79,29.88s-28.59,12.19-41.88,12.83h-2.56
		c0,0-3.52-5.16-1.57-11.46c0,0,13.23-0.63,28.25-10.88c0,0-12.57-13.93-11.56-21.25C1039.92,341.59,1041.64,339.03,1045.16,337.99z
		"/>
	
		<ellipse transform="matrix(0.9886 -0.1506 0.1506 0.9886 -45.4064 152.4204)" class="st45" cx="983.94" cy="376.09" rx="1.87" ry="3.15"/>
</g>
<g>
	<g>
		<path class="st46" d="M109.01,346.73v-142.2c0-17.81,14.44-32.25,32.25-32.25h214.82c17.81,0,32.25,14.44,32.25,32.25v142.2
			c0,17.81-14.44,32.25-32.25,32.25H141.26C123.45,378.97,109.01,364.54,109.01,346.73z"/>
		<path class="st47" d="M138.97,179.99h219.39c12.29,0,22.25,9.96,22.25,22.25v146.78c0,12.29-9.96,22.25-22.25,22.25H138.97
			c-12.29,0-22.25-9.96-22.25-22.25V202.24C116.73,189.95,126.69,179.99,138.97,179.99z"/>
		<path class="st47" d="M294.67,447.46h6.06l-34.03-58.79h11.36c4.6,0,8.32-3.73,8.32-8.32v-1.37h-75.41v1.37
			c0,4.6,3.73,8.32,8.32,8.32h9.55l-34.03,58.79h6.06l34.03-58.79h25.75L294.67,447.46z"/>
		<path class="st48" d="M133.88,179.99c-9.47,0-17.15,7.68-17.15,17.15v156.97c0,5.43,2.52,10.26,6.46,13.4l250.98-183.77
			c-2.93-2.34-6.65-3.75-10.7-3.75H133.88z"/>
		<path class="st49" d="M152.29,192.24h192.76c12.29,0,22.25,9.96,22.25,22.25v122.28c0,12.29-9.96,22.25-22.25,22.25H152.29
			c-12.29,0-22.25-9.96-22.25-22.25V214.48C130.04,202.2,140,192.24,152.29,192.24z"/>
	</g>
	<path class="st46" d="M266.77,184.1h-36.2c-6.4,0-11.59-5.19-11.59-11.59v-0.24h59.37v0.24
		C278.35,178.92,273.17,184.1,266.77,184.1z"/>
</g>
<g>
	<g>
		<path class="st50" d="M556.34,427.86c0,0,0.37-31.06,14.19-39.99s19.81-4.77,22.99-13.09c3.18-8.32,7.58,4.28,4.28,16.39
			s-10.39,10.39-14.92,14.19c-4.52,3.79-1.12,11.62-15.66,17.85S556.34,427.86,556.34,427.86z"/>
	</g>
	<g>
		<path class="st13" d="M564.76,419.26l-0.75-0.18c2.67-10.91,9.57-19.42,18.93-23.35c9.11-3.83,11.75-16.19,11.77-16.31l0.76,0.16
			c-0.03,0.13-2.75,12.89-12.23,16.87C574.11,400.27,567.38,408.59,564.76,419.26z"/>
	</g>
	<g>
		<path class="st19" d="M551.2,425.54c0,0,5.63-12.6-3.79-20.3s-12.96-9.29-14.67-19.57c-1.71-10.27-6.6-22.01-15.16-24.82
			c-8.56-2.81,3.06,10.27,0.98,17.12c-2.08,6.85-3.06,11.25,2.93,17.85c5.99,6.6,1.35,12.84,5.01,20.18s5.63,10.39,12.47,9.54
			C545.82,424.68,551.2,425.54,551.2,425.54z"/>
	</g>
	<g>
		<path class="st38" d="M541.54,417.46c0,0-7.34-18.83-0.73-25.56c6.6-6.73,11.13-9.42,8.32-17c-2.81-7.58,2.69-20.42,5.01-23.11
			c2.32-2.69,10.52-11.62,9.42-16.02c-1.1-4.4,9.17-4.77,9.05,4.77c-0.12,9.54,7.34,18.95,2.08,29.84s-11.25,17.12-9.05,23.72
			c2.2,6.6,8.19,17.98,1.1,29.96C559.64,436.05,541.54,426.64,541.54,417.46z"/>
	</g>
	<g>
		<path class="st35" d="M553.91,423.5c-0.13,0-0.26-0.09-0.28-0.23c-1.62-7.98-1.91-33.25,6.95-48.47
			c8.51-14.6,7.33-35.24,7.31-35.45c-0.01-0.16,0.11-0.3,0.27-0.31c0.15-0.02,0.3,0.11,0.31,0.27c0.01,0.21,1.2,21.02-7.39,35.77
			c-8.79,15.08-8.49,40.15-6.89,48.07c0.03,0.16-0.07,0.31-0.23,0.34C553.94,423.5,553.93,423.5,553.91,423.5z"/>
	</g>
	<g>
		<path class="st38" d="M543.77,423.5c-0.06,0-0.12-0.02-0.18-0.06c-10.46-8.07-15.85-27.29-16.79-37.51
			c-0.99-10.75-7.67-20.24-7.73-20.33c-0.09-0.13-0.06-0.31,0.07-0.4c0.13-0.09,0.31-0.06,0.4,0.07c0.07,0.1,6.83,9.71,7.84,20.61
			c0.93,10.13,6.26,29.16,16.57,37.11c0.13,0.1,0.15,0.28,0.05,0.41C543.95,423.46,543.86,423.5,543.77,423.5z"/>
	</g>
	<g>
		<path class="st39" d="M571.92,424.63c-0.02-0.79-0.67-1.41-1.46-1.41h-18.89h-0.58H532.1c-0.79,0-1.44,0.62-1.46,1.41
			c-0.06,2.16-0.08,6.5,0.46,10.98c0.61,4.99,2.08,9.07,2.79,10.82c0.22,0.56,0.76,0.92,1.36,0.92h15.74h0.58h15.74
			c0.6,0,1.13-0.36,1.36-0.92c0.71-1.75,2.18-5.83,2.79-10.82C572,431.13,571.98,426.79,571.92,424.63z"/>
	</g>
</g>
<g>
	<g>
		<g>
			<path class="st38" d="M1176.83,433.52c-0.18,0-0.34-0.14-0.35-0.32c-3.78-38.28,27.63-71.83,27.95-72.17
				c0.14-0.14,0.36-0.15,0.5-0.01c0.14,0.14,0.15,0.36,0.01,0.5c-0.32,0.33-31.5,33.65-27.75,71.61c0.02,0.2-0.12,0.37-0.32,0.39
				C1176.85,433.52,1176.84,433.52,1176.83,433.52z"/>
		</g>
		<g>
			<path class="st38" d="M1183.91,393.71c0,0,9.89-23.68,22.35-12.41C1212.16,386.64,1197.32,385.05,1183.91,393.71z"/>
		</g>
		<g>
			<path class="st38" d="M1183.96,393.01c0,0,5.57-25.05-11.11-23.02C1164.94,370.95,1177.99,378.2,1183.96,393.01z"/>
		</g>
		<g>
			<path class="st38" d="M1194.53,374.08c0,0,14.78-20.98,24.51-7.27C1223.64,373.29,1209.49,368.52,1194.53,374.08z"/>
		</g>
		<g>
			<path class="st38" d="M1194.72,373.4c0,0,10.86-23.25-5.86-24.88C1180.94,347.75,1192.11,357.66,1194.72,373.4z"/>
		</g>
		<g>
			<path class="st38" d="M1203.69,362.16c0,0-1.32-7.57,7.71-13.97C1220.44,341.79,1221.06,356.67,1203.69,362.16z"/>
		</g>
	</g>
	<g>
		<g>
			<path class="st51" d="M1171.5,433.52c0.2,0,0.37-0.15,0.39-0.36c4.19-42.47-30.65-79.68-31-80.05c-0.15-0.16-0.4-0.17-0.56-0.01
				c-0.16,0.15-0.17,0.4-0.01,0.56c0.35,0.37,34.94,37.33,30.79,79.43c-0.02,0.22,0.14,0.41,0.36,0.43
				C1171.47,433.52,1171.49,433.52,1171.5,433.52z"/>
		</g>
		<g>
			<path class="st51" d="M1170.99,414.33c0,0-7.92-30.39-24.95-18.87C1137.97,400.91,1156.23,401.53,1170.99,414.33z"/>
		</g>
		<g>
			<path class="st51" d="M1171.05,413.47c0,0-2.45-31.31,17.42-25.99C1197.88,390,1180.82,396.55,1171.05,413.47z"/>
		</g>
		<g>
			<path class="st51" d="M1163.65,389.36c0,0-10.97-26.27-24.8-13.76C1132.3,381.52,1148.77,379.75,1163.65,389.36z"/>
		</g>
		<g>
			<path class="st51" d="M1163.59,388.58c0,0-6.18-27.79,12.32-25.54C1184.68,364.11,1170.21,372.16,1163.59,388.58z"/>
		</g>
		<g>
			<path class="st51" d="M1151.87,367.58c0,0-16.4-23.27-27.19-8.07C1119.57,366.71,1135.27,361.42,1151.87,367.58z"/>
		</g>
		<g>
			<path class="st51" d="M1151.65,366.83c0,0-12.05-25.79,6.5-27.6C1166.94,338.37,1154.55,349.37,1151.65,366.83z"/>
		</g>
		<g>
			<path class="st51" d="M1141.7,354.36c0,0,1.46-8.4-8.56-15.49C1123.13,331.77,1122.43,348.27,1141.7,354.36z"/>
		</g>
	</g>
	<path class="st39" d="M1192.83,427.09c-0.02-0.7-0.6-1.26-1.3-1.26h-16.84h-0.51h-16.84c-0.7,0-1.28,0.56-1.3,1.26
		c-0.05,1.92-0.07,5.79,0.41,9.78c0.54,4.45,1.85,8.09,2.48,9.65c0.2,0.49,0.68,0.82,1.21,0.82h14.03h0.51h14.03
		c0.53,0,1.01-0.32,1.21-0.82c0.63-1.56,1.94-5.2,2.48-9.65C1192.9,432.89,1192.88,429.02,1192.83,427.09z"/>
</g>
<rect x="153.71" y="226.68" class="st7" width="85.53" height="5.46"/>
<rect x="153.71" y="257.82" class="st4" width="73.76" height="5.46"/>
<rect x="153.43" y="242.22" class="st7" width="59.63" height="5.46"/>
<rect x="153.43" y="273.75" class="st4" width="32.93" height="5.46"/>
<rect x="265.1" y="309.37" class="st7" width="9.14" height="35.53"/>
<rect x="265.1" y="324.6" class="st28" width="9.14" height="20.31"/>
<rect x="285.13" y="293.5" class="st7" width="9.14" height="51.4"/>
<rect x="285.13" y="314.21" class="st28" width="9.14" height="30.7"/>
<rect x="328.59" y="273.71" class="st7" width="9.14" height="71.07"/>
<rect x="328.59" y="292.47" class="st28" width="9.14" height="52.32"/>
<rect x="305.89" y="281.94" class="st7" width="9.14" height="62.84"/>
<rect x="305.89" y="300.66" class="st28" width="9.14" height="44.13"/>
<path class="st28" d="M312.75,237.68v-22.27c-12.04,0-21.8,9.97-21.8,22.27c0,12.3,9.76,22.27,21.8,22.27
	c11.78,0,21.37-9.55,21.78-21.48L312.75,237.68z"/>
<path class="st7" d="M339.08,233.95c0.01-0.26,0.02-0.53,0.02-0.79c0-12.3-9.76-22.27-21.8-22.27v22.27L339.08,233.95z"/>
<path class="st52" d="M430.41,283.09l-0.44-2.5c-0.22-1.23,1.34-1.96,2.14-1l1.64,1.94c0.28,0.33,0.72,0.49,1.15,0.42l2.5-0.44
	c1.23-0.22,1.96,1.34,1,2.14l-1.94,1.64c-0.33,0.28-0.49,0.72-0.42,1.15l0.44,2.5c0.22,1.23-1.34,1.96-2.14,1l-1.64-1.94
	c-0.28-0.33-0.72-0.49-1.15-0.42l-2.5,0.44c-1.23,0.22-1.96-1.34-1-2.14l1.94-1.64C430.33,283.96,430.48,283.52,430.41,283.09z"/>
<g>
	<path class="st13" d="M405.76,169.99l-0.33-1.86c-0.16-0.92,1-1.46,1.6-0.75l1.22,1.45c0.21,0.25,0.54,0.37,0.86,0.31l1.86-0.33
		c0.92-0.16,1.46,1,0.75,1.6l-1.45,1.22c-0.25,0.21-0.37,0.54-0.31,0.86l0.33,1.86c0.16,0.92-1,1.46-1.6,0.75l-1.22-1.45
		c-0.21-0.25-0.54-0.37-0.86-0.31l-1.86,0.33c-0.92,0.16-1.46-1-0.75-1.6l1.45-1.22C405.7,170.64,405.81,170.31,405.76,169.99z"/>
</g>
<g>
	<path class="st13" d="M481.65,101.18l-0.33-1.86c-0.16-0.92,1-1.46,1.6-0.75l1.22,1.45c0.21,0.25,0.54,0.37,0.86,0.31l1.86-0.33
		c0.92-0.16,1.46,1,0.75,1.6l-1.45,1.22c-0.25,0.21-0.37,0.54-0.31,0.86l0.33,1.86c0.16,0.92-1,1.46-1.6,0.75l-1.22-1.45
		c-0.21-0.25-0.54-0.37-0.86-0.31l-1.86,0.33c-0.92,0.16-1.46-1-0.75-1.6l1.45-1.22C481.59,101.83,481.71,101.5,481.65,101.18z"/>
</g>
<g>
	<polygon class="st28" points="303.85,24.2 351.99,65.16 360.59,43.99 	"/>
	<path class="st9" d="M375.85,30.58l-5.81,14.28L304.3,24.24C304.3,24.24,353.51,21.2,375.85,30.58z"/>
	<polygon class="st10" points="303.85,24.2 372.59,55.41 375.08,39.78 	"/>
	<polygon class="st10" points="379.97,16.8 375.85,30.58 303.85,24.2 	"/>
</g>
<g>
	<polygon class="st28" points="1240.58,53.72 1241.82,72.31 1300.89,59.59 	"/>
	<polygon class="st9" points="1264.83,41.51 1265.42,51.22 1304.12,59.87 1281.4,42 	"/>
	<path class="st53" d="M1285.36,36.52c-0.92-0.27-20.98,4.86-20.98,4.86l39.74,18.49L1285.36,36.52z"/>
	<polygon class="st53" points="1220.1,53.42 1247.09,44.99 1304.12,59.87 	"/>
</g>
<g>
	<path class="st23" d="M324.62,457.17l-0.54-0.66c0,0-6.25-1.13-8.57-9.37c-1.1-3.91-2.29-5.88-3.37-6.8
		c-1.35-1.16-3.43-0.12-3.34,1.65c0.27,5.72,1.27,24.51,2.85,26.26c1.86,2.08,6.16,0.07,6.96,0.19c0.8,0.12,6.67-3.87,6.67-3.87
		L324.62,457.17z"/>
	<path class="st18" d="M329.24,455.86l-5.63,0.57c0,0-1.92,5.26,0.78,8.05c2.69,2.78,4.63-1.89,4.63-1.89L329.24,455.86z"/>
	<path class="st17" d="M403.97,449.56c0,0-59.22-0.77-75.53,6.1c0,0-1.4,7.62,0,10.02s47.67,4.65,55.81,2.7
		c0,0,32.46,2.06,45.32-0.01c12.87-2.06-6.37-12.16-8.26-12.72S403.97,449.56,403.97,449.56z"/>
	<path class="st54" d="M389.88,397.38L386,400l-9.14-13.56c-0.47-0.7-0.12-1.66,0.69-1.88l1.54-0.44c0.5-0.14,1.03,0.04,1.33,0.46
		L389.88,397.38z"/>
	<path class="st23" d="M412.76,376.79c0,0-2.03-0.83-1.84-3.6c0.19-2.77,1.34-10.6,12.12-10.14c10.14,0.43,13.94,4.13,16.85,10.65
		s3.92,11.98,13.06,16.18c9.15,4.2,10.75,10.6,7.94,17.08c-2.81,6.48-8.81,5.02-9.98,5.08c-1.16,0.05-19.15-21.26-19.15-21.26
		s-5.46-6.31-6.46-7.02S412.76,376.79,412.76,376.79z"/>
	<path class="st18" d="M465.59,453.12c0,0,2.21,5.59,5.32,7.61c3.11,2.02,16.1,4.38,16.45,7.65c0,0,1.23,0.65-2,0.51
		c-3.23-0.14-13.65-0.91-15.7,0c-2.05,0.91-3.09,2.23-5.49,2.59c-2.4,0.35-0.17-4.37-1.02-6.44c-0.85-2.07-4.3-8.95-4.3-8.95
		L465.59,453.12z"/>
	<path class="st55" d="M455.61,424.85c0,0,5.74,21.41,12.6,28.93c0,0-5.7,5.59-13.02,6.18c0,0-3.13-1.35-4.72-9.34
		C448.88,442.62,455.61,424.85,455.61,424.85z"/>
	<path class="st18" d="M390.68,408.94c0,0-2.44-3.68-4.89-4.71s-7.19-4.65-7.11-10.08c0.08-5.43,6.87,2.3,9.36,3.5
		c0,0,1.71-0.94,3.83,1.24c2.12,2.18,0.93,4.36,1.44,4.86c0.51,0.5,1.72,1.59,1.72,1.59L390.68,408.94z"/>
	<path class="st18" d="M411.88,375.92c0,0-0.49,14.44,3.89,17.71s11.89-0.63,11.89-0.63s1.7,3.45,0.81,5.29l10.27-2.39
		c0,0-2.41-1.58-6.62-6.03c-4.17-4.41-4.17-5.84-4.17-5.84s2.74-0.59,1.94-3.07s-3.94-3.54-5.75,1.5c0,0-1.44-0.83-2.82-2.7
		C419.93,377.91,414.18,375.48,411.88,375.92z"/>
	<path class="st23" d="M349.2,454.39c0,0-2.89-0.41-7.87,2.36c-4.98,2.78-11.34,5.72-15.04,6.72c-3.7,1-4.14,5.31-3.8,6.08
		c0.34,0.77,29.08,1.03,32.21,0.46c3.13-0.57,1.89-5.61,1.86-6.28s-0.89-4.36-0.89-4.36L349.2,454.39z"/>
	<path class="st18" d="M354.03,448.38l-5.98,6.37c0,0,1.67,5.06,7.61,4.63c0,0,1.52-1.98,2.62-2.51
		C359.38,456.34,354.03,448.38,354.03,448.38z"/>
	<path class="st19" d="M432.96,442.65c0,0-35.81-17.25-46.64-17.09c-10.83,0.16-33.47,22.57-33.47,22.57s1.94,8.57,5.61,10.34
		c3.67,1.77,24.61-5.53,31.4-15.16c0,0,30.91,40.02,56.62,18.94l1.87-2.28C448.35,459.98,435.75,454.38,432.96,442.65z"/>
	<path class="st16" d="M438.9,395.73c0,0-10.59-2.91-12.52,8.14c-1.93,11.04,2.93,18.64,1.57,25.86c-1.36,7.22-3.43,9.01-3.43,9.01
		s12.85,18.44,23.83,21.24C448.35,459.98,472.18,430.32,438.9,395.73z"/>
	<path class="st16" d="M433.72,395.59c0,0-6.48,0.22-22.57,21.01c0,0-9.51-10.76-15.32-12.15c0,0-4.89,1.85-6.55,4.87
		c0,0,7.99,20.68,17.64,21.15c9.65,0.47,31.01-14.93,32.32-24.1C440.56,397.21,436.26,395.65,433.72,395.59z"/>
</g>
<ellipse class="st4" cx="197.83" cy="472.02" rx="45.05" ry="5.9"/>
<g>
	<path class="st16" d="M209.73,460.47c0,0,2.64,4.57,7.35,6.55c4.71,1.98,4.96,2.71,5.38,3.94c0.42,1.23-19.7,1.39-24.24-0.63
		c0,0-2.27-4.17-0.58-9.44C199.33,455.62,209.73,460.47,209.73,460.47z"/>
	<path class="st16" d="M166.84,461.82c0,0,2.64,4.57,7.35,6.55c4.71,1.98,4.96,2.71,5.38,3.94c0.42,1.23-19.7,1.39-24.24-0.63
		c0,0-2.27-4.17-0.58-9.44C156.44,456.98,166.84,461.82,166.84,461.82z"/>
	<path class="st23" d="M196.87,350.8c0,0.88,12.87,110.31,12.87,110.31s-9.07,1.46-12-0.29c0,0-18.73-45.35-22.24-67.59
		C172,370.99,184,351.09,184,351.09L196.87,350.8z"/>
	<path class="st39" d="M184.88,358.99c0,0-14.34,98.02-17.56,102.41c-3.22,4.39-12.87,0.1-12.87,0.1l-2.05-103.97l10.53-6.14
		L184.88,358.99z"/>
	<path class="st56" d="M162.25,284.89c0,0-2.24-0.63-2.71-1.61c-0.47-0.98-2.41-1.32-2.85-4.97c-0.44-3.66-4.97-4.83-5.56-9.95
		c-0.59-5.12-0.66-7.75,3.07-10.61c3.73-2.85,6.66-2.56,7.97-5.34s8.49-0.88,9.8-1.17c0.68-0.15,1.61-0.82,2.35-1.44
		c0.62-0.52,1.58-0.26,1.83,0.51c0.84,2.52,2.04,7.25-0.01,8.83c-2.85,2.19-8.56,22.09-10.53,23.34S162.25,284.89,162.25,284.89z"/>
	<path class="st18" d="M219.74,242.17c-0.04-0.22,3.22-8.49,3.8-10.46c0.59-1.98,9-8.92,9.44-8.49c0.44,0.44-4.17,8.34-4.17,8.34
		s3.22,5.49,3.15,7.61s-7.1,5.12-7.1,5.12l-2.05,1.83C222.82,246.12,220.52,246.24,219.74,242.17z"/>
	<path class="st13" d="M171.81,286.32l3.32-0.78c0,0,9.07,14.63,12,28.09c2.93,13.46,2.78,42.57,2.78,42.57s-13.02,7.32-24.29,3.95
		l-6.29-69.35l1.68-3.51L171.81,286.32z"/>
	<path class="st21" d="M219.21,242.14c0,0,4.41,3.76,4.56,4.56s-12.17,43.04-31.28,56.89l-15.02-19.9
		C177.46,283.69,191.9,283.89,219.21,242.14z"/>
	<path class="st21" d="M157.75,289.2l-0.73-0.44c0,0-17.7,10.68-21.07,30.29c-3.37,19.6,4.24,31.6,8.78,39.5
		c4.54,7.9,6.88,10.97,6.88,10.97l5.12-4.24c0,0-11.7-27.65-7.17-40.38C154.09,312.17,157.89,298.57,157.75,289.2z"/>
	<path class="st21" d="M172.88,283.98c0,0,6.05-0.98,8.88,0.98c2.83,1.95,8.88,6.53,12,19.8c3.12,13.26,8.29,33.55,14.34,37.06
		c0,0-9.17,14.83-18.19,14.39l-1.12-0.34c0,0-0.05-30.68-3.85-41.06c-3.8-10.39-9.95-20.34-11.05-24.94
		C172.78,285.25,172.88,283.98,172.88,283.98z"/>
	<path class="st21" d="M161.7,285.11c0,0-4.63,2.49-7.17,7.36c-2.54,4.88-4.88,22.04-3.32,38.62c1.56,16.58-1.56,20.78-1.56,20.78
		s6.93,11.31,16.43,8.29c0,0,7.85-14.14,2.39-38.33s-8.49-31.99-6.73-36.09"/>
	<path class="st18" d="M176.19,258.82c0,0,7.92,19.7,3.61,22.19s-6.07,2.71-6.07,2.71l0.15,6.14c0,0-4.1,3.73-10.68-1.17L161,287.3
		l0.73-3.73c0,0,3.37-0.88,4.24-4.54c0.88-3.66,0.29-4.17,0.29-4.17s-4.17,1.17-4.32-2.05c-0.15-3.22,4.24-3.66,4.24-3.66
		s-1.21-4.43-0.44-5.63S176.1,261.36,176.19,258.82z"/>
</g>
<circle class="st28" cx="594.22" cy="280.21" r="13.35"/>
<rect x="617.4" y="270.82" class="st52" width="44.72" height="3.6"/>
<rect x="617.4" y="280.21" class="st52" width="34.88" height="3.6"/>
<rect x="617.4" y="289.1" class="st52" width="43.49" height="3.6"/>
</svg>
