<?xml version="1.0" encoding="utf-8"?>
<!-- Generator: Adobe Illustrator 24.0.1, SVG Export Plug-In . SVG Version: 6.00 Build 0)  -->
<svg version="1.1" id="Layer_1" xmlns="http://www.w3.org/2000/svg" xmlns:xlink="http://www.w3.org/1999/xlink" x="0px" y="0px"
	 viewBox="0 0 780 646" style="enable-background:new 0 0 780 646;" xml:space="preserve">
<style type="text/css">
	.st0{fill:#D9E4F5;}
	.st1{fill:#C7D9ED;}
	.st2{fill:#B4CAE3;}
	.st3{fill:#007EFF;}
	.st4{fill:#0060E6;}
	.st5{fill:#3B3E7D;}
	.st6{fill:#18285D;}
	.st7{fill:#FFFFFF;}
	.st8{fill:#00A0FF;}
	.st9{fill:#FB9A83;}
	.st10{fill:#FCFBFF;}
	.st11{fill:#021147;}
	.st12{fill:#FF6D6B;}
	.st13{fill:#ED495C;}
	.st14{fill:#586199;}
	.st15{fill:#F9F9F9;}
</style>
<g>
	<g>
		<path class="st0" d="M766.98,564.25c0,23.93-162.04,43.32-361.92,43.32s-361.92-19.4-361.92-43.32
			c0-23.93,162.04-43.32,361.92-43.32S766.98,540.32,766.98,564.25z"/>
	</g>
	<g>
		<path class="st0" d="M213.85,53.91c0,1.71-0.7,3.27-1.83,4.4c-1.12,1.14-2.68,1.83-4.39,1.83H74.4c-3.42,0-6.23-2.8-6.23-6.23
			c0-1.71,0.7-3.27,1.83-4.4c1.12-1.14,2.68-1.83,4.39-1.83h6.3c2.49-5.78,8.23-9.82,14.92-9.82c4.5,0,8.57,1.83,11.52,4.79
			c3.92-6.66,11.16-11.13,19.45-11.13c2.28,0,4.47,0.34,6.54,0.97c4.33-8.15,12.9-13.7,22.78-13.7c11.86,0,21.84,8.01,24.85,18.9
			c2.18-1.09,4.65-1.72,7.27-1.72c7.4,0,13.64,4.94,15.6,11.7h4.01C211.05,47.67,213.85,50.48,213.85,53.91z"/>
		<path class="st0" d="M673.73,65.1c0,1.71-0.7,3.27-1.83,4.4c-1.12,1.14-2.68,1.83-4.39,1.83H534.29c-3.42,0-6.22-2.8-6.22-6.23
			c0-1.71,0.7-3.27,1.83-4.4c1.12-1.14,2.68-1.83,4.39-1.83h6.3c2.49-5.78,8.23-9.82,14.91-9.82c4.5,0,8.57,1.83,11.52,4.79
			c3.92-6.66,11.16-11.13,19.45-11.13c2.28,0,4.47,0.34,6.54,0.97c4.33-8.15,12.9-13.7,22.78-13.7c11.86,0,21.84,8.01,24.85,18.9
			c2.19-1.09,4.65-1.72,7.27-1.72c7.4,0,13.64,4.94,15.6,11.7h4.01C670.93,58.87,673.73,61.67,673.73,65.1z"/>
		<path class="st0" d="M443.88,90.79c0,1.71-0.7,3.27-1.83,4.4c-1.12,1.14-2.68,1.83-4.39,1.83H304.43c-3.42,0-6.22-2.8-6.22-6.23
			c0-1.71,0.7-3.27,1.83-4.4c1.12-1.14,2.68-1.83,4.39-1.83h6.3c2.49-5.78,8.23-9.82,14.91-9.82c4.5,0,8.57,1.83,11.52,4.79
			c3.92-6.66,11.16-11.13,19.45-11.13c2.28,0,4.47,0.35,6.54,0.97c4.33-8.15,12.9-13.7,22.78-13.7c11.86,0,21.84,8.01,24.85,18.9
			c2.18-1.09,4.65-1.72,7.27-1.72c7.4,0,13.64,4.94,15.6,11.7h4.01C441.07,84.56,443.88,87.36,443.88,90.79z"/>
	</g>
	<g>
		<g>
			<g>
				<g>
					<path class="st1" d="M730.11,379.74c-14.07,22.26,6.54,19.23-3.7,35.95c-9.33,15.24-30.01,7.12-21.93,37.38
						c1.77,6.62-1.98,12.67-8.22,16.75c-10.28,6.71-22.13,5.32-30.62-0.83c-0.69-0.49-1.36-1.03-2-1.59
						c-6.71-5.85-10.72-14.91-9.04-25.18c1.36-8.33,5.13-17.07,14.14-22.25c21.13-12.14,1.74-39.39,20.64-45.04
						c22.8-6.82,21.71-15.5,35.56-30.65C739.63,328.23,749.19,349.58,730.11,379.74z"/>
					<g>
						<path class="st2" d="M719.73,371.66c-0.39,0.64-32.72,53.57-54.09,97.34c-0.69-0.49-1.36-1.03-2-1.59
							c21.44-43.81,53.57-96.42,53.96-97.06c0.36-0.59,1.13-0.77,1.71-0.41C719.91,370.3,720.09,371.07,719.73,371.66z"/>
					</g>
				</g>
				<g>
					<path class="st0" d="M748.45,439.33c-24.69,23.18,1.95,26.04-16.18,43.56c-16.53,15.97-39.65-0.8-39.33,39.47
						c0.07,8.81-6.54,15.14-15.63,18.2c-14.96,5.04-29.26-0.5-37.85-10.9c-0.7-0.84-1.36-1.71-1.98-2.62
						c-6.47-9.44-8.54-22.02-3.15-34.25c4.38-9.93,11.89-19.59,24.77-23.14c30.22-8.31,14.85-48.47,40.2-49.42
						c30.57-1.14,32.02-12.3,54.14-26.7C776.89,378.27,781.91,407.92,748.45,439.33z"/>
					<g>
						<path class="st1" d="M738.13,425.92c-0.69,0.67-57.99,56.15-98.68,103.75c-0.7-0.84-1.36-1.71-1.98-2.62
							c40.8-47.62,97.73-102.77,98.43-103.43c0.64-0.61,1.65-0.6,2.27,0.04C738.78,424.29,738.77,425.3,738.13,425.92z"/>
					</g>
				</g>
			</g>
			<g>
				<g>
					<path class="st1" d="M74.75,193.41c15.32,21.42-5.43,19.57,5.74,35.68c10.19,14.69,30.37,5.39,24.03,36.07
						c-1.39,6.71,2.7,12.54,9.17,16.25c10.65,6.11,22.4,4.05,30.53-2.58c0.66-0.53,1.3-1.1,1.91-1.7c6.37-6.22,9.85-15.5,7.59-25.65
						c-1.84-8.24-6.1-16.75-15.39-21.4c-21.79-10.92-3.98-39.22-23.18-43.79c-23.15-5.5-22.56-14.23-37.25-28.57
						C62.31,142.52,53.98,164.38,74.75,193.41z"/>
					<g>
						<path class="st2" d="M84.65,184.74c0.43,0.61,35.73,51.62,59.56,94.1c0.66-0.53,1.3-1.1,1.91-1.7
							c-23.91-42.51-58.99-93.2-59.41-93.82c-0.39-0.57-1.17-0.71-1.73-0.31C84.4,183.4,84.26,184.17,84.65,184.74z"/>
					</g>
				</g>
				<g>
					<path class="st0" d="M61.55,261.87c26.61,20.94,0.33,26.11,19.92,41.99c17.85,14.47,39.42-4.26,42.63,35.89
						c0.7,8.78,7.84,14.51,17.16,16.77c15.34,3.71,29.11-3.05,36.76-14.16c0.62-0.9,1.21-1.83,1.74-2.78
						c5.62-9.97,6.59-22.68,0.15-34.4c-5.23-9.51-13.55-18.48-26.69-20.89c-30.83-5.65-19.02-46.99-44.35-45.72
						c-30.55,1.53-32.97-9.46-56.26-21.88C27.9,203.52,25.49,233.5,61.55,261.87z"/>
					<g>
						<path class="st1" d="M70.67,247.61c0.75,0.61,62.66,50.88,107.34,94.75c0.62-0.9,1.21-1.83,1.74-2.78
							c-44.79-43.89-106.32-93.86-107.07-94.46c-0.69-0.56-1.7-0.45-2.25,0.24C69.87,246.04,69.98,247.05,70.67,247.61z"/>
					</g>
				</g>
			</g>
			<g>
				<g>
					<path class="st1" d="M607.1,120.82c-15.32,21.42,5.43,19.57-5.74,35.68c-10.19,14.69-30.37,5.39-24.03,36.07
						c1.39,6.71-2.7,12.54-9.17,16.25c-10.65,6.11-22.4,4.05-30.53-2.58c-0.66-0.53-1.3-1.1-1.91-1.7
						c-6.37-6.22-9.85-15.5-7.59-25.65c1.84-8.24,6.1-16.75,15.39-21.4c21.79-10.92,3.98-39.22,23.18-43.79
						c23.15-5.5,22.56-14.23,37.25-28.57C619.54,69.93,627.87,91.79,607.1,120.82z"/>
					<g>
						<path class="st2" d="M597.2,112.15c-0.43,0.61-35.73,51.62-59.56,94.1c-0.66-0.53-1.3-1.1-1.91-1.7
							c23.91-42.51,58.99-93.2,59.41-93.82c0.39-0.57,1.17-0.71,1.73-0.31C597.45,110.81,597.59,111.59,597.2,112.15z"/>
					</g>
				</g>
				<g>
					<path class="st0" d="M656.48,149.97c-26.61,20.94-0.33,26.11-19.92,41.99c-17.85,14.47-39.42-4.26-42.63,35.89
						c-0.7,8.78-7.84,14.51-17.16,16.77c-15.34,3.71-29.11-3.05-36.76-14.16c-0.62-0.9-1.21-1.83-1.74-2.78
						c-5.62-9.97-6.59-22.68-0.15-34.4c5.23-9.51,13.55-18.48,26.69-20.89c30.83-5.65,19.02-46.99,44.35-45.72
						c30.55,1.53,32.97-9.46,56.26-21.88C690.13,91.63,692.55,121.6,656.48,149.97z"/>
					<g>
						<path class="st1" d="M647.37,135.72c-0.75,0.61-62.66,50.88-107.34,94.75c-0.62-0.9-1.21-1.83-1.74-2.78
							c44.79-43.89,106.32-93.86,107.07-94.46c0.69-0.56,1.7-0.45,2.25,0.24C648.16,134.15,648.05,135.16,647.37,135.72z"/>
					</g>
				</g>
			</g>
			<path class="st0" d="M270,173.79c-10.41-7.13-36.49,10.46-50.13,31.81l12.1-33.89c4.38-3.8,12.04-9.13,24.02-13.37
				c18.63-6.6,37.3-16.94,26.87-24.09c-9.78-6.69-33.36,8.4-47.49,27.94l15.53-43.52c2.89-2.22,7.29-4.92,13.57-7.15
				c11.74-4.16,23.51-10.68,16.93-15.18c-5.71-3.91-18.87,3.96-27.86,14.93l5.04-14.11c2.3-4.1,5.58-9.95,10.74-15.29
				c11.96-12.37,21-26.29,11.78-28.31c-9.23-2.02-24.34,22.23-26.72,44.14l-2.59,7.26c2.01-15.93-3.72-35.23-11.71-35.91
				c-7.94-0.68-2.96,11.82,3.49,22.47c4.91,8.11,6.27,14.55,6.63,17.88l-12.24,34.28c3.11-25.24-5.96-55.68-18.6-56.76
				c-12.6-1.08-4.7,18.75,5.54,35.66c7.74,12.78,9.91,22.94,10.51,28.25l-14.67,41.11c2.6-24.94-6.32-55.22-18.77-55.32
				c-9.59-0.08-6.66,13.47,4.8,32.59c7.79,13,10.28,24.67,11.08,30.81l-6.91,19.36c1.16,0.82,2.36,1.25,3.56,1.27l2.75-7.71
				c3.89-3.76,11.98-10.14,25.88-15.07C261.76,191.27,280.43,180.93,270,173.79z"/>
			<path class="st0" d="M138.07,532.32h5.77l-0.2-0.18c-2.09-4.98-5.11-14.84-4.67-29.59c0.6-19.75-2.28-40.9-12.71-33.77
				c-10.42,7.12-3.48,37.8,11.48,58.25l-27.2-23.56c-1.95-5.46-4.14-14.53-3.76-27.23c0.6-19.75-2.28-40.9-12.71-33.77
				c-9.78,6.69-4.26,34.13,8.83,54.39l-34.93-30.25c-1.02-3.5-1.95-8.58-1.75-15.24c0.38-12.45-1.43-25.78-8.01-21.28
				c-5.71,3.9-3.15,19.03,3.81,31.38l-11.32-9.8c-2.98-3.63-7.26-8.81-10.36-15.55c-7.2-15.63-16.89-29.1-22.12-21.24
				c-5.23,7.87,11.9,30.74,31.45,40.9l5.83,5.05c-14.12-7.65-34.18-9.3-37.71-2.1c-3.51,7.15,9.94,7.04,22.21,4.89
				c9.34-1.64,15.83-0.57,19.06,0.3l27.52,23.83c-22.4-12.05-54.06-14.63-59.65-3.24c-5.57,11.35,15.77,11.17,35.24,7.76
				c14.71-2.58,24.97-0.93,30.14,0.44l33,28.58c-22.31-11.46-53.75-14.12-58.36-2.56c-3.55,8.91,10.14,11.09,32.12,7.34
				c14.93-2.55,26.71-0.64,32.73,0.84L138.07,532.32z"/>
		</g>
	</g>
	<g>
		<g>
			<g>
				<g>
					<g>
						<path class="st3" d="M713.03,134.78c-4.35,0-7.89-3.54-7.89-7.89c0-4.35,3.54-7.89,7.89-7.89c4.35,0,7.89,3.54,7.89,7.89
							C720.91,131.24,717.37,134.78,713.03,134.78z M713.03,132.31c2.98,0,5.41-2.43,5.41-5.41s-2.43-5.41-5.41-5.41
							c-2.98,0-5.41,2.43-5.41,5.41S710.04,132.31,713.03,132.31z"/>
					</g>
					<g>
						<g>
							<path class="st4" d="M721.05,174.86c-4.35,0-7.89-3.54-7.89-7.89c0-4.35,3.54-7.89,7.89-7.89c4.35,0,7.89,3.54,7.89,7.89
								C728.93,171.32,725.4,174.86,721.05,174.86z M721.05,172.38c2.98,0,5.41-2.43,5.41-5.41c0-2.98-2.43-5.41-5.41-5.41
								c-2.98,0-5.41,2.43-5.41,5.41C715.64,169.96,718.06,172.38,721.05,172.38z"/>
						</g>
					</g>
					<g>
						<g>
							<g>
								<path class="st3" d="M745.03,185.96c0-0.68-0.55-1.24-1.24-1.24h-5.45c-0.68,0-1.24,0.55-1.24,1.24
									c0,0.68,0.55,1.24,1.24,1.24h5.45C744.48,187.2,745.03,186.64,745.03,185.96z"/>
							</g>
							<g>
								<path class="st3" d="M754.58,185.96c0-0.68-0.55-1.24-1.24-1.24h-5.45c-0.68,0-1.24,0.55-1.24,1.24
									c0,0.68,0.55,1.24,1.24,1.24h5.45C754.02,187.2,754.58,186.64,754.58,185.96z"/>
							</g>
						</g>
						<g>
							<g>
								<path class="st3" d="M747.08,193.62v-4.9c0-0.68-0.55-1.24-1.24-1.24c-0.68,0-1.24,0.55-1.24,1.24v4.9
									c0,0.68,0.55,1.24,1.24,1.24C746.52,194.85,747.08,194.3,747.08,193.62z"/>
							</g>
							<g>
								<path class="st3" d="M747.08,183.21v-4.9c0-0.68-0.55-1.24-1.24-1.24c-0.68,0-1.24,0.55-1.24,1.24v4.9
									c0,0.68,0.55,1.24,1.24,1.24C746.52,184.44,747.08,183.89,747.08,183.21z"/>
							</g>
						</g>
					</g>
					<g>
						<g>
							<g>
								<g>
									<path class="st4" d="M736.14,143.85c0-0.68-0.55-1.24-1.24-1.24h-5.45c-0.68,0-1.24,0.55-1.24,1.24
										c0,0.68,0.55,1.24,1.24,1.24h5.45C735.58,145.08,736.14,144.53,736.14,143.85z"/>
								</g>
								<g>
									<path class="st4" d="M745.68,143.85c0-0.68-0.55-1.24-1.24-1.24h-5.45c-0.68,0-1.24,0.55-1.24,1.24
										c0,0.68,0.55,1.24,1.24,1.24h5.45C745.13,145.08,745.68,144.53,745.68,143.85z"/>
								</g>
							</g>
							<g>
								<g>
									<path class="st4" d="M738.18,151.5v-4.9c0-0.68-0.55-1.24-1.24-1.24c-0.68,0-1.24,0.55-1.24,1.24v4.9
										c0,0.68,0.55,1.24,1.24,1.24C737.63,152.74,738.18,152.19,738.18,151.5z"/>
								</g>
								<g>
									<path class="st4" d="M738.18,141.09v-4.9c0-0.68-0.55-1.24-1.24-1.24c-0.68,0-1.24,0.55-1.24,1.24v4.9
										c0,0.68,0.55,1.24,1.24,1.24C737.63,142.33,738.18,141.77,738.18,141.09z"/>
								</g>
							</g>
						</g>
					</g>
				</g>
			</g>
		</g>
		<g>
			<g>
				<g>
					<g>
						<path class="st3" d="M59.44,392.03c0,4.35-3.54,7.89-7.89,7.89c-4.35,0-7.89-3.54-7.89-7.89c0-4.35,3.54-7.89,7.89-7.89
							C55.9,384.15,59.44,387.68,59.44,392.03z M46.14,392.03c0,2.98,2.43,5.41,5.41,5.41c2.98,0,5.41-2.43,5.41-5.41
							c0-2.98-2.43-5.41-5.41-5.41C48.57,386.62,46.14,389.05,46.14,392.03z"/>
					</g>
					<g>
						<g>
							<path class="st4" d="M67.46,351.95c0,4.35-3.54,7.89-7.89,7.89s-7.89-3.54-7.89-7.89c0-4.35,3.54-7.89,7.89-7.89
								S67.46,347.61,67.46,351.95z M54.16,351.95c0,2.98,2.43,5.41,5.41,5.41c2.98,0,5.41-2.43,5.41-5.41s-2.43-5.41-5.41-5.41
								C56.59,346.54,54.16,348.97,54.16,351.95z"/>
						</g>
					</g>
					<g>
						<g>
							<g>
								<path class="st3" d="M83.56,332.97c0,0.68-0.55,1.24-1.24,1.24h-5.45c-0.68,0-1.24-0.55-1.24-1.24s0.55-1.24,1.24-1.24h5.45
									C83,331.73,83.56,332.28,83.56,332.97z"/>
							</g>
							<g>
								<path class="st3" d="M93.1,332.97c0,0.68-0.55,1.24-1.24,1.24h-5.45c-0.68,0-1.24-0.55-1.24-1.24s0.55-1.24,1.24-1.24h5.45
									C92.55,331.73,93.1,332.28,93.1,332.97z"/>
							</g>
						</g>
						<g>
							<g>
								<path class="st3" d="M85.6,325.31v4.9c0,0.68-0.55,1.24-1.24,1.24c-0.68,0-1.24-0.55-1.24-1.24v-4.9
									c0-0.68,0.55-1.24,1.24-1.24C85.05,324.07,85.6,324.63,85.6,325.31z"/>
							</g>
							<g>
								<path class="st3" d="M85.6,335.72v4.9c0,0.68-0.55,1.24-1.24,1.24c-0.68,0-1.24-0.55-1.24-1.24v-4.9
									c0-0.68,0.55-1.24,1.24-1.24C85.05,334.49,85.6,335.04,85.6,335.72z"/>
							</g>
						</g>
					</g>
					<g>
						<g>
							<g>
								<g>
									<path class="st4" d="M74.66,375.08c0,0.68-0.55,1.24-1.24,1.24h-5.45c-0.68,0-1.24-0.55-1.24-1.24
										c0-0.68,0.55-1.24,1.24-1.24h5.45C74.11,373.84,74.66,374.4,74.66,375.08z"/>
								</g>
								<g>
									<path class="st4" d="M84.21,375.08c0,0.68-0.55,1.24-1.24,1.24h-5.45c-0.68,0-1.24-0.55-1.24-1.24
										c0-0.68,0.55-1.24,1.24-1.24h5.45C83.66,373.84,84.21,374.4,84.21,375.08z"/>
								</g>
							</g>
							<g>
								<g>
									<path class="st4" d="M76.71,367.42v4.9c0,0.68-0.55,1.24-1.24,1.24c-0.68,0-1.24-0.55-1.24-1.24v-4.9
										c0-0.68,0.55-1.24,1.24-1.24C76.16,366.19,76.71,366.74,76.71,367.42z"/>
								</g>
								<g>
									<path class="st4" d="M76.71,377.84v4.9c0,0.68-0.55,1.24-1.24,1.24c-0.68,0-1.24-0.55-1.24-1.24v-4.9
										c0-0.68,0.55-1.24,1.24-1.24C76.16,376.6,76.71,377.15,76.71,377.84z"/>
								</g>
							</g>
						</g>
					</g>
				</g>
			</g>
		</g>
		<g>
			<g>
				<g>
					<g>
						<g>
							<path class="st3" d="M444.59,112.82l-0.27,9.4l8.8,0.25c0.38,2.24,1.14,4.42,2.24,6.47l-6.24,5.89l6.45,6.84l5.97-5.64
								c2.34,1.7,4.95,2.87,7.68,3.49l-0.25,8.81l9.4,0.27l0.26-9.08c1.85-0.42,3.65-1.08,5.36-2l5.89,6.24l6.84-6.45l-5.64-5.97
								c1.7-2.34,2.87-4.95,3.49-7.68l7.7,0.22l0.27-9.4l-7.97-0.23c-0.53-2.36-1.46-4.65-2.81-6.75l5.97-5.64l-6.45-6.84
								l-6.24,5.89c-2.31-1.42-4.83-2.36-7.43-2.81l0.26-8.86l-9.4-0.27l-0.28,9.6c-1.96,0.55-3.86,1.4-5.63,2.54l-5.64-5.97
								l-6.84,6.45l5.89,6.24c-1.02,1.65-1.78,3.41-2.31,5.23L444.59,112.82z M468.05,112.66c3.46-3.26,8.92-3.11,12.18,0.35
								c3.26,3.46,3.11,8.92-0.35,12.18c-3.46,3.26-8.92,3.11-12.18-0.35C464.44,121.38,464.59,115.92,468.05,112.66z"/>
						</g>
						<g>
							<path class="st4" d="M475.43,132.5c7.6-0.82,13.1-7.64,12.29-15.24c-0.82-7.6-7.64-13.1-15.24-12.29
								c-7.6,0.82-13.1,7.64-12.29,15.24C461,127.82,467.82,133.32,475.43,132.5z M468.05,112.66c3.46-3.26,8.92-3.11,12.18,0.35
								c3.26,3.46,3.11,8.92-0.35,12.18c-3.46,3.26-8.92,3.11-12.18-0.35C464.44,121.38,464.59,115.92,468.05,112.66z"/>
						</g>
					</g>
					<g>
						<g>
							<path class="st3" d="M506.42,116.83l-0.16,5.46l5.11,0.15c0.22,1.3,0.66,2.57,1.3,3.76l-3.62,3.42l3.75,3.97l3.47-3.27
								c1.36,0.99,2.88,1.67,4.46,2.03l-0.15,5.11l5.46,0.16l0.15-5.27c1.07-0.24,2.12-0.63,3.11-1.16l3.42,3.62l3.97-3.75
								l-3.27-3.47c0.99-1.36,1.67-2.88,2.03-4.46l4.47,0.13l0.16-5.46l-4.63-0.13c-0.31-1.37-0.85-2.7-1.63-3.92l3.47-3.27
								l-3.75-3.97l-3.62,3.42c-1.34-0.83-2.81-1.37-4.32-1.63l0.15-5.14l-5.46-0.16l-0.16,5.58c-1.14,0.32-2.24,0.81-3.27,1.47
								l-3.27-3.47l-3.97,3.75l3.42,3.62c-0.59,0.96-1.04,1.98-1.34,3.04L506.42,116.83z M520.05,116.73
								c2.01-1.89,5.18-1.8,7.07,0.2c1.89,2.01,1.8,5.18-0.2,7.07c-2.01,1.89-5.18,1.8-7.07-0.2
								C517.95,121.8,518.04,118.63,520.05,116.73z"/>
						</g>
						<g>
							<path class="st4" d="M524.33,128.26c4.41-0.47,7.61-4.44,7.13-8.85c-0.47-4.41-4.44-7.61-8.85-7.13
								c-4.41,0.47-7.61,4.44-7.13,8.85C515.95,125.54,519.92,128.73,524.33,128.26z M520.05,116.73c2.01-1.89,5.18-1.8,7.07,0.2
								c1.89,2.01,1.8,5.18-0.2,7.07c-2.01,1.89-5.18,1.8-7.07-0.2C517.95,121.8,518.04,118.63,520.05,116.73z"/>
						</g>
					</g>
				</g>
			</g>
		</g>
	</g>
	<path class="st4" d="M70.29,325.53l-0.02,0.02h0.03L70.29,325.53z"/>
	<polygon class="st4" points="70.27,325.56 70.17,325.7 70.2,325.56 	"/>
	<g>
		<g>
			<path class="st5" d="M677.52,166.85V573.1c0,3.77-3.05,6.82-6.82,6.82H114.83c-1.75,0-3.34-0.66-4.55-1.74
				c-1.39-1.25-2.26-3.06-2.26-5.08V166.85c0-3.77,3.05-6.82,6.82-6.82H670.7c2.24,0,4.24,1.09,5.48,2.76
				C677.02,163.93,677.52,165.33,677.52,166.85z"/>
		</g>
		<path class="st6" d="M677.52,166.85V573.1c0,3.77-3.05,6.82-6.82,6.82H114.83c-1.75,0-3.34-0.66-4.55-1.74l565.91-415.38
			C677.02,163.93,677.52,165.33,677.52,166.85z"/>
		<path class="st7" d="M661.32,183.73v372.48c0,4.14-3.36,7.51-7.51,7.51h-522.1c-4.15,0-7.51-3.36-7.51-7.51V183.73
			c0-4.15,3.36-7.51,7.51-7.51h522.1C657.96,176.22,661.32,179.59,661.32,183.73z"/>
		<g>
			<path class="st0" d="M661.32,183.73v26.13H124.2v-26.13c0-4.15,3.36-7.51,7.51-7.51h522.1
				C657.96,176.22,661.32,179.59,661.32,183.73z"/>
			<path class="st7" d="M215.25,193.92L215.25,193.92c0,2.47,2,4.47,4.47,4.47h391.52c2.47,0,4.47-2,4.47-4.47l0,0
				c0-2.47-2-4.47-4.47-4.47H219.71C217.25,189.46,215.25,191.46,215.25,193.92z"/>
			<g>
				<path class="st5" d="M154.06,193.92v3.31c0,0.95-1.03,1.54-1.85,1.07l-2.87-1.65l-2.87-1.65c-0.82-0.47-0.82-1.66,0-2.14
					l2.87-1.65l2.87-1.65c0.82-0.47,1.85,0.12,1.85,1.07V193.92z"/>
			</g>
			<g>
				<path class="st5" d="M168.97,193.92v3.31c0,0.95,1.03,1.54,1.85,1.07l2.87-1.65l2.87-1.65c0.82-0.47,0.82-1.66,0-2.14
					l-2.87-1.65l-2.87-1.65c-0.82-0.47-1.85,0.12-1.85,1.07V193.92z"/>
			</g>
		</g>
	</g>
	<g>
		<g>
			<g>
				<path class="st0" d="M633.42,238.84v216.79c0,7.71-6.25,13.96-13.96,13.96H179.25c-7.71,0-13.96-6.25-13.96-13.96V238.84
					c0-7.71,6.25-13.96,13.96-13.96h440.21C627.17,224.88,633.42,231.13,633.42,238.84z"/>
				<path class="st2" d="M633.42,238.84v10.18H165.28v-10.18c0-7.71,6.25-13.96,13.96-13.96h440.21
					C627.17,224.88,633.42,231.13,633.42,238.84z"/>
				<g>
					<g>
						<path class="st5" d="M588.46,236.71c0,2.61-2.12,4.73-4.73,4.73s-4.73-2.12-4.73-4.73s2.12-4.73,4.73-4.73
							S588.46,234.1,588.46,236.71z"/>
					</g>
					<path class="st4" d="M603.6,236.71c0,2.61-2.12,4.73-4.73,4.73c-2.61,0-4.73-2.12-4.73-4.73s2.12-4.73,4.73-4.73
						C601.48,231.98,603.6,234.1,603.6,236.71z"/>
					<path class="st3" d="M618.75,236.71c0,2.61-2.12,4.73-4.73,4.73c-2.61,0-4.73-2.12-4.73-4.73s2.12-4.73,4.73-4.73
						C616.63,231.98,618.75,234.1,618.75,236.71z"/>
				</g>
			</g>
			<g>
				<rect x="177.98" y="262.81" class="st3" width="114.78" height="82.15"/>
				<polygon class="st6" points="292.76,323.23 287.18,313.83 268.69,282.69 231.72,344.96 292.76,344.96 				"/>
				<g>
					<polygon class="st5" points="224.07,344.96 177.98,344.96 201.02,307.83 224.07,270.69 247.11,307.83 270.16,344.96 					"/>
				</g>
				<polygon class="st7" points="209.12,294.77 224.07,305.95 239.01,294.77 224.07,270.69 				"/>
				<polygon class="st7" points="256.11,303.89 268.69,313.83 281.27,303.89 268.69,282.69 				"/>
			</g>
			<g>
				<rect x="495.85" y="368.65" class="st3" width="114.78" height="82.15"/>
				<polygon class="st6" points="610.63,429.06 605.05,419.67 586.57,388.53 549.59,450.8 610.63,450.8 				"/>
				<g>
					<polygon class="st5" points="541.94,450.8 495.85,450.8 518.9,413.66 541.94,376.53 564.99,413.66 588.03,450.8 					"/>
				</g>
				<polygon class="st7" points="527,400.61 541.94,411.79 556.88,400.61 541.94,376.53 				"/>
				<polygon class="st7" points="573.98,409.73 586.57,419.67 599.15,409.73 586.57,388.53 				"/>
			</g>
			<g>
				<path class="st2" d="M287.55,364.95H183.18c-2.88,0-5.21-2.33-5.21-5.21l0,0c0-2.88,2.33-5.21,5.21-5.21h104.37
					c2.88,0,5.21,2.33,5.21,5.21l0,0C292.76,362.62,290.43,364.95,287.55,364.95z"/>
				<path class="st2" d="M287.55,386.54H183.18c-2.88,0-5.21-2.33-5.21-5.21l0,0c0-2.88,2.33-5.21,5.21-5.21h104.37
					c2.88,0,5.21,2.33,5.21,5.21l0,0C292.76,384.21,290.43,386.54,287.55,386.54z"/>
				<path class="st2" d="M287.55,408.13H183.18c-2.88,0-5.21-2.33-5.21-5.21l0,0c0-2.88,2.33-5.21,5.21-5.21h104.37
					c2.88,0,5.21,2.33,5.21,5.21l0,0C292.76,405.8,290.43,408.13,287.55,408.13z"/>
				<path class="st2" d="M287.55,429.72H183.18c-2.88,0-5.21-2.33-5.21-5.21l0,0c0-2.88,2.33-5.21,5.21-5.21h104.37
					c2.88,0,5.21,2.33,5.21,5.21l0,0C292.76,427.39,290.43,429.72,287.55,429.72z"/>
				<path class="st2" d="M287.55,451.31H183.18c-2.88,0-5.21-2.33-5.21-5.21l0,0c0-2.88,2.33-5.21,5.21-5.21h104.37
					c2.88,0,5.21,2.33,5.21,5.21l0,0C292.76,448.98,290.43,451.31,287.55,451.31z"/>
			</g>
			<g>
				<path class="st2" d="M312.62,268.02L312.62,268.02c0,2.88,2.33,5.21,5.21,5.21H470c2.88,0,5.21-2.33,5.21-5.21l0,0
					c0-2.88-2.33-5.21-5.21-5.21H317.83C314.95,262.81,312.62,265.14,312.62,268.02z"/>
				<path class="st2" d="M312.62,290.28L312.62,290.28c0,2.88,2.33,5.21,5.21,5.21H470c2.88,0,5.21-2.33,5.21-5.21v0
					c0-2.88-2.33-5.21-5.21-5.21H317.83C314.95,285.07,312.62,287.4,312.62,290.28z"/>
				<path class="st2" d="M312.62,312.54L312.62,312.54c0,2.88,2.33,5.21,5.21,5.21H470c2.88,0,5.21-2.33,5.21-5.21l0,0
					c0-2.88-2.33-5.21-5.21-5.21H317.83C314.95,307.33,312.62,309.66,312.62,312.54z"/>
				<path class="st2" d="M312.62,334.8L312.62,334.8c0,2.88,2.33,5.21,5.21,5.21H470c2.88,0,5.21-2.33,5.21-5.21l0,0
					c0-2.88-2.33-5.21-5.21-5.21H317.83C314.95,329.59,312.62,331.92,312.62,334.8z"/>
				<path class="st2" d="M312.62,357.06L312.62,357.06c0,2.88,2.33,5.21,5.21,5.21H470c2.88,0,5.21-2.33,5.21-5.21v0
					c0-2.88-2.33-5.21-5.21-5.21H317.83C314.95,351.85,312.62,354.18,312.62,357.06z"/>
				<path class="st2" d="M312.62,379.32L312.62,379.32c0,2.88,2.33,5.21,5.21,5.21H470c2.88,0,5.21-2.33,5.21-5.21l0,0
					c0-2.88-2.33-5.21-5.21-5.21H317.83C314.95,374.11,312.62,376.44,312.62,379.32z"/>
				<path class="st2" d="M312.62,401.58L312.62,401.58c0,2.88,2.33,5.21,5.21,5.21H470c2.88,0,5.21-2.33,5.21-5.21l0,0
					c0-2.88-2.33-5.21-5.21-5.21H317.83C314.95,396.37,312.62,398.7,312.62,401.58z"/>
				<path class="st2" d="M312.62,423.84L312.62,423.84c0,2.88,2.33,5.21,5.21,5.21H470c2.88,0,5.21-2.33,5.21-5.21l0,0
					c0-2.88-2.33-5.21-5.21-5.21H317.83C314.95,418.63,312.62,420.96,312.62,423.84z"/>
				<path class="st2" d="M312.62,446.1L312.62,446.1c0,2.88,2.33,5.21,5.21,5.21H470c2.88,0,5.21-2.33,5.21-5.21l0,0
					c0-2.88-2.33-5.21-5.21-5.21H317.83C314.95,440.89,312.62,443.23,312.62,446.1z"/>
			</g>
			<g>
				<path class="st2" d="M546.79,268.02L546.79,268.02c0,2.88,2.33,5.21,5.21,5.21h51.87c2.88,0,5.21-2.33,5.21-5.21l0,0
					c0-2.88-2.33-5.21-5.21-5.21H552C549.13,262.81,546.79,265.14,546.79,268.02z"/>
				<path class="st2" d="M546.79,290.28L546.79,290.28c0,2.88,2.33,5.21,5.21,5.21h51.87c2.88,0,5.21-2.33,5.21-5.21l0,0
					c0-2.88-2.33-5.21-5.21-5.21H552C549.13,285.07,546.79,287.4,546.79,290.28z"/>
				<path class="st2" d="M546.79,312.54L546.79,312.54c0,2.88,2.33,5.21,5.21,5.21h51.87c2.88,0,5.21-2.33,5.21-5.21l0,0
					c0-2.88-2.33-5.21-5.21-5.21H552C549.13,307.33,546.79,309.66,546.79,312.54z"/>
				<path class="st2" d="M546.79,334.8L546.79,334.8c0,2.88,2.33,5.21,5.21,5.21h51.87c2.88,0,5.21-2.33,5.21-5.21l0,0
					c0-2.88-2.33-5.21-5.21-5.21H552C549.13,329.59,546.79,331.92,546.79,334.8z"/>
				<path class="st2" d="M546.79,357.06L546.79,357.06c0,2.88,2.33,5.21,5.21,5.21h51.87c2.88,0,5.21-2.33,5.21-5.21l0,0
					c0-2.88-2.33-5.21-5.21-5.21H552C549.13,351.85,546.79,354.18,546.79,357.06z"/>
			</g>
			<circle class="st2" cx="516.94" cy="283.91" r="21.09"/>
			<circle class="st2" cx="516.94" cy="338.84" r="21.09"/>
		</g>
		<g>
			<g>
				<path class="st3" d="M398.14,2v131.99c0,0.67,0.54,1.21,1.21,1.21c0.67,0,1.21-0.54,1.21-1.21V2H398.14z"/>
			</g>
			<g>
				<g>
					<path class="st6" d="M418.13,193.39c-0.15,9.79-8.11,18-17.89,18.45c-10.75,0.49-19.66-8.1-19.66-18.75
						c0-0.73,0.06-1.44,0.15-2.14c3.05,2.16,6.12,4.36,9.31,6.33c1.78,3.96,6.03,6.59,10.79,5.93c4.35-0.6,7.91-4.06,8.62-8.39
						c0.94-5.7-2.87-10.74-8.1-11.77l0,0c-3.54-0.01-6.41-2.88-6.41-6.42v-2.21h6.41C410.85,175.42,418.28,183.57,418.13,193.39z"/>
				</g>
				<g>
					<path class="st8" d="M399.35,227.84c-1.12,0-2.03-0.91-2.03-2.03v-22.51c0-1.12,0.91-2.03,2.03-2.03
						c1.12,0,2.03,0.91,2.03,2.03v22.51C401.38,226.94,400.47,227.84,399.35,227.84z"/>
				</g>
				<g>
					<path class="st4" d="M410.5,164.03h-21.98v-20.86c0-4.33,3.51-7.84,7.84-7.84h6.3c4.33,0,7.84,3.51,7.84,7.84V164.03z"/>
				</g>
				<g>
					<path class="st3" d="M410.5,164.03c2.51,7.11-2.49,11.91-5.67,11.91h-9.91c-4.7,0-8.01-5.95-6.41-11.91H410.5z"/>
				</g>
			</g>
		</g>
	</g>
	<g>
		<path class="st0" d="M246.54,634.38c0,6.42-54.77,11.62-122.34,11.62c-67.57,0-122.34-5.2-122.34-11.62
			c0-6.42,54.77-11.62,122.34-11.62C191.77,622.77,246.54,627.97,246.54,634.38z"/>
		<g>
			<g>
				<g>
					<path class="st3" d="M22.5,634.38h191.39v-229.1L31.15,624.04L22.5,634.38z M185.18,605.67H83.89l101.29-121.25V605.67z"/>
					<g>
						<g>
							<rect x="201.51" y="449.75" class="st5" width="9.76" height="2.25"/>
						</g>
						<g>
							<rect x="201.51" y="462.78" class="st5" width="9.76" height="2.25"/>
						</g>
						<g>
							<rect x="201.51" y="475.82" class="st5" width="9.76" height="2.25"/>
						</g>
						<g>
							<rect x="201.51" y="488.85" class="st5" width="9.76" height="2.25"/>
						</g>
						<g>
							<rect x="201.51" y="501.88" class="st5" width="9.76" height="2.25"/>
						</g>
						<g>
							<rect x="201.51" y="514.92" class="st5" width="9.76" height="2.25"/>
						</g>
						<g>
							<rect x="201.51" y="527.95" class="st5" width="9.76" height="2.25"/>
						</g>
						<g>
							<rect x="201.51" y="540.98" class="st5" width="9.76" height="2.25"/>
						</g>
						<g>
							<rect x="201.51" y="554.02" class="st5" width="9.76" height="2.25"/>
						</g>
						<g>
							<rect x="201.51" y="567.05" class="st5" width="9.76" height="2.25"/>
						</g>
						<g>
							<rect x="201.51" y="580.08" class="st5" width="9.76" height="2.25"/>
						</g>
						<g>
							<rect x="201.51" y="593.12" class="st5" width="9.76" height="2.25"/>
						</g>
						<g>
							<rect x="201.51" y="606.15" class="st5" width="9.76" height="2.25"/>
						</g>
						<g>
							<rect x="201.51" y="619.18" class="st5" width="9.76" height="2.25"/>
						</g>
					</g>
				</g>
				<polygon class="st4" points="22.5,634.38 213.89,634.38 213.89,624.04 31.15,624.04 				"/>
			</g>
		</g>
	</g>
	<g>
		<path class="st0" d="M714.4,633.57c0,3.65-28.69,6.6-64.09,6.6c-35.39,0-64.09-2.96-64.09-6.6c0-3.65,28.69-6.6,64.09-6.6
			C685.71,626.97,714.4,629.92,714.4,633.57z"/>
		<g>
			<g>
				<g>
					<g>
						<polygon class="st9" points="604.35,605.8 603.69,617.66 613.31,617.88 614.49,605.41 						"/>
						<g>
							<path class="st3" d="M607.51,616c0,0,4.96-1.12,6.31-1.04c1.36,0.08,10.06,10.59,13.1,11.3c5.51,1.3,5.19,9.96,1.79,10.26
								c-9.81,0.87-26.37-3.89-26.37-3.89s-1.12-11.18-0.32-14.64C602.83,614.53,604.74,616.92,607.51,616z"/>
							<g>
								<g>
									<path class="st10" d="M615.23,625.79c-0.18,0.03-0.36-0.01-0.52-0.12c-0.3-0.22-0.37-0.64-0.15-0.95
										c0.07-0.1,1.83-2.48,3.91-3.26c2.77-1.03,4.66,0.68,4.74,0.76c0.27,0.25,0.29,0.68,0.03,0.96
										c-0.25,0.27-0.68,0.29-0.96,0.03c-0.05-0.05-1.37-1.21-3.34-0.48c-1.7,0.63-3.27,2.76-3.29,2.79
										C615.55,625.67,615.4,625.76,615.23,625.79z"/>
								</g>
								<g>
									<path class="st10" d="M613.44,623.68c-0.18,0.03-0.36-0.01-0.52-0.12c-0.3-0.22-0.37-0.64-0.15-0.95
										c0.07-0.1,1.83-2.48,3.91-3.26c2.78-1.03,4.66,0.68,4.74,0.76c0.27,0.25,0.29,0.68,0.03,0.96
										c-0.25,0.27-0.68,0.29-0.96,0.03c-0.05-0.05-1.37-1.21-3.34-0.48c-1.71,0.63-3.27,2.76-3.29,2.79
										C613.76,623.55,613.61,623.65,613.44,623.68z"/>
								</g>
								<g>
									<path class="st10" d="M617.78,627.64c-0.18,0.03-0.36-0.01-0.52-0.12c-0.3-0.22-0.37-0.64-0.15-0.95
										c0.07-0.1,1.83-2.48,3.91-3.26c2.78-1.03,4.66,0.68,4.74,0.76c0.27,0.25,0.29,0.68,0.03,0.96
										c-0.25,0.27-0.68,0.29-0.96,0.03c-0.05-0.05-1.37-1.21-3.34-0.48c-1.71,0.63-3.27,2.76-3.29,2.79
										C618.1,627.52,617.95,627.61,617.78,627.64z"/>
								</g>
							</g>
						</g>
					</g>
					<g>
						<g>
							<path class="st5" d="M639.75,461.2c0,0-0.2,2.79-0.56,7.41c-0.09,1.22-0.2,2.58-0.32,4.05c-1.25,15.51-3.66,43.55-6.29,63.45
								c-3.69,27.89-15.32,73.73-15.32,73.73l-12.01-0.41l-1.19-0.05l-2.85-0.09c0,0,2-29,4.55-54.17
								c1.68-16.6,2.68-55.89,3.16-80.7c0.25-12.79,0.36-21.74,0.36-21.74L639.75,461.2z"/>
						</g>
					</g>
					<path class="st6" d="M639.75,461.2c0,0-0.2,2.79-0.56,7.41c-0.09,1.22-0.2,2.58-0.32,4.05c-5.54,1.03-20.77,1.75-29.94,1.75
						c0.25-12.79,0.36-21.74,0.36-21.74L639.75,461.2z"/>
					<g>
						<path class="st6" d="M615.76,468.41c-0.01,0.95-1.12,91.34-10.51,141.01l-1.19-0.05c9.41-49.52,10.51-140.03,10.52-140.98
							L615.76,468.41z"/>
					</g>
				</g>
				<g>
					<g>
						<polygon class="st9" points="679.64,608.08 679.25,618.78 669.46,618.26 669.24,606.9 						"/>
						<g>
							<g>
								<g>
									<path class="st3" d="M676.75,618.29c0,0,2.13-2.78,3.79-2.63c1.66,0.14,14.32,10.52,18.69,11.42
										c4.38,0.91,3.48,4.12,2.65,5.76c-0.83,1.64-35-1.14-35-1.14s-0.79-10.19,0.37-13.29
										C668.42,615.32,673.31,618.98,676.75,618.29z"/>
									<g>
										<g>
											<path class="st10" d="M683.73,625.5c-0.16,0.04-0.33,0.03-0.48-0.06c-0.29-0.17-0.39-0.55-0.22-0.84
												c0.06-0.1,1.43-2.41,3.25-3.29c2.42-1.18,4.27,0.21,4.35,0.27c0.27,0.21,0.32,0.59,0.11,0.86
												c-0.21,0.27-0.59,0.32-0.86,0.11c-0.05-0.04-1.34-0.97-3.06-0.14c-1.48,0.72-2.72,2.79-2.73,2.81
												C684,625.36,683.87,625.46,683.73,625.5z"/>
										</g>
										<g>
											<path class="st10" d="M681.92,623.74c-0.16,0.04-0.33,0.03-0.48-0.06c-0.29-0.17-0.39-0.55-0.22-0.84
												c0.06-0.1,1.43-2.41,3.25-3.29c2.42-1.18,4.27,0.21,4.35,0.27c0.27,0.21,0.32,0.59,0.11,0.86
												c-0.21,0.27-0.59,0.32-0.86,0.11c-0.05-0.04-1.34-0.97-3.06-0.14c-1.49,0.72-2.72,2.79-2.73,2.81
												C682.2,623.61,682.07,623.7,681.92,623.74z"/>
										</g>
										<g>
											<path class="st10" d="M686.19,626.94c-0.16,0.04-0.33,0.03-0.48-0.06c-0.29-0.17-0.39-0.55-0.22-0.84
												c0.06-0.1,1.43-2.41,3.25-3.29c2.42-1.18,4.27,0.21,4.35,0.27c0.27,0.21,0.32,0.59,0.11,0.86
												c-0.21,0.27-0.59,0.32-0.86,0.11c-0.05-0.04-1.34-0.97-3.06-0.14c-1.49,0.72-2.72,2.79-2.73,2.81
												C686.47,626.81,686.33,626.9,686.19,626.94z"/>
										</g>
									</g>
								</g>
							</g>
						</g>
					</g>
					<g>
						<path class="st5" d="M681.42,610.87l-9.95-0.74l-1.19-0.08l-2.42-0.18c0,0-6.11-58.15-8.01-73.65
							c-1.65-13.46-9.37-43.69-14.37-62.51c-1.42-5.34-2.62-9.76-3.41-12.62c-0.6-2.25-0.96-3.52-0.96-3.52l33.25-3.22
							c0,0,0.09,0.73,0.25,2.05c0.32,2.69,0.95,7.85,1.7,14.32c2.08,17.64,5.23,45.08,6.46,59.05
							C685.9,565.75,681.42,610.87,681.42,610.87z"/>
					</g>
					<path class="st6" d="M676.31,470.72l-30.82,2.99c-1.42-5.34-2.62-9.76-3.41-12.62l32.54-4.7
						C674.93,459.09,675.56,464.25,676.31,470.72z"/>
					<g>
						<path class="st6" d="M671.47,610.13l-1.19-0.08c-0.58-17.98-2.34-62.9-5.95-81.94c-4.53-24-14.94-58.95-15.05-59.3l1.13-0.34
							c0.11,0.35,10.54,35.36,15.07,59.42C669.13,547.06,670.91,592.18,671.47,610.13z"/>
					</g>
				</g>
				<g>
					<g>
						<path class="st8" d="M679.75,456.92c-24.77,7.89-49.95,9.39-75.54,4.56c-0.49-6.97-1.78-29.84-2.76-53.95
							c-0.03-0.8-0.07-1.6-0.1-2.4c-0.02-0.64-0.05-1.28-0.07-1.93c-0.02-0.46-0.04-0.93-0.05-1.39c-0.01-0.21-0.02-0.42-0.02-0.64
							c-0.03-0.63-0.04-1.27-0.07-1.9c-0.02-0.53-0.05-1.05-0.07-1.58c0-0.07-0.01-0.15-0.01-0.22c0-0.07,0-0.13-0.01-0.19
							c-0.02-0.55-0.04-1.11-0.06-1.65c0-0.11-0.01-0.21-0.01-0.32c-0.02-0.66-0.05-1.33-0.07-1.99c-0.02-0.46-0.03-0.9-0.05-1.35
							c0-0.18-0.01-0.36-0.02-0.55c-0.02-0.51-0.04-1.02-0.05-1.52c-0.01-0.15-0.01-0.3-0.01-0.46c-0.01-0.46-0.03-0.93-0.04-1.39
							c-0.01-0.2-0.01-0.39-0.01-0.59c-0.02-0.66-0.05-1.32-0.06-1.97c-0.03-0.64-0.04-1.27-0.06-1.9
							c-0.02-0.42-0.03-0.84-0.04-1.26c-0.03-0.91-0.05-1.81-0.07-2.71c-0.53-20.65-0.47-37.59,1.01-39.91
							c3.44-5.37,20.07-14.02,25.09-18.02l0.05,0.83c0,0,3.54,4.14,7.22,3.6c3.34-0.49,5.67-4.53,6.06-5.26
							c2.72,1.68,8.93,4.29,14.96,7.11c6.03,2.81,11.89,5.82,13.92,8.28c1.74,2.12,3.68,18.64,5.45,38.92l0,0.07
							c0.03,0.38,0.07,0.76,0.1,1.13l0,0.06c0.02,0.29,0.05,0.58,0.08,0.89c0.01,0.18,0.03,0.37,0.05,0.55
							c0.03,0.41,0.07,0.83,0.11,1.25c0.05,0.63,0.11,1.25,0.16,1.89c0.05,0.65,0.1,1.31,0.16,1.97c0.01,0.2,0.03,0.39,0.05,0.59
							c0.04,0.46,0.07,0.93,0.12,1.39c0.01,0.15,0.02,0.3,0.03,0.46c0.04,0.5,0.08,1.01,0.12,1.52l0.04,0.54
							c0.03,0.45,0.07,0.89,0.11,1.35c0.05,0.66,0.1,1.32,0.15,1.98c0.01,0.1,0.02,0.21,0.03,0.32c0.04,0.55,0.08,1.1,0.12,1.65
							c0,0.07,0.01,0.13,0.01,0.19c0,0.07,0.01,0.15,0.02,0.22c0.04,0.52,0.08,1.05,0.12,1.57c0.05,0.63,0.1,1.25,0.14,1.89
							c0.02,0.21,0.03,0.42,0.05,0.63c0.04,0.46,0.07,0.93,0.1,1.39c0.05,0.64,0.1,1.28,0.14,1.92c0.06,0.8,0.11,1.6,0.17,2.39
							C678.14,427,679.42,449.88,679.75,456.92z"/>
					</g>
					<g>
						<path class="st3" d="M674.96,383.58l-74.23,4.48c-0.01-0.2-0.01-0.39-0.01-0.59c-0.02-0.66-0.05-1.32-0.06-1.97
							c-0.03-0.64-0.04-1.27-0.06-1.9c-0.02-0.42-0.03-0.84-0.04-1.26l73.93-4.47c0.03,0.41,0.07,0.83,0.11,1.25
							c0.05,0.63,0.11,1.25,0.16,1.89c0.05,0.65,0.1,1.31,0.16,1.97C674.93,383.19,674.94,383.39,674.96,383.58z"/>
						<path class="st3" d="M675.71,393.2l-74.65,4.51c0-0.07-0.01-0.15-0.01-0.22c0-0.07,0-0.13-0.01-0.19
							c-0.02-0.55-0.04-1.11-0.06-1.65c0-0.11-0.01-0.21-0.01-0.32c-0.02-0.66-0.05-1.33-0.07-1.99c-0.02-0.46-0.03-0.9-0.05-1.35
							l74.42-4.5c0.03,0.45,0.07,0.89,0.11,1.35c0.05,0.66,0.1,1.32,0.15,1.98c0.01,0.1,0.02,0.21,0.03,0.32
							c0.04,0.55,0.08,1.1,0.12,1.65c0,0.07,0.01,0.13,0.01,0.19C675.69,393.05,675.7,393.13,675.71,393.2z"/>
						<path class="st3" d="M676.43,403.01l-74.99,4.53c-0.03-0.8-0.07-1.6-0.1-2.4c-0.02-0.64-0.05-1.28-0.07-1.93
							c-0.02-0.46-0.04-0.93-0.05-1.39l74.8-4.52c0.04,0.46,0.07,0.93,0.1,1.39c0.05,0.64,0.1,1.28,0.14,1.92
							C676.32,401.41,676.37,402.21,676.43,403.01z"/>
					</g>
					<g>
						<path class="st3" d="M666.03,365.12c2.34,2.8,5.9,9.23,7.51,12.21c0.22,0.41,0.4,0.75,0.54,1.01
							c0.18,0.34,0.28,0.54,0.29,0.55c0.05,0.1,0.13,0.18,0.22,0.23c-0.05-0.61-0.1-1.21-0.15-1.81c-0.02-0.3-0.05-0.6-0.08-0.89
							l0-0.05c-0.33-0.61-0.72-1.32-1.15-2.1c-1.82-3.27-4.39-7.66-6.28-9.92c-0.21-0.25-0.58-0.28-0.82-0.07
							C665.85,364.5,665.82,364.87,666.03,365.12z"/>
					</g>
					<g>
						<path class="st3" d="M616.38,345.33c0.01,0,0.01,0,0.02,0c10-0.92,17.48-5.56,21.99-9.28c4.89-4.04,7.38-7.8,7.48-7.96
							c0.18-0.27,0.1-0.63-0.17-0.81c-0.27-0.18-0.63-0.1-0.81,0.17c-0.1,0.15-10.05,15.01-28.6,16.72
							c-0.32,0.03-0.56,0.31-0.53,0.64C615.8,345.12,616.07,345.35,616.38,345.33z"/>
					</g>
					<g>
						<path class="st3" d="M659.6,444.3c0.3-0.02,0.55-0.27,0.55-0.58c0-0.32-0.26-0.59-0.58-0.59c-16.5-0.08-26.81-7.82-32.55-14.3
							c-6.24-7.04-8.6-14.16-8.62-14.23c-0.1-0.31-0.43-0.48-0.74-0.38c-0.31,0.1-0.48,0.43-0.38,0.74c0.1,0.3,2.44,7.39,8.83,14.61
							c5.9,6.67,16.49,14.64,33.45,14.73C659.58,444.3,659.59,444.3,659.6,444.3z"/>
					</g>
					<g>
						<path class="st3" d="M645.67,434.52c0.26-0.02,0.48-0.2,0.54-0.47c0.07-0.32-0.14-0.63-0.45-0.69
							c-14.52-3-17.99-14.76-18.03-14.88c-0.09-0.31-0.41-0.49-0.72-0.4c-0.31,0.09-0.49,0.41-0.41,0.72
							c0.04,0.13,0.92,3.2,3.69,6.69c2.56,3.21,7.27,7.38,15.22,9.02C645.56,434.51,645.62,434.52,645.67,434.52z"/>
					</g>
				</g>
				<g>
					<path class="st3" d="M607.7,366.73c-1.99,3.06-4.75,9.88-5.98,13.03c-0.17,0.43-0.31,0.79-0.41,1.07
						c-0.14,0.36-0.22,0.57-0.22,0.58c-0.08,0.22-0.29,0.37-0.51,0.38l-0.01,0c-0.01-0.3-0.02-0.6-0.03-0.89
						c-0.17,0.01-0.34,0.02-0.51,0.03c0.07-0.18,0.23-0.61,0.47-1.22c0.3-0.77,0.71-1.82,1.19-3.01c1.41-3.46,3.44-8.14,5.04-10.6
						c0.18-0.27,0.54-0.35,0.81-0.17C607.8,366.09,607.87,366.46,607.7,366.73z"/>
				</g>
				<g>
					<g>
						<path class="st11" d="M613,291.64c0.65,10.73,7.7,17.73,18.43,17.08c10.73-0.65,17.73-9.05,17.08-19.78
							c-0.65-10.73-7.49-18.48-18.22-17.83C617.42,271.88,612.35,280.91,613,291.64z"/>
					</g>
					<g>
						<path class="st12" d="M615.69,296.11c0,0-3.22-3.8-5.24-0.37c-2.02,3.42,1.7,12.94,6.99,10.24L615.69,296.11z"/>
						<g>
							<g>
								<g>
									<path class="st13" d="M616.07,303.05c-0.2,0.01-0.39-0.11-0.46-0.31c-1.02-2.95-4.2-3.97-4.23-3.98
										c-0.24-0.08-0.38-0.33-0.3-0.58c0.08-0.24,0.33-0.38,0.57-0.3c0.15,0.05,3.65,1.17,4.83,4.56c0.08,0.24-0.04,0.5-0.28,0.58
										C616.16,303.04,616.11,303.05,616.07,303.05z"/>
								</g>
							</g>
						</g>
						<g>
							<path class="st13" d="M612.85,301.73c-0.09,0-0.17-0.01-0.25-0.06c-0.22-0.12-0.3-0.4-0.18-0.63
								c0.02-0.04,0.52-0.91,1.64-1.49c0.22-0.12,0.5-0.03,0.62,0.19c0.12,0.22,0.03,0.5-0.19,0.62c-0.86,0.45-1.26,1.12-1.26,1.13
								C613.14,301.64,613,301.72,612.85,301.73z"/>
						</g>
					</g>
					<g>
						<path class="st12" d="M646.42,294.25c0,0,2.74-4.16,5.16-1c2.42,3.15-0.13,13.05-5.7,11.01L646.42,294.25z"/>
						<g>
							<g>
								<g>
									<path class="st13" d="M646.87,301.19c0.2-0.01,0.38-0.16,0.42-0.36c0.66-3.05,3.69-4.45,3.72-4.46
										c0.23-0.1,0.33-0.38,0.23-0.61c-0.1-0.23-0.38-0.33-0.61-0.23c-0.14,0.06-3.48,1.6-4.24,5.11
										c-0.05,0.25,0.1,0.49,0.35,0.55C646.79,301.19,646.83,301.19,646.87,301.19z"/>
								</g>
							</g>
						</g>
						<g>
							<g>
								<g>
									<path class="st13" d="M649.92,299.49c0.08-0.01,0.17-0.03,0.24-0.09c0.2-0.15,0.25-0.44,0.1-0.64
										c-0.02-0.03-0.62-0.84-1.81-1.28c-0.24-0.09-0.5,0.03-0.59,0.27c-0.09,0.24,0.03,0.5,0.27,0.59
										c0.91,0.34,1.38,0.96,1.39,0.97C649.61,299.43,649.77,299.5,649.92,299.49z"/>
								</g>
							</g>
						</g>
					</g>
					<path class="st9" d="M639.49,312.91l0.58,9.65c0,0-2.58,5.09-6.46,5.66c-3.87,0.57-7.6-3.79-7.6-3.79l-0.6-9.99L639.49,312.91z
						"/>
					<path class="st12" d="M639.49,312.91l0.26,4.28c-2.44,3.06-7.03,4.06-13.96,3.46l-0.38-6.21L639.49,312.91z"/>
					<path class="st9" d="M614.1,296.02c0.07,0.56,0.15,1.12,0.24,1.69c0.23,1.43,0.51,2.89,0.87,4.35c0.01,0.05,0.02,0.1,0.04,0.15
						c1.73,7.04,5.06,13.86,11.48,15.73c14.54,4.22,18.88-8.29,20.48-15.52c0.18-0.8,0.33-1.69,0.45-2.64
						c0-0.04,0.01-0.08,0.02-0.12c0.13-1.06,0.24-2.2,0.31-3.36c0.06-0.86,0.1-1.74,0.13-2.62c0.08-2.14,0.08-4.28,0.06-6.18
						c-0.05-4.34-2.88-8.16-7.03-9.47c-5.97-1.89-14.94-3.13-23.05,2.14c-3,1.94-4.74,5.32-4.6,8.89
						C613.58,291.03,613.75,293.44,614.1,296.02z"/>
					<g>
						<path class="st11" d="M625.45,296.29c0.06,1.03-0.42,1.9-1.07,1.94c-0.66,0.04-1.24-0.76-1.3-1.79
							c-0.06-1.03,0.42-1.9,1.07-1.94C624.81,294.45,625.39,295.26,625.45,296.29z"/>
					</g>
					<g>
						<path class="st11" d="M640,295.41c0.06,1.03-0.42,1.9-1.07,1.94c-0.66,0.04-1.24-0.76-1.3-1.79c-0.06-1.03,0.42-1.9,1.07-1.94
							C639.36,293.57,639.94,294.38,640,295.41z"/>
					</g>
					<g>
						<path class="st11" d="M641.67,288.94c0,0-3.83-1.25-6.64,0.17l0.39,1.59c0,0,4.21-0.61,6.39,0.12
							C641.96,290.18,641.95,289.56,641.67,288.94z"/>
					</g>
					<g>
						<path class="st11" d="M619.47,290.28c0,0,3.65-1.71,6.61-0.63l-0.19,1.62c0,0-4.25-0.1-6.33,0.89
							C619.33,291.55,619.27,290.93,619.47,290.28z"/>
					</g>
					<g>
						<path class="st12" d="M632.04,303.81c-0.76,0.14-1.57-0.02-1.7-0.04c-0.25-0.05-0.41-0.3-0.36-0.54
							c0.05-0.25,0.3-0.41,0.54-0.36c0.44,0.09,1.47,0.17,1.84-0.16c0.07-0.06,0.17-0.18,0.14-0.46c-0.13-1.61-1.53-6.82-1.55-6.87
							c-0.07-0.25,0.08-0.5,0.32-0.56c0.25-0.07,0.5,0.08,0.56,0.32c0.06,0.22,1.44,5.35,1.58,7.04c0.05,0.64-0.22,1.02-0.45,1.22
							C632.72,303.62,632.39,303.75,632.04,303.81z"/>
					</g>
					<path class="st10" d="M625.94,306.94c0.49,1.86,1.94,5.26,6.14,5c4.21-0.25,5.2-3.5,5.47-5.71L625.94,306.94z"/>
					<g>
						<path class="st11" d="M648.09,294.23l-2.08,0.13c0.1-2.1-0.81-4.58-1.53-6.22c-1.65-3.72,1.27-5.59-1.29-7.35
							c-2.56-1.76-8.6-0.58-12.84-0.46c-4.27,0.12-11.11,0.59-12.74,1.08c-1.64,0.48-0.56,3.19,0.18,5.3
							c0.74,2.1-1.77,4.63-2.08,6.87c-0.09,0.64-0.01,1.59,0.16,2.6l-1.73,0.1c-0.37-2.68-0.55-5.19-0.64-7.23
							c-0.15-3.57,1.6-6.94,4.6-8.89c8.11-5.27,17.08-4.03,23.05-2.14c4.14,1.31,6.98,5.13,7.03,9.47
							C648.2,289.56,648.19,291.91,648.09,294.23z"/>
					</g>
					<g>
						<g>
							<path class="st10" d="M633.41,296.54c-0.18-3.01,2.12-5.61,5.13-5.79c3.01-0.18,5.61,2.12,5.79,5.13
								c0.18,3.01-2.12,5.61-5.13,5.8C636.19,301.85,633.59,299.55,633.41,296.54z M634.26,296.48c0.15,2.54,2.35,4.49,4.89,4.33
								c2.54-0.15,4.49-2.35,4.33-4.89c-0.15-2.54-2.35-4.49-4.89-4.33C636.05,291.75,634.1,293.94,634.26,296.48z"/>
						</g>
						<g>
							<path class="st10" d="M618.47,297.44c-0.18-3.01,2.12-5.61,5.13-5.79c3.01-0.18,5.61,2.12,5.79,5.13
								c0.18,3.01-2.12,5.61-5.13,5.8C621.25,302.76,618.65,300.45,618.47,297.44z M619.32,297.39c0.15,2.54,2.35,4.49,4.89,4.33
								c2.54-0.15,4.49-2.35,4.33-4.89c-0.15-2.54-2.35-4.49-4.89-4.33C621.11,292.65,619.17,294.84,619.32,297.39z"/>
						</g>
						<g>
							<path class="st10" d="M643.31,294.17c0.11-0.01,0.21-0.05,0.29-0.14l0,0c0.02-0.03,2.36-2.58,5.66-2.02
								c0.23,0.04,0.45-0.12,0.49-0.35c0.04-0.23-0.12-0.45-0.35-0.49c-3.78-0.64-6.34,2.17-6.44,2.29
								c-0.16,0.18-0.14,0.45,0.03,0.6C643.09,294.14,643.2,294.18,643.31,294.17z"/>
						</g>
						<g>
							<path class="st10" d="M619.19,295.63c0.14-0.01,0.27-0.08,0.35-0.21c0.12-0.2,0.05-0.47-0.16-0.58
								c-0.17-0.1-4.19-2.36-7.44-1.62c-0.23,0.05-0.37,0.28-0.32,0.51c0.05,0.23,0.28,0.37,0.51,0.32c2.93-0.67,6.79,1.5,6.83,1.53
								C619.02,295.62,619.11,295.63,619.19,295.63z"/>
						</g>
						<g>
							<path class="st10" d="M629.02,295.57c0.01-0.01,0.94-1.44,2.27-1.52c1.32-0.08,2.31,1.23,2.32,1.24l0.69-0.51
								c-0.05-0.07-1.28-1.7-3.06-1.59c-1.77,0.11-2.89,1.85-2.94,1.92L629.02,295.57z"/>
						</g>
					</g>
				</g>
				<g>
					<path class="st9" d="M605.77,451.32l-4.83,6.6c0,0-2.8-1.75-6.6-4.8c-0.01-0.01-0.01-0.01-0.02-0.02
						c-5.79-4.62-13.89-12.23-18.03-21.18c-5.17-11.18-3.66-20.24-3.66-20.24c0.68-6.63,5.13-20.11,8.67-30.11
						c1.29-3.63,2.47-6.8,3.29-9.02l10.81,2.48l4.62,2.85l-1.78,4.69l-11.92,31.63c1.05,9.28,5.75,18.4,10.28,25.27
						C601.27,446.6,605.77,451.32,605.77,451.32z"/>
					<path class="st12" d="M605.77,451.32l-4.83,6.6c0,0-2.8-1.75-6.6-4.8c-0.01-0.01-0.01-0.01-0.02-0.02
						c-0.83-4.99-0.33-12.03,2.28-13.63C601.27,446.6,605.77,451.32,605.77,451.32z"/>
					<path class="st9" d="M603.19,443.71c0.97,0.06,6.16,0.32,5.6-1.45c-0.62-1.96-5.71-4.25-5.71-4.25s-0.03-0.1,0.02-0.23
						l-0.06-0.42l-0.22-4.21c-0.98,0.01-1.89,0.2-2.38,0.35c-2.23,0.69-1.92,5.79-1.92,5.79s-2.81,1.01-2.71,3.07
						c0.1,2.06,2.37,2.37,2.37,2.37s-3.1,1.54-2.37,3.3c0.72,1.75,3.07,2.27,3.07,2.27s-2.65,1.75-1.73,2.99
						c0.93,1.24,3.09,1.85,3.09,1.85s-1.85,2.51,0.03,3.87c1.88,1.37,4.65,1.07,6.43,0.45c1.78-0.62,1.47-2.88-2.03-4.53
						c0,0,3.09,0.31,4.63-2.27c1.29-2.15-2-3.07-4.8-3.44c2.2,0.15,6,0.09,6.66-2.02C612.01,444.45,604.38,443.8,603.19,443.71z"/>
					<path class="st12" d="M600.02,377.88l-1.78,4.69c-3.59,0.22-10.01,0.33-16.94-1c1.29-3.63,2.47-6.8,3.29-9.02l10.81,2.48
						L600.02,377.88z"/>
					<path class="st8" d="M601.5,339.73c0,0-13.15,13.2-22.76,36.21c7.53,2.43,14.65,4.16,21.27,4.98
						c0.87-1.53,4.32-11.38,6.92-18.48L601.5,339.73z"/>
				</g>
			</g>
			<g>
				<g>
					<g>
						<path class="st9" d="M704.82,414.57c-0.07,0.04-0.14,0.09-0.21,0.13c-3.91,2.55-9.16,1-11.06-3.27l-10.81-20.1l-3.35-6.92
							l-2.13-4.4l-1.92-3.97l-1.76-3.62c-0.23-1.16-0.46-2.38-0.68-3.64l5.37-13.97l2.42-1.75c0,0,2.95,6.34,6.99,14.12
							c0.62,1.18,1.26,2.4,1.92,3.64c0.34,0.63,0.68,1.27,1.03,1.9c0.81,1.48,1.63,2.98,2.47,4.45c0.88,1.55,1.76,3.09,2.61,4.59
							c0.6,1.05,1.19,2.08,1.75,3.09c0.34,0.6,0.68,1.2,1.01,1.77c2.66,4.7,4.77,8.44,5.56,9.92l1.39-0.1
							C705.41,396.44,711.55,410.05,704.82,414.57z"/>
						<path class="st12" d="M690.62,372.72l-11.24,11.7l-2.13-4.4l-1.92-3.97l12.35-8.87c0.62,1.18,1.26,2.4,1.92,3.64
							C689.93,371.45,690.28,372.08,690.62,372.72z"/>
						<path class="st9" d="M698.35,402.49c0,0-1.44-16.34,1.5-20.3c2.94-3.96,5.89-5.75,9.15-6.12c3.26-0.37,6.37-0.43,6.37,0.94
							c0,0,7.27-2.24,10.89-0.82c3.61,1.43-9.3,5.1-13.19,5.79c-3.89,0.69-5.63,3.18-5.44,5.54c0.19,2.35,0.26,18.12,0.26,18.12
							L698.35,402.49z"/>
						<g>
							<g>
								<g>
									<g>
										<g>
											<path class="st12" d="M697.26,402.32c0.03,0,0.06,0,0.09-0.01c0.28-0.04,0.49-0.28,0.5-0.57
												c0.05-6.9,0.31-12.14,0.57-15.23c-0.32-0.58-0.57-1.15-0.91-1.75c-0.27,2.73-0.75,8.61-0.81,16.97
												C696.69,402.05,696.94,402.31,697.26,402.32z"/>
										</g>
									</g>
								</g>
							</g>
						</g>
					</g>
					<g>
						<path class="st6" d="M691.19,381.71l49.38-7.09c1.86-0.27,3.15-1.99,2.88-3.85l0-0.03c-0.27-1.86-1.99-3.15-3.85-2.88
							l-49.38,7.09c-1.86,0.27-3.15,1.99-2.88,3.85l0,0.03C687.61,380.68,689.33,381.97,691.19,381.71z"/>
						<g>
							<path class="st5" d="M743.92,374.13l4.87-41.01c0.27-2.3-1.71-4.24-4.01-3.91l-23.21,3.33c-1.57,0.22-2.79,1.46-3,3.03
								l-5.67,43.01L743.92,374.13z"/>
						</g>
						<path class="st6" d="M718.58,335.58l-5.63,42.65l-2.65,0.38l5.63-42.65c0.21-1.57,1.43-2.81,3-3.03l2.65-0.38
							C720.02,332.77,718.79,334.01,718.58,335.58z"/>
						<g>
							<path class="st14" d="M727.59,355.89c-0.23,2.69,1.7,4.57,4.3,4.2c2.6-0.37,4.9-2.86,5.13-5.55c0.23-2.69-1.7-4.57-4.3-4.2
								C730.12,350.71,727.82,353.19,727.59,355.89z"/>
						</g>
					</g>
				</g>
				<path class="st8" d="M692.47,368.68l-2.87,2.14l-12.34,9.2l-1.5,1.12c-0.72-1.98-1.46-5.06-2.17-8.71
					c-0.23-1.16-0.46-2.38-0.68-3.64c-2.49-14.04-4.59-33.06-4.59-33.06S679.75,346.45,692.47,368.68z"/>
			</g>
		</g>
	</g>
	<g>
		<ellipse class="st0" cx="324.48" cy="634.25" rx="64.09" ry="6.6"/>
		<g>
			<g>
				<polygon class="st9" points="293.14,611.33 293.14,623.16 301.61,622.99 302.17,610.45 				"/>
				<g>
					<g>
						<g>
							<path class="st3" d="M295.44,622.09c0,0-1.93-2.71-3.51-2.64c-1.58,0.08-13.97,9.49-18.16,10.2
								c-4.19,0.71-3.45,3.8-2.72,5.38c0.73,1.59,33.29,0.15,33.29,0.15s1.11-9.66,0.11-12.64
								C303.46,619.56,298.69,622.86,295.44,622.09z"/>
							<g>
								<g>
									<path class="st10" d="M288.56,628.7c0.15,0.05,0.31,0.04,0.46-0.04c0.28-0.15,0.39-0.51,0.24-0.79
										c-0.05-0.1-1.28-2.34-2.97-3.24c-2.26-1.2-4.06,0.05-4.14,0.1c-0.26,0.19-0.33,0.55-0.14,0.81
										c0.19,0.26,0.55,0.33,0.82,0.14c0.05-0.03,1.31-0.88,2.91-0.02c1.38,0.74,2.48,2.74,2.49,2.76
										C288.3,628.56,288.42,628.65,288.56,628.7z"/>
								</g>
								<g>
									<path class="st10" d="M290.34,627.09c0.15,0.05,0.31,0.04,0.46-0.04c0.28-0.15,0.39-0.51,0.24-0.79
										c-0.05-0.1-1.28-2.34-2.97-3.24c-2.26-1.2-4.06,0.05-4.14,0.1c-0.26,0.19-0.33,0.55-0.14,0.81
										c0.19,0.26,0.55,0.33,0.81,0.14c0.05-0.03,1.31-0.88,2.91-0.02c1.39,0.74,2.48,2.74,2.49,2.76
										C290.08,626.95,290.2,627.05,290.34,627.09z"/>
								</g>
								<g>
									<path class="st10" d="M286.17,629.98c0.15,0.05,0.31,0.04,0.46-0.04c0.28-0.15,0.39-0.51,0.24-0.79
										c-0.05-0.09-1.28-2.34-2.97-3.24c-2.26-1.2-4.06,0.05-4.14,0.1c-0.26,0.19-0.33,0.55-0.14,0.81
										c0.19,0.26,0.55,0.33,0.82,0.14c0.05-0.03,1.31-0.88,2.91-0.02c1.39,0.74,2.48,2.74,2.49,2.76
										C285.91,629.84,286.03,629.94,286.17,629.98z"/>
								</g>
							</g>
						</g>
					</g>
				</g>
			</g>
			<g>
				<path class="st5" d="M291.41,613.49l8.62-0.73l1.03-0.08l2.09-0.18c0,0,2.84-64.01,3.83-81.06c0.87-14.81,6.29-48.06,9.84-68.74
					c1.01-5.87,1.87-10.73,2.43-13.87c0.43-2.47,0.69-3.87,0.69-3.87l-29.06-3.82c0,0-0.05,0.8-0.13,2.25
					c-0.17,2.96-0.49,8.63-0.87,15.77c-1.06,19.41-2.64,49.62-3.11,65C285.6,563.75,291.41,613.49,291.41,613.49z"/>
			</g>
			<path class="st6" d="M289.9,459.15l26.93,3.55c1.01-5.87,1.87-10.73,2.43-13.87l-28.5-5.44
				C290.6,446.34,290.28,452.02,289.9,459.15z"/>
			<g>
				<path class="st6" d="M300.03,612.76l1.03-0.08c-0.26-19.81-0.64-69.27,1.69-90.21c2.92-26.4,10.49-64.82,10.57-65.2l-1-0.38
					c-0.08,0.39-7.66,38.87-10.58,65.34C299.39,543.29,299.76,592.99,300.03,612.76z"/>
			</g>
		</g>
		<g>
			<g>
				<polygon class="st9" points="361.27,607.54 364.72,618.85 372.77,616.22 369.65,604.06 				"/>
				<g>
					<g>
						<g>
							<path class="st3" d="M367.01,617.18c0,0-2.76-1.87-4.21-1.24c-1.45,0.63-9.77,13.78-13.45,15.91
								c-3.68,2.13-1.9,4.76-0.66,5.99c1.24,1.23,31.24-11.51,31.24-11.51s-2.34-9.44-4.32-11.88
								C373.63,612,370.32,616.77,367.01,617.18z"/>
							<g>
								<g>
									<path class="st10" d="M362.88,625.78c0.15-0.01,0.3-0.07,0.41-0.2c0.21-0.24,0.19-0.61-0.06-0.82
										c-0.08-0.07-2.01-1.74-3.92-1.99c-2.53-0.34-3.79,1.47-3.84,1.54c-0.18,0.27-0.11,0.63,0.16,0.81
										c0.27,0.18,0.63,0.11,0.81-0.16c0.03-0.05,0.92-1.28,2.72-1.04c1.55,0.2,3.28,1.7,3.3,1.72
										C362.58,625.74,362.73,625.78,362.88,625.78z"/>
								</g>
								<g>
									<path class="st10" d="M363.98,623.65c0.15-0.01,0.3-0.07,0.41-0.2c0.21-0.24,0.19-0.61-0.06-0.82
										c-0.08-0.07-2.01-1.74-3.92-1.99c-2.54-0.34-3.79,1.47-3.84,1.54c-0.18,0.27-0.11,0.63,0.16,0.81
										c0.27,0.18,0.63,0.11,0.81-0.16c0.03-0.05,0.92-1.28,2.72-1.04c1.56,0.21,3.28,1.7,3.3,1.72
										C363.69,623.61,363.83,623.65,363.98,623.65z"/>
								</g>
								<g>
									<path class="st10" d="M361.08,627.81c0.15-0.01,0.31-0.07,0.41-0.2c0.21-0.24,0.19-0.61-0.06-0.83
										c-0.08-0.07-2.01-1.74-3.92-1.99c-2.54-0.34-3.79,1.47-3.84,1.54c-0.18,0.27-0.11,0.63,0.16,0.81
										c0.27,0.18,0.63,0.11,0.81-0.16c0.03-0.05,0.92-1.28,2.72-1.04c1.56,0.21,3.28,1.7,3.3,1.72
										C360.79,627.77,360.94,627.82,361.08,627.81z"/>
								</g>
							</g>
						</g>
					</g>
				</g>
			</g>
			<g>
				<path class="st5" d="M360.41,610.01l8.1-3.03l0.97-0.36l1.97-0.74c0,0-14.54-62.4-18.18-79.09c-3.16-14.5-6.91-47.97-9.07-68.85
					c-0.61-5.93-1.1-10.84-1.4-14.01c-0.25-2.49-0.38-3.91-0.38-3.91l-29.01,4.16c0,0,0.17,0.79,0.49,2.2
					c0.64,2.9,1.86,8.45,3.42,15.42c4.22,18.98,10.85,48.49,14.55,63.42C341.38,563.69,360.41,610.01,360.41,610.01z"/>
			</g>
			<path class="st6" d="M317.3,461.8l26.89-3.85c-0.61-5.93-1.1-10.84-1.4-14.01l-28.91,2.45
				C314.52,449.29,315.74,454.84,317.3,461.8z"/>
			<g>
				<path class="st6" d="M368.51,606.98l0.97-0.36c-5.6-19-19.31-66.53-22.72-87.32c-4.31-26.21-7.39-65.24-7.42-65.64l-1.06-0.1
					c0.03,0.39,3.11,39.49,7.44,65.77C349.15,540.27,362.92,588.02,368.51,606.98z"/>
			</g>
		</g>
		<path class="st3" d="M308.28,373.06c-7.96,12.96-30.56,25.01-30.56,25.01c-8.59-1.4-14.1-3.7-19.58-6.39
			c1.41-3.87,1.91-7.76,2.55-12.81c8,1.82,14.88,2.67,14.88,2.67c16.3-8.52,34.09-48.21,34.09-48.21
			C315.58,344.18,308.28,373.06,308.28,373.06z"/>
		<g>
			<g>
				<path class="st11" d="M310.88,321.68c-0.02,1.62-0.08,3.45-0.16,5.4c2.45,0.64,4.98,1.06,7.46,1.49
					c6.85,1.17,13.83,1.66,20.75,0.74c5.06-0.67,10.11-1.9,14.33-4.9c1.9-1.35,3.49-3.01,4.78-4.86c-1.08-2.02-2.19-4.63-2.38-10.95
					c-0.17-5.69-0.47-13.55-0.47-13.55c-0.84-17.05-18.02-20.19-18.02-20.19c-20.68-4.19-27.79,12.99-28.35,22.62
					c-0.04,0.66-0.05,1.32-0.04,1.99l0,0.05C308.5,303.53,310.98,313.72,310.88,321.68z"/>
			</g>
			<g>
				<g>
					<path class="st8" d="M355.13,339.79c0,0-0.89,11.13-2.8,21.82c-0.68,3.81-1.49,7.56-2.43,10.73c-0.57,1.91-1.15,4.02-1.72,6.28
						c-2.58,10.19-5.02,23.46-5.31,34.74c-0.05,2.12-0.03,4.17,0.08,6.11c0.84,14.62,6.17,27.42,1.37,32.55
						c0,0-40.19,9.26-56.38-4.43c-1.34-1.13-1.9-2.92-1.37-4.6c2.3-7.19,9-28.36,11.9-39.37c2.49-9.43,4.08-16.42,4.1-22.13
						c0-0.48-0.01-0.95-0.03-1.42c-0.08-1.85-0.35-3.58-0.83-5.21c-2.01-6.9-2.43-9.4,0.26-14.33c0.58-1.06,1.26-2.93,1.98-5.2
						c2.62-8.28,5.7-22.01,5.7-22.01l3.1-0.73l4.66-1.09l2.83-0.67l14.19-1.21c0,0,2.46,1.1,5.77,2.65c1.86,0.87,4,1.88,6.11,2.9
						C349.71,336.85,353.06,338.55,355.13,339.79z"/>
					<path class="st3" d="M352.32,361.61c-0.68,3.81-1.49,7.56-2.43,10.73c-0.57,1.91-1.15,4.02-1.72,6.28
						c-2.58,10.19-5.02,23.46-5.31,34.74l-14.52-7.24l12.48-13.46l3.2-34.55L352.32,361.61z"/>
					<g>
						<g>
							<path class="st3" d="M302.54,380.08c0.02,0.46,0.03,0.93,0.03,1.41c6.6,6.38,18.11,15.27,31.86,16.18
								c0.27,0.02,0.51-0.19,0.53-0.46c0.02-0.27-0.19-0.51-0.46-0.53C320.52,395.76,308.88,386.39,302.54,380.08z"/>
						</g>
						<g>
							<path class="st3" d="M318.19,358.5c6.98,0.47,13.92-6.53,14.22-6.83c0.19-0.19,0.19-0.51-0.01-0.7
								c-0.19-0.19-0.51-0.19-0.7,0.01c-0.07,0.07-7.34,7.4-14.05,6.48c-0.27-0.04-0.52,0.15-0.56,0.42
								c-0.04,0.27,0.15,0.52,0.42,0.56C317.74,358.46,317.96,358.49,318.19,358.5z"/>
						</g>
						<g>
							<path class="st3" d="M329.79,430.24c0.25,0.02,0.47-0.15,0.52-0.4c0.05-0.27-0.13-0.53-0.4-0.57
								c-17.9-3.28-23.29-35.01-23.34-35.33c-0.04-0.27-0.3-0.45-0.57-0.41c-0.27,0.04-0.45,0.3-0.41,0.57
								c0.22,1.34,5.56,32.74,24.14,36.14C329.76,430.24,329.77,430.24,329.79,430.24z"/>
						</g>
						<g>
							<path class="st3" d="M323.24,420.31c0.17,0.01,0.33-0.06,0.44-0.21c0.16-0.22,0.11-0.53-0.12-0.69
								c-9.2-6.56-10.05-15.37-10.05-15.46c-0.02-0.27-0.26-0.48-0.53-0.45c-0.27,0.02-0.47,0.26-0.45,0.53
								c0.03,0.38,0.87,9.35,10.46,16.18C323.06,420.28,323.15,420.31,323.24,420.31z"/>
						</g>
					</g>
				</g>
			</g>
			<g>
				<g>
					<g>
						<path class="st12" d="M315.78,301.1c0,0-2.73-3.98-5.15-1c-2.43,2.97,0.09,12.41,5.67,10.52L315.78,301.1z"/>
						<path class="st7" d="M313.91,309.82c-0.04,0.55-0.51,0.96-1.06,0.93c-0.55-0.04-0.96-0.51-0.93-1.06
							c0.04-0.55,0.51-0.96,1.06-0.93C313.53,308.8,313.95,309.27,313.91,309.82z"/>
						<g>
							<g>
								<g>
									<path class="st13" d="M315.3,307.69c-0.2-0.01-0.38-0.15-0.42-0.35c-0.65-2.9-3.68-4.27-3.71-4.28
										c-0.23-0.1-0.33-0.36-0.23-0.58c0.1-0.22,0.38-0.31,0.61-0.21c0.14,0.06,3.48,1.55,4.23,4.9c0.05,0.24-0.11,0.47-0.35,0.52
										C315.38,307.69,315.34,307.7,315.3,307.69z"/>
								</g>
							</g>
						</g>
						<g>
							<path class="st13" d="M312.26,306.05c-0.08-0.01-0.17-0.03-0.24-0.09c-0.2-0.14-0.25-0.42-0.1-0.61
								c0.03-0.03,0.63-0.79,1.81-1.2c0.24-0.08,0.5,0.03,0.59,0.26c0.09,0.23-0.03,0.48-0.27,0.56c-0.91,0.32-1.39,0.9-1.39,0.91
								C312.57,306,312.41,306.06,312.26,306.05z"/>
						</g>
					</g>
					<path class="st9" d="M337.47,321.93l-0.68,10.17c0,0-5.61,4.85-9.73,4.93c-4.12,0.08-5.22-4.85-5.22-4.85l0.7-10.53
						L337.47,321.93z"/>
					<path class="st12" d="M337.39,323.04l-0.3,4.51c-2.96,2.87-7.92,3.63-15.08,2.08l0.46-6.87L337.39,323.04z"/>
					<path class="st9" d="M313.7,305.29c0.06,1.1,0.14,2.22,0.26,3.34c0.81,7.44,4.93,15.7,10.72,17.43
						c12.5,3.73,18.43-5.89,20.95-13.1c0.28-0.8-0.08-1.77,0.16-2.72c0.57-2.26,1.67-4.8,2.05-7.36c0.26-1.77,0.48-3.52,0.66-5.1
						c0.5-4.46-1.81-8.74-5.75-10.62c-5.68-2.71-14.41-5.14-23.13-0.78c-3.22,1.61-5.39,4.85-5.71,8.52
						C313.68,297.72,313.51,301.4,313.7,305.29z"/>
					<g>
						<path class="st12" d="M328.81,312.01c0.24,0.02,0.46-0.14,0.51-0.38c0.06-0.27-0.1-0.53-0.37-0.59l-1.67-0.4l2.75-6.06
							c0.11-0.25,0-0.54-0.25-0.65c-0.25-0.11-0.54,0-0.65,0.25l-3.24,7.15l2.84,0.67C328.75,312.01,328.78,312.01,328.81,312.01z"
							/>
					</g>
					<g>
						<path class="st11" d="M319.42,293.22c-5.11,1.93-3.93,7.93-5.8,10.77c-0.12,0.18-0.24,0.21-0.35,0.11
							c-0.21-3.96-0.03-7.71,0.21-10.58c0.32-3.75,2.6-7.04,5.99-8.68c9.18-4.43,18.39-1.93,24.38,0.85
							c4.16,1.92,6.61,6.29,6.09,10.84c-0.19,1.61-0.41,3.39-0.69,5.2c-0.86,0.43-2.88,0.52-3.05,1.84
							c-0.46,3.48-0.79,5.87-1.5,5.61c-1.21-0.44-1.69-4.73-0.1-7.37c0,0-1.01-1.92-5.51-4.01c-5.78-2.68-11.26-6.44-11.26-6.44
							s-2.16-1.51-2.93-3.04C324.9,288.3,323.31,291.75,319.42,293.22z"/>
					</g>
					<g>
						<path class="st11" d="M323.58,303.41c-0.07,1.09-0.69,1.93-1.38,1.88c-0.69-0.05-1.19-0.96-1.12-2.05
							c0.07-1.09,0.69-1.93,1.38-1.88C323.15,301.41,323.65,302.32,323.58,303.41z"/>
					</g>
					<g>
						<path class="st11" d="M337.09,304.31c-0.07,1.09-0.69,1.93-1.38,1.88c-0.69-0.05-1.19-0.96-1.12-2.05
							c0.07-1.09,0.69-1.93,1.38-1.88C336.66,302.31,337.16,303.23,337.09,304.31z"/>
					</g>
					<g>
						<path class="st11" d="M319.31,297.94c1.02-0.13,3.07-0.32,5.23-0.1c0.57,0.06,1,0.52,0.89,0.97l0,0.01
							c-0.09,0.36-0.49,0.58-0.94,0.51c-1.47-0.21-5.33-0.44-7.16-0.03c-0.03-0.26,0.16-0.53,0.43-0.75
							C318.16,298.22,318.71,298.02,319.31,297.94z"/>
					</g>
					<g>
						<path class="st11" d="M339.39,299.52c-0.99-0.28-2.99-0.76-5.16-0.86c-0.57-0.03-1.06,0.37-1.02,0.83l0,0.01
							c0.03,0.37,0.4,0.64,0.86,0.64c1.48,0.01,5.34,0.34,7.09,1.02c0.07-0.26-0.08-0.55-0.31-0.81
							C340.49,299.96,339.97,299.68,339.39,299.52z"/>
					</g>
					<path class="st7" d="M323.15,314.58c0.25,1.75,1.25,5.01,5.34,5.29c4.1,0.27,5.44-2.55,5.97-4.53L323.15,314.58z"/>
					<g>
						<path class="st12" d="M328.23,322.84c-1.18-0.08-2.18-0.78-2.22-0.81c-0.22-0.16-0.27-0.46-0.11-0.68
							c0.16-0.22,0.46-0.27,0.67-0.11l0,0c0.01,0.01,0.82,0.58,1.72,0.64c0.97,0.06,1.88-0.39,1.89-0.4
							c0.24-0.12,0.53-0.03,0.65,0.21c0.12,0.24,0.03,0.53-0.21,0.65C330.58,322.36,329.48,322.92,328.23,322.84z"/>
					</g>
				</g>
				<g>
					<path class="st9" d="M346.35,303.11c0,0,3.75-3.97,5.59-0.81c1.84,3.17-1.65,11.93-6.51,9.41L346.35,303.11z"/>
					<path class="st7" d="M348.56,312.13c-0.04,0.55-0.51,0.96-1.06,0.93c-0.55-0.04-0.96-0.51-0.93-1.06
						c0.04-0.55,0.51-0.96,1.06-0.93C348.19,311.11,348.6,311.59,348.56,312.13z"/>
					<g>
						<g>
							<g>
								<path class="st12" d="M346.71,309.03c0.19,0.01,0.36-0.1,0.43-0.28c0.96-2.71,3.9-3.64,3.93-3.65
									c0.22-0.07,0.35-0.31,0.28-0.53c-0.07-0.22-0.31-0.35-0.53-0.28c-0.14,0.04-3.38,1.06-4.48,4.18
									c-0.08,0.22,0.04,0.46,0.26,0.54C346.63,309.02,346.67,309.02,346.71,309.03z"/>
							</g>
						</g>
					</g>
					<g>
						<g>
							<g>
								<path class="st12" d="M349.69,307.83c0.08,0.01,0.16-0.01,0.23-0.05c0.2-0.11,0.28-0.37,0.17-0.58
									c-0.02-0.03-0.47-0.84-1.5-1.39c-0.21-0.11-0.46-0.03-0.57,0.18c-0.11,0.21-0.03,0.46,0.18,0.57
									c0.8,0.42,1.15,1.04,1.16,1.05C349.42,307.74,349.55,307.82,349.69,307.83z"/>
							</g>
						</g>
					</g>
				</g>
			</g>
		</g>
		<g>
			<path class="st4" d="M330.99,439.8h-74.49c-3.83,0-6.94-3.11-6.94-6.94v-74.49c0-3.83,3.11-6.94,6.94-6.94h74.5
				c3.83,0,6.94,3.11,6.94,6.94v74.49C337.93,436.69,334.82,439.8,330.99,439.8z"/>
			<path class="st3" d="M327.15,439.8h-74.49c-3.83,0-6.94-3.11-6.94-6.94v-74.49c0-3.83,3.11-6.94,6.94-6.94h74.49
				c3.83,0,6.94,3.11,6.94,6.94v74.49C334.09,436.69,330.98,439.8,327.15,439.8z"/>
			<g>
				<g>
					<g>
						<path class="st7" d="M315.04,371.76c-5.74-5.81-15.14-5.86-20.95-0.12l-5.79,5.72c-1.84,1.82-0.79,4.96,1.77,5.3
							c0.03,0,0.05,0.01,0.08,0.01c0.96,0.13,1.92-0.19,2.61-0.87l5.76-5.69c3.34-3.3,8.75-3.28,12.05,0.07
							c3.31,3.35,3.28,8.75-0.07,12.05l-11.38,11.25c-3.34,3.3-8.75,3.27-12.05-0.07c-0.14-0.14-0.27-0.28-0.39-0.42
							c-1.01-1.17-2.69-1.51-4.01-0.71l-0.03,0.02l-0.06,0.04c-1.64,0.98-1.99,3.19-0.76,4.65c0.24,0.29,0.5,0.57,0.77,0.85
							c5.75,5.81,15.14,5.87,20.95,0.12l11.38-11.24C320.73,386.97,320.79,377.57,315.04,371.76z"/>
					</g>
				</g>
				<g>
					<g>
						<path class="st7" d="M284.6,412.75l-4.97,4.91c-3.39,3.35-9.02,3.43-12.31-0.02c-3.2-3.35-3.14-8.68,0.17-11.94l11.38-11.25
							c3.34-3.3,8.75-3.27,12.05,0.07c0.57,0.58,1.04,1.21,1.41,1.89c0.79,1.44,2.59,1.99,4.06,1.27c0.02-0.01,0.04-0.02,0.06-0.03
							c1.61-0.8,2.23-2.76,1.36-4.33c-0.64-1.16-1.45-2.24-2.42-3.23c-5.74-5.81-15.14-5.86-20.95-0.12l-11.38,11.24
							c-5.81,5.75-5.87,15.14-0.12,20.95c5.74,5.81,15.14,5.87,20.95,0.12l5.14-5.08c1.91-1.89,0.7-5.14-1.97-5.33l-0.09-0.01
							C286.1,411.8,285.23,412.12,284.6,412.75z"/>
					</g>
				</g>
			</g>
		</g>
		<path class="st9" d="M241.71,380.02c0,0,5.41,0.48,7.15,2.35c1.74,1.87-5.67,2.37-5.67,2.37s8.95-0.54,9.48,1.57
			c0.54,2.11-8.14,2.89-8.14,2.89s6.12,0.55,6.69,2.13c0.57,1.58-5.74,2.41-5.74,2.41s4.8,0.93,5.37,2.08
			c0.57,1.15-4.67,2.48-7.48,2.18c-2.81-0.3-1.63-3.9-1.63-3.9s-1.37-3.06-0.43-4.32c0,0-1.64-2.69-1.06-4.4
			C240.25,385.37,238.24,380.89,241.71,380.02z"/>
		<g>
			<g>
				<path class="st9" d="M302.08,429.81l-2.03,0.85c-1.81,0.76-3.64,0.27-5.14-1.01c-0.66-0.57-1.7-1.67-2.23-1.98
					c-1.48-0.87-4.96-1.91-5.96-1.56c-1,0.34-0.06,2.07,0.96,2.58c1.02,0.5,2.52,1.06,3.57,1.93c1.05,0.88-3.33,5.38-5.27,6.81
					c-1.94,1.43-6.23,1.87-5.84,3.82c0.38,1.95,3.34,1.02,3.34,1.02s-0.16,1.97,2.77,2.31c0,0,0.24,1.76,2.13,1.96
					c0,0,0.67,2.08,2.66,1.86c2-0.22,8.21-0.93,16.31-12.09L302.08,429.81z"/>
			</g>
		</g>
		<path class="st8" d="M355.13,339.79c0,0,5.16,43.56,0.99,59.76c-4.17,16.2-48.46,38.42-48.46,38.42l-6.54-7.76
			c0,0,33.73-24.91,41.31-36.01l1.07-33.63C343.5,360.57,344.8,350,355.13,339.79z"/>
	</g>
	<g>
		<path class="st0" d="M535.62,635.58c0,3.65-26,6.6-58.07,6.6s-58.07-2.96-58.07-6.6s26-6.6,58.07-6.6S535.62,631.94,535.62,635.58
			z"/>
		<g>
			<g>
				<g>
					<g>
						<path class="st5" d="M524.77,463.85V625.3c0,5.68-4.6,10.28-10.28,10.28h-73.88c-5.68,0-10.28-4.61-10.28-10.28V463.85
							c0-5.68,4.6-10.28,10.28-10.28h73.88C520.17,453.57,524.77,458.17,524.77,463.85z"/>
					</g>
					<path class="st6" d="M524.77,544.42v80.88c0,5.68-4.6,10.28-10.28,10.28h-73.88c-5.68,0-10.28-4.61-10.28-10.28v-80.88H524.77z
						"/>
					<path class="st15" d="M516.41,481.5v125.79c0,2.39-1.97,4.37-4.37,4.37h-68.98c-0.92,0-1.76-0.29-2.47-0.76
						c-1.15-0.79-1.91-2.12-1.91-3.6V481.5c0-2.79,2.26-5.06,5.06-5.06h67.6C514.15,476.44,516.41,478.71,516.41,481.5z"/>
				</g>
				<path class="st0" d="M516.41,481.5v6.72h-77.73v-6.72c0-2.79,2.26-5.06,5.06-5.06h67.6
					C514.15,476.44,516.41,478.71,516.41,481.5z"/>
				<path class="st15" d="M498.73,484.32h-42.36c-1.09,0-1.99-0.9-1.99-1.99l0,0c0-1.09,0.9-1.99,1.99-1.99h42.36
					c1.09,0,1.99,0.9,1.99,1.99l0,0C500.72,483.42,499.82,484.32,498.73,484.32z"/>
				<g>
					<circle class="st14" cx="477.55" cy="622.13" r="5.2"/>
				</g>
				<g>
					<path class="st14" d="M500.13,468.8h-42.79c-1.4,0-2.55-1.15-2.55-2.55l0,0c0-1.4,1.15-2.55,2.55-2.55h42.79
						c1.4,0,2.55,1.15,2.55,2.55l0,0C502.68,467.65,501.53,468.8,500.13,468.8z"/>
				</g>
			</g>
			<g>
				<g>
					<path class="st0" d="M511.34,501.93v95.32c0,3.54-2.87,6.4-6.4,6.4h-54.78c-3.54,0-6.4-2.87-6.4-6.4v-95.32
						c0-3.54,2.87-6.4,6.4-6.4h54.78C508.47,495.53,511.34,498.4,511.34,501.93z"/>
					<path class="st2" d="M511.34,501.93v4.25h-67.59v-4.25c0-3.54,2.87-6.4,6.4-6.4h54.78
						C508.47,495.53,511.34,498.4,511.34,501.93z"/>
				</g>
				<g>
					<rect x="451.23" y="533.25" class="st3" width="52.63" height="37.67"/>
					<polygon class="st6" points="503.86,560.95 501.31,556.64 492.83,542.37 475.88,570.92 503.86,570.92 					"/>
					<g>
						<polygon class="st5" points="472.37,570.92 451.23,570.92 461.8,553.89 472.37,536.86 482.93,553.89 493.5,570.92 						"/>
					</g>
					<polygon class="st7" points="465.52,547.9 472.37,553.03 479.22,547.9 472.37,536.86 					"/>
					<polygon class="st7" points="487.06,552.08 492.83,556.64 498.6,552.08 492.83,542.37 					"/>
				</g>
				<path class="st2" d="M502.62,517.98h-50.14c-0.69,0-1.24-0.56-1.24-1.24v-1.91c0-0.69,0.56-1.24,1.24-1.24h50.14
					c0.69,0,1.24,0.56,1.24,1.24v1.91C503.86,517.43,503.31,517.98,502.62,517.98z"/>
				<path class="st2" d="M502.62,525.64h-50.14c-0.69,0-1.24-0.56-1.24-1.24v-1.91c0-0.69,0.56-1.24,1.24-1.24h50.14
					c0.69,0,1.24,0.56,1.24,1.24v1.91C503.86,525.08,503.31,525.64,502.62,525.64z"/>
				<path class="st2" d="M502.62,582.34h-50.14c-0.69,0-1.24-0.56-1.24-1.24v-1.91c0-0.69,0.56-1.24,1.24-1.24h50.14
					c0.69,0,1.24,0.56,1.24,1.24v1.91C503.86,581.79,503.31,582.34,502.62,582.34z"/>
				<path class="st2" d="M502.62,590h-50.14c-0.69,0-1.24-0.56-1.24-1.24v-1.91c0-0.69,0.56-1.24,1.24-1.24h50.14
					c0.69,0,1.24,0.56,1.24,1.24v1.91C503.86,589.45,503.31,590,502.62,590z"/>
			</g>
		</g>
	</g>
	<g>
		<g>
			<g>
				<path class="st3" d="M100.98,85.7c-0.29-0.01-0.58-0.04-0.87-0.04v10.33h8.47C105.99,90.25,102.2,86.73,100.98,85.7z"/>
				<path class="st3" d="M100.11,116.84h9.66c0.8-2.62,1.23-5.47,1.29-8.47h-10.95V116.84z"/>
				<path class="st3" d="M105.5,125.26c1.48-1.91,2.69-4.07,3.61-6.46h-8.99v11.35C100.85,129.72,103.17,128.21,105.5,125.26z"/>
				<path class="st3" d="M104.38,86.25c1.09,1.16,2.11,2.42,3.06,3.78c1.3,1.85,2.4,3.87,3.27,5.95h7.23
					C114.84,91.11,109.94,87.6,104.38,86.25z"/>
				<path class="st3" d="M119.05,97.93h-7.62c0.94,2.75,1.46,5.6,1.56,8.49h8.37C121.17,103.45,120.39,100.59,119.05,97.93z"/>
				<path class="st3" d="M109.38,97.93h-9.27v8.49h10.95C110.94,103.52,110.38,100.66,109.38,97.93z"/>
				<path class="st3" d="M111.19,118.8c-1.01,2.87-2.43,5.46-4.21,7.72c-0.9,1.14-1.87,2.19-2.91,3.11
					c6.16-1.39,11.38-5.29,14.5-10.83H111.19z"/>
				<path class="st3" d="M121.41,108.37h-8.4c-0.06,2.97-0.48,5.82-1.22,8.47h7.73C120.72,114.16,121.36,111.31,121.41,108.37z"/>
				<path class="st3" d="M76.92,106.41h8.59c0.1-2.88,0.62-5.73,1.56-8.49h-7.84C77.89,100.59,77.11,103.45,76.92,106.41z"/>
				<path class="st3" d="M94.52,129.69c-1.07-0.94-2.07-2-2.98-3.17c-1.78-2.26-3.2-4.85-4.21-7.72h-7.6
					C82.86,124.36,88.32,128.37,94.52,129.69z"/>
				<path class="st3" d="M86.71,116.84c-0.74-2.65-1.16-5.5-1.22-8.47h-8.62c0.06,2.94,0.68,5.79,1.87,8.47H86.71z"/>
				<path class="st3" d="M92.64,91.19c-1.04,1.51-1.95,3.11-2.71,4.79h8.24V85.66c-0.2,0-0.42,0.01-0.62,0.03
					C96.71,86.4,94.68,88.25,92.64,91.19z"/>
				<path class="st3" d="M98.17,108.37H87.45c0.06,3,0.49,5.85,1.29,8.47h9.43V108.37z"/>
				<path class="st3" d="M98.17,130.02V118.8h-8.76C92.09,125.78,96.69,129.09,98.17,130.02z"/>
				<path class="st3" d="M94.2,86.18c-5.69,1.3-10.69,4.84-13.86,9.8h7.46c0.87-2.09,1.97-4.1,3.27-5.95
					C92.03,88.66,93.07,87.37,94.2,86.18z"/>
				<path class="st3" d="M98.17,97.93h-9.04c-1,2.75-1.56,5.59-1.68,8.49h10.72V97.93z"/>
			</g>
			<g>
				<g>
					<path class="st2" d="M64.17,141.74h-2.42c-0.63,0-1.14-0.51-1.14-1.14v-2.42c0-0.63,0.51-1.14,1.14-1.14
						c0.63,0,1.14,0.51,1.14,1.14v1.28h1.28c0.63,0,1.14,0.51,1.14,1.14C65.31,141.23,64.8,141.74,64.17,141.74z"/>
				</g>
				<g>
					<path class="st2" d="M129.6,141.74h-4.82c-0.63,0-1.14-0.51-1.14-1.14c0-0.63,0.51-1.14,1.14-1.14h4.82
						c0.63,0,1.14,0.51,1.14,1.14C130.73,141.23,130.22,141.74,129.6,141.74z M120.25,141.74h-4.81c-0.63,0-1.14-0.51-1.14-1.14
						c0-0.63,0.51-1.14,1.14-1.14h4.81c0.63,0,1.14,0.51,1.14,1.14C121.39,141.23,120.88,141.74,120.25,141.74z M110.9,141.74h-4.82
						c-0.63,0-1.14-0.51-1.14-1.14c0-0.63,0.51-1.14,1.14-1.14h4.82c0.63,0,1.14,0.51,1.14,1.14
						C112.04,141.23,111.53,141.74,110.9,141.74z M101.56,141.74h-4.81c-0.63,0-1.14-0.51-1.14-1.14c0-0.63,0.51-1.14,1.14-1.14
						h4.81c0.63,0,1.14,0.51,1.14,1.14C102.69,141.23,102.18,141.74,101.56,141.74z M92.21,141.74h-4.82
						c-0.63,0-1.14-0.51-1.14-1.14c0-0.63,0.51-1.14,1.14-1.14h4.82c0.63,0,1.14,0.51,1.14,1.14
						C93.35,141.23,92.84,141.74,92.21,141.74z M82.86,141.74h-4.81c-0.63,0-1.14-0.51-1.14-1.14c0-0.63,0.51-1.14,1.14-1.14h4.81
						c0.63,0,1.14,0.51,1.14,1.14C84,141.23,83.49,141.74,82.86,141.74z M73.52,141.74H68.7c-0.63,0-1.14-0.51-1.14-1.14
						c0-0.63,0.51-1.14,1.14-1.14h4.82c0.63,0,1.14,0.51,1.14,1.14C74.65,141.23,74.14,141.74,73.52,141.74z"/>
				</g>
				<g>
					<path class="st2" d="M136.55,141.74h-2.42c-0.63,0-1.14-0.51-1.14-1.14c0-0.63,0.51-1.14,1.14-1.14h1.28v-1.28
						c0-0.63,0.51-1.14,1.14-1.14s1.14,0.51,1.14,1.14v2.42C137.68,141.23,137.18,141.74,136.55,141.74z"/>
				</g>
				<g>
					<path class="st2" d="M136.55,134.97c-0.63,0-1.14-0.51-1.14-1.14v-4.63c0-0.63,0.51-1.14,1.14-1.14s1.14,0.51,1.14,1.14v4.63
						C137.68,134.46,137.18,134.97,136.55,134.97z M136.55,125.98c-0.63,0-1.14-0.51-1.14-1.14v-4.63c0-0.63,0.51-1.14,1.14-1.14
						s1.14,0.51,1.14,1.14v4.63C137.68,125.47,137.18,125.98,136.55,125.98z M136.55,116.99c-0.63,0-1.14-0.51-1.14-1.14v-4.63
						c0-0.63,0.51-1.14,1.14-1.14s1.14,0.51,1.14,1.14v4.63C137.68,116.48,137.18,116.99,136.55,116.99z M136.55,108
						c-0.63,0-1.14-0.51-1.14-1.14v-4.63c0-0.63,0.51-1.14,1.14-1.14s1.14,0.51,1.14,1.14v4.63C137.68,107.49,137.18,108,136.55,108
						z M136.55,99.02c-0.63,0-1.14-0.51-1.14-1.14v-4.63c0-0.63,0.51-1.14,1.14-1.14s1.14,0.51,1.14,1.14v4.63
						C137.68,98.51,137.18,99.02,136.55,99.02z M136.55,90.03c-0.63,0-1.14-0.51-1.14-1.14v-4.63c0-0.63,0.51-1.14,1.14-1.14
						s1.14,0.51,1.14,1.14v4.63C137.68,89.52,137.18,90.03,136.55,90.03z"/>
				</g>
				<g>
					<path class="st2" d="M136.55,81.04c-0.63,0-1.14-0.51-1.14-1.14v-1.28h-1.28c-0.63,0-1.14-0.51-1.14-1.14s0.51-1.14,1.14-1.14
						h2.42c0.63,0,1.14,0.51,1.14,1.14v2.42C137.68,80.53,137.18,81.04,136.55,81.04z"/>
				</g>
				<g>
					<path class="st2" d="M129.6,78.62h-4.82c-0.63,0-1.14-0.51-1.14-1.14s0.51-1.14,1.14-1.14h4.82c0.63,0,1.14,0.51,1.14,1.14
						S130.22,78.62,129.6,78.62z M120.25,78.62h-4.81c-0.63,0-1.14-0.51-1.14-1.14s0.51-1.14,1.14-1.14h4.81
						c0.63,0,1.14,0.51,1.14,1.14S120.88,78.62,120.25,78.62z M110.9,78.62h-4.82c-0.63,0-1.14-0.51-1.14-1.14s0.51-1.14,1.14-1.14
						h4.82c0.63,0,1.14,0.51,1.14,1.14S111.53,78.62,110.9,78.62z M101.56,78.62h-4.81c-0.63,0-1.14-0.51-1.14-1.14
						s0.51-1.14,1.14-1.14h4.81c0.63,0,1.14,0.51,1.14,1.14S102.18,78.62,101.56,78.62z M92.21,78.62h-4.82
						c-0.63,0-1.14-0.51-1.14-1.14s0.51-1.14,1.14-1.14h4.82c0.63,0,1.14,0.51,1.14,1.14S92.84,78.62,92.21,78.62z M82.86,78.62
						h-4.81c-0.63,0-1.14-0.51-1.14-1.14s0.51-1.14,1.14-1.14h4.81c0.63,0,1.14,0.51,1.14,1.14S83.49,78.62,82.86,78.62z
						 M73.52,78.62H68.7c-0.63,0-1.14-0.51-1.14-1.14s0.51-1.14,1.14-1.14h4.82c0.63,0,1.14,0.51,1.14,1.14S74.14,78.62,73.52,78.62
						z"/>
				</g>
				<g>
					<path class="st2" d="M61.75,81.04c-0.63,0-1.14-0.51-1.14-1.14v-2.42c0-0.63,0.51-1.14,1.14-1.14h2.42
						c0.63,0,1.14,0.51,1.14,1.14s-0.51,1.14-1.14,1.14h-1.28v1.28C62.89,80.53,62.38,81.04,61.75,81.04z"/>
				</g>
				<g>
					<path class="st2" d="M61.75,134.97c-0.63,0-1.14-0.51-1.14-1.14v-4.63c0-0.63,0.51-1.14,1.14-1.14c0.63,0,1.14,0.51,1.14,1.14
						v4.63C62.89,134.46,62.38,134.97,61.75,134.97z M61.75,125.98c-0.63,0-1.14-0.51-1.14-1.14v-4.63c0-0.63,0.51-1.14,1.14-1.14
						c0.63,0,1.14,0.51,1.14,1.14v4.63C62.89,125.47,62.38,125.98,61.75,125.98z M61.75,116.99c-0.63,0-1.14-0.51-1.14-1.14v-4.63
						c0-0.63,0.51-1.14,1.14-1.14c0.63,0,1.14,0.51,1.14,1.14v4.63C62.89,116.48,62.38,116.99,61.75,116.99z M61.75,108
						c-0.63,0-1.14-0.51-1.14-1.14v-4.63c0-0.63,0.51-1.14,1.14-1.14c0.63,0,1.14,0.51,1.14,1.14v4.63
						C62.89,107.49,62.38,108,61.75,108z M61.75,99.02c-0.63,0-1.14-0.51-1.14-1.14v-4.63c0-0.63,0.51-1.14,1.14-1.14
						c0.63,0,1.14,0.51,1.14,1.14v4.63C62.89,98.51,62.38,99.02,61.75,99.02z M61.75,90.03c-0.63,0-1.14-0.51-1.14-1.14v-4.63
						c0-0.63,0.51-1.14,1.14-1.14c0.63,0,1.14,0.51,1.14,1.14v4.63C62.89,89.52,62.38,90.03,61.75,90.03z"/>
				</g>
			</g>
			<g>
				<path class="st2" d="M168.8,157.34c-0.63,0-1.14-0.51-1.14-1.14v-4.84c0-0.63,0.51-1.14,1.14-1.14s1.14,0.51,1.14,1.14v4.84
					C169.93,156.83,169.42,157.34,168.8,157.34z M168.8,147.95c-0.63,0-1.14-0.51-1.14-1.14v-4.84c0-0.63,0.51-1.14,1.14-1.14
					s1.14,0.51,1.14,1.14v4.84C169.93,147.44,169.42,147.95,168.8,147.95z M168.8,138.56c-0.63,0-1.14-0.51-1.14-1.14v-4.84
					c0-0.63,0.51-1.14,1.14-1.14s1.14,0.51,1.14,1.14v4.84C169.93,138.05,169.42,138.56,168.8,138.56z M168.8,129.17
					c-0.63,0-1.14-0.51-1.14-1.14v-4.84c0-0.63,0.51-1.14,1.14-1.14s1.14,0.51,1.14,1.14v4.84
					C169.93,128.66,169.42,129.17,168.8,129.17z M168.8,119.78c-0.63,0-1.14-0.51-1.14-1.14v-4.84c0-0.63,0.51-1.14,1.14-1.14
					s1.14,0.51,1.14,1.14v4.84C169.93,119.27,169.42,119.78,168.8,119.78z M164.89,114.3h-4.84c-0.63,0-1.14-0.51-1.14-1.14
					c0-0.63,0.51-1.14,1.14-1.14h4.84c0.63,0,1.14,0.51,1.14,1.14C166.03,113.79,165.52,114.3,164.89,114.3z M155.5,114.3h-4.84
					c-0.63,0-1.14-0.51-1.14-1.14c0-0.63,0.51-1.14,1.14-1.14h4.84c0.63,0,1.14,0.51,1.14,1.14
					C156.64,113.79,156.13,114.3,155.5,114.3z M146.11,114.3h-4.84c-0.63,0-1.14-0.51-1.14-1.14c0-0.63,0.51-1.14,1.14-1.14h4.84
					c0.63,0,1.14,0.51,1.14,1.14C147.25,113.79,146.74,114.3,146.11,114.3z M136.72,114.3h-0.1c-0.63,0-1.14-0.51-1.14-1.14
					c0-0.63,0.51-1.14,1.14-1.14h0.1c0.63,0,1.14,0.51,1.14,1.14C137.86,113.79,137.35,114.3,136.72,114.3z"/>
			</g>
		</g>
		<g>
			<g>
				<g>
					<path class="st2" d="M768.25,297.9h2.42c0.63,0,1.14-0.51,1.14-1.14v-2.42c0-0.63-0.51-1.14-1.14-1.14
						c-0.63,0-1.14,0.51-1.14,1.14v1.28h-1.28c-0.63,0-1.14,0.51-1.14,1.14C767.11,297.39,767.62,297.9,768.25,297.9z"/>
				</g>
				<g>
					<path class="st2" d="M701.69,296.76c0-0.63,0.51-1.14,1.14-1.14h4.81c0.63,0,1.14,0.51,1.14,1.14c0,0.63-0.51,1.14-1.14,1.14
						h-4.81C702.19,297.9,701.69,297.39,701.69,296.76z M711.03,296.76c0-0.63,0.51-1.14,1.14-1.14h4.82c0.63,0,1.14,0.51,1.14,1.14
						c0,0.63-0.51,1.14-1.14,1.14h-4.82C711.54,297.9,711.03,297.39,711.03,296.76z M720.38,296.76c0-0.63,0.51-1.14,1.14-1.14h4.81
						c0.63,0,1.14,0.51,1.14,1.14c0,0.63-0.51,1.14-1.14,1.14h-4.81C720.89,297.9,720.38,297.39,720.38,296.76z M729.73,296.76
						c0-0.63,0.51-1.14,1.14-1.14h4.82c0.63,0,1.14,0.51,1.14,1.14c0,0.63-0.51,1.14-1.14,1.14h-4.82
						C730.24,297.9,729.73,297.39,729.73,296.76z M739.07,296.76c0-0.63,0.51-1.14,1.14-1.14h4.81c0.63,0,1.14,0.51,1.14,1.14
						c0,0.63-0.51,1.14-1.14,1.14h-4.81C739.58,297.9,739.07,297.39,739.07,296.76z M748.42,296.76c0-0.63,0.51-1.14,1.14-1.14h4.82
						c0.63,0,1.14,0.51,1.14,1.14c0,0.63-0.51,1.14-1.14,1.14h-4.82C748.93,297.9,748.42,297.39,748.42,296.76z M757.77,296.76
						c0-0.63,0.51-1.14,1.14-1.14h4.81c0.63,0,1.14,0.51,1.14,1.14c0,0.63-0.51,1.14-1.14,1.14h-4.81
						C758.28,297.9,757.77,297.39,757.77,296.76z"/>
				</g>
				<g>
					<path class="st2" d="M695.87,297.9h2.42c0.63,0,1.14-0.51,1.14-1.14c0-0.63-0.51-1.14-1.14-1.14h-1.28v-1.28
						c0-0.63-0.51-1.14-1.14-1.14c-0.63,0-1.14,0.51-1.14,1.14v2.42C694.74,297.39,695.24,297.9,695.87,297.9z"/>
				</g>
				<g>
					<path class="st2" d="M694.74,289.99v-4.63c0-0.63,0.51-1.14,1.14-1.14c0.63,0,1.14,0.51,1.14,1.14v4.63
						c0,0.63-0.51,1.14-1.14,1.14C695.24,291.12,694.74,290.61,694.74,289.99z M694.74,281v-4.63c0-0.63,0.51-1.14,1.14-1.14
						c0.63,0,1.14,0.51,1.14,1.14V281c0,0.63-0.51,1.14-1.14,1.14C695.24,282.14,694.74,281.63,694.74,281z M694.74,272.01v-4.63
						c0-0.63,0.51-1.14,1.14-1.14c0.63,0,1.14,0.51,1.14,1.14v4.63c0,0.63-0.51,1.14-1.14,1.14
						C695.24,273.15,694.74,272.64,694.74,272.01z M694.74,263.02v-4.63c0-0.63,0.51-1.14,1.14-1.14c0.63,0,1.14,0.51,1.14,1.14
						v4.63c0,0.63-0.51,1.14-1.14,1.14C695.24,264.16,694.74,263.65,694.74,263.02z M694.74,254.04v-4.63
						c0-0.63,0.51-1.14,1.14-1.14c0.63,0,1.14,0.51,1.14,1.14v4.63c0,0.63-0.51,1.14-1.14,1.14
						C695.24,255.17,694.74,254.66,694.74,254.04z M694.74,245.05v-4.63c0-0.63,0.51-1.14,1.14-1.14c0.63,0,1.14,0.51,1.14,1.14
						v4.63c0,0.63-0.51,1.14-1.14,1.14C695.24,246.19,694.74,245.68,694.74,245.05z"/>
				</g>
				<g>
					<path class="st2" d="M695.87,237.2c0.63,0,1.14-0.51,1.14-1.14v-1.28h1.28c0.63,0,1.14-0.51,1.14-1.14s-0.51-1.14-1.14-1.14
						h-2.42c-0.63,0-1.14,0.51-1.14,1.14v2.42C694.74,236.69,695.24,237.2,695.87,237.2z"/>
				</g>
				<g>
					<path class="st2" d="M701.69,233.64c0-0.63,0.51-1.14,1.14-1.14h4.81c0.63,0,1.14,0.51,1.14,1.14s-0.51,1.14-1.14,1.14h-4.81
						C702.19,234.78,701.69,234.27,701.69,233.64z M711.03,233.64c0-0.63,0.51-1.14,1.14-1.14h4.82c0.63,0,1.14,0.51,1.14,1.14
						s-0.51,1.14-1.14,1.14h-4.82C711.54,234.78,711.03,234.27,711.03,233.64z M720.38,233.64c0-0.63,0.51-1.14,1.14-1.14h4.81
						c0.63,0,1.14,0.51,1.14,1.14s-0.51,1.14-1.14,1.14h-4.81C720.89,234.78,720.38,234.27,720.38,233.64z M729.73,233.64
						c0-0.63,0.51-1.14,1.14-1.14h4.82c0.63,0,1.14,0.51,1.14,1.14s-0.51,1.14-1.14,1.14h-4.82
						C730.24,234.78,729.73,234.27,729.73,233.64z M739.07,233.64c0-0.63,0.51-1.14,1.14-1.14h4.81c0.63,0,1.14,0.51,1.14,1.14
						s-0.51,1.14-1.14,1.14h-4.81C739.58,234.78,739.07,234.27,739.07,233.64z M748.42,233.64c0-0.63,0.51-1.14,1.14-1.14h4.82
						c0.63,0,1.14,0.51,1.14,1.14s-0.51,1.14-1.14,1.14h-4.82C748.93,234.78,748.42,234.27,748.42,233.64z M757.77,233.64
						c0-0.63,0.51-1.14,1.14-1.14h4.81c0.63,0,1.14,0.51,1.14,1.14s-0.51,1.14-1.14,1.14h-4.81
						C758.28,234.78,757.77,234.27,757.77,233.64z"/>
				</g>
				<g>
					<path class="st2" d="M770.67,237.2c0.63,0,1.14-0.51,1.14-1.14v-2.42c0-0.63-0.51-1.14-1.14-1.14h-2.42
						c-0.63,0-1.14,0.51-1.14,1.14s0.51,1.14,1.14,1.14h1.28v1.28C769.53,236.69,770.04,237.2,770.67,237.2z"/>
				</g>
				<g>
					<path class="st2" d="M769.53,289.99v-4.63c0-0.63,0.51-1.14,1.14-1.14c0.63,0,1.14,0.51,1.14,1.14v4.63
						c0,0.63-0.51,1.14-1.14,1.14C770.04,291.12,769.53,290.61,769.53,289.99z M769.53,281v-4.63c0-0.63,0.51-1.14,1.14-1.14
						c0.63,0,1.14,0.51,1.14,1.14V281c0,0.63-0.51,1.14-1.14,1.14C770.04,282.14,769.53,281.63,769.53,281z M769.53,272.01v-4.63
						c0-0.63,0.51-1.14,1.14-1.14c0.63,0,1.14,0.51,1.14,1.14v4.63c0,0.63-0.51,1.14-1.14,1.14
						C770.04,273.15,769.53,272.64,769.53,272.01z M769.53,263.02v-4.63c0-0.63,0.51-1.14,1.14-1.14c0.63,0,1.14,0.51,1.14,1.14
						v4.63c0,0.63-0.51,1.14-1.14,1.14C770.04,264.16,769.53,263.65,769.53,263.02z M769.53,254.04v-4.63
						c0-0.63,0.51-1.14,1.14-1.14c0.63,0,1.14,0.51,1.14,1.14v4.63c0,0.63-0.51,1.14-1.14,1.14
						C770.04,255.17,769.53,254.66,769.53,254.04z M769.53,245.05v-4.63c0-0.63,0.51-1.14,1.14-1.14c0.63,0,1.14,0.51,1.14,1.14
						v4.63c0,0.63-0.51,1.14-1.14,1.14C770.04,246.19,769.53,245.68,769.53,245.05z"/>
				</g>
			</g>
			<g>
				<path class="st2" d="M691.14,268.18h-4.84c-0.63,0-1.14,0.51-1.14,1.14c0,0.63,0.51,1.14,1.14,1.14h4.84
					c0.63,0,1.14-0.51,1.14-1.14C692.28,268.69,691.77,268.18,691.14,268.18z"/>
				<path class="st2" d="M680.7,268.18h-1.15v2.28h1.15c0.63,0,1.14-0.51,1.14-1.14C681.84,268.69,681.33,268.18,680.7,268.18z"/>
				<path class="st2" d="M695.8,268.18h-0.1c-0.63,0-1.14,0.51-1.14,1.14c0,0.63,0.51,1.14,1.14,1.14h0.1
					c0.63,0,1.14-0.51,1.14-1.14C696.94,268.69,696.43,268.18,695.8,268.18z"/>
			</g>
			<g>
				<g>
					<path class="st3" d="M734.3,279.62c-8.12,0-14.72-6.6-14.72-14.72c0-2.14,0.47-4.16,1.29-5.99l0.61,6.13
						c0.07,0.73,0.69,1.28,1.42,1.28c0.08,0,0.17-0.01,0.25-0.02c0.74-0.12,1.24-0.84,1.17-1.59l-0.95-9.45
						c-0.08-0.78-0.79-1.35-1.56-1.28l-9.46,0.95c-0.68,0.07-1.25,0.59-1.31,1.27c-0.09,0.93,0.68,1.65,1.56,1.57l4.83-0.48
						c-1.28,2.81-1.88,5.99-1.57,9.35c0.81,8.7,7.73,15.74,16.41,16.68c2.14,0.23,4.21,0.09,6.16-0.36
						c1.42-0.33,1.94-2.06,0.96-3.13c-0.01-0.01-0.02-0.02-0.03-0.03c-0.46-0.5-1.15-0.69-1.81-0.54
						C736.51,279.5,735.42,279.62,734.3,279.62z"/>
					<path class="st3" d="M758.62,269.5c-0.31-0.88-1.31-1.22-2.08-0.77l-5.03,2.97c0.84-2.11,1.32-4.39,1.32-6.8
						c0-10.21-8.31-18.52-18.52-18.52c-1.02,0-2.01,0.09-2.98,0.25c-1.48,0.25-2.06,2.08-1.01,3.16c0.01,0.01,0.02,0.02,0.03,0.03
						c0.43,0.45,1.06,0.65,1.67,0.55c0.75-0.12,1.51-0.19,2.29-0.19c8.12,0,14.72,6.6,14.72,14.72c0,1.89-0.37,3.69-1.02,5.35
						l-2.59-4.38c-0.41-0.7-1.33-0.92-2.01-0.46c-0.64,0.43-0.79,1.32-0.4,1.98l4.82,8.15c0.27,0.45,0.74,0.7,1.23,0.7
						c0.25,0,0.5-0.06,0.72-0.2l8.18-4.84C758.54,270.85,758.84,270.14,758.62,269.5z"/>
				</g>
			</g>
		</g>
	</g>
</g>
</svg>
