<?xml version="1.0" encoding="utf-8"?>
<!-- Generator: Adobe Illustrator 24.0.1, SVG Export Plug-In . SVG Version: 6.00 Build 0)  -->
<svg version="1.1" xmlns="http://www.w3.org/2000/svg" xmlns:xlink="http://www.w3.org/1999/xlink" x="0px" y="0px"
	 viewBox="0 0 500 388.09" style="enable-background:new 0 0 500 388.09;" xml:space="preserve">
<style type="text/css">
	.st0{display:none;}
	.st1{display:inline;}
	.st2{fill:#407BFF;}
	.st3{opacity:0.9;fill:#FFFFFF;}
	.st4{opacity:0.9;}
	.st5{fill:#FFFFFF;}
	.st6{fill:#EBEBEB;}
	.st7{fill:#F0F0F0;}
	.st8{fill:#F5F5F5;}
	.st9{fill:#E6E6E6;}
	.st10{fill:#FAFAFA;}
	.st11{opacity:0.4;fill:#E6E6E6;}
	.st12{fill:#E0E0E0;}
	.st13{opacity:0.2;fill:#FFFFFF;}
	.st14{opacity:0.2;}
	.st15{opacity:0.6;fill:#FFFFFF;}
	.st16{opacity:0.3;}
	.st17{fill:#263238;}
	.st18{opacity:0.4;fill:#FFFFFF;}
	.st19{fill:#B55B52;}
	.st20{fill:#A02724;}
	.st21{opacity:0.4;}
</style>
<g id="Background_Complete">
</g>
<g id="Background_Simple" class="st0">
	<g class="st1">
		<path class="st2" d="M420.57,277.32c-10.39,17.57-43.78,24.02-61.46,22.89c-20.34-1.29-36.73-13.75-50.94-25.96
			c-17.92-15.4-29.23-23.67-55.03-19.52c-22.7,3.65-44.23,11.59-67.26,13.04c-47.09,2.95-101.44-4.19-114.6-52.12
			c-12.06-43.96,14.43-88.02,66.65-87.82c44.09,0.17,43.96,55.05,92.33,37.42c45.04-16.41,52.02-79.76,107.87-74.91
			c55.54,4.82,19.49,70.2,21.04,105.7c1,22.79,27.39,12.51,44.85,21.87C425.13,229.22,433.72,255.09,420.57,277.32z"/>
		<path class="st3" d="M420.57,277.32c-10.39,17.57-43.78,24.02-61.46,22.89c-20.34-1.29-36.73-13.75-50.94-25.96
			c-17.92-15.4-29.23-23.67-55.03-19.52c-22.7,3.65-44.23,11.59-67.26,13.04c-47.09,2.95-101.44-4.19-114.6-52.12
			c-12.06-43.96,14.43-88.02,66.65-87.82c44.09,0.17,43.96,55.05,92.33,37.42c45.04-16.41,52.02-79.76,107.87-74.91
			c55.54,4.82,19.49,70.2,21.04,105.7c1,22.79,27.39,12.51,44.85,21.87C425.13,229.22,433.72,255.09,420.57,277.32z"/>
	</g>
	<g class="st1">
		<g>
			<path class="st2" d="M12213.7,105.66c-28.82-19.69-45.9-61.44-84.99-63.16c-19.11-0.84-31.37,12.99-49.05,16.48
				c-15.21,3-25.5-4.74-39.86-4.78c-35.71-0.1-60.99,24.03-51.56,61.48c9.01,35.77,30.21,70.76,79.98,96.3
				c74.04,37.98,142.26,40.63,199.78,3.8c47.55-30.44,53.85-93.88,32.3-112.01C12283.43,89.58,12241.14,124.41,12213.7,105.66z"/>
		</g>
		<g class="st4">
			<path class="st5" d="M12213.7,105.66c-28.82-19.69-45.9-61.44-84.99-63.16c-19.11-0.84-31.37,12.99-49.05,16.48
				c-15.21,3-25.5-4.74-39.86-4.78c-35.71-0.1-60.99,24.03-51.56,61.48c9.01,35.77,30.21,70.76,79.98,96.3
				c74.04,37.98,142.26,40.63,199.78,3.8c47.55-30.44,53.85-93.88,32.3-112.01C12283.43,89.58,12241.14,124.41,12213.7,105.66z"/>
		</g>
	</g>
	<g class="st1">
		<path class="st2" d="M12885.93,133.55c-52.77,21.87-91.9-45.86-135.61-56.81c-53.49-13.4-96.91,35.48-80.91,86.7
			c13.72,43.92,55.17,42.91,87.51,65.03c44.16,30.21,62.78,76.39,119.74,90.31c110.05,26.89,142.65-131.35,116.18-214.32
			c-9.13-28.62-18.4-52.37-53.64-41.9C12907.23,72.05,12907.67,124.54,12885.93,133.55z"/>
		<path class="st3" d="M12885.93,133.55c-52.77,21.87-91.9-45.86-135.61-56.81c-53.49-13.4-96.91,35.48-80.91,86.7
			c13.72,43.92,55.17,42.91,87.51,65.03c44.16,30.21,62.78,76.39,119.74,90.31c110.05,26.89,142.65-131.35,116.18-214.32
			c-9.13-28.62-18.4-52.37-53.64-41.9C12907.23,72.05,12907.67,124.54,12885.93,133.55z"/>
	</g>
	<g class="st1">
		<path class="st2" d="M13743.03,178.61c-32.42-95.6-174.29-106.71-258.07-96.98c-39.26,4.56-84.56,15.1-107.81,50.18
			c-25.65,38.71-20.09,93.56,16.13,123.29c48.63,39.91,74.83-0.24,118.66-19.19c49.88-21.56,54.32,24.81,83.13,53.65
			C13666.14,360.69,13771.18,261.61,13743.03,178.61z M13670.17,263.98c0.03,0,0.07,0.01,0.15,0.02
			C13670.25,263.99,13670.19,263.98,13670.17,263.98z M13672,264.2c0.05,0.01,0.1,0.01,0.14,0.02
			C13672.1,264.22,13672.05,264.21,13672,264.2z M13672.43,264.26C13672.46,264.26,13672.46,264.26,13672.43,264.26L13672.43,264.26
			z M13672.21,264.23c0.11,0.01,0.18,0.02,0.21,0.03C13672.38,264.25,13672.3,264.24,13672.21,264.23z"/>
		<path class="st3" d="M13743.03,178.61c-32.42-95.6-174.29-106.71-258.07-96.98c-39.26,4.56-84.56,15.1-107.81,50.18
			c-25.65,38.71-20.09,93.56,16.13,123.29c48.63,39.91,74.83-0.24,118.66-19.19c49.88-21.56,54.32,24.81,83.13,53.65
			C13666.14,360.69,13771.18,261.61,13743.03,178.61z M13670.17,263.98c0.03,0,0.07,0.01,0.15,0.02
			C13670.25,263.99,13670.19,263.98,13670.17,263.98z M13672,264.2c0.05,0.01,0.1,0.01,0.14,0.02
			C13672.1,264.22,13672.05,264.21,13672,264.2z M13672.43,264.26C13672.46,264.26,13672.46,264.26,13672.43,264.26L13672.43,264.26
			z M13672.21,264.23c0.11,0.01,0.18,0.02,0.21,0.03C13672.38,264.25,13672.3,264.24,13672.21,264.23z"/>
	</g>
</g>
<g id="Shadow_1_">
</g>
<g id="Gear">
</g>
<g id="Desk">
</g>
<g id="Character_1_">
	<g>
		<g>
			<rect y="336.01" class="st6" width="500" height="0.25"/>
			<rect x="131.47" y="351.44" class="st6" width="33.12" height="0.25"/>
			<rect x="250.15" y="348.73" class="st6" width="8.69" height="0.25"/>
			<rect x="52.46" y="344.5" class="st6" width="19.19" height="0.25"/>
			<rect x="389.7" y="342.82" class="st6" width="26.08" height="0.25"/>
			<rect x="357.35" y="342.82" class="st6" width="23.44" height="0.25"/>
			<rect x="356.23" y="354.82" class="st6" width="93.68" height="0.25"/>
			<path class="st6" d="M237.01,291.42H43.92c-3.15,0-5.71-2.56-5.71-5.71V14.28c0-3.15,2.56-5.71,5.71-5.71h193.1
				c3.15,0,5.71,2.56,5.71,5.71v271.43C242.72,288.85,240.16,291.42,237.01,291.42z M43.92,8.82c-3.01,0-5.46,2.45-5.46,5.46v271.43
				c0,3.01,2.45,5.46,5.46,5.46h193.1c3.01,0,5.46-2.45,5.46-5.46V14.28c0-3.01-2.45-5.46-5.46-5.46H43.92z"/>
			<path class="st6" d="M453.31,291.42h-193.1c-3.15,0-5.71-2.56-5.71-5.71V14.28c0-3.15,2.56-5.71,5.71-5.71h193.1
				c3.15,0,5.71,2.56,5.71,5.71v271.43C459.02,288.85,456.46,291.42,453.31,291.42z M260.21,8.82c-3.01,0-5.46,2.45-5.46,5.46
				v271.43c0,3.01,2.45,5.46,5.46,5.46h193.1c3.01,0,5.46-2.45,5.46-5.46V14.28c0-3.01-2.45-5.46-5.46-5.46H260.21z"/>
		</g>
		<g>
			<g>
				<g>
					
						<rect x="318.61" y="230" transform="matrix(-1 -1.224647e-16 1.224647e-16 -1 660.7638 563.0349)" class="st7" width="23.55" height="103.04"/>
					
						<rect x="233.94" y="333.04" transform="matrix(-1 -1.224647e-16 1.224647e-16 -1 571.5804 669.0506)" class="st7" width="103.69" height="2.98"/>
					<rect x="229.42" y="230" class="st8" width="89.18" height="103.04"/>
					<rect x="238.68" y="235.78" class="st7" width="70.66" height="43.44"/>
					<rect x="238.68" y="283.82" class="st7" width="70.66" height="43.44"/>
					<path class="st8" d="M292.33,243.35H255.7c-4.8,0-8.69-3.89-8.69-8.69l0,0h54.01l0,0
						C301.02,239.46,297.13,243.35,292.33,243.35z"/>
					<path class="st8" d="M292.33,291.38H255.7c-4.8,0-8.69-3.89-8.69-8.69l0,0h54.01l0,0
						C301.02,287.49,297.13,291.38,292.33,291.38z"/>
				</g>
			</g>
			<g>
				<g>
					
						<rect x="414.78" y="230" transform="matrix(-1 -1.224647e-16 1.224647e-16 -1 853.1138 563.0349)" class="st7" width="23.55" height="103.04"/>
					
						<rect x="330.12" y="333.04" transform="matrix(-1 -1.224647e-16 1.224647e-16 -1 763.9304 669.0506)" class="st7" width="103.69" height="2.98"/>
					<rect x="325.6" y="230" class="st8" width="89.18" height="103.04"/>
					<rect x="334.86" y="235.78" class="st7" width="70.66" height="43.44"/>
					<rect x="334.86" y="283.82" class="st7" width="70.66" height="43.44"/>
					<path class="st8" d="M388.5,243.35h-36.63c-4.8,0-8.69-3.89-8.69-8.69l0,0h54.01l0,0C397.19,239.46,393.3,243.35,388.5,243.35z
						"/>
					<path class="st8" d="M388.5,291.38h-36.63c-4.8,0-8.69-3.89-8.69-8.69l0,0h54.01l0,0C397.19,287.49,393.3,291.38,388.5,291.38z
						"/>
				</g>
			</g>
		</g>
		<g>
			
				<rect x="111.42" y="44.93" transform="matrix(-1 -1.224647e-16 1.224647e-16 -1 263.176 136.4936)" class="st9" width="40.34" height="46.63"/>
			
				<rect x="106.82" y="44.93" transform="matrix(-1 -1.224647e-16 1.224647e-16 -1 257.5021 136.4936)" class="st8" width="43.86" height="46.63"/>
			
				<rect x="109.11" y="49.99" transform="matrix(-1.836970e-16 1 -1 -1.836970e-16 196.9979 -60.5043)" class="st5" width="39.28" height="36.51"/>
			<path class="st8" d="M138.16,78.37v-1.43c0-10.39-8.42-18.81-18.81-18.81l0,0v1.43C119.35,69.94,127.77,78.37,138.16,78.37
				L138.16,78.37z"/>
		</g>
		<g>
			
				<rect x="286.63" y="37.67" transform="matrix(-1 -1.224647e-16 1.224647e-16 -1 724.9671 217.2433)" class="st9" width="151.7" height="141.9"/>
			
				<rect x="281.93" y="37.67" transform="matrix(-1 -1.224647e-16 1.224647e-16 -1 718.0677 217.2433)" class="st7" width="154.2" height="141.9"/>
			
				<rect x="286.63" y="179.57" transform="matrix(-1 -1.224647e-16 1.224647e-16 -1 724.9671 364.1953)" class="st9" width="151.7" height="5.06"/>
			
				<rect x="274.1" y="179.57" transform="matrix(-1 -1.224647e-16 1.224647e-16 -1 702.4003 364.1953)" class="st7" width="154.2" height="5.06"/>
			
				<rect x="295.7" y="38.1" transform="matrix(-1.836970e-16 1 -1 -1.836970e-16 467.6555 -250.4123)" class="st10" width="126.66" height="141.04"/>
			<polygon class="st5" points="389.56,171.95 366.07,45.29 327.37,45.29 350.86,171.95 			"/>
			<path class="st7" d="M426.51,128.98c0.26,0,0.47-0.24,0.47-0.54V50.25c0-0.3-0.21-0.54-0.47-0.54c-0.26,0-0.47,0.24-0.47,0.54
				v78.19C426.04,128.74,426.25,128.98,426.51,128.98z"/>
			<polygon class="st5" points="342.54,171.95 319.05,45.29 303.97,45.29 327.45,171.95 			"/>
			
				<rect x="225.6" y="108.2" transform="matrix(-1.836970e-16 1 -1 -1.836970e-16 397.5544 -180.3111)" class="st9" width="126.66" height="0.84"/>
			<polygon class="st11" points="280.37,55.04 432.07,55.04 432.68,48.25 280.98,48.25 			"/>
			<polygon class="st11" points="280.37,62.84 432.07,62.84 432.68,56.06 280.98,56.06 			"/>
			<polygon class="st11" points="280.37,70.65 432.07,70.65 432.68,63.86 280.98,63.86 			"/>
			<polygon class="st11" points="280.37,78.45 432.07,78.45 432.68,71.67 280.98,71.67 			"/>
			<polygon class="st11" points="280.37,86.26 432.07,86.26 432.68,79.47 280.98,79.47 			"/>
			<polygon class="st11" points="280.37,94.06 432.07,94.06 432.68,87.28 280.98,87.28 			"/>
			<polygon class="st11" points="280.37,101.87 432.07,101.87 432.68,95.08 280.98,95.08 			"/>
			<polygon class="st11" points="280.37,109.67 432.07,109.67 432.68,102.89 280.98,102.89 			"/>
			<polygon class="st11" points="280.37,117.48 432.07,117.48 432.68,110.69 280.98,110.69 			"/>
		</g>
		<g>
			
				<rect x="82.82" y="131.51" transform="matrix(-1 -1.224647e-16 1.224647e-16 -1 197.1121 299.1372)" class="st9" width="31.47" height="36.11"/>
			
				<rect x="79.26" y="131.51" transform="matrix(-1 -1.224647e-16 1.224647e-16 -1 192.4881 299.1372)" class="st8" width="33.97" height="36.11"/>
			
				<rect x="81.03" y="135.43" transform="matrix(-1.836970e-16 1 -1 -1.836970e-16 245.8127 53.3245)" class="st5" width="30.42" height="28.28"/>
			<path class="st8" d="M103.53,150.12v-1.1c0-4.02-3.26-7.29-7.29-7.29l0,0c-4.02,0-7.29,3.26-7.29,7.29v1.1
				c0,4.02,3.26,7.28,7.29,7.28l0,0C100.27,157.41,103.53,154.14,103.53,150.12z"/>
		</g>
		<g>
			
				<rect x="161.32" y="104.91" transform="matrix(-1 -1.224647e-16 1.224647e-16 -1 365.8447 259.6048)" class="st9" width="43.21" height="49.78"/>
			
				<rect x="156.41" y="104.91" transform="matrix(-1 -1.224647e-16 1.224647e-16 -1 359.6437 259.6048)" class="st8" width="46.82" height="49.78"/>
			
				<rect x="158.86" y="110.31" transform="matrix(-1.836970e-16 1 -1 -1.836970e-16 309.6243 -50.0194)" class="st5" width="41.93" height="38.98"/>
			<path class="st8" d="M181.45,122.03l7.4,12.82c0.72,1.26-0.18,2.82-1.63,2.82h-14.8c-1.45,0-2.36-1.57-1.63-2.82l7.4-12.82
				C178.92,120.77,180.73,120.77,181.45,122.03z"/>
		</g>
		<g>
			<g>
				
					<rect x="90.02" y="261.13" transform="matrix(-1 -1.224647e-16 1.224647e-16 -1 203.7925 597.1458)" class="st9" width="23.75" height="74.88"/>
				<polygon class="st7" points="94.53,336.01 90.02,336.01 90.02,323.18 99.26,323.18 				"/>
				
					<rect x="178.77" y="261.13" transform="matrix(-1 -1.224647e-16 1.224647e-16 -1 381.2875 597.1458)" class="st9" width="23.75" height="74.88"/>
				
					<rect x="90.02" y="261.13" transform="matrix(-1 -1.224647e-16 1.224647e-16 -1 272.7305 589.2736)" class="st7" width="92.68" height="67.01"/>
				
					<rect x="90.8" y="268.05" transform="matrix(6.123234e-17 -1 1 6.123234e-17 -174.531 402.9048)" class="st9" width="46.77" height="41.33"/>
				
					<rect x="135.16" y="268.05" transform="matrix(6.123234e-17 -1 1 6.123234e-17 -130.1743 447.2615)" class="st9" width="46.77" height="41.33"/>
				<path class="st7" d="M154.46,268.92h8.18c3.55,0,6.95-1.46,9.39-4.04l0,0h-26.96h0C147.51,267.46,150.9,268.92,154.46,268.92z"
					/>
				<path class="st7" d="M109.68,268.92h8.18c3.55,0,6.95-1.46,9.39-4.04l0,0h-26.96l0,0C102.73,267.46,106.13,268.92,109.68,268.92
					z"/>
				<polygon class="st7" points="178.2,336.01 182.71,336.01 182.71,323.18 173.47,323.18 				"/>
			</g>
			<g>
				<path class="st12" d="M153.75,251.1c0,2.84,2.3,5.14,5.14,5.14c2.84,0,5.14-2.3,5.14-5.14s-2.3-5.14-5.14-5.14
					C156.06,245.96,153.75,248.26,153.75,251.1z"/>
				<circle class="st12" cx="161.23" cy="247.76" r="5.14"/>
				<path class="st12" d="M127.95,251.92c0,2.84,2.3,5.14,5.14,5.14c2.84,0,5.14-2.3,5.14-5.14c0-2.84-2.3-5.14-5.14-5.14
					C130.25,246.78,127.95,249.08,127.95,251.92z"/>
				<circle class="st12" cx="168.11" cy="248.6" r="6.31"/>
				<path class="st12" d="M149.3,242.79c0,3.48,2.82,6.31,6.31,6.31c3.48,0,6.31-2.82,6.31-6.31c0-3.48-2.82-6.31-6.31-6.31
					C152.13,236.48,149.3,239.3,149.3,242.79z"/>
				<path class="st12" d="M139.3,244.4c0,3.48,2.82,6.31,6.31,6.31c3.48,0,6.31-2.82,6.31-6.31c0-3.48-2.82-6.31-6.31-6.31
					C142.13,238.09,139.3,240.92,139.3,244.4z"/>
				<path class="st12" d="M143.53,249.49c0,3.33,2.7,6.04,6.04,6.04c3.33,0,6.04-2.7,6.04-6.04s-2.7-6.04-6.04-6.04
					C146.24,243.45,143.53,246.15,143.53,249.49z"/>
				<path class="st12" d="M133.09,249.09c0,3.58,2.9,6.48,6.48,6.48c3.58,0,6.48-2.9,6.48-6.48c0-3.58-2.9-6.48-6.48-6.48
					C135.99,242.62,133.09,245.52,133.09,249.09z"/>
				<path class="st7" d="M178.17,251.1c0,0-0.71,10.03-27.77,10.03c-27.07,0-27.77-10.03-27.77-10.03H178.17z"/>
			</g>
		</g>
		<ellipse id="_x3C_Path_x3E__64_" class="st8" cx="250" cy="369.85" rx="193.89" ry="11.32"/>
		<g>
			<g>
				<g>
					<path class="st2" d="M307.77,73.52c-0.82-2.71-1.9-5.3-3.21-7.76l2-6.55l-12.94-12.94l-6.55,2c-2.45-1.31-5.05-2.39-7.76-3.21
						l-3.22-6.05h-18.3l-3.22,6.05c-2.71,0.82-5.3,1.9-7.76,3.21l-6.55-2l-12.94,12.94l2,6.55c-1.31,2.45-2.39,5.05-3.21,7.76
						l-6.05,3.22v18.3l6.05,3.22c0.82,2.71,1.9,5.3,3.21,7.76l-2,6.55l12.94,12.94l6.55-2c2.45,1.31,5.05,2.39,7.76,3.21l3.22,6.05
						h18.3l3.22-6.05c2.71-0.82,5.3-1.9,7.76-3.21l6.55,2l12.94-12.94l-2-6.55c1.31-2.45,2.39-5.05,3.21-7.76l6.05-3.22v-18.3
						L307.77,73.52z M266.94,111.87c-14.36,0-25.99-11.64-25.99-25.99s11.64-25.99,25.99-25.99c14.36,0,25.99,11.64,25.99,25.99
						S281.3,111.87,266.94,111.87z"/>
					<path class="st13" d="M307.77,73.52c-0.82-2.71-1.9-5.3-3.21-7.76l2-6.55l-12.94-12.94l-6.55,2c-2.45-1.31-5.05-2.39-7.76-3.21
						l-3.22-6.05h-18.3l-3.22,6.05c-2.71,0.82-5.3,1.9-7.76,3.21l-6.55-2l-12.94,12.94l2,6.55c-1.31,2.45-2.39,5.05-3.21,7.76
						l-6.05,3.22v18.3l6.05,3.22c0.82,2.71,1.9,5.3,3.21,7.76l-2,6.55l12.94,12.94l6.55-2c2.45,1.31,5.05,2.39,7.76,3.21l3.22,6.05
						h18.3l3.22-6.05c2.71-0.82,5.3-1.9,7.76-3.21l6.55,2l12.94-12.94l-2-6.55c1.31-2.45,2.39-5.05,3.21-7.76l6.05-3.22v-18.3
						L307.77,73.52z M266.94,111.87c-14.36,0-25.99-11.64-25.99-25.99s11.64-25.99,25.99-25.99c14.36,0,25.99,11.64,25.99,25.99
						S281.3,111.87,266.94,111.87z"/>
				</g>
				<path class="st2" d="M266.94,77.27c-4.76,0-8.61,3.86-8.61,8.61c0,4.76,3.86,8.61,8.61,8.61c4.76,0,8.61-3.86,8.61-8.61
					C275.56,81.13,271.7,77.27,266.94,77.27z"/>
			</g>
			<g>
				<path class="st2" d="M438.02,102.54c-1.17-3.87-2.72-7.58-4.59-11.09c0,0,0,0,0,0l2.86-9.36L417.8,63.6l-9.36,2.86c0,0,0,0,0,0
					c-3.5-1.89-7.22-3.43-11.09-4.6c0,0,0,0,0,0l-4.59-8.64H366.6L362,61.86c-3.87,1.16-7.58,2.71-11.09,4.6c0,0,0,0,0,0l-9.36-2.86
					l-18.49,18.49l2.86,9.35c0,0,0,0,0,0c-1.87,3.51-3.42,7.22-4.59,11.1l-8.65,4.6v26.15l8.64,4.59c0,0,0,0,0,0
					c1.17,3.87,2.72,7.59,4.59,11.09c0,0,0,0,0,0l-2.86,9.36l18.49,18.49l9.36-2.86c3.51,1.89,7.22,3.44,11.09,4.6l4.59,8.64h26.15
					l4.59-8.64c0,0,0,0,0,0c3.87-1.17,7.58-2.71,11.09-4.6l9.37,2.87l18.49-18.49l-2.86-9.36c0,0,0,0,0,0
					c1.87-3.5,3.42-7.22,4.59-11.09c0,0,0,0,0,0l8.65-4.6v-26.15L438.02,102.54z M379.67,167.62c-26.18,0-47.4-21.22-47.4-47.4
					c0-26.19,21.22-47.41,47.4-47.41c26.18,0,47.41,21.22,47.41,47.41C427.08,146.4,405.85,167.62,379.67,167.62z"/>
				<g>
					<path class="st2" d="M379.67,79.44c-22.48,0-40.77,18.29-40.77,40.77s18.29,40.77,40.77,40.77c22.48,0,40.77-18.29,40.77-40.77
						S402.16,79.44,379.67,79.44z M379.67,155.56c-19.49,0-35.34-15.85-35.34-35.34c0-19.49,15.85-35.34,35.34-35.34
						c19.49,0,35.34,15.85,35.34,35.34C415.01,139.7,399.16,155.56,379.67,155.56z"/>
					<path class="st14" d="M379.67,79.44c-22.48,0-40.77,18.29-40.77,40.77s18.29,40.77,40.77,40.77
						c22.48,0,40.77-18.29,40.77-40.77S402.16,79.44,379.67,79.44z M379.67,155.56c-19.49,0-35.34-15.85-35.34-35.34
						c0-19.49,15.85-35.34,35.34-35.34c19.49,0,35.34,15.85,35.34,35.34C415.01,139.7,399.16,155.56,379.67,155.56z"/>
				</g>
			</g>
			<g>
				<path class="st2" d="M286,189.78c-0.55,0-1-0.45-1-1v-2c0-0.55,0.45-1,1-1s1,0.45,1,1v2C287,189.33,286.55,189.78,286,189.78z"
					/>
				<path class="st2" d="M270.43,163.94c-0.92-0.6-1.63-1.44-2.06-2.45c-0.22-0.51-0.81-0.74-1.31-0.53
					c-0.51,0.22-0.75,0.8-0.53,1.31c0.58,1.37,1.55,2.53,2.8,3.34c0.17,0.11,0.36,0.16,0.54,0.16c0.33,0,0.65-0.16,0.84-0.45
					C271.02,164.86,270.89,164.24,270.43,163.94z"/>
				<path class="st2" d="M266.94,151.45c0.55,0,1-0.45,1-1v-3.83c0-0.55-0.45-1-1-1c-0.55,0-1,0.45-1,1v3.83
					C265.94,151,266.39,151.45,266.94,151.45z"/>
				<path class="st2" d="M277.35,164.82h-3.84c-0.55,0-1,0.45-1,1c0,0.55,0.45,1,1,1h3.84c0.55,0,1-0.45,1-1
					C278.35,165.27,277.9,164.82,277.35,164.82z"/>
				<path class="st2" d="M267.94,158.12v-3.83c0-0.55-0.45-1-1-1c-0.55,0-1,0.45-1,1v3.83c0,0.55,0.45,1,1,1
					C267.5,159.12,267.94,158.67,267.94,158.12z"/>
				<path class="st2" d="M286.94,171.32c-0.07-0.55-0.57-0.94-1.12-0.86c-0.55,0.07-0.94,0.57-0.87,1.12
					c0.03,0.23,0.05,0.47,0.05,0.71v3c0,0.55,0.45,1,1,1s1-0.45,1-1v-3C287,171.95,286.98,171.63,286.94,171.32z"/>
				<path class="st2" d="M286,178.11c-0.55,0-1,0.45-1,1v3.83c0,0.55,0.45,1,1,1s1-0.45,1-1v-3.83
					C287,178.56,286.55,178.11,286,178.11z"/>
				<path class="st2" d="M285.13,167.34c-0.99-1.12-2.28-1.91-3.72-2.29c-0.54-0.14-1.08,0.18-1.22,0.72
					c-0.14,0.53,0.18,1.08,0.72,1.22c1.05,0.27,1.99,0.85,2.72,1.67c0.2,0.22,0.47,0.34,0.75,0.34c0.24,0,0.47-0.08,0.66-0.25
					C285.46,168.39,285.5,167.76,285.13,167.34z"/>
				<path class="st2" d="M266.94,143.74c-0.55,0-1-0.45-1-1v-2c0-0.55,0.45-1,1-1c0.55,0,1,0.45,1,1v2
					C267.94,143.29,267.5,143.74,266.94,143.74z"/>
			</g>
		</g>
		<g>
			<g>
				<g>
					<rect x="101.83" y="240.13" class="st2" width="231.54" height="3.71"/>
					<g>
						
							<rect x="333.37" y="240.13" transform="matrix(-1 -1.224647e-16 1.224647e-16 -1 716.9766 483.9594)" class="st2" width="50.24" height="3.71"/>
						
							<rect x="333.37" y="240.13" transform="matrix(-1 -1.224647e-16 1.224647e-16 -1 716.9766 483.9594)" class="st14" width="50.24" height="3.71"/>
					</g>
				</g>
				<g>
					<polygon class="st2" points="366.83,247.81 118.61,247.81 110.31,243.83 375.14,243.83 					"/>
					<polygon class="st15" points="366.83,247.81 118.61,247.81 110.31,243.83 375.14,243.83 					"/>
				</g>
				<polygon class="st2" points="126.11,247.81 126.11,366.14 129.29,366.14 133.29,247.81 				"/>
				<polygon class="st2" points="163.65,247.81 163.65,366.14 166.83,366.14 170.83,247.81 				"/>
				<polygon class="st2" points="366.83,247.81 366.83,366.14 363.66,366.14 359.66,247.81 				"/>
				<polygon class="st2" points="329.3,247.81 329.3,366.14 326.12,366.14 322.12,247.81 				"/>
			</g>
			<g>
				<g>
					<polygon class="st2" points="253.74,195.21 243.29,237.77 243.29,237.77 243,240.13 315.09,240.13 315.38,237.77 
						325.82,195.21 					"/>
					<polygon class="st16" points="253.74,195.21 243.29,237.77 243.29,237.77 243,240.13 315.09,240.13 315.38,237.77 
						325.82,195.21 					"/>
				</g>
				<polygon class="st2" points="323.61,195.21 251.52,195.21 241.08,237.77 313.16,237.77 				"/>
				<polygon class="st5" points="311.63,235.83 321.13,197.15 253.05,197.15 243.55,235.83 				"/>
				<g>
					<polygon class="st2" points="294.38,237.77 294.08,240.13 214.71,240.13 215,237.77 					"/>
					<polygon class="st15" points="294.38,237.77 294.08,240.13 214.71,240.13 215,237.77 					"/>
				</g>
			</g>
			<path class="st2" d="M144.44,232.39c0-3.09-2.45-5.64-5.63-6.1v-1.15c0-0.27-0.23-0.49-0.52-0.49h-10.8
				c-0.29,0-0.52,0.22-0.52,0.49v14.99h11.85v-1.64C141.99,238.03,144.44,235.47,144.44,232.39z M138.81,236.55v-8.33
				c2.05,0.43,3.58,2.13,3.58,4.16C142.4,234.42,140.86,236.12,138.81,236.55z"/>
			<g>
				<polygon class="st17" points="346.56,240.13 356.6,240.13 353.63,218.13 346.56,218.13 				"/>
				<g>
					<polygon class="st2" points="331.84,240.13 350.85,240.13 354.39,214.39 335.38,214.39 					"/>
					<polygon class="st16" points="331.84,240.13 350.85,240.13 354.39,214.39 335.38,214.39 					"/>
				</g>
				<polygon class="st2" points="329.3,240.13 349.09,240.13 352.63,214.39 332.84,214.39 				"/>
				<polygon class="st18" points="347.34,238.1 350.32,216.42 334.59,216.42 331.61,238.1 				"/>
			</g>
		</g>
		<g>
			<g>
				<path class="st19" d="M197.54,202.12l-0.82,0.89l-0.88,1c-0.59,0.67-1.17,1.37-1.74,2.08c-1.12,1.42-2.21,2.87-3.21,4.36
					c-2.02,2.97-3.75,6.07-4.98,9.24c-0.61,1.59-1.1,3.18-1.42,4.78c-0.16,0.92-0.27,1.32-0.31,1.71c-0.05,0.38-0.06,0.65,0,0.94
					c0.06,0.57,0.76,1.49,2.04,2.26c0.62,0.4,1.35,0.74,2.12,1.07c0.39,0.16,0.79,0.31,1.2,0.45c0.39,0.14,0.87,0.28,1.16,0.4
					l0.01,5.52c-0.7,0.1-1.2,0.18-1.8,0.21c-0.58,0.04-1.16,0.05-1.74,0.04c-1.17-0.02-2.37-0.17-3.61-0.46
					c-1.23-0.3-2.51-0.76-3.78-1.52c-1.25-0.76-2.52-1.82-3.48-3.24c-0.96-1.41-1.57-3.08-1.82-4.66c-0.08-0.41-0.1-0.79-0.13-1.18
					c-0.03-0.4-0.03-0.77-0.02-1.14l0.01-0.56c0.01-0.18,0.03-0.3,0.04-0.46l0.09-0.87c0.26-2.32,0.75-4.58,1.44-6.73
					c1.35-4.32,3.34-8.28,5.67-11.92c1.16-1.83,2.42-3.57,3.77-5.25c0.67-0.84,1.36-1.66,2.08-2.47c0.36-0.41,0.72-0.81,1.11-1.2
					c0.4-0.41,0.73-0.76,1.24-1.25L197.54,202.12z"/>
				<path class="st19" d="M188.65,231.16l4.66-3.41l2.66,9.58c0,0-4.13,1.53-7.29-0.53L188.65,231.16z"/>
				<polygon class="st19" points="199.78,225.45 201.6,233.47 195.96,237.32 193.31,227.75 				"/>
				<path class="st17" d="M229.25,165.36c-0.21,0.59-0.06,1.18,0.33,1.32c0.39,0.13,0.87-0.24,1.08-0.83
					c0.21-0.59,0.06-1.18-0.33-1.32C229.94,164.4,229.46,164.77,229.25,165.36z"/>
				<path class="st20" d="M229.14,166.53c0,0,0.16,3.89,1.07,6.06c-1.39,0.61-3.02-0.45-3.02-0.45L229.14,166.53z"/>
				<path class="st17" d="M228.29,161.35c0.07,0.02,0.15,0.03,0.23,0c1.56-0.46,2.59,0.37,2.63,0.41c0.16,0.13,0.39,0.11,0.52-0.05
					c0.13-0.16,0.11-0.39-0.04-0.52c-0.06-0.05-1.37-1.13-3.32-0.55c-0.2,0.06-0.31,0.26-0.25,0.46
					C228.1,161.22,228.18,161.31,228.29,161.35z"/>
				<path class="st19" d="M207.32,167.54c1.12,5.69,2.23,16.12-1.75,19.92c0,0,1.56,5.78,12.13,5.78c11.63,0,5.56-5.77,5.56-5.77
					c-6.35-1.52-6.18-6.23-5.08-10.65L207.32,167.54z"/>
				<path class="st17" d="M204.05,189.45c-0.83-1.83-1.75-3.92,0.15-4.58c2.09-0.72,13.52-1.46,17.47-0.1
					c3.94,1.35,2.82,5.06,2.82,5.06L204.05,189.45z"/>
				<path class="st19" d="M243.98,199.21c2.44,4.41,5.07,8.95,7.74,13.31c2.67,4.38,5.45,8.69,8.43,12.66
					c0.74,1.01,1.5,1.95,2.27,2.89c0.38,0.49,0.78,0.9,1.17,1.35l0.59,0.66l0.15,0.17l0.07,0.08l0.02,0.02
					c0.03,0.03,0.05,0.06,0.08,0.1c0.21,0.28,0.82,0.67,1.63,0.98c0.82,0.32,1.83,0.53,2.92,0.71c4.39,0.63,9.67,0.31,14.61-0.17
					l1.52,5.3c-1.35,0.6-2.61,1.05-3.95,1.5c-1.32,0.45-2.66,0.84-4.04,1.17c-2.75,0.66-5.59,1.13-8.68,1.16
					c-1.55,0.02-3.16-0.11-4.89-0.48c-1.72-0.39-3.61-1.02-5.44-2.43l-0.67-0.55l-0.16-0.14l-0.1-0.1l-0.2-0.19l-0.78-0.77
					c-0.51-0.51-1.06-1.02-1.53-1.55c-0.96-1.05-1.94-2.09-2.81-3.17c-3.59-4.29-6.72-8.74-9.65-13.29
					c-1.47-2.28-2.88-4.58-4.22-6.91c-1.36-2.35-2.67-4.65-3.94-7.13L243.98,199.21z"/>
				<path class="st2" d="M191.64,189.22c-7.29,1.67-15.66,21.56-15.66,21.56l14.65,10.04c0,0,5.55-7.76,9.68-16.45
					C204.63,195.27,199.1,187.51,191.64,189.22z"/>
				<path class="st14" d="M196.86,201.9l-6.93,18.44l0.69,0.48c0,0,3-4.21,6.24-9.88V201.9z"/>
				<path class="st2" d="M235.24,189.63c0,0,8.28,9.36,0.46,67.26c-12.54,0-35.52,0-41.62,0c-0.29-6.39,3.73-37.56-2.43-67.66
					c0,0,7.13-1.43,13.93-1.76c5.32-0.26,13.02-0.43,17.69,0C229.43,188.03,235.24,189.63,235.24,189.63z"/>
				<path class="st14" d="M230.61,206.37c0.14,0.17,1.05,9.57,8.22,17.82c0.17-3.73,0.23-7.08,0.22-10.07L230.61,206.37z"/>
				<path class="st2" d="M227.02,195.93c-1.03,7.37,13.49,26.19,13.49,26.19l14.59-10.04c0,0-4.04-10.37-10.86-17.17
					C236.47,187.15,228.14,187.91,227.02,195.93z"/>
				<path class="st19" d="M281.97,232l5.94-2.43l6.11,4.61c0,0-5.84,5.16-11.14,3.16L281.97,232z"/>
				<polygon class="st19" points="291.86,229.33 296.34,232.53 294.02,234.18 287.91,229.57 				"/>
				<path class="st19" d="M209.91,157.23c-2.09,7.44-3.68,11.68-1.31,16.7c3.58,7.55,13.72,7.34,17.99,0.67
					c3.84-6,6.6-17.15,0.49-22.53C221.05,146.78,212,149.79,209.91,157.23z"/>
				<path class="st17" d="M225.75,157.3c-3.03,8.54-6.52,17.92-15.14,16.15c-5.56-1.15-5.99-10.1-8-14.17
					c-1.76-3.58-1.66-10.76,1.96-10.84c-1.63-2.38,6.66-11.09,12.31-6.49c1.45-2,11.9-7.89,19.64,1.46
					C243.84,152.24,240.27,159.64,225.75,157.3z"/>
				<path class="st19" d="M219,162.76c-0.25,2.01,0.33,4.05,1.22,5.47c1.33,2.14,3.28,1.32,3.99-0.86c0.64-1.97,0.71-5.45-1.14-6.84
					C221.24,159.16,219.28,160.47,219,162.76z"/>
				<g>
					<path class="st2" d="M282.88,360.49c1,0,1.96-0.14,2.29-0.59c0.11-0.16,0.2-0.42-0.01-0.81c-0.12-0.21-0.32-0.36-0.58-0.43
						c-1.29-0.35-4.01,1.2-4.13,1.26c-0.07,0.04-0.1,0.11-0.09,0.19c0.01,0.08,0.07,0.14,0.15,0.15
						C280.99,360.37,281.95,360.49,282.88,360.49z M284.12,358.98c0.13,0,0.25,0.01,0.36,0.04c0.17,0.05,0.29,0.13,0.36,0.26
						c0.13,0.23,0.08,0.34,0.04,0.41c-0.36,0.5-2.33,0.51-3.78,0.31C281.81,359.63,283.21,358.98,284.12,358.98z"/>
					<path class="st2" d="M280.53,360.28c0.03,0,0.05-0.01,0.08-0.02c0.94-0.42,2.8-2.1,2.66-2.98c-0.03-0.21-0.18-0.46-0.69-0.52
						c-0.38-0.03-0.72,0.07-1.02,0.32c-0.99,0.81-1.2,2.91-1.21,3c-0.01,0.07,0.02,0.13,0.08,0.17
						C280.46,360.26,280.49,360.28,280.53,360.28z M282.43,357.12c0.04,0,0.07,0,0.11,0.01c0.33,0.03,0.35,0.16,0.36,0.21
						c0.09,0.53-1.18,1.85-2.14,2.43c0.1-0.61,0.38-1.87,1.03-2.4C281.99,357.2,282.2,357.12,282.43,357.12z"/>
					<polygon class="st19" points="271.48,360.09 279.26,360.09 281.03,342.07 273.24,342.07 					"/>
					<path class="st17" d="M279.7,359.19l-8.5,0c-0.32,0-0.59,0.22-0.66,0.53l-1.54,6.92c-0.16,0.72,0.39,1.4,1.12,1.38
						c3.07-0.05,7.5-0.23,11.35-0.23c4.51,0,8.4,0.25,13.68,0.25c3.19,0,4.08-3.23,2.74-3.52c-6.09-1.33-11.06-1.47-16.32-4.72
						C281.01,359.44,280.38,359.19,279.7,359.19z"/>
					<polygon class="st14" points="281.02,342.07 280.12,351.36 272.33,351.36 273.24,342.07 					"/>
				</g>
				<path class="st2" d="M251.69,360.49c0.8,0,1.57-0.12,1.87-0.51c0.13-0.16,0.23-0.45-0.01-0.87c-0.12-0.22-0.32-0.37-0.58-0.43
					c-1.13-0.27-3.29,1.2-3.38,1.27c-0.06,0.04-0.09,0.11-0.08,0.19c0.01,0.07,0.07,0.13,0.14,0.15
					C250.06,360.37,250.89,360.49,251.69,360.49z M252.67,359.01c0.08,0,0.16,0.01,0.23,0.02c0.16,0.04,0.27,0.12,0.34,0.25
					c0.17,0.3,0.07,0.43,0.04,0.47c-0.33,0.44-1.92,0.44-3.08,0.25C250.85,359.59,251.96,359.01,252.67,359.01z"/>
				<path class="st2" d="M249.71,360.28c0.03,0,0.06-0.01,0.09-0.02c0.81-0.44,2.36-2.14,2.2-3.01c-0.03-0.16-0.15-0.43-0.59-0.48
					c-0.29-0.03-0.55,0.04-0.78,0.24c-0.9,0.74-1.09,2.98-1.1,3.08c-0.01,0.07,0.03,0.13,0.08,0.17
					C249.64,360.27,249.67,360.28,249.71,360.28z M251.28,357.12c0.03,0,0.06,0,0.08,0.01c0.24,0.03,0.26,0.14,0.27,0.19
					c0.1,0.51-0.89,1.8-1.69,2.41c0.09-0.66,0.34-1.97,0.92-2.44C250.99,357.17,251.12,357.12,251.28,357.12z"/>
				<polygon class="st19" points="240.79,360.09 248.57,360.09 252.48,342.07 244.7,342.07 				"/>
				<path class="st17" d="M249.12,359.19l-8.74,0c-0.32,0-0.59,0.22-0.66,0.53l-1.54,6.92c-0.16,0.72,0.4,1.4,1.14,1.38
					c3.05-0.05,4.54-0.23,8.38-0.23c2.37,0,5.4,0.25,8.67,0.25c3.19,0,3.69-3.23,2.36-3.52c-6-1.31-6.42-3.12-8.34-4.85
					C250.04,359.36,249.59,359.19,249.12,359.19z"/>
				<g class="st14">
					<polygon points="244.7,342.07 252.48,342.07 250.46,351.36 242.68,351.36 					"/>
				</g>
				<path class="st17" d="M235.7,256.89c0,0,58.3,6.17,57.67,35.91c-0.66,30.93-10.62,54.61-10.62,54.61h-11.56
					c0,0,0.59-18.86,0.2-49.32c-0.12-9.12-18.55-12.14-36.56-13.2c-15.55-0.92-29.2-10.7-35.24-25.06l-1.24-2.94H235.7z"/>
				<path class="st2" d="M285.57,344.31c0.06,0-0.74,5.47-0.74,5.47h-16.04l-0.43-4.88L285.57,344.31z"/>
				<path class="st17" d="M223.22,256.89c0,0,42.26,14.02,43.33,31.36c1.96,31.94-13.7,59.16-13.7,59.16h-11.67
					c0,0,4.43-13.5,6.02-42.43c2-36.36-65.83-0.06-53.12-48.09H223.22z"/>
				<path class="st2" d="M256.37,344.31c0.06,0-1.47,5.47-1.47,5.47h-16.04l0.29-4.88L256.37,344.31z"/>
			</g>
			<g>
				<path class="st2" d="M253.7,287.5H188.7l0,0c0-4.1,3.32-7.42,7.42-7.42h50.16C250.38,280.09,253.7,283.41,253.7,287.5
					L253.7,287.5z"/>
				<g>
					<polygon class="st2" points="191.71,287.5 181.91,369.66 184.01,369.66 196.43,287.5 					"/>
					<polygon class="st21" points="191.71,287.5 181.91,369.66 184.01,369.66 196.43,287.5 					"/>
				</g>
				<g>
					<polygon class="st2" points="204.82,287.5 204.63,369.66 206.72,369.66 209.55,287.5 					"/>
					<polygon class="st21" points="204.82,287.5 204.63,369.66 206.72,369.66 209.55,287.5 					"/>
				</g>
				<g>
					<polygon class="st2" points="250.69,287.5 260.49,369.66 258.39,369.66 245.96,287.5 					"/>
					<polygon class="st21" points="250.69,287.5 260.49,369.66 258.39,369.66 245.96,287.5 					"/>
				</g>
				<g>
					<polygon class="st2" points="237.58,287.5 237.77,369.66 235.68,369.66 232.85,287.5 					"/>
					<polygon class="st21" points="237.58,287.5 237.77,369.66 235.68,369.66 232.85,287.5 					"/>
				</g>
			</g>
		</g>
	</g>
</g>
</svg>
