<?xml version="1.0" encoding="utf-8"?>
<!-- Generator: Adobe Illustrator 16.0.0, SVG Export Plug-In . SVG Version: 6.00 Build 0)  -->
<!DOCTYPE svg PUBLIC "-//W3C//DTD SVG 1.1//EN" "http://www.w3.org/Graphics/SVG/1.1/DTD/svg11.dtd">
<svg version="1.1" id="all_x5F_picture" xmlns="http://www.w3.org/2000/svg" xmlns:xlink="http://www.w3.org/1999/xlink" x="0px"
	 y="0px" width="962.75px" height="827.331px" viewBox="0 0 962.75 827.331" enable-background="new 0 0 962.75 827.331"
	 xml:space="preserve">
<g>
	<path fill="#F0F5FF" d="M337.412,542.773l472.479-6.135c62.746-0.815,111.968-53.82,109.94-118.392l-8.392-267.239
		c-2.027-64.571-54.537-116.256-117.283-115.441l-472.479,6.135c-62.746,0.814-111.968,53.82-109.94,118.392l8.392,267.238
		C222.156,491.902,274.665,543.588,337.412,542.773z"/>
	<g>
		<path fill="#FFAC00" d="M720.109,302.745l-148.229-27.294l-32.043,150.143c11.869,2.891,24.205,4.37,36.89,4.206
			C649.871,428.85,709.096,374.209,720.109,302.745z"/>
		<path fill="#0087DC" d="M567.034,121.102l4.847,154.349l129.286-75.81C674.24,152.092,623.797,120.365,567.034,121.102z"/>
		<path fill="#469FE4" d="M421.896,277.398c0.765,24.349,7.008,47.397,17.434,67.756l132.551-69.704l-145.172-42.266
			C423.11,247.227,421.414,262.063,421.896,277.398z"/>
		<path fill="#007CD6" d="M531.919,423.472c4.999,1.574,7.921,2.181,7.921,2.181C537.145,424.985,534.504,424.258,531.919,423.472z"
			/>
		<path fill="#9EC5EF" d="M602.065,269.691l129.289-75.82c0,0,29.012,45.399,18.941,103.121L602.065,269.691z"/>
		<path fill="#70B2E9" d="M557.17,293.208l-32.049,150.173c0,0-64.754-12.97-100.541-80.479L557.17,293.208z"/>
		<path fill="#FFCB55" d="M555.77,102.683l4.848,154.372l-145.27-42.238C415.348,214.816,442.499,104.154,555.77,102.683z"/>
		<g>
			<polygon fill="#1F217B" points="336.968,140.895 401.949,140.051 401.619,129.535 336.638,130.378 			"/>
			<path fill="#1F217B" d="M450.674,182.635c0.235-0.082,0.455-0.227,0.628-0.433c0.513-0.609,0.437-1.521-0.173-2.033
				l-53.577-45.174c-0.61-0.511-1.521-0.439-2.033,0.172c-0.514,0.609-0.438,1.52,0.172,2.033l53.577,45.174
				C449.672,182.715,450.208,182.796,450.674,182.635z"/>
		</g>
		<g>
			<polygon fill="#1F217B" points="775.27,378.636 723.344,379.31 723.607,387.713 775.533,387.039 			"/>
			<path fill="#1F217B" d="M727.98,383.557c0.188-0.065,0.362-0.181,0.501-0.347c0.411-0.485,0.35-1.212-0.138-1.623l-42.813-36.096
				c-0.485-0.411-1.211-0.352-1.625,0.139c-0.411,0.485-0.35,1.212,0.137,1.622l42.813,36.096
				C727.18,383.622,727.607,383.687,727.98,383.557z"/>
		</g>
		<g>
			<polygon fill="#1F217B" points="717.385,117.383 662.155,118.1 661.875,109.162 717.104,108.445 			"/>
			<path fill="#1F217B" d="M623.781,155.327c0.154-0.054,0.301-0.138,0.428-0.255l43.09-39.545c0.499-0.458,0.533-1.234,0.074-1.732
				c-0.46-0.496-1.242-0.525-1.732-0.074l-43.091,39.544c-0.499,0.459-0.532,1.234-0.074,1.733
				C622.817,155.37,623.333,155.483,623.781,155.327z"/>
		</g>
		<g>
			<polygon fill="#1F217B" points="832.188,212.448 780.261,213.123 779.997,204.719 831.924,204.045 			"/>
			<path fill="#1F217B" d="M744.183,248.125c0.144-0.05,0.282-0.129,0.4-0.24l40.514-37.179c0.469-0.431,0.501-1.16,0.07-1.63
				c-0.428-0.472-1.159-0.509-1.629-0.07l-40.514,37.18c-0.468,0.431-0.501,1.16-0.07,1.629
				C743.274,248.164,743.763,248.271,744.183,248.125z"/>
		</g>
		<g>
			<polygon fill="#1F217B" points="377.402,431.007 429.328,430.333 429.592,438.736 377.666,439.41 			"/>
			<path fill="#1F217B" d="M425.65,434.689c0.144-0.05,0.282-0.129,0.4-0.241l40.513-37.181c0.469-0.43,0.501-1.159,0.071-1.627
				c-0.428-0.474-1.16-0.511-1.628-0.068l-40.513,37.181c-0.469,0.431-0.501,1.159-0.071,1.627
				C424.743,434.729,425.23,434.835,425.65,434.689z"/>
		</g>
	</g>
</g>
<g id="Ñëîé_13">
	<g>
		<g>
			<path fill="#9EC6EF" d="M287.91,145.526l-0.179,0.126l-0.218-0.021c-2.274-0.222-6.447-3.798-7.97-5.62
				c-0.129,0.085-0.259,0.174-0.388,0.262c-0.158,0.106-0.313,0.212-0.47,0.315c1.09,1.825,2.954,6.595,2.402,8.981l-0.06,0.255
				l-0.229,0.127c-4.66,2.578-9.677,4.687-14.913,6.271l-0.249,0.076l-0.222-0.133c-1.373-0.816-3.743-4.794-4.792-7.044
				c-0.892,0.303-1.806,0.543-2.721,0.771c0.587,2.08,1.38,6.261,0.949,7.804l-0.097,0.349l-0.355,0.07
				c-6.101,1.209-12.368,1.672-18.628,1.372l-0.337-0.016l-0.156-0.3c-0.488-0.939-0.696-5.241-0.762-6.995
				c-1.125-0.023-2.228-0.1-3.284-0.187c-0.206,2.142-0.735,5.794-1.319,6.701l-0.2,0.31l-0.368-0.045
				c-6.342-0.795-12.578-2.401-18.534-4.773l-0.335-0.134l-0.033-0.36c-0.096-1.063,1.053-4.261,1.8-6.103
				c-1.134-0.45-2.292-0.922-3.444-1.467c-0.661,1.493-2.195,4.856-2.917,5.488l-0.292,0.257l-0.35-0.168
				c-5.822-2.793-11.615-6.621-16.313-10.778l-0.308-0.272l0.15-0.383c0.293-0.748,2.494-3.332,3.827-4.823
				c-0.197-0.184-0.394-0.367-0.59-0.552c-0.399-0.373-0.794-0.745-1.194-1.108c-1.216,1.32-3.687,3.811-4.735,4.175l-0.341,0.118
				l-0.259-0.251c-4.699-4.533-8.756-9.559-12.057-14.937l-0.193-0.315l0.2-0.31c0.399-0.625,2.15-1.805,4.578-3.409
				c0.336-0.222,0.656-0.434,0.943-0.625c-0.219-0.438-0.444-0.872-0.674-1.308c-0.973,0.479-2.288,1.177-3.47,1.804
				c-1.327,0.704-2.156,1.142-2.474,1.272l-0.483,0.199l-0.254-0.457c-3.126-5.612-5.545-11.673-7.193-18.014l-0.077-0.297
				l0.199-0.233c0.811-0.922,5.65-2.262,7.305-2.69c-0.161-0.798-0.307-1.631-0.439-2.525c-0.652,0.04-1.375,0.09-2.111,0.142
				c-3.504,0.244-5.217,0.34-5.785,0.169l-0.344-0.104l-0.064-0.354c-1.066-5.878-1.429-11.955-1.077-18.063l0.013-0.22l0.154-0.157
				c1.201-1.223,6.295-1.002,8.884-0.552c0.095-0.808,0.194-1.634,0.327-2.458c-2.749-0.277-7.373-1.133-8.609-2.177l-0.245-0.208
				l0.042-0.318c0.778-5.968,2.292-11.863,4.498-17.521l0.198-0.331l0.238-0.051c1.039-0.226,3.858,0.465,9.386,2.309
				c0.271-0.612,0.524-1.147,0.782-1.652c-1.954-1.194-7.395-4.556-8.025-5.375l-0.224-0.291l0.164-0.329
				c2.908-5.855,6.325-11.167,10.446-16.239l0.231-0.286l0.357,0.083c1.017,0.234,6.682,4.046,8.629,5.369
				c0.373-0.413,0.769-0.83,1.184-1.237c-0.332-0.374-0.713-0.797-1.12-1.248c-2.847-3.159-5.045-5.662-5.299-6.761l-0.042-0.263
				c0,0,0.207-0.301,0.242-0.336c4.23-4.351,8.96-8.167,14.059-11.343l0.272-0.17l0.29,0.137c1.566,0.738,4.885,5.912,6.302,8.286
				c0.708-0.416,1.48-0.846,2.335-1.3c-1.44-2.203-4.851-7.921-4.166-9.686l0.081-0.205l0.193-0.102
				c5.439-2.865,11.115-5.046,16.873-6.487l0.334-0.083l0.236,0.252c0.266,0.283,0.549,1.011,1.355,3.19
				c0.768,2.076,1.797,4.862,2.708,6.457c0.526-0.145,1.144-0.302,1.813-0.438c-0.053-1.233-0.318-3.096-0.574-4.906
				c-0.482-3.394-0.653-4.833-0.384-5.408l0.13-0.277l0.301-0.053c6.452-1.131,12.971-1.442,19.376-0.924l0.521,0.042l0.019,0.523
				c0.005,0.141-0.032,0.574-0.088,1.189c-0.682,7.435,0.015,8.308,0.237,8.397c0.307,0.023,0.944-0.833,1.813-6.83
				c0.26-1.793,0.36-2.398,0.553-2.698l0.201-0.311l0.366,0.045c6.152,0.76,12.407,2.368,18.59,4.777l0.337,0.132l0.035,0.361
				c0.051,0.543-0.356,1.694-1.367,4.388c-0.648,1.726-1.374,3.657-1.746,5.053c0.603,0.236,1.215,0.5,1.835,0.772
				c1.007-1.585,2.195-4.107,3.083-5.991c0.878-1.866,1.182-2.49,1.413-2.728l0.286-0.295l0.376,0.167
				c5.86,2.609,11.742,6.304,16.562,10.402l0.293,0.25l-0.112,0.369c-0.148,0.492-0.981,1.498-3.148,4.037
				c-0.993,1.164-2.102,2.464-3.017,3.608c0.992,0.815,1.918,1.66,2.688,2.381c0.738-0.712,1.557-1.525,2.371-2.334
				c2.924-2.906,4.272-4.203,4.906-4.425l0.343-0.12l0.261,0.252c4.68,4.521,8.726,9.529,12.025,14.885l0.195,0.314l-0.2,0.312
				c-0.326,0.502-1.515,1.286-4.364,3.09c-1.421,0.899-2.884,1.826-3.961,2.593c0.478,0.792,0.924,1.584,1.333,2.367
				c1.501-0.455,3.479-1.221,5.245-1.904c2.798-1.083,3.903-1.49,4.408-1.462l0.338,0.018l0.154,0.3
				c2.88,5.595,5.053,11.498,6.461,17.544l0.082,0.352l-0.275,0.232c-1.049,0.882-5.082,1.709-9.479,2.551l-0.499,0.096
				c0.194,0.849,0.354,1.699,0.496,2.515c4.602,0.244,9.602,0.577,10.824,1.424l0.214,0.148l0.035,0.258
				c0.693,5.286,0.472,15.718,0.463,16.159l-0.011,0.498l-0.493,0.071c-0.85,0.124-7.741,1.111-10.385,0.932
				c-0.006,0.056-0.014,0.113-0.02,0.169c-0.043,0.346-0.087,0.694-0.121,1.051c2.739,0.771,9.66,3.501,9.973,3.625l0.497,0.196
				l-4.671,16.224l-0.547-0.131c0,0-7.659-1.839-10.001-2.415c-0.027,0.083-0.057,0.172-0.087,0.265
				c-0.22,0.662-0.411,1.231-0.564,1.632c0.436,0.312,1.067,0.73,1.77,1.197c3.182,2.112,5.861,3.961,6.428,5.207l0.11,0.241
				l-0.109,0.243c-0.965,2.146-8.308,13.162-8.863,13.774l-0.172,0.19l-0.257,0.004c-1.639,0.02-5.155-2.117-8.711-4.429
				l-0.077-0.049c-0.064,0.076-0.129,0.153-0.196,0.231c-0.036,0.043-0.073,0.086-0.109,0.129c1.352,1.572,5.043,6.509,4.873,9.19
				l-0.014,0.215l-0.149,0.155c-0.094,0.097-0.187,0.193-0.28,0.29C295.425,139.694,291.809,142.776,287.91,145.526z
				 M293.041,126.943l-0.399-0.391l0.368-0.418c0.151-0.173,0.297-0.344,0.438-0.511c0.187-0.221,0.368-0.435,0.551-0.637
				l0.335-0.37l0.925,0.598c1.534,0.997,6.033,3.922,7.787,4.215c1.114-1.562,7.104-10.492,8.374-12.985
				c-0.789-1.116-3.942-3.21-5.878-4.495c-0.992-0.659-1.776-1.179-2.209-1.523l-0.394-0.313l0.248-0.437
				c0.127-0.225,0.489-1.317,0.684-1.904c0.124-0.375,0.228-0.686,0.277-0.812l0.19-0.483l0.502,0.128
				c1.094,0.278,7.962,1.93,9.963,2.412l4.064-14.114c-1.796-0.702-7.935-3.079-9.8-3.505l-0.488-0.112l0.032-0.499
				c0.036-0.55,0.102-1.081,0.167-1.603c0.031-0.251,0.062-0.501,0.089-0.75l0.073-0.677l0.659,0.172
				c1.171,0.304,6.491-0.285,10.088-0.794c0.034-2.129,0.131-10.563-0.426-15.187c-1.533-0.654-7.655-0.979-10.038-1.106
				l-0.906-0.048l-0.079-0.463c-0.191-1.122-0.409-2.322-0.701-3.494l-0.151-0.6l1.714-0.333c2.407-0.461,7.214-1.381,8.653-2.114
				c-1.354-5.675-3.395-11.22-6.071-16.49c-0.71,0.194-2.302,0.811-3.624,1.322c-1.977,0.765-4.218,1.632-5.814,2.074l-0.463,0.128
				l-0.218-0.429c-0.53-1.045-1.133-2.114-1.792-3.178l-0.283-0.458l0.43-0.323c1.133-0.848,2.829-1.922,4.468-2.96
				c1.406-0.89,3.103-1.964,3.755-2.496c-3.126-5.001-6.917-9.692-11.278-13.953c-0.806,0.611-2.73,2.523-4.186,3.97
				c-0.971,0.965-1.951,1.938-2.792,2.738l-0.404,0.384l-0.404-0.384c-0.985-0.934-2.169-2.029-3.474-3.066l-0.456-0.362
				l0.358-0.459c0.988-1.266,2.273-2.773,3.408-4.102c1.023-1.199,2.254-2.641,2.729-3.309c-4.536-3.795-9.984-7.217-15.439-9.701
				c-0.247,0.473-0.641,1.309-1,2.071c-0.984,2.09-2.332,4.953-3.445,6.563l-0.324,0.378l-0.445-0.195
				c-0.881-0.389-1.792-0.79-2.666-1.11l-0.483-0.178l0.111-0.502c0.331-1.486,1.174-3.727,1.916-5.704
				c0.482-1.282,1.06-2.823,1.241-3.536c-5.788-2.22-11.633-3.726-17.389-4.479c-0.09,0.449-0.201,1.209-0.301,1.903
				c-0.657,4.527-1.301,7.979-3.083,7.832c-1.808-0.174-1.838-3.832-1.302-9.676c0.018-0.194,0.034-0.369,0.047-0.518
				c-5.985-0.438-12.066-0.14-18.093,0.883c-0.016,0.818,0.281,2.905,0.506,4.485c0.299,2.106,0.608,4.284,0.595,5.563l-0.006,0.488
				l-0.479,0.084c-1.006,0.179-1.931,0.428-2.624,0.626l-0.42,0.12l-0.237-0.368c-1.029-1.608-2.146-4.628-3.043-7.054
				c-0.353-0.954-0.743-2.009-0.968-2.517c-5.433,1.395-10.791,3.462-15.936,6.148c-0.039,1.204,2.143,5.651,4.436,8.962l0.38,0.548
				l-0.592,0.308c-1.287,0.67-2.387,1.284-3.362,1.874l-0.513,0.31l-0.301-0.518c-1.908-3.294-4.634-7.229-5.836-8.163
				c-4.839,3.049-9.336,6.684-13.32,10.748c0.585,1.161,3.267,4.137,4.923,5.975c0.572,0.634,1.094,1.212,1.502,1.681l0.37,0.424
				l-0.408,0.389c-0.671,0.641-1.298,1.294-1.859,1.942l-0.343,0.396l-0.433-0.296c-3.368-2.302-7.136-4.748-8.343-5.353
				c-3.854,4.791-7.079,9.803-9.841,15.299c1.019,0.827,4.612,3.131,7.921,5.139l0.477,0.289l-0.264,0.491
				c-0.403,0.751-0.777,1.538-1.212,2.551l-0.214,0.499l-0.514-0.172c-4.849-1.63-7.865-2.458-8.987-2.469
				c-2.061,5.358-3.493,10.93-4.257,16.572c1.317,0.734,5.523,1.583,8.33,1.792l0.654,0.049l-0.119,0.645
				c-0.198,1.071-0.322,2.128-0.453,3.248l-0.123,1.054l-0.64-0.148c-2.693-0.625-7.195-0.607-8.269-0.01
				c-0.313,5.779,0.023,11.526,0.999,17.095c0.94,0.034,3.354-0.134,5.031-0.251c0.95-0.065,1.882-0.13,2.666-0.174l0.54-0.03
				l0.074,0.536c0.179,1.287,0.381,2.441,0.618,3.531l0.122,0.561l-0.559,0.136c-2.638,0.639-6.063,1.723-7.022,2.29
				c1.571,5.93,3.829,11.606,6.717,16.885c0.463-0.235,1.168-0.608,1.9-0.997c1.413-0.75,3.015-1.599,4.025-2.071l0.502-0.234
				l0.264,0.488c0.415,0.77,0.809,1.526,1.188,2.303l0.223,0.458l-0.421,0.286c-0.384,0.261-0.863,0.578-1.38,0.919
				c-1.19,0.786-3.266,2.158-3.999,2.813c3.134,5.038,6.945,9.758,11.336,14.039c0.883-0.577,2.866-2.448,4.337-4.122l0.39-0.444
				l0.442,0.393c0.557,0.494,1.102,1.004,1.652,1.521c0.333,0.313,0.667,0.627,1.008,0.938l0.431,0.396l-0.394,0.433
				c-1.527,1.677-3.205,3.705-3.789,4.556c4.44,3.866,9.828,7.425,15.266,10.081c0.491-0.741,1.491-2.705,2.632-5.342l0.246-0.568
				l0.555,0.275c1.479,0.732,2.997,1.334,4.466,1.916l0.561,0.223l-0.236,0.554c-0.909,2.135-1.761,4.719-1.918,5.755
				c5.611,2.197,11.47,3.707,17.427,4.489c0.382-1.112,0.881-4.27,1.046-6.424l0.045-0.591l0.591,0.05
				c1.381,0.118,2.853,0.234,4.339,0.239l0.569,0.002l0.017,0.568c0.092,2.98,0.326,5.78,0.553,6.753
				c5.899,0.25,11.799-0.184,17.553-1.293c0.165-1.575-0.556-5.534-1.177-7.379l-0.172-0.613l0.62-0.153
				c1.229-0.304,2.498-0.618,3.683-1.058l0.527-0.196l0.219,0.518c0.869,2.046,3.15,5.88,4.342,6.857
				c4.966-1.521,9.729-3.525,14.167-5.956c0.313-2.359-1.828-7.4-2.573-8.255l-0.465-0.532l0.608-0.36
				c0.313-0.185,0.625-0.397,0.939-0.61c0.291-0.197,0.582-0.395,0.877-0.576l0.478-0.293l0.316,0.462
				c0.934,1.367,5.162,5.117,7.257,5.538c3.812-2.707,7.338-5.765,10.515-9.007C297.857,133.028,294.073,127.949,293.041,126.943z"
				/>
			<path fill="#9EC6EF" d="M236.875,53.449c-5.298,1.395-10.221,4.22-14.233,8.165l-0.336,0.33l-14.878-9.571l0.453-0.513
				c7.38-8.365,17.399-14.018,28.234-15.938l0.669-0.118l0.543,17.526L236.875,53.449z M209.219,52.127l12.935,8.322
				c3.981-3.808,8.793-6.569,13.969-8.014l-0.472-15.23C225.554,39.146,216.22,44.412,209.219,52.127z"/>
			<path fill="#9EC6EF" d="M196.065,95.026l-0.134-0.705c-2.056-10.826-0.326-22.259,4.872-32.192l0.298-0.57l14.731,9.477
				l-0.225,0.469c-2.458,5.107-3.528,10.778-3.097,16.401l0.033,0.428L196.065,95.026z M201.55,63.246
				c-4.736,9.348-6.357,20-4.592,30.148l14.35-5.829c-0.351-5.516,0.688-11.062,3.017-16.101L201.55,63.246z"/>
			<path fill="#9EC6EF" d="M238.963,131.644c-16.427-0.56-31.422-10.288-39.135-25.389l-0.292-0.57l15.987-6.52l0.243,0.488
				c4.271,8.553,13.213,14.544,22.781,15.263l0.527,0.04l0.515,16.709L238.963,131.644z M214.964,100.663l-13.793,5.625
				c7.5,14.205,21.658,23.396,37.205,24.154l-0.443-14.398C228.341,115.135,219.425,109.165,214.964,100.663z"/>
			<path fill="#9EC6EF" d="M264.783,125.1c0,0-0.356,0.156-0.358,0.155c-3.68,2.139-7.938,3.828-13.003,5.159l-0.717,0.189
				l-0.481-17.023l0.418-0.137c5.722-1.875,10.805-5.315,14.708-9.942l0.332-0.395l13.84,8.902l-0.378,0.505
				c-1.071,1.429-2.265,2.819-3.566,4.158C272.517,119.817,268.856,122.682,264.783,125.1z M265.912,104.652
				c-3.905,4.491-8.89,7.853-14.487,9.769l0.414,14.665c4.786-1.312,8.816-2.959,12.3-5.026l0.347-0.152
				c5.341-3.217,9.933-7.21,13.332-11.596L265.912,104.652z"/>
			<path fill="#9EC6EF" d="M242.313,99.611c-5.204,0.215-9.78-2.178-12.578-6.569l-0.052-0.037l-0.073-0.169
				c-0.866-1.377-1.492-2.89-1.884-4.513l-0.051-0.229c-1.041-4.677,0.097-9.518,3.357-14.077c6.98-6.916,16.706-6.288,22.314-2.184
				c4.513,3.302,7.735,9.952,3.246,18.713c-0.739,1.43-1.691,2.734-2.805,3.88C250.8,97.498,246.65,99.433,242.313,99.611z
				 M228.794,87.625l0.049,0.232c0.335,1.561,0.927,3.026,1.761,4.354l0.061,0.102c2.561,4.09,6.789,6.322,11.599,6.123
				c5.54-0.227,10.753-3.533,13.281-8.427c3.525-6.879,2.443-13.319-2.895-17.226c-5.205-3.809-14.241-4.385-20.756,2.036
				C228.973,78.937,227.896,83.354,228.794,87.625z"/>
			<path fill="#9EC6EF" d="M271.225,93.416l0.161-0.441c1.958-5.378,2.471-11.134,1.482-16.646l-0.084-0.469l15.551-6.304
				l0.161,0.661c1.613,6.618,1.813,13.34,0.598,19.976c-0.723,4.002-1.924,7.91-3.569,11.616l-0.279,0.626L271.225,93.416z
				 M274.106,76.592c0.889,5.42,0.387,11.049-1.458,16.341l12.076,7.768c1.467-3.432,2.546-7.034,3.213-10.719
				c1.145-6.252,1-12.581-0.427-18.823L274.106,76.592z"/>
			<path fill="#9EC6EF" d="M268.741,65.486l-0.264-0.409c-4.288-6.629-11.586-11.254-19.522-12.375l-0.491-0.069l-0.524-17.276
				l0.659,0.059c14.778,1.304,28.34,10.174,35.394,23.148l0.314,0.577L268.741,65.486z M249.609,51.612
				c7.915,1.259,15.174,5.862,19.586,12.419l13.446-5.48c-6.845-12.127-19.572-20.451-33.486-21.9L249.609,51.612z"/>
		</g>
		<path fill="#9EC6EF" d="M211.168,203.846l-0.211,0.157l-0.256-0.052c-1.053-0.212-2.934-1.916-4.843-3.78
			c0.754,1.428,2.198,4.664,1.768,6.291l-0.056,0.21l-0.179,0.123c-2.568,1.778-5.343,3.325-8.244,4.597l-0.199,0.087l-0.208-0.063
			c-1.475-0.448-3.555-3.144-4.388-4.505c-0.083,0.035-0.167,0.069-0.25,0.102c0.458,1.448,0.956,4.531,0.306,5.962l-0.108,0.237
			l-0.25,0.079c-3.268,1.036-6.732,1.735-10.297,2.077l-0.257,0.025l-0.193-0.173c-0.842-0.758-1.774-3.536-2.158-5.006
			c-0.481,0.056-0.965,0.083-1.446,0.104c0.09,1.469,0.034,4.047-0.436,4.968l-0.165,0.323l-0.363-0.001
			c-4.051-0.02-8.099-0.537-12.033-1.537l-0.326-0.083l-0.094-0.323c-0.19-0.66,0.182-3.197,0.38-4.425
			c-0.537-0.125-1.089-0.269-1.686-0.443c-0.386,1.236-1.156,3.419-1.685,3.963l-0.258,0.265l-0.351-0.118
			c-3.95-1.326-7.712-3.147-11.18-5.415l-0.304-0.199l0.042-0.36c0.08-0.697,1.122-2.451,1.842-3.555
			c-0.531-0.345-1.1-0.727-1.665-1.142c-0.753,1.056-1.969,2.689-2.487,2.988l-0.336,0.193l-0.311-0.233
			c-3.333-2.509-6.529-5.69-9.001-8.959l-0.243-0.322l0.212-0.342c0.306-0.499,2.075-1.862,2.934-2.511
			c-0.083-0.117-0.167-0.234-0.249-0.351c-0.143-0.201-0.284-0.402-0.427-0.601c-0.992,0.708-2.738,1.854-3.46,1.956l-0.359,0.05
			l-0.206-0.298c-2.4-3.472-4.333-7.194-5.745-11.062l-0.127-0.346l0.258-0.265c0.339-0.348,1.358-0.794,3.513-1.661l0.402-0.163
			c-0.051-0.181-0.103-0.36-0.155-0.542c-0.69,0.188-1.576,0.451-2.335,0.676c-0.775,0.23-1.424,0.421-1.631,0.466l-0.521,0.112
			l-0.163-0.507c-1.264-3.945-2.024-8.117-2.257-12.399l-0.017-0.303l0.238-0.188c0.649-0.518,3.628-0.736,4.896-0.808
			c0.002-0.404,0.014-0.827,0.035-1.276c-0.387-0.053-0.809-0.109-1.234-0.165c-2.286-0.302-3.324-0.455-3.683-0.648l-0.316-0.17
			l0.007-0.358c0.069-3.885,0.62-7.801,1.637-11.64l0.057-0.212l0.182-0.123c0.982-0.667,4.048,0.082,5.691,0.691
			c0.123-0.375,0.249-0.747,0.381-1.115c-1.69-0.544-4.394-1.634-5.074-2.482l-0.202-0.252l0.104-0.306
			c1.259-3.682,2.981-7.238,5.121-10.571l0.261-0.286l0.244-0.003c0.521-0.007,1.603,0.304,5.595,2.602
			c0.159-0.22,0.319-0.436,0.483-0.646c-1.444-1.345-4.001-3.773-4.294-4.371l-0.161-0.33l0.225-0.289
			c2.603-3.352,5.461-6.291,8.738-8.987l0.282-0.232l0.334,0.15c0.614,0.278,3.271,2.946,4.713,4.423
			c0.198-0.145,0.4-0.284,0.604-0.418c-0.146-0.251-0.311-0.528-0.482-0.82c-1.445-2.446-2.469-4.238-2.488-5.01l-0.006-0.248
			l0.27-0.261c3.278-2.243,6.792-4.071,10.443-5.434l0.302-0.113l0.258,0.195c0.97,0.731,2.407,4.519,2.929,5.962
			c0.407-0.138,0.825-0.269,1.249-0.395c-0.596-1.544-2.021-5.527-1.299-6.649l0.118-0.183l0.209-0.063
			c3.036-0.902,6.178-1.507,9.337-1.799l0.107,1.171c-2.979,0.275-5.942,0.836-8.811,1.667c-0.076,0.876,0.724,3.808,1.666,6.012
			l0.265,0.618l-0.649,0.179c-0.812,0.225-1.604,0.473-2.354,0.741l-0.564,0.201l-0.19-0.568c-0.803-2.386-1.934-4.934-2.525-5.739
			c-3.344,1.28-6.564,2.959-9.514,4.942c0.3,0.855,1.55,2.972,2.259,4.174c0.296,0.5,0.566,0.958,0.772,1.324l0.282,0.497
			l-0.49,0.296c-0.475,0.286-0.958,0.619-1.396,0.963l-0.417,0.326l-0.368-0.379c-1.724-1.774-3.68-3.698-4.445-4.339
			c-2.95,2.466-5.553,5.143-7.937,8.162c0.644,0.735,2.51,2.542,4.226,4.129l0.408,0.377l-0.353,0.428
			c-0.377,0.46-0.73,0.932-1.08,1.444l-0.309,0.451l-0.474-0.274c-3.352-1.949-4.67-2.507-5.181-2.659
			c-1.93,3.056-3.501,6.3-4.678,9.652c0.815,0.606,3.223,1.608,4.868,2.072l0.63,0.177l-0.244,0.607
			c-0.271,0.672-0.493,1.36-0.719,2.056l-0.265,0.813l-0.601-0.278c-1.559-0.721-4.188-1.228-4.983-1.086
			c-0.907,3.508-1.416,7.08-1.514,10.627c0.649,0.132,2.002,0.31,2.96,0.438c0.636,0.083,1.261,0.166,1.781,0.243l0.533,0.079
			l-0.031,0.537c-0.05,0.848-0.069,1.6-0.06,2.298l0.008,0.574l-0.574,0.022c-1.812,0.07-3.8,0.295-4.532,0.491
			c0.24,3.848,0.917,7.599,2.012,11.165c0.278-0.08,0.637-0.187,1.028-0.303c1-0.297,2.213-0.657,2.936-0.834l0.548-0.133
			l0.26,0.895c0.123,0.424,0.244,0.84,0.354,1.269l0.125,0.494l-1.361,0.557c-0.809,0.325-2.19,0.881-2.817,1.209
			c1.313,3.484,3.059,6.845,5.199,10c0.65-0.303,1.997-1.137,3.074-1.962l0.471-0.361l0.356,0.473
			c0.272,0.36,0.532,0.729,0.793,1.099c0.189,0.269,0.379,0.539,0.577,0.808l0.346,0.473l-0.473,0.348
			c-1.203,0.885-2.32,1.792-2.827,2.258c2.265,2.92,5.108,5.749,8.084,8.043c0.434-0.477,1.257-1.535,2.2-2.886l0.354-0.507
			l0.489,0.379c0.866,0.672,1.782,1.271,2.575,1.776l0.513,0.329l-0.346,0.501c-0.828,1.198-1.598,2.554-1.874,3.205
			c3.156,2.021,6.555,3.667,10.115,4.9c0.359-0.693,1-2.36,1.383-3.738l0.162-0.581l0.576,0.176c1.004,0.306,1.863,0.53,2.703,0.707
			l0.555,0.116l-0.096,0.559c-0.294,1.714-0.502,3.423-0.517,4.148c3.579,0.877,7.251,1.346,10.928,1.396
			c0.244-0.999,0.309-3.377,0.15-4.599l-0.074-0.641l0.646-0.023c0.815-0.029,1.66-0.06,2.452-0.187l0.554-0.089l0.115,0.549
			c0.308,1.476,1.21,3.943,1.77,4.729c3.278-0.334,6.465-0.977,9.482-1.912c0.406-1.423-0.261-4.725-0.59-5.288l-0.366-0.625
			l0.687-0.229c0.251-0.083,0.501-0.188,0.752-0.291c0.18-0.073,0.36-0.148,0.54-0.216l0.525-0.198l0.223,0.516
			c0.444,1.035,2.546,3.726,3.705,4.292c2.678-1.189,5.241-2.619,7.627-4.252c0.162-1.492-1.513-5.044-2-5.763l-0.313-0.462
			l0.446-0.337c0.12-0.091,0.233-0.182,0.343-0.27c0.147-0.118,0.289-0.232,0.434-0.337l0.4-0.291l0.62,0.604
			c2.09,2.051,3.508,3.259,4.226,3.6c1.107-1.043,5.588-5.517,6.776-6.948c-0.441-0.809-2.112-2.479-3.054-3.421
			c-0.542-0.542-0.998-1-1.225-1.271l-0.313-0.389l0.321-0.379c0.096-0.113,0.421-0.677,0.596-0.979
			c0.161-0.279,0.302-0.519,0.362-0.604l0.285-0.402l0.446,0.21c0.629,0.296,4.437,2.067,5.829,2.715l4.207-8.07
			c-1.209-0.777-4.516-2.884-5.585-3.375l-0.458-0.209l0.136-0.484c0.086-0.308,0.183-0.6,0.278-0.887
			c0.063-0.189,0.125-0.376,0.183-0.565l0.202-0.661l0.62,0.305c0.654,0.322,3.982,0.622,6.242,0.76
			c0.338-1.555,1.379-6.471,1.631-9.355c-0.672-0.404-2.747-1.05-6.181-1.925l-0.602-0.153l0.015-0.472
			c0.029-0.896,0.03-1.627,0.005-2.299l-0.023-0.616l1.315,0.012c1.278,0.015,4.439,0.051,5.569-0.184
			c-0.136-3.504-0.669-7.023-1.59-10.465l1.137-0.304c0.981,3.673,1.535,7.431,1.643,11.169l0.011,0.36l-0.317,0.173
			c-0.753,0.41-2.941,0.467-6.467,0.428l-0.086-0.002c0.006,0.399,0.004,0.825-0.007,1.293c3.617,0.928,5.98,1.644,6.616,2.311
			l0.179,0.188l-0.019,0.259c-0.242,3.444-1.726,10.048-1.789,10.328l-0.109,0.485l-0.496-0.027
			c-0.871-0.047-4.793-0.279-6.564-0.672c-0.041,0.122-0.083,0.247-0.123,0.373c1.74,0.931,5.547,3.398,5.723,3.515l0.449,0.291
			l-5.221,10.017l-0.509-0.238c0,0-4.289-1.995-5.862-2.729c-0.019,0.031-0.037,0.063-0.056,0.096
			c-0.167,0.289-0.309,0.533-0.428,0.726c0.228,0.24,0.528,0.539,0.861,0.873c1.829,1.83,3.245,3.301,3.465,4.214l0.063,0.263
			l-0.157,0.218c-0.356,0.495-1.553,1.77-2.885,3.141C213.726,201.39,211.428,203.652,211.168,203.846z M197.876,189.309
			c-2.908,2.592-6.637,4.727-10.787,6.176c0,0-0.367,0.096-0.369,0.094c-2.595,0.865-5.491,1.38-8.838,1.572l-0.74,0.042
			l1.95-11.263l0.437-0.052c3.83-0.45,7.458-1.962,10.494-4.371l0.405-0.321l7.92,7.702L197.876,189.309z M180.103,186.991
			l-1.547,8.937c3.071-0.226,5.734-0.744,8.123-1.577l0.347-0.09c3.651-1.314,6.948-3.177,9.592-5.415l-6.272-6.099
			C187.341,185.019,183.819,186.479,180.103,186.991z M194.907,176.065l0.245-0.401c1.912-3.126,2.965-6.673,3.045-10.257
			l0.011-0.478l11.068-2.075l0.026,0.681c0.173,4.432-0.565,8.746-2.199,12.824c-0.978,2.459-2.249,4.796-3.777,6.948l-0.397,0.559
			L194.907,176.065z M199.357,165.911c-0.157,3.474-1.175,6.899-2.96,9.962l6.364,6.188c1.3-1.918,2.392-3.979,3.251-6.139
			c1.487-3.715,2.205-7.634,2.135-11.66L199.357,165.911z M169.767,196.325c-10.414-2.479-18.728-10.627-21.7-21.261l-0.172-0.617
			l11.38-2.157l0.142,0.525c1.592,5.9,6.434,10.789,12.337,12.453l0.509,0.143l-1.886,11.06L169.767,196.325z M158.433,173.646
			l-9.054,1.718c2.938,9.715,10.538,17.169,20.051,19.666l1.498-8.78C165.041,184.397,160.217,179.533,158.433,173.646z
			 M197.05,158.246l-0.178-0.454c-1.846-4.696-5.832-8.52-10.663-10.229l-0.467-0.165l1.953-11.421l0.635,0.188
			c9.265,2.743,16.777,10.158,19.604,19.353l0.193,0.628L197.05,158.246z M187.067,146.626c4.783,1.838,8.736,5.632,10.713,10.285
			l8.829-1.674c-2.786-8.324-9.59-15.039-17.979-17.748L187.067,146.626z M176.017,176.455c-3.38-0.541-6.021-2.669-7.307-5.884
			l-0.037-0.173c-0.371-0.98-0.577-2.012-0.615-3.069l-0.017-0.254c-0.061-3.16,1.325-6.154,3.948-8.606l0.079-0.063
			c5.409-3.552,11.606-1.873,14.691,1.512c2.495,2.735,3.717,7.469-0.335,12.549c-0.207,0.258-0.427,0.506-0.657,0.743
			C183.288,175.76,179.566,177.021,176.017,176.455z M169.215,166.813l0.014,0.255c0.011,1.005,0.193,1.986,0.543,2.915l0.026,0.072
			c1.087,2.891,3.362,4.751,6.404,5.238c3.468,0.555,7.122-0.848,9.305-3.562c3.048-3.821,3.191-7.941,0.384-11.021
			c-2.75-3.015-8.281-4.507-13.135-1.349C170.446,161.538,169.232,164.1,169.215,166.813z M178.537,146.499
			c-3.501,0.202-6.949,1.349-9.968,3.316l-0.394,0.256l-8.496-8.261l0.546-0.413c5.781-4.38,12.909-6.696,20.073-6.522l0.68,0.017
			l-1.973,11.58L178.537,146.499z M161.486,141.927l6.838,6.649c2.959-1.839,6.285-2.946,9.678-3.22l1.587-9.314
			C173.146,136.033,166.769,138.106,161.486,141.927z M147.111,167.661l0.009-0.719c0.087-7.172,2.667-14.243,7.265-19.909
			l0.406-0.5l8.416,8.184l-0.313,0.414c-2.191,2.893-3.583,6.316-4.027,9.899l-0.052,0.426L147.111,167.661z M154.898,148.278
			c-4.032,5.18-6.351,11.508-6.585,17.959l9.444-1.777c0.499-3.462,1.837-6.77,3.89-9.619L154.898,148.278z"/>
	</g>
	<path fill="#9EC6EF" d="M29.455,470.497c-0.612-0.457-1.163-1.005-1.633-1.633l-2.014-2.679c-2.661-3.546-1.941-8.596,1.604-11.258
		l0.817-0.614c-1.842-4.2-2.979-8.63-3.38-13.184l-1.011-0.145c-2.127-0.303-4.007-1.414-5.296-3.131
		c-1.29-1.717-1.833-3.833-1.53-5.959l0.473-3.319c0.304-2.125,1.417-4.006,3.135-5.295s3.835-1.833,5.961-1.529l1.011,0.144
		c1.657-4.259,3.987-8.194,6.932-11.713l-0.613-0.818c-1.291-1.716-1.835-3.832-1.531-5.958c0.303-2.126,1.417-4.007,3.136-5.293
		l2.685-2.014c1.716-1.291,3.832-1.834,5.958-1.531c2.125,0.302,4.007,1.417,5.294,3.136l0.613,0.817
		c4.204-1.844,8.633-2.981,13.185-3.381l0.144-1.012c0.304-2.125,1.417-4.006,3.135-5.295s3.834-1.832,5.961-1.529l3.32,0.474
		c2.127,0.303,4.005,1.417,5.294,3.134c1.286,1.717,1.829,3.834,1.525,5.96l-0.145,1.011c4.259,1.658,8.198,3.993,11.713,6.933
		l0.818-0.613c3.546-2.662,8.597-1.94,11.257,1.606l2.01,2.683c1.291,1.716,1.834,3.833,1.53,5.959
		c-0.303,2.126-1.417,4.006-3.136,5.292l-0.816,0.614c1.847,4.2,2.985,8.631,3.386,13.186l1.011,0.145
		c2.125,0.303,4.004,1.415,5.294,3.134c1.287,1.718,1.829,3.834,1.525,5.96l-0.473,3.319c-0.626,4.387-4.704,7.447-9.089,6.821
		l-1.012-0.144c-1.658,4.261-3.987,8.198-6.933,11.718l0.61,0.813c2.66,3.544,1.94,8.595-1.606,11.256l-2.679,2.01
		c-3.547,2.66-8.597,1.942-11.258-1.606l-0.608-0.812c-4.199,1.845-8.631,2.979-13.19,3.382l-0.144,1.011
		c-0.303,2.124-1.416,4.003-3.131,5.292c-1.718,1.289-3.834,1.83-5.959,1.527l-3.319-0.473c-4.391-0.628-7.451-4.707-6.826-9.09
		l0.145-1.012c-4.263-1.658-8.201-3.995-11.714-6.937l-0.817,0.612c-1.715,1.291-3.833,1.834-5.959,1.53
		C31.767,471.808,30.517,471.289,29.455,470.497z M26.134,439.923l0.042,0.552c0.358,4.77,1.546,9.404,3.533,13.775l0.228,0.503
		l-1.699,1.275c-2.938,2.206-3.536,6.391-1.33,9.331l2.015,2.678c1.068,1.429,2.625,2.349,4.387,2.6
		c1.762,0.252,3.516-0.199,4.938-1.268l1.699-1.275l0.419,0.36c3.633,3.131,7.757,5.57,12.238,7.248l0.519,0.194l-0.3,2.103
		c-0.519,3.633,2.018,7.015,5.657,7.533l3.319,0.473c1.761,0.251,3.515-0.198,4.938-1.267c1.423-1.067,2.345-2.625,2.595-4.386
		l0.302-2.102l0.551-0.042c4.774-0.357,9.412-1.546,13.782-3.531l0.503-0.229l1.27,1.694c2.205,2.936,6.392,3.535,9.33,1.33
		l2.68-2.01c2.938-2.206,3.536-6.391,1.33-9.331l-1.27-1.692l0.36-0.419c3.13-3.645,5.567-7.765,7.244-12.244l0.194-0.519l2.104,0.3
		c3.634,0.518,7.013-2.018,7.532-5.653l0.474-3.319c0.251-1.763-0.197-3.517-1.266-4.94c-1.064-1.421-2.625-2.344-4.386-2.597
		l-2.102-0.3l-0.042-0.551c-0.357-4.771-1.548-9.406-3.539-13.777l-0.229-0.503l1.699-1.275c1.424-1.067,2.347-2.624,2.599-4.386
		c0.252-1.762-0.198-3.516-1.269-4.938l-2.01-2.685c-2.201-2.931-6.39-3.537-9.33-1.331l-1.699,1.274l-0.419-0.359
		c-3.644-3.132-7.761-5.567-12.239-7.244l-0.52-0.194l0.301-2.103c0.251-1.762-0.198-3.517-1.265-4.939
		c-1.066-1.423-2.624-2.345-4.386-2.597l-3.32-0.475c-1.762-0.25-3.517,0.198-4.941,1.268c-1.424,1.068-2.345,2.628-2.597,4.39
		l-0.301,2.102l-0.551,0.042c-4.767,0.357-9.401,1.546-13.776,3.532l-0.503,0.229l-1.275-1.699
		c-1.065-1.423-2.624-2.346-4.387-2.599c-1.761-0.251-3.514,0.199-4.937,1.269l-2.685,2.015c-1.424,1.067-2.348,2.625-2.599,4.386
		c-0.252,1.762,0.199,3.515,1.268,4.937l1.276,1.7l-0.36,0.42c-3.131,3.643-5.568,7.76-7.243,12.239l-0.194,0.519l-2.104-0.301
		c-1.761-0.251-3.517,0.199-4.94,1.267c-1.425,1.069-2.347,2.628-2.598,4.39l-0.473,3.319c-0.251,1.761,0.199,3.516,1.268,4.938
		c1.064,1.419,2.625,2.344,4.389,2.596L26.134,439.923z M48.405,462.306c-4.934-3.68-8.633-8.68-10.711-14.486
		c-0.638-1.776-1.118-3.645-1.426-5.55c-0.491-3.076-0.516-6.216-0.071-9.332c0.444-3.119,1.346-6.127,2.678-8.944
		c0.818-1.721,1.802-3.378,2.925-4.925c3.705-5.122,8.811-8.954,14.766-11.079c1.798-0.646,3.665-1.128,5.546-1.431
		c3.077-0.492,6.217-0.517,9.336-0.072c3.116,0.445,6.123,1.345,8.939,2.677c1.746,0.83,3.404,1.813,4.931,2.922
		c5.09,3.701,8.947,8.815,11.074,14.771c0.641,1.772,1.123,3.638,1.43,5.544c0.492,3.077,0.517,6.219,0.072,9.338
		c-0.445,3.116-1.346,6.124-2.679,8.938c-0.829,1.747-1.811,3.406-2.92,4.932c-3.708,5.118-8.814,8.949-14.767,11.078
		c-1.778,0.64-3.646,1.118-5.55,1.425c-3.076,0.493-6.216,0.518-9.331,0.073c-3.12-0.444-6.129-1.347-8.945-2.679
		c-1.744-0.828-3.402-1.813-4.927-2.927C48.652,462.489,48.527,462.397,48.405,462.306z M37.628,442.051
		c0.293,1.822,0.751,3.606,1.361,5.304c2.036,5.69,5.65,10.549,10.597,14.111c1.458,1.065,3.041,2.005,4.707,2.795
		c2.691,1.273,5.567,2.135,8.55,2.561c2.978,0.425,5.979,0.4,8.919-0.069c1.82-0.293,3.604-0.752,5.303-1.362
		c5.69-2.035,10.572-5.698,14.116-10.591c1.061-1.458,1.998-3.043,2.791-4.713c1.274-2.688,2.135-5.563,2.56-8.544
		c0.426-2.981,0.403-5.984-0.068-8.924c-0.292-1.819-0.752-3.602-1.367-5.297c-2.032-5.694-5.691-10.563-10.587-14.122
		c-1.458-1.06-3.043-1.999-4.712-2.792c-2.689-1.272-5.564-2.133-8.543-2.559c-2.981-0.425-5.984-0.402-8.924,0.068
		c-1.795,0.29-3.579,0.75-5.299,1.368c-5.693,2.032-10.574,5.694-14.115,10.591c-1.075,1.48-2.016,3.063-2.796,4.707
		c-1.272,2.691-2.135,5.567-2.56,8.55C37.134,436.11,37.157,439.111,37.628,442.051L37.628,442.051z"/>
	<path fill="#9EC6EF" d="M121.179,482.63c-0.379-0.282-0.72-0.622-1.012-1.012l-1.199-1.595c-1.648-2.196-1.202-5.323,0.994-6.971
		l0.368-0.275c-1.052-2.438-1.709-4.996-1.956-7.625l-0.453-0.064c-1.315-0.188-2.48-0.874-3.279-1.939
		c-0.799-1.063-1.136-2.374-0.948-3.69l0.282-1.978c0.188-1.316,0.877-2.481,1.941-3.279c1.063-0.798,2.375-1.134,3.691-0.946
		l0.453,0.064c0.974-2.456,2.319-4.731,4.01-6.774l-0.275-0.367c-0.799-1.062-1.136-2.373-0.948-3.688
		c0.187-1.318,0.877-2.482,1.942-3.28l1.599-1.199c1.063-0.799,2.374-1.136,3.69-0.947c1.316,0.187,2.48,0.878,3.277,1.941
		l0.275,0.366c2.433-1.051,4.994-1.707,7.624-1.955l0.065-0.454c0.188-1.316,0.877-2.481,1.941-3.279
		c1.064-0.799,2.374-1.135,3.691-0.947l1.978,0.282c2.714,0.386,4.611,2.914,4.224,5.633l-0.065,0.452
		c2.455,0.974,4.726,2.317,6.774,4.009l0.366-0.275c1.064-0.799,2.375-1.135,3.692-0.947c1.316,0.187,2.48,0.878,3.279,1.941
		l1.197,1.599c0.799,1.062,1.135,2.373,0.947,3.689c-0.188,1.317-0.877,2.481-1.942,3.279l-0.367,0.274
		c1.054,2.435,1.711,4.996,1.958,7.625l0.453,0.065c1.316,0.187,2.48,0.878,3.278,1.941c0.798,1.064,1.133,2.375,0.945,3.691
		l-0.282,1.977c-0.188,1.316-0.876,2.48-1.939,3.278c-1.063,0.798-2.374,1.133-3.69,0.945l-0.453-0.064
		c-0.974,2.458-2.32,4.734-4.01,6.776l0.273,0.364c1.647,2.195,1.201,5.322-0.994,6.971l-1.596,1.197
		c-1.064,0.799-2.375,1.135-3.691,0.947c-1.315-0.187-2.479-0.876-3.279-1.941l-0.273-0.364c-2.433,1.052-4.995,1.707-7.627,1.956
		l-0.065,0.453c-0.188,1.314-0.876,2.479-1.939,3.276c-1.063,0.799-2.374,1.135-3.69,0.947l-1.978-0.283
		c-2.719-0.385-4.613-2.912-4.226-5.629l0.064-0.453c-2.459-0.974-4.734-2.315-6.774-4.012l-0.366,0.275
		c-1.063,0.799-2.373,1.136-3.689,0.948C122.612,483.442,121.837,483.121,121.179,482.63z M119.493,464.1l0.036,0.481
		c0.211,2.816,0.913,5.554,2.088,8.142l0.199,0.438l-1.135,0.852c-1.667,1.251-2.004,3.625-0.753,5.291l1.199,1.595
		c0.605,0.809,1.489,1.332,2.489,1.476c0.999,0.143,1.993-0.113,2.8-0.719l1.134-0.853l0.366,0.315
		c2.149,1.851,4.583,3.291,7.231,4.282l0.453,0.17l-0.2,1.403c-0.294,2.062,1.146,3.979,3.208,4.271l1.978,0.283
		c0.999,0.143,1.993-0.113,2.8-0.719c0.807-0.605,1.33-1.488,1.472-2.487l0.2-1.404l0.481-0.035
		c2.821-0.212,5.561-0.914,8.145-2.087l0.438-0.199l0.849,1.131c0.608,0.809,1.489,1.332,2.489,1.473
		c0.999,0.144,1.994-0.112,2.802-0.719l1.596-1.197c1.667-1.251,2.005-3.625,0.754-5.291l-0.849-1.131l0.314-0.365
		c1.849-2.152,3.29-4.586,4.281-7.236l0.169-0.452l1.404,0.201c0.999,0.143,1.993-0.112,2.799-0.718s1.33-1.488,1.472-2.487
		l0.281-1.979c0.143-0.999-0.111-1.993-0.716-2.801c-0.606-0.806-1.489-1.33-2.488-1.474l-1.403-0.2l-0.036-0.481
		c-0.211-2.818-0.914-5.557-2.091-8.142l-0.2-0.439l1.136-0.85c0.808-0.605,1.331-1.489,1.473-2.489
		c0.143-0.999-0.113-1.993-0.719-2.799l-1.198-1.601c-0.607-0.807-1.49-1.33-2.489-1.473c-0.999-0.143-1.993,0.113-2.802,0.719
		l-1.134,0.852l-0.365-0.314c-2.154-1.851-4.587-3.291-7.232-4.281l-0.452-0.169l0.199-1.404c0.296-2.062-1.145-3.981-3.204-4.275
		l-1.978-0.282c-2.063-0.294-3.981,1.146-4.274,3.209l-0.2,1.403l-0.481,0.036c-2.82,0.211-5.56,0.914-8.142,2.087l-0.439,0.2
		l-0.851-1.135c-0.604-0.806-1.488-1.332-2.487-1.473c-0.999-0.143-1.993,0.113-2.8,0.719l-1.6,1.2
		c-0.808,0.605-1.331,1.489-1.473,2.489c-0.143,0.999,0.113,1.992,0.719,2.798l0.851,1.135l-0.314,0.366
		c-1.849,2.152-3.29,4.586-4.28,7.232l-0.17,0.452l-1.404-0.2c-0.999-0.143-1.994,0.112-2.802,0.719
		c-0.807,0.606-1.33,1.49-1.472,2.49l-0.282,1.977c-0.144,0.998,0.111,1.993,0.717,2.8c0.607,0.807,1.491,1.33,2.491,1.472
		L119.493,464.1z M132.466,477.75c-2.968-2.213-5.194-5.221-6.445-8.716c-0.384-1.068-0.672-2.192-0.857-3.339
		c-0.297-1.854-0.312-3.743-0.044-5.617c0.269-1.877,0.811-3.688,1.612-5.381c0.493-1.038,1.085-2.034,1.76-2.963
		c2.23-3.083,5.303-5.388,8.886-6.666c1.081-0.388,2.204-0.679,3.336-0.862c1.851-0.296,3.741-0.311,5.619-0.042
		c1.875,0.268,3.685,0.811,5.379,1.612c1.047,0.497,2.046,1.088,2.966,1.757c3.129,2.265,5.385,5.306,6.663,8.889
		c0.386,1.062,0.676,2.185,0.861,3.336c0.296,1.853,0.311,3.742,0.043,5.618c-0.268,1.874-0.809,3.684-1.611,5.379
		c-0.496,1.048-1.087,2.046-1.757,2.968c-2.231,3.08-5.304,5.385-8.885,6.666c-1.072,0.385-2.195,0.674-3.339,0.858
		c-1.854,0.296-3.744,0.31-5.616,0.043c-1.875-0.267-3.685-0.81-5.382-1.611c-1.049-0.499-2.046-1.091-2.965-1.762
		C132.614,477.861,132.54,477.806,132.466,477.75z M126.347,465.503c0.173,1.075,0.444,2.126,0.803,3.125
		c1.201,3.353,3.334,6.186,6.245,8.316c0.859,0.627,1.792,1.182,2.772,1.646c1.587,0.751,3.282,1.258,5.038,1.509
		c1.753,0.25,3.522,0.236,5.256-0.04c1.07-0.173,2.122-0.443,3.125-0.804c3.352-1.199,6.229-3.356,8.317-6.24
		c0.627-0.864,1.18-1.798,1.645-2.777c0.75-1.586,1.258-3.28,1.508-5.035c0.25-1.756,0.237-3.526-0.04-5.258
		c-0.173-1.075-0.445-2.125-0.806-3.12c-1.197-3.357-3.348-6.254-6.238-8.323c-0.862-0.626-1.795-1.179-2.776-1.645
		c-1.585-0.749-3.28-1.257-5.035-1.508c-1.758-0.25-3.527-0.237-5.259,0.04c-1.059,0.171-2.109,0.442-3.122,0.806
		c-3.354,1.197-6.231,3.355-8.319,6.241c-0.633,0.872-1.187,1.804-1.647,2.773c-0.75,1.583-1.257,3.278-1.508,5.038
		C126.057,462.003,126.071,463.771,126.347,465.503L126.347,465.503z"/>
	<path fill="#9EC6EF" d="M78.023,525.65c-0.349-0.261-0.663-0.573-0.931-0.932l-1.087-1.443c-0.735-0.981-1.045-2.188-0.873-3.4
		c0.173-1.211,0.808-2.283,1.788-3.019l0.285-0.214c-0.934-2.178-1.521-4.466-1.748-6.814l-0.352-0.051
		c-1.212-0.173-2.286-0.809-3.019-1.784c-0.736-0.979-1.045-2.187-0.872-3.397l0.255-1.791c0.358-2.502,2.683-4.247,5.186-3.891
		l0.352,0.05c0.875-2.191,2.079-4.225,3.583-6.054l-0.214-0.285c-0.735-0.979-1.045-2.186-0.872-3.397
		c0.172-1.212,0.808-2.284,1.788-3.019l1.447-1.086c0.978-0.735,2.185-1.045,3.397-0.872c1.213,0.173,2.283,0.809,3.018,1.788
		l0.214,0.284c2.178-0.935,4.466-1.521,6.814-1.748l0.05-0.352c0.357-2.503,2.683-4.248,5.186-3.892l1.791,0.256
		c1.212,0.173,2.284,0.806,3.018,1.787c0.734,0.979,1.043,2.186,0.87,3.397l-0.05,0.353c2.192,0.876,4.228,2.082,6.054,3.583
		l0.285-0.214c2.021-1.517,4.899-1.105,6.417,0.916l1.084,1.447c0.735,0.979,1.045,2.186,0.873,3.397
		c-0.173,1.213-0.808,2.284-1.788,3.018l-0.284,0.214c0.935,2.176,1.522,4.464,1.75,6.814l0.352,0.051
		c2.502,0.354,4.245,2.684,3.888,5.186l-0.255,1.79c-0.173,1.212-0.807,2.284-1.786,3.018c-0.978,0.734-2.185,1.044-3.397,0.871
		l-0.352-0.051c-0.876,2.194-2.079,4.228-3.584,6.058l0.211,0.281c0.735,0.98,1.045,2.188,0.873,3.398
		c-0.173,1.212-0.808,2.284-1.788,3.02l-1.445,1.084c-2.022,1.517-4.9,1.11-6.418-0.915l-0.212-0.282
		c-2.177,0.934-4.466,1.521-6.817,1.748l-0.05,0.352c-0.173,1.212-0.807,2.283-1.785,3.018c-0.979,0.734-2.186,1.044-3.397,0.871
		l-1.791-0.256c-2.501-0.355-4.248-2.682-3.891-5.183l0.051-0.353c-2.193-0.875-4.226-2.076-6.055-3.585l-0.285,0.214
		c-0.978,0.735-2.185,1.045-3.397,0.873C79.341,526.397,78.628,526.102,78.023,525.65z M76.61,508.744l0.037,0.495
		c0.19,2.542,0.824,5.015,1.884,7.348l0.206,0.452l-1.076,0.807c-1.477,1.107-1.776,3.21-0.668,4.687l1.087,1.444
		c0.534,0.716,1.318,1.181,2.204,1.307c0.885,0.126,1.766-0.1,2.479-0.637l1.076-0.808l0.376,0.323
		c1.939,1.67,4.137,2.972,6.527,3.866l0.466,0.174l-0.19,1.331c-0.26,1.826,1.014,3.523,2.842,3.785l1.791,0.255
		c0.885,0.126,1.766-0.1,2.48-0.637c0.715-0.536,1.178-1.318,1.304-2.202l0.19-1.331l0.496-0.037c2.545-0.19,5.018-0.825,7.35-1.884
		l0.452-0.206l0.804,1.073c1.111,1.478,3.211,1.777,4.688,0.668l1.445-1.084c0.716-0.537,1.18-1.321,1.306-2.205
		c0.126-0.885-0.101-1.767-0.637-2.482l-0.804-1.072l0.323-0.377c1.669-1.942,2.969-4.139,3.863-6.529l0.174-0.465l1.331,0.189
		c0.885,0.126,1.766-0.1,2.48-0.636c0.715-0.536,1.178-1.319,1.304-2.204l0.255-1.79c0.26-1.827-1.011-3.526-2.839-3.788
		l-1.331-0.189l-0.037-0.495c-0.191-2.544-0.826-5.016-1.886-7.347l-0.207-0.452l1.075-0.808c0.716-0.535,1.179-1.318,1.306-2.202
		c0.127-0.886-0.1-1.767-0.637-2.481l-1.084-1.448c-1.107-1.479-3.211-1.776-4.687-0.669l-1.075,0.807l-0.377-0.322
		c-1.94-1.667-4.139-2.969-6.527-3.864l-0.466-0.174l0.189-1.331c0.126-0.885-0.1-1.767-0.635-2.481
		c-0.537-0.716-1.319-1.178-2.204-1.305l-1.791-0.255c-0.885-0.127-1.766,0.1-2.482,0.636c-0.715,0.537-1.179,1.32-1.305,2.206
		l-0.19,1.33l-0.495,0.037c-2.542,0.189-5.014,0.824-7.347,1.884l-0.452,0.205l-0.807-1.075c-0.536-0.714-1.317-1.18-2.204-1.305
		c-0.885-0.127-1.766,0.1-2.48,0.637l-1.449,1.087c-0.716,0.536-1.179,1.318-1.306,2.204c-0.126,0.885,0.1,1.766,0.637,2.479
		l0.807,1.075l-0.323,0.377c-1.669,1.943-2.969,4.141-3.864,6.527l-0.174,0.466l-1.331-0.189c-1.827-0.261-3.526,1.015-3.787,2.841
		l-0.255,1.791c-0.126,0.885,0.1,1.766,0.637,2.48c0.538,0.716,1.32,1.178,2.206,1.305L76.61,508.744z M88.243,521.231
		c-2.7-2.014-4.725-4.75-5.862-7.929c-0.349-0.972-0.612-1.994-0.78-3.037c-0.27-1.686-0.283-3.404-0.04-5.108
		c0.243-1.707,0.737-3.354,1.466-4.896c0.448-0.942,0.986-1.85,1.601-2.695c2.028-2.803,4.822-4.9,8.082-6.064
		c0.985-0.353,2.006-0.617,3.035-0.783c1.686-0.269,3.405-0.281,5.111-0.039c1.706,0.244,3.352,0.737,4.892,1.467
		c0.955,0.453,1.863,0.99,2.7,1.6c2.791,2.039,4.896,4.824,6.061,8.082c0.351,0.971,0.614,1.992,0.782,3.035
		c0.27,1.685,0.283,3.404,0.04,5.111c-0.244,1.705-0.737,3.352-1.466,4.893c-0.453,0.954-0.99,1.861-1.599,2.699
		c-2.029,2.8-4.823,4.896-8.081,6.063c-0.97,0.349-1.992,0.611-3.038,0.779c-1.684,0.271-3.402,0.283-5.107,0.04
		c-1.708-0.244-3.354-0.737-4.896-1.467c-0.955-0.453-1.862-0.992-2.698-1.602C88.378,521.331,88.31,521.281,88.243,521.231z
		 M82.822,510.068c0.156,0.969,0.399,1.916,0.723,2.816c1.082,3.023,3.004,5.61,5.628,7.496c0.776,0.566,1.617,1.064,2.5,1.485
		c1.428,0.675,2.956,1.133,4.541,1.359c1.583,0.226,3.176,0.213,4.737-0.037c0.97-0.155,1.917-0.399,2.816-0.723
		c3.022-1.081,5.615-3.027,7.498-5.626c0.564-0.775,1.063-1.618,1.482-2.502c0.676-1.429,1.134-2.955,1.36-4.539
		c0.226-1.583,0.213-3.178-0.036-4.739c-0.156-0.966-0.4-1.913-0.725-2.813c-1.081-3.026-3.028-5.655-5.624-7.501
		c-0.775-0.564-1.618-1.063-2.503-1.482c-1.428-0.676-2.954-1.134-4.538-1.36c-1.583-0.226-3.177-0.213-4.74,0.036
		c-0.953,0.154-1.9,0.398-2.813,0.727c-3.024,1.08-5.617,3.025-7.498,5.625c-0.571,0.786-1.07,1.628-1.485,2.501
		c-0.676,1.428-1.133,2.956-1.359,4.54C82.56,506.913,82.572,508.506,82.822,510.068L82.822,510.068z"/>
	<g>
		<path fill="#9EC6EF" d="M873.275,651.706l-0.183-0.001l-0.14-0.119c-1.414-1.211-2.096-5.35-2.283-6.873
			c-0.044-0.003-0.088-0.006-0.131-0.009c-0.573,2.902-1.217,5.698-2.038,6.521l-0.153,0.153l-0.217-0.007
			c-0.574-0.02-9.646-1.701-11.197-2.266l-0.212-0.077l-0.083-0.211c-0.355-0.909,0.007-3.06,0.516-5.776
			c0.103-0.542,0.194-1.031,0.251-1.393c-0.265-0.115-0.612-0.282-1.023-0.482c-0.035-0.017-0.069-0.033-0.103-0.05
			c-0.895,1.526-3.602,6.086-3.602,6.086l-0.244,0.411l-10.505-5.617l0.175-0.419c0.089-0.213,2.034-4.871,2.996-6.672
			c-0.174-0.137-0.347-0.268-0.549-0.421c-1.268,1.444-4.99,4.317-5.457,4.676l-0.336,0.258l-0.309-0.288
			c-0.226-0.21-5.54-5.162-7.844-8.077l-0.137-0.174l0.036-0.218c0.156-0.938,1.841-3.021,4.513-6.079
			c-0.307-0.425-0.621-0.87-0.922-1.333l-0.215,0.15c-2.562,1.791-4.941,3.406-5.91,3.504l-0.305,0.031l-0.166-0.258
			c-2.338-3.643-4.23-7.596-5.627-11.75l-0.091-0.272l0.189-0.216c0.243-0.278,0.987-0.636,2.896-1.512
			c1.168-0.536,2.474-1.135,3.421-1.653c-0.175-0.537-0.339-1.095-0.49-1.664c-0.893,0.166-2.027,0.438-3.131,0.702
			c-2.29,0.548-3.263,0.761-3.691,0.678l-0.309-0.063l-0.076-0.306c-1.072-4.25-1.609-8.703-1.595-13.237l0.001-0.309l0.276-0.137
			c0.437-0.217,1.745-0.262,4.627-0.311c0.765-0.014,1.534-0.026,2.225-0.048c0.013-0.69,0.04-1.496,0.108-2.324
			c-0.995-0.096-2.146-0.17-3.178-0.237c-2.326-0.151-3.236-0.225-3.568-0.397l-0.291-0.15l0.021-0.326
			c0.293-4.398,1.305-9.132,2.848-13.329l0.121-0.328l0.35,0.001c0.244,0.001,0.708,0.153,2.078,0.624
			c1.339,0.461,3.123,1.075,4.393,1.349c0.145-0.388,0.292-0.771,0.447-1.145c-0.871-0.479-2.146-1.037-3.289-1.536
			c-1.887-0.825-2.623-1.165-2.883-1.471l-0.199-0.235l0.119-0.283c1.799-4.259,4.033-8.163,6.643-11.606l0.189-0.251l0.309,0.063
			c0.27,0.055,0.635,0.313,1.65,1.049c0.988,0.716,3.615,2.623,4.139,2.464c0.033-0.284-0.444-1.196-4.035-4.1
			c-0.341-0.276-0.578-0.473-0.647-0.544l-0.307-0.321l0.283-0.343c2.854-3.453,6.176-6.559,9.872-9.229l0.211-0.152l0.246,0.085
			c0.442,0.153,1.053,0.902,2.555,2.846c0.753,0.974,1.527,1.976,2.108,2.601c0.345-0.232,0.68-0.439,0.978-0.615
			c-0.365-1.22-1.232-3.038-1.882-4.399c-0.702-1.472-0.931-1.972-0.944-2.26l-0.013-0.293l0.249-0.154
			c3.517-2.177,7.364-3.953,11.436-5.278l0.178-0.058l0.173,0.073c1.224,0.519,2.417,4.881,2.841,6.74
			c0.58-0.186,1.105-0.343,1.605-0.481c-0.389-1.479-1.48-5.885-1.053-7.125l0.088-0.258l0.264-0.065
			c4.065-1.005,8.27-1.514,12.531-1.514l0.326,0.061l0.111,0.173c0.438,0.678,0.613,2.897,0.815,5.958
			c0.026,0.389,0.05,0.756,0.073,1.083c0.354-0.005,0.697-0.003,1.031,0.009c0.334-1.893,1.13-6.241,1.504-6.86l0.162-0.267
			l0.311,0.027c4.537,0.405,8.85,1.278,13.184,2.668l0.297,0.096l0.046,0.309c0.103,0.71-0.784,4.754-1.194,6.561
			c0.379,0.119,0.73,0.241,1.051,0.358c1.768-3.66,2.759-5.34,3.395-5.762l0.182-0.104l0.308,0.063
			c3.899,1.647,7.579,3.755,10.937,6.265l0.219,0.163l-0.02,0.272c-0.083,1.185-1.966,3.937-3.049,5.322
			c0.423,0.299,0.833,0.61,1.234,0.918c1.042-1.498,3.354-4.117,4.603-4.123l0.188-0.001l0.142,0.123
			c3.221,2.792,6.081,5.925,8.499,9.313l0.178,0.248l-0.141,0.271c-0.197,0.38-1.079,1.191-2.906,2.825
			c-0.359,0.322-0.715,0.64-1.035,0.931c0.342,0.449,0.655,0.883,0.949,1.311c1.083-0.658,3.994-2.374,4.865-2.306l0.259,0.018
			l0.135,0.222c2.368,3.901,4.22,8.054,5.505,12.343l0.128,0.426l-0.408,0.177c-0.223,0.097-0.846,0.298-1.843,0.62
			c-0.852,0.273-1.794,0.578-2.495,0.825c0.088,0.271,0.178,0.54,0.271,0.809c0.215-0.047,0.449-0.098,0.693-0.151
			c2.05-0.448,3.432-0.734,3.955-0.63l0.308,0.063l0.077,0.305c1.083,4.259,1.623,8.727,1.605,13.278l-0.001,0.307l-0.274,0.138
			c-0.684,0.344-2.976,0.382-4.331,0.351c-0.011,0.352-0.018,0.705-0.024,1.06l-0.01,0.455c1.214,0.055,3.655,0.202,4.205,0.432
			l0.322,0.135l-0.016,0.35c-0.207,4.368-1.108,9.122-2.541,13.387l-0.105,0.313l-0.329,0.025c-0.66,0.063-2.919-0.741-4.103-1.179
			c-0.27,0.776-0.572,1.528-0.875,2.262c1.296,0.531,3.381,1.488,3.865,2.053l0.201,0.232l-0.118,0.284
			c-1.708,4.128-3.935,8.023-6.618,11.577l-0.189,0.251l-0.309-0.063c-0.775-0.157-2.886-1.713-3.949-2.556
			c-0.438,0.53-0.898,1.074-1.389,1.603c0.879,0.924,2.85,3.045,3.08,3.743l0.091,0.272l-0.19,0.216
			c-2.891,3.272-6.166,6.179-9.734,8.64l-0.253,0.174l-0.271-0.147c-0.971-0.53-2.637-2.883-3.418-4.211
			c-0.506,0.313-1.023,0.622-1.56,0.9c0.568,1.533,1.44,4.628,1.165,5.783l-0.052,0.215l-0.192,0.106
			c-3.334,1.846-6.826,3.327-10.377,4.403l-0.213,0.064l-0.191-0.115c-1.445-0.875-2.906-4.035-3.33-5.524
			c-0.099,0.021-0.199,0.042-0.299,0.063c-0.081,0.017-0.162,0.033-0.244,0.051c0.154,1.701-0.1,5.446-1.088,6.684l-0.115,0.146
			l-0.184,0.034c-3.27,0.612-6.567,0.922-9.807,0.922C873.461,651.707,873.368,651.707,873.275,651.706z M883.7,643.636
			l-0.095-0.467l0.462-0.117c0.236-0.061,0.479-0.11,0.721-0.16c0.255-0.053,0.509-0.105,0.751-0.17l0.58-0.156l0.049,0.598
			c0.061,0.748,1.521,4.197,2.795,5.192c3.328-1.025,6.601-2.414,9.734-4.131c0.059-1.068-0.725-4.004-1.311-5.4l-0.186-0.439
			l0.432-0.205c0.794-0.378,1.568-0.86,2.324-1.331l0.46-0.286l0.249,0.482c0.589,1.146,2.175,3.378,3.031,4.094
			c3.297-2.307,6.336-5.003,9.039-8.022c-0.408-0.606-1.656-2.035-3.052-3.479l-0.336-0.348l0.336-0.348
			c0.711-0.735,1.368-1.526,1.981-2.274l0.318-0.39l0.388,0.323c1.216,1.013,2.896,2.184,3.624,2.549
			c2.461-3.308,4.52-6.911,6.129-10.722c-0.623-0.425-2.263-1.217-3.721-1.779l-0.479-0.186l0.197-0.474
			c0.422-1.015,0.858-2.065,1.206-3.148l0.161-0.502l0.492,0.187c1.768,0.673,3.207,1.123,3.848,1.259
			c1.287-3.945,2.112-8.287,2.342-12.32c-0.75-0.117-2.507-0.255-4.016-0.304l-0.498-0.017l0.034-1.436
			c0.009-0.532,0.019-1.059,0.043-1.583l0.022-0.502l0.502,0.025c1.471,0.071,3.317-0.002,4.063-0.146
			c-0.012-4.209-0.51-8.341-1.481-12.292c-0.71,0.066-2.318,0.419-3.25,0.623c-0.423,0.092-0.813,0.178-1.132,0.243l-0.424,0.086
			l-0.146-0.406c-0.205-0.567-0.393-1.132-0.574-1.714l-0.142-0.449l0.44-0.168c0.727-0.275,1.928-0.662,2.988-1.004
			c0.506-0.163,0.994-0.32,1.334-0.436c-1.221-3.942-2.932-7.764-5.091-11.371c-0.747,0.233-2.757,1.289-4.457,2.359l-0.413,0.261
			l-0.271-0.407c-0.431-0.651-0.907-1.311-1.458-2.015l-0.282-0.363l0.339-0.313c0.402-0.371,0.889-0.805,1.385-1.249
			c0.838-0.75,2.037-1.822,2.504-2.321c-2.281-3.146-4.951-6.063-7.944-8.681c-0.774,0.289-2.89,2.391-3.905,4.073l-0.289,0.478
			l-0.688-0.526c-0.613-0.471-1.192-0.915-1.814-1.33l-0.464-0.31l0.358-0.428c1.219-1.453,2.803-3.911,3.111-4.929
			c-3.146-2.32-6.574-4.283-10.2-5.84c-0.413,0.465-1.274,1.869-3.067,5.608l-0.199,0.415l-0.43-0.164
			c-0.52-0.197-1.146-0.427-1.854-0.629l-0.457-0.13l0.107-0.463c0.586-2.551,1.168-5.39,1.27-6.357
			c-4.025-1.265-8.037-2.076-12.239-2.478c-0.288,0.964-0.879,3.955-1.352,6.675l-0.077,0.439l-0.445-0.026
			c-0.584-0.034-1.211-0.041-1.861-0.015l-0.478,0.018l-0.04-0.477c-0.035-0.432-0.07-0.976-0.109-1.571
			c-0.104-1.565-0.287-4.348-0.564-5.256c-3.946,0.021-7.87,0.494-11.672,1.408c-0.082,1.077,0.543,4.279,1.244,6.771l0.139,0.491
			l-0.494,0.129c-0.77,0.2-1.583,0.443-2.559,0.766l-0.538,0.178l-0.109-0.556c-0.513-2.609-1.651-5.841-2.253-6.472
			c-3.783,1.25-7.364,2.896-10.654,4.897c0.155,0.377,0.469,1.033,0.753,1.629c0.776,1.628,1.743,3.652,2.048,4.955l0.084,0.362
			l-0.322,0.186c-0.436,0.251-1.009,0.592-1.576,1l-0.336,0.243l-0.301-0.286c-0.65-0.618-1.588-1.831-2.494-3.003
			c-0.655-0.848-1.518-1.962-1.924-2.37c-3.377,2.476-6.43,5.32-9.082,8.467c0.064,0.053,0.136,0.11,0.213,0.173
			c3.299,2.668,5.045,4.417,4.199,5.471c-0.838,1.019-2.814-0.289-5.518-2.248c-0.366-0.265-0.766-0.554-1.02-0.727
			c-2.377,3.193-4.428,6.783-6.107,10.683c0.471,0.26,1.459,0.691,2.285,1.053c1.35,0.59,2.877,1.258,3.785,1.817l0.372,0.229
			l-0.178,0.399c-0.269,0.604-0.509,1.251-0.749,1.897l-0.145,0.387l-0.408-0.068c-1.349-0.227-3.434-0.944-4.955-1.468
			c-0.518-0.178-1.082-0.372-1.434-0.481c-1.379,3.87-2.298,8.173-2.608,12.214c0.597,0.083,1.837,0.163,2.874,0.23
			c1.217,0.079,2.596,0.169,3.71,0.291l0.492,0.054l-0.05,0.493c-0.117,1.162-0.145,2.326-0.154,3.21l-0.006,0.475l-0.475,0.02
			c-0.807,0.032-1.768,0.049-2.721,0.064c-1.379,0.024-3.19,0.055-3.921,0.15c0.017,4.177,0.51,8.28,1.468,12.21
			c0.623-0.086,1.951-0.404,2.97-0.648c1.317-0.315,2.679-0.641,3.656-0.795l0.452-0.071l0.11,0.444
			c0.21,0.842,0.451,1.658,0.714,2.427l0.133,0.387l-0.354,0.207c-0.998,0.584-2.52,1.282-3.861,1.898
			c-0.857,0.394-1.887,0.865-2.345,1.122c1.317,3.834,3.068,7.489,5.208,10.875c1.098-0.413,3.896-2.371,5.158-3.253l1.078-0.75
			l0.277,0.447c0.443,0.717,0.934,1.403,1.398,2.038l0.235,0.322l-0.464,0.531c-1.076,1.23-3.822,4.372-4.281,5.465
			c2.012,2.476,6.113,6.385,7.27,7.474c1.932-1.5,4.801-3.865,5.203-4.571l0.286-0.504l0.876,0.679
			c0.291,0.221,0.588,0.445,0.879,0.693l0.325,0.276l-0.222,0.364c-0.676,1.109-2.408,5.176-2.966,6.498l8.859,4.738
			c0.782-1.319,3.2-5.396,3.583-6.062l0.22-0.383l0.407,0.171c0.088,0.037,0.297,0.137,0.547,0.259
			c0.355,0.172,1.097,0.531,1.262,0.575l0.414,0.107l-0.043,0.426c-0.039,0.387-0.16,1.032-0.313,1.851
			c-0.272,1.453-0.761,4.06-0.618,5.02c1.889,0.565,9.002,1.87,10.414,2.094c0.681-1.049,1.386-4.622,1.628-5.85l0.165-0.824
			l0.424,0.015c0.191,0.007,0.388,0.021,0.59,0.035l0.938,0.053v0.475c0.002,0.954,0.699,5.258,1.804,6.464
			c3.103-0.032,6.325-0.287,9.494-0.867C883.701,648.64,883.945,644.847,883.7,643.636z"/>
		<path fill="#9EC6EF" d="M853.278,571.981l0.47-0.338c6.229-4.484,13.928-6.748,21.697-6.367l0.58,0.028l-2.477,12.235
			l-0.399,0.009c-3.899,0.087-7.679,1.168-10.929,3.126l-0.342,0.205L853.278,571.981z M874.814,566.252
			c-7.152-0.231-14.207,1.848-20.01,5.87l7.243,7.493c3.208-1.854,6.884-2.905,10.679-3.054L874.814,566.252z"/>
		<path fill="#9EC6EF" d="M891.102,585.215c-2.584-2.93-5.918-5.138-9.641-6.383l-0.419-0.141l2.453-12.119l0.524,0.156
			c7.493,2.231,14.051,6.926,18.464,13.217l0.351,0.5l-11.49,5.043L891.102,585.215z M884.258,567.848l-2.062,10.18
			c3.605,1.283,6.845,3.436,9.411,6.253l9.701-4.258C897.137,574.31,891.119,570.013,884.258,567.848z"/>
		<path fill="#9EC6EF" d="M891.656,611.523l0.289-0.345c4.26-5.097,5.602-12.427,3.418-18.674l-0.152-0.438l11.17-4.884l0.176,0.515
			c3.801,11.199,1.374,23.429-6.334,31.917l-0.359,0.396L891.656,611.523z M896.455,592.614c2.039,6.333,0.701,13.635-3.458,18.856
			l6.841,7.074c7.066-8.068,9.324-19.47,5.942-30.008L896.455,592.614z"/>
		<path fill="#9EC6EF" d="M871.119,630.406l-0.532-0.069l2.306-11.393l0.439,0.031c4.182,0.303,8.346-0.566,12.041-2.504
			l0.331-0.173l8.383,8.626l-0.54,0.325c-3.106,1.872-6.004,3.175-8.844,3.977l-0.309,0.118c-3.191,0.862-6.402,1.3-9.465,1.3
			C873.629,630.645,872.354,630.565,871.119,630.406z M884.141,628.345c2.682-0.725,5.418-1.914,8.349-3.63l-6.984-7.186
			c-3.646,1.837-7.707,2.683-11.806,2.472l-1.918,9.477c3.776,0.41,7.924,0.06,12.052-1.018L884.141,628.345z"/>
		<path fill="#9EC6EF" d="M871.084,608.504c-6.6-2.025-8.366-6.903-7.819-10.792c0.679-4.823,5.114-10.019,12.083-10.141
			c3.811,0.584,6.798,2.378,8.641,5.187c0,0,0.111,0.194,0.111,0.195c0.613,0.961,1.06,2.001,1.328,3.086
			c0,0,0.053,0.155,0.045,0.195c0.832,3.55-0.205,7.016-2.854,9.524c-2.21,2.093-5.211,3.232-8.213,3.232
			C873.286,608.991,872.166,608.832,871.084,608.504z M884.454,596.287c-0.255-1.051-0.694-2.046-1.304-2.96l-0.111-0.189
			c-1.691-2.469-4.396-4.05-7.758-4.572c-6.33,0.117-10.406,4.872-11.026,9.285c-0.634,4.509,2.028,8.134,7.122,9.697
			c3.634,1.104,7.777,0.114,10.555-2.515c2.441-2.313,3.346-5.391,2.54-8.688L884.454,596.287z"/>
		<path fill="#9EC6EF" d="M862.666,628.393c-2.652-0.979-5.19-2.278-7.543-3.862c-3.909-2.62-7.172-5.988-9.697-10.012l-0.309-0.49
			l10.85-4.771l0.236,0.33c2.259,3.151,5.365,5.677,8.982,7.303l0.365,0.164l-2.337,11.541L862.666,628.393z M855.63,610.497
			l-9.045,3.979c2.405,3.688,5.463,6.79,9.097,9.225c2.125,1.431,4.404,2.623,6.785,3.548l1.945-9.613
			C860.914,615.992,857.892,613.535,855.63,610.497z"/>
		<path fill="#9EC6EF" d="M841.789,606.601c-3.059-9.838-0.898-20.935,5.635-28.959l0.355-0.437l8.486,8.767l-0.248,0.34
			c-3.275,4.48-4.502,10.335-3.281,15.662l0.093,0.403l-10.874,4.757L841.789,606.601z M854.965,586.065l-7.117-7.353
			c-5.935,7.583-7.932,17.847-5.266,27.055l9.092-3.977C850.568,596.432,851.785,590.614,854.965,586.065z"/>
	</g>
	<g id="_x32_">
		<g>
			<path fill="#9EC6EF" d="M934.776,557.99c-1.163-0.709-1.979-1.847-2.299-3.205l-0.108-0.457
				c-2.603-0.004-5.165-0.424-7.631-1.254l-0.223,0.383c-0.688,1.178-1.781,2-3.076,2.314c-1.271,0.308-2.586,0.085-3.703-0.623
				l-1.682-1.068c-2.309-1.469-3.05-4.606-1.652-6.996l0.242-0.413c-1.851-1.914-3.393-4.105-4.591-6.525l-0.413,0.103
				c-1.248,0.314-2.548,0.113-3.659-0.562c-1.163-0.71-1.979-1.849-2.298-3.206l-0.469-1.99c-0.646-2.731,0.973-5.486,3.607-6.143
				l0.427-0.106c-0.012-2.722,0.385-5.402,1.18-7.981l-0.391-0.248c-2.309-1.467-3.05-4.605-1.651-6.996l1.02-1.745
				c0.688-1.176,1.778-1.996,3.072-2.311c1.271-0.308,2.589-0.087,3.708,0.623l0.36,0.229c1.828-1.906,3.922-3.493,6.236-4.724
				l-0.11-0.472c-0.642-2.729,0.978-5.485,3.611-6.145l1.909-0.475c1.249-0.315,2.55-0.114,3.66,0.564
				c1.164,0.709,1.98,1.846,2.298,3.203l0.107,0.456c2.599,0.001,5.161,0.421,7.633,1.252l0.224-0.384
				c0.687-1.175,1.777-1.995,3.071-2.31c1.271-0.308,2.59-0.086,3.708,0.622l1.683,1.07c2.306,1.467,3.047,4.604,1.651,6.991
				l-0.242,0.414c1.852,1.915,3.394,4.106,4.593,6.526l0.409-0.104c1.253-0.31,2.552-0.112,3.662,0.565
				c1.162,0.71,1.978,1.847,2.297,3.206l0.469,1.987c0.643,2.729-0.979,5.485-3.61,6.146l-0.422,0.104
				c0.012,2.723-0.386,5.402-1.182,7.984l0.39,0.248c2.308,1.467,3.048,4.603,1.652,6.992l-1.021,1.745
				c-0.688,1.177-1.78,1.998-3.075,2.312c-1.273,0.313-2.587,0.088-3.704-0.62l-0.36-0.23c-1.829,1.909-3.924,3.495-6.238,4.725
				l0.109,0.468c0.645,2.731-0.975,5.486-3.607,6.142l-1.911,0.481c-0.385,0.097-0.775,0.145-1.163,0.145
				C936.403,558.699,935.545,558.458,934.776,557.99z M951.101,545.938c0.833,0.529,1.815,0.691,2.76,0.465
				c0.97-0.235,1.789-0.854,2.308-1.74l1.021-1.746c1.068-1.828,0.507-4.225-1.253-5.343l-1.188-0.757l0.148-0.451
				c0.9-2.742,1.323-5.608,1.259-8.519l-0.011-0.488l1.365-0.34c1.987-0.497,3.205-2.597,2.716-4.68l-0.468-1.988
				c-0.244-1.036-0.863-1.903-1.744-2.44c-0.829-0.506-1.798-0.655-2.729-0.424l-1.378,0.347l-0.215-0.454
				c-1.236-2.616-2.885-4.962-4.901-6.972l-0.335-0.335l0.716-1.225c1.068-1.828,0.508-4.225-1.251-5.343l-1.683-1.07
				c-0.836-0.532-1.816-0.698-2.764-0.466c-0.968,0.234-1.786,0.852-2.304,1.737l-0.735,1.258l-0.477-0.173
				c-2.634-0.946-5.382-1.392-8.171-1.343l-0.494,0.011l-0.333-1.414c-0.242-1.036-0.861-1.902-1.743-2.439
				c-0.83-0.506-1.797-0.658-2.728-0.421l-1.91,0.474c-1.988,0.498-3.207,2.598-2.717,4.68l0.329,1.401l-0.429,0.217
				c-2.506,1.271-4.749,2.974-6.668,5.058l-0.347,0.377l-1.219-0.775c-0.835-0.532-1.815-0.698-2.764-0.467
				c-0.968,0.234-1.786,0.852-2.305,1.738l-1.02,1.745c-1.071,1.831-0.509,4.229,1.252,5.348l1.188,0.757l-0.148,0.451
				c-0.898,2.738-1.321,5.604-1.257,8.516l0.011,0.488l-1.369,0.343c-1.989,0.495-3.207,2.592-2.715,4.676l0.469,1.991
				c0.243,1.037,0.863,1.902,1.745,2.441c0.827,0.504,1.796,0.651,2.726,0.421l1.382-0.347l0.215,0.455
				c1.235,2.616,2.884,4.961,4.899,6.97l0.334,0.335l-0.717,1.224c-1.068,1.83-0.507,4.229,1.253,5.348l1.683,1.068
				c0.833,0.531,1.813,0.694,2.759,0.466c0.969-0.234,1.789-0.853,2.308-1.741l0.734-1.257l0.479,0.172
				c2.627,0.948,5.37,1.396,8.169,1.346l0.493-0.01l0.333,1.414c0.244,1.036,0.864,1.904,1.746,2.441
				c0.828,0.505,1.797,0.654,2.726,0.422l1.912-0.481c1.988-0.495,3.206-2.592,2.715-4.675l-0.33-1.4l0.43-0.217
				c2.505-1.27,4.749-2.971,6.67-5.057l0.346-0.377L951.101,545.938z M931.195,547.451c-1.114-0.072-2.247-0.258-3.365-0.553
				c-1.797-0.475-3.517-1.23-5.113-2.246c-1.597-1.015-3.028-2.263-4.254-3.708c-0.747-0.88-1.422-1.843-2.004-2.857
				c-1.929-3.349-2.828-7.172-2.602-11.056c0.065-1.174,0.237-2.347,0.51-3.485c0.446-1.861,1.164-3.644,2.131-5.299
				c0.968-1.655,2.16-3.138,3.543-4.405c0.855-0.785,1.778-1.485,2.742-2.08c3.219-1.992,6.904-2.916,10.648-2.658
				c1.119,0.07,2.252,0.254,3.367,0.548c1.794,0.476,3.514,1.231,5.114,2.248c1.597,1.015,3.027,2.262,4.253,3.706
				c0.759,0.896,1.435,1.858,2.008,2.859c1.926,3.348,2.824,7.17,2.602,11.054c-0.064,1.159-0.238,2.333-0.514,3.487
				c-0.447,1.859-1.164,3.641-2.13,5.295c-0.968,1.656-2.159,3.141-3.544,4.409c-0.857,0.786-1.781,1.485-2.742,2.074
				c-2.872,1.781-6.115,2.708-9.445,2.708C932,547.492,931.599,547.479,931.195,547.451z M923.426,512.801
				c-0.898,0.556-1.76,1.209-2.559,1.941c-1.293,1.186-2.408,2.572-3.313,4.121c-0.908,1.552-1.58,3.223-1.999,4.967
				c-0.255,1.067-0.416,2.168-0.478,3.271c-0.213,3.645,0.631,7.233,2.441,10.376c0.546,0.952,1.177,1.854,1.875,2.677
				c1.146,1.352,2.484,2.518,3.979,3.467c1.49,0.947,3.095,1.652,4.769,2.096c1.042,0.273,2.097,0.447,3.135,0.516
				c3.494,0.236,6.926-0.626,9.927-2.489c0.898-0.55,1.76-1.202,2.559-1.934c1.294-1.188,2.408-2.575,3.314-4.124
				c0.906-1.553,1.578-3.223,1.997-4.965c0.259-1.083,0.421-2.184,0.481-3.272c0.209-3.645-0.635-7.233-2.441-10.376
				c-0.537-0.936-1.169-1.837-1.88-2.676c-1.146-1.351-2.483-2.516-3.976-3.465c-1.494-0.949-3.1-1.656-4.771-2.098
				c-1.038-0.274-2.091-0.445-3.136-0.512c-0.379-0.024-0.757-0.038-1.135-0.038C929.118,510.284,926.101,511.146,923.426,512.801z"
				/>
			<path fill="#9EC6EF" d="M920.988,528.943c-0.185-3.137,0.816-6.156,2.818-8.503c2.009-2.354,4.784-3.748,7.813-3.927
				c3.034-0.163,5.949,0.881,8.221,2.98c2.265,2.094,3.614,4.976,3.799,8.112c0.186,3.138-0.815,6.157-2.818,8.505
				c-2.009,2.354-4.783,3.747-7.813,3.926c-0.218,0.013-0.434,0.02-0.649,0.02C926.394,540.057,921.357,535.202,920.988,528.943z
				 M931.692,517.735c-2.694,0.158-5.165,1.4-6.956,3.499c-1.796,2.104-2.694,4.816-2.527,7.638
				c0.343,5.812,5.162,10.287,10.727,9.944c2.695-0.158,5.165-1.401,6.956-3.499c1.796-2.105,2.694-4.818,2.527-7.64
				c-0.166-2.819-1.376-5.408-3.407-7.286c-1.879-1.736-4.25-2.675-6.733-2.675C932.084,517.717,931.889,517.724,931.692,517.735z"
				/>
		</g>
	</g>
</g>
<g id="Ñëîé_11">
	<g>
		<g>
			<path fill="#006ED2" d="M898.451,821.66h-10.419c-0.646,0-1.171-1.406-1.171-3.141s0.524-3.141,1.171-3.141h10.419
				c0.647,0,1.172,1.406,1.172,3.141S899.099,821.66,898.451,821.66z"/>
		</g>
		<g>
			<path fill="#006ED2" d="M879.614,821.66H334.688c-0.647,0-1.171-1.406-1.171-3.141s0.524-3.141,1.171-3.141h544.926
				c0.646,0,1.171,1.406,1.171,3.141S880.261,821.66,879.614,821.66z"/>
		</g>
		<g>
			<path fill="#006ED2" d="M328.81,821.66h-22.962c-1.441,0-2.609-1.406-2.609-3.141s1.168-3.141,2.609-3.141h22.962
				c1.44,0,2.608,1.406,2.608,3.141S330.25,821.66,328.81,821.66z"/>
		</g>
		<g>
			<path fill="#006ED2" d="M296.254,821.66h-2.011c-1.44,0-2.608-1.406-2.608-3.141s1.168-3.141,2.608-3.141h2.011
				c1.441,0,2.609,1.406,2.609,3.141S297.695,821.66,296.254,821.66z"/>
		</g>
	</g>
	<g>
		<g>
			<path fill="#006ED2" d="M315.701,784.276h-4.475c-0.278,0-0.503-1.407-0.503-3.142s0.225-3.141,0.503-3.141h4.475
				c0.278,0,0.503,1.406,0.503,3.141S315.979,784.276,315.701,784.276z"/>
		</g>
		<g>
			<path fill="#006ED2" d="M307.609,784.276H73.547c-0.278,0-0.503-1.407-0.503-3.142s0.225-3.141,0.503-3.141h234.063
				c0.278,0,0.503,1.406,0.503,3.141S307.887,784.276,307.609,784.276z"/>
		</g>
		<g>
			<path fill="#006ED2" d="M71.23,784.276h-8.024c-0.503,0-0.912-1.407-0.912-3.142s0.408-3.141,0.912-3.141h8.024
				c0.504,0,0.912,1.406,0.912,3.141S71.734,784.276,71.23,784.276z"/>
		</g>
		<g>
			<path fill="#006ED2" d="M59.854,784.276h-0.703c-0.503,0-0.912-1.407-0.912-3.142s0.408-3.141,0.912-3.141h0.703
				c0.503,0,0.912,1.406,0.912,3.141S60.357,784.276,59.854,784.276z"/>
		</g>
	</g>
</g>
<g id="Ñëîé_8">
	<g>
		<g>
			<g>
				<path fill="#1C1E78" d="M845.439,772.037c12.534-7.697,14.957,20.656,24.636,37.544l-2.387,1.918
					c0,0-8.918-21.464-11.928-19.925c-3.009,1.538,3.978,13.432-0.025,19.948s-8.205,5.118-8.205,5.118
					S831.35,780.69,845.439,772.037z"/>
			</g>
			<g>
				<g>
					<g>
						<path fill="#1C1E78" d="M797.395,770.951c6.557,1.106,0.496,41.944,0.496,41.944l-2.115,0.023l-1.377-22.383
							c0,0-4.533-1.854-4.746,15.013c-0.092,7.277-6.268,12.8-12.557,10.755c-0.287-0.094-0.579-0.2-0.875-0.32
							C776.221,815.983,776.76,767.469,797.395,770.951z"/>
					</g>
					<g>
						<path fill="#C8E3FC" d="M785.82,793.629c1.144-0.996,2.12-9.862,5.095-15.634c2.61-5.054,3.899-11.023,5.13-16.56
							c4.055-18.379,10.884-46.16,15.64-71.197c2.852-14.996,4.965-29.014,5.293-39.431c0.119-3.777-1.504-13.227-3.85-16.2
							l-9.712-7.053c-5.278-0.6-9.006,7.256-11.641,19.569c-0.019,0.149-0.047,0.241-0.04,0.284
							c-6.722,31.982-6.059,93.467-5.552,115.792c0.109,5.004-0.404,9.981-1.523,14.871
							C783.049,785.19,782.701,796.374,785.82,793.629z"/>
					</g>
				</g>
				<g opacity="0.78">
					<path fill="#B7D5F4" d="M791.735,647.408c0.126-0.299,1.91-4.22,5.603,0.778c3.829,5.194,9.29,34.831,14.347,42.052
						c2.971-15.625,5.141-30.186,5.325-40.721c0.053-3.028-2.002-12.526-3.882-14.91l-9.712-7.053
						c-5.278-0.6-9.006,7.256-11.641,19.569C791.757,647.273,791.729,647.365,791.735,647.408z"/>
				</g>
			</g>
			<g>
				<path fill="#C8E3FC" d="M834.525,632.699l6.825,15.004c10.128,20.344,8.82,101.767,7.457,132.62
					c0.02,0.163,0.014,0.349-0.026,0.562c-0.62,3.272-0.36,20.651-3.629,20.084c-2.471-0.43-2.49-11.712-3-20.73
					c-0.127-2.256-0.503-4.48-1.137-6.649c-5.238-17.905-31.53-111.894-15.262-141.379
					C827.728,628.635,832.999,628.92,834.525,632.699z"/>
			</g>
			<g>
				<path fill="#1C1E78" d="M818.4,529.887c0,0,14.041-1.305,21.416,6.488c12.547,13.258,12.094,30.615,8.037,47.467
					c-7.663,31.838,1.878,110.096,1.878,110.096s-51.463,7.434-64.678,2.041c0,0-4.526-96.211,19.318-157.005
					C813.092,516.742,818.4,529.887,818.4,529.887z"/>
			</g>
			<g>
				<g>
					<path fill="#B7D5F4" d="M767.883,460.948c-4.053-1.362-4.729-2.331-7.277-5.042c-2.669-2.84-3.511-7.386-3.277-8.174
						c0.7-2.361,2.863,2.503,5.27,3.37c2.407,0.866,7.924,5.05,8.058,8.175C770.768,461.916,768.911,461.294,767.883,460.948z"/>
				</g>
				<g>
					<path fill="#C0DFF4" d="M767.585,459.784c-4.514,1.185-12.13-0.523-15.021-2.864c-2.891-2.34-5.803-5.019-5.892-7.479
						s7.951,2.437,10.503,2.271c2.552-0.167,10.915,2.622,12.285,5.434C770.617,459.52,768.635,459.509,767.585,459.784z"/>
				</g>
				<g>
					<path fill="#18146A" d="M792.313,500.108c2.628,0.537,5.313,0.749,7.851,0.125c4.441-1.092,6.569-5.091,7.638-9.227
						c0.296-1.143,0.514-2.305,0.688-3.474c-12.19-12.025-26.263-22.618-37.205-30.216c-1.821-0.078-3.825,2.149-5.34,3.39
						C773.143,470.464,784.309,487.686,792.313,500.108z"/>
					<path fill="#18146A" d="M792.605,500.396c-2.561-7.355,7.48-9.402,10.729-13.781c10.179-13.715,7.622-23.3,12.562-36.08
						c5.78-14.958,25.371-22.938,27.135,7.645c0.514,8.895-2.943,17.468-7.612,24.869c-3.251,5.152-7.083,9.516-11.356,13.76
						c-2.794,2.773-6.922,5.199-10.766,6.701c-0.539,0.21-1.072,0.402-1.596,0.575c-1.539,0.508-3.158,0.517-4.729,0.878
						c-2.526,0.582-5.13,3.807-7.728,2.842C797.166,507.033,793.334,502.49,792.605,500.396z"/>
				</g>
			</g>
			<g>
				<g>
					<path fill="#0070D2" d="M806.099,483.219c1.389,10.021,2.188,16.996,2.677,23.819c0.307,4.42,0.479,8.775,0.588,13.85
						c0.113,5.408-0.916,5.903-0.874,13.898l32.094,2.825c0,0,21.899-54.283,16.545-79.072c-5.053-23.355-17.555-26.19-17.555-26.19
						c-1.32-0.345-10.186,0.205-18.535,9.598C799.11,466.615,803.66,465.552,806.099,483.219z"/>
				</g>
				<g>
					<path fill="#1C1E78" d="M844.497,528.04c-1.096,1.857-3.468,8.69-2.172,12.817c0,0-32.866-3.561-36.442-5.465
						c0,0,1.471-4.104,3.538-10.114c0,0,27.005,4.249,34.685,2.237C844.412,527.435,844.658,527.767,844.497,528.04z"/>
				</g>
				<g opacity="0.43">
					<path fill="#0070D2" d="M807.396,493.102c0.312,4.42,1.911,27.103,2.025,32.177c2.24-1.909,21.973-25.901,17.722-56.325
						C820.682,492.094,811.159,485.192,807.396,493.102z"/>
				</g>
			</g>
			<g>
				<g>
					<g>
						<path fill="#B7D5F4" d="M829.666,422.832c0.813,1.297,0.67,4.898,0.899,8.155c0.372,5.269-6.396,14.091-6.396,14.091
							c2.322,2.941,15.231-7,15.231-7c0.919-1.789,1.154-7.464,0.88-11.729c-0.334-5.327-1.165-10.95-1.446-12.76
							c-0.072-0.382-0.102-0.597-0.102-0.597s-3.388,2.298-6.056,4.774C830.598,419.684,828.949,421.703,829.666,422.832z"/>
					</g>
					<g>
						<path fill="#B7D5F4" d="M829.779,421.829c0.674,1.612,0.979,8.442,0.57,12.327c1.28,0.936,2.771-4.714,5.477-6.24
							c2.019-1.136,3.398-2.606,4.313-4.224c-0.817-7.19-1.596-13.655-1.687-15.835l-4.611,10.715
							C831.568,420.689,829.184,420.426,829.779,421.829z"/>
					</g>
					<g>
						<path fill="#C0DFF4" d="M834.351,391.646c-3.63-2.336-10.737,1.988-14.98,19.894c-2.779,11.732,1.867,16.828,14.677,14.606
							c5.653-0.98,7.093-3.918,9.564-8.497C847.551,410.351,844.934,398.457,834.351,391.646z"/>
					</g>
				</g>
				<g>
					<path fill="#1C1E78" d="M821.873,396.103c1.975,4.002,8.351,4.602,11.586,5.133c3.246,0.534,0.168,9.291,0.168,9.291
						s4.73-3.187,6.912,0.136c0.603,0.923,0.716,2.075,0.492,3.151c-0.426,2.005-1.877,4.965-6.803,3.665l2.903,8.016
						c0.163,0.188,0.358,0.299,0.56,0.357c1.615,0.498,4.003-2.659,4.003-2.659c14.574-0.784,23.101-28.401,11.143-36.464
						c-9.849-6.641-10.917,1.359-18.438-3.144C825.934,378.516,818.377,389.013,821.873,396.103z"/>
				</g>
				<g opacity="0.18">
					<path fill="#1C1E78" d="M837.691,425.852c1.615,0.498,4.003-2.659,4.003-2.659c14.574-0.784,23.101-28.401,11.143-36.464
						c-8.62,10.141,2.576,13.338-3.52,19.351C844.08,411.244,840.033,417.728,837.691,425.852z"/>
				</g>
				<g>
					<path fill="#1C1E78" d="M849.184,386.693c0.113,0.715,0.27,1.43,0.455,2.131c1.386,5.245,5.369,8.534,10.767,9.029
						c4.544,0.417,10.648-1.511,11.852-6.411c1.312-5.343-4.333-6.41-6.995-9.748c-1.871-2.347-2.067-3.846-4.98-4.896
						c-2.845-1.025-5.085-1.034-7.688,0.679C849.274,379.66,848.572,382.854,849.184,386.693z"/>
				</g>
				<g>
					<path fill="#FFA800" d="M859.604,398.213c-0.069,0.008-0.14,0.03-0.213,0.089c-0.18,0.144-0.159,0.57-0.323,0.688
						c-0.958,0.695-1.845-0.68-2.335-1.307c-0.569-0.729-1.294-1.261-1.877-1.977c-1.117-1.372-2.132-2.845-3.193-4.261
						c-1.188-1.586-2.377-3.171-3.564-4.757c-0.384-0.512-2.416-2.618-0.631-3.001c0.209-0.045,0.605,0.223,0.852,0.215
						c1.313-2.551,2.622,0.581,3.275,1.754c0.985,1.77,2.049,3.494,3.178,5.176c1.09,1.622,2.236,3.218,3.479,4.727
						c0.508,0.616,1.077,0.923,1.642,1.442c0.64,0.588,0.718,0.831,0.122,1.159C859.877,398.237,859.742,398.196,859.604,398.213z"
						/>
				</g>
				<g opacity="0.18">
					<path fill="#1C1E78" d="M858.304,399.185c0.748,0.115,0.778-0.764,1.417-1.012c0.802-0.311,1.725-0.12,2.547-0.344
						c0.536-0.146,0.998-0.324,1.568-0.25c1.662,0.214,3.017-0.193,4.457-1.079c2.888-1.776,5.091-5.264,3.507-8.636
						c-0.407-0.867-1.275-1.422-2.005-1.994c-1.374-1.077-2.863-2.096-4.075-3.358c-0.485-0.505-1.059-1.117-1.423-1.714
						c-0.437-0.717-0.574-1.511-1.206-2.12c-1.529-1.475-3.545-2.179-5.623-2.405c-1.718-0.188-3.411,0.281-4.751,1.36
						c1.137-0.916,3.405,0.029,4.437,0.671c1.714,1.067,3.02,2.48,4.215,4.106c1.387,1.886,3.577,5.231,2.063,7.607
						c-2.523,3.96-9.742,1.433-13.25,0.993c0.55,2.476,3.725,5.653,6.047,6.436c0.825,0.279,1.023,1.384,1.836,1.675
						C858.151,399.153,858.23,399.173,858.304,399.185z"/>
				</g>
				<g>
					<path fill="#FFA800" d="M834.618,416.504c3.872,1.116,2.144,7.135-1.734,6.017C829.012,421.405,830.74,415.386,834.618,416.504
						z"/>
				</g>
			</g>
		</g>
		<g>
			<g>
				<path fill="#23239C" d="M632.325,423.289c-24.861-12.437-45.563-33.47-57.124-61.059c-12.426-29.659-12.56-62.383-0.375-92.142
					s35.229-52.992,64.889-65.419c61.225-25.654,131.906,3.287,157.561,64.511v0c12.427,29.659,12.561,62.382,0.375,92.142
					c-12.185,29.759-35.229,52.992-64.888,65.419C699.127,440.836,662.635,438.452,632.325,423.289z M735.608,217.19
					c-27.758-13.886-61.168-16.068-91.973-3.161c-27.159,11.379-48.262,32.653-59.419,59.904
					c-11.158,27.251-11.035,57.216,0.344,84.375c23.492,56.066,88.215,82.564,144.281,59.075
					c56.064-23.491,82.566-88.216,59.074-144.281v0.001C777.332,247.842,758.371,228.578,735.608,217.19z"/>
				<path fill="#23239C" d="M755.888,487.263l-0.515,0.216c-6.088,2.551-13.154-0.344-15.705-6.431l-18.619-44.436
					c-2.55-6.087,0.344-13.154,6.431-15.705l0.515-0.216c6.087-2.55,13.154,0.343,15.705,6.431l18.618,44.436
					C764.868,477.645,761.975,484.713,755.888,487.263z"/>
				<path fill="#23239C" d="M828.936,662.676L828.936,662.676c-4.067,1.705-8.789-0.229-10.493-4.296l-73.722-175.945
					c-1.703-4.067,0.229-8.789,4.297-10.493l0,0c4.066-1.703,8.788,0.229,10.492,4.297l73.722,175.945
					C834.936,656.25,833.002,660.973,828.936,662.676z"/>
			</g>
			<path fill="#E1E1FF" d="M639.187,405.391c-19.247-9.628-33.908-23.758-43.801-42.27c-14.615-27.347-13.51-55.207-12.823-63.095
				c0.243-2.792,2.704-4.857,5.496-4.614c2.793,0.244,4.856,2.704,4.614,5.495c-0.626,7.183-1.634,32.552,11.661,57.432
				c14.445,27.026,40.492,43.75,77.423,49.708c2.76,0.444,4.646,3.051,4.2,5.817c-0.445,2.767-3.051,4.646-5.816,4.2
				C664.765,415.583,651.097,411.349,639.187,405.391z"/>
			<path fill="#E1E1FF" d="M594.091,277.193c-0.04-0.02-0.078-0.04-0.117-0.061c-2.474-1.317-3.41-4.39-2.094-6.863
				c4.876-9.157,11.554-18.237,20.416-27.758c1.909-2.051,5.12-2.163,7.171-0.257c2.052,1.909,2.166,5.12,0.258,7.171
				c-8.254,8.867-14.433,17.245-18.889,25.613C599.54,277.474,596.542,278.419,594.091,277.193z"/>
		</g>
		<g>
			<g>
				<path fill="#C0DFF4" d="M770.665,518.828c-1.2-1.702-3.154-2.343-5.024-3.022c-0.89-0.324-1.705-0.701-2.538-1.145
					c-0.918-0.489-1.758-1.28-2.715-1.665c-0.56-0.224-1.165-0.122-1.743-0.363c-0.617-0.259-1.333-0.674-1.194,0.435
					c0.103,0.826,1.076,1.173,1.711,1.495c0.641,0.324,1.675,0.641,2.08,1.266c-0.481,0.599-1.585,0.465-2.226,0.273
					c-0.887-0.264-1.755-0.912-2.503-1.437c-0.832-0.583-1.692-1.144-2.434-1.843c-0.361-0.34-0.802-1.385-1.408-1.309
					c-0.89,0.113-0.948,2.212-0.866,2.854c0.156,1.225,0.839,2.323,1.494,3.338c1.417,2.191,3.057,3.184,5.624,3.833
					C761.68,522.235,774.41,524.143,770.665,518.828z"/>
			</g>
			<g>
				<path fill="#0070D2" d="M769.794,517.566c0,0,39.996-14.184,48.423-27.658c10.432-16.682,10.441-22.962,13.883-33.832
					c3.93-12.418,25.135-15.851,26.557,1.728c1.912,23.664-16.576,63.216-87.165,65.878L769.794,517.566z"/>
			</g>
			<g>
				<path fill="#18146A" d="M771.31,524.172c0.063,0.023,0.131,0.035,0.201,0.033c41.456-1.564,62.733-15.876,73.284-27.606
					c14.289-15.889,14.817-32.447,14.382-38.83c-0.02-0.287-0.269-0.506-0.557-0.485c-0.288,0.02-0.505,0.269-0.485,0.557
					c0.428,6.249-0.094,22.469-14.116,38.061c-10.381,11.542-31.316,25.617-72.136,27.246l-1.586-5.72
					c-0.076-0.279-0.365-0.438-0.642-0.363c-0.278,0.077-0.44,0.364-0.363,0.642l1.696,6.117
					C771.034,523.987,771.156,524.115,771.31,524.172z"/>
			</g>
		</g>
	</g>
</g>
<g id="Ñëîé_7">
	<g>
		<path fill="#18146A" d="M534.508,580.362c0,0,1.668-11.355,11.285-7.563c13.788,5.438,8.883,34.157-18.675,41.457
			c0,0-20.451-40.635-2.471-42.91C533.598,570.213,534.508,580.362,534.508,580.362z"/>
		<g>
			<polygon fill="#DAEAF4" points="510.914,731.828 635.711,731.828 622.801,813.592 523.824,813.592 			"/>
			<g>
				<path fill="#FFAC00" d="M616.336,732.602c0,0,10.525-6.698,14.387,3.682c5.535,14.883-21.578,31.273-47.544,14.38
					c0,0,18.505-45.115,33.406-32.333C624.002,724.692,616.336,732.602,616.336,732.602z"/>
				<path fill="#23239C" d="M578.918,730.65c0,0,7.554-8.433,13.583-0.238c8.646,11.747-11.033,32.713-38.152,24.136
					c0,0,4.817-44.143,21.165-36.505C583.65,721.844,578.918,730.65,578.918,730.65z"/>
				<path fill="#18146A" d="M537.964,728.762c0,0-5.426-10.172-15.018-3.967c-13.751,8.897,0.739,34.436,33.911,33.664
					c0,0,10.199-43.694-10.666-40.861C535.806,719.007,537.964,728.762,537.964,728.762z"/>
				<path fill="#FFCB55" d="M541.844,756.97c0,0,3.759-10.836,14.047-6.066c14.75,6.839,4.466,34.166-27.999,38.136
					c0,0-16.526-41.764,4.247-41.938C542.479,747.014,541.844,756.97,541.844,756.97z"/>
				<path fill="#0087DC" d="M571.688,757.947c0,0-4.789-10.175-13.276-4.102c-12.168,8.707,0.62,34.258,29.955,33.834
					c0,0,9.061-43.354-9.394-40.752C569.788,748.222,571.688,757.947,571.688,757.947z"/>
				<path fill="#23239C" d="M608.581,760.281c0,0,6.579-8.205,14.875-1.288c11.895,9.916-5.45,30.387-36.994,24.79
					c0,0-3.71-40.208,15.808-34.608C611.984,751.962,608.581,760.281,608.581,760.281z"/>
				<path fill="#FFAC00" d="M541.227,786.885c0,0-7.168-9.029-15.18-1.235c-11.487,11.174,7.342,33.688,39.037,27.055
					c0,0,1.374-44.721-18.109-38.242C537.276,777.687,541.227,786.885,541.227,786.885z"/>
				<path fill="#FFCB55" d="M608.494,787.021c0,0,8.348-7.688,13.544,1.032c7.452,12.503-14.196,31.53-40.349,20.456
					c0,0,9.133-43.488,24.654-34.357C614.07,778.697,608.494,787.021,608.494,787.021z"/>
				<path fill="#18146A" d="M580.736,786.313c0,0,6.566-9.187,13.477-1.684c9.907,10.758-7.311,33.693-35.228,28.054
					c0,0-0.146-44.392,16.958-38.54C584.457,777.055,580.736,786.313,580.736,786.313z"/>
			</g>
			<g>
				<polygon opacity="0.68" fill="#DAEAF4" points="510.914,735.239 635.711,735.239 622.801,815.026 523.824,815.026 				"/>
				<g>
					<path fill="#1C1E78" d="M513.235,750.314c-0.345,0-0.65-0.25-0.706-0.602l-0.403-2.498c-0.064-0.393,0.202-0.76,0.593-0.822
						c0.396-0.073,0.761,0.201,0.822,0.593l0.403,2.497c0.064,0.393-0.202,0.76-0.593,0.822
						C513.313,750.313,513.273,750.314,513.235,750.314z"/>
					<path fill="#1C1E78" d="M590.59,815.743h-66.766c-0.352,0-0.651-0.255-0.707-0.603l-9.462-58.471
						c-0.064-0.391,0.202-0.759,0.593-0.822c0.381-0.068,0.761,0.201,0.822,0.593l9.364,57.868h66.155
						c0.396,0,0.718,0.321,0.718,0.718S590.986,815.743,590.59,815.743z"/>
					<path fill="#1C1E78" d="M622.801,815.743h-16.1c-0.396,0-0.717-0.32-0.717-0.717s0.32-0.718,0.717-0.718h15.489l12.677-78.353
						h-24.438c-0.396,0-0.717-0.32-0.717-0.717s0.32-0.718,0.717-0.718h25.282c0.21,0,0.41,0.093,0.547,0.253
						c0.136,0.159,0.194,0.372,0.16,0.58l-12.909,79.786C623.452,815.488,623.152,815.743,622.801,815.743z"/>
					<path fill="#1C1E78" d="M604.512,735.956h-3.048c-0.396,0-0.718-0.32-0.718-0.717s0.321-0.718,0.718-0.718h3.048
						c0.396,0,0.718,0.321,0.718,0.718S604.908,735.956,604.512,735.956z"/>
				</g>
			</g>
		</g>
		<g>
			<g>
				<path fill="#18146A" d="M460.817,807.536c0,0-0.459-3.524,0.559-6.44c1.172-3.36,6.801-5.713,15.473-3.969
					c10.807,2.174,22.452,12.305,22.452,12.305L460.817,807.536z"/>
				<g>
					<g>
						<path fill="#FFAC00" d="M526.73,673.305c8.507,12.87-53.625,123.865-53.625,123.865l-8.374-1.186
							c0,0,20.48-102.969,34.126-127.062C498.857,668.923,523.733,668.77,526.73,673.305z"/>
					</g>
					<g>
						<path fill="#FFAC00" d="M384.675,696.614c38.333-14.978,76.539-29.849,117.792-33.848c5.933-0.575,11.978,0.419,17.199,3.291
							c10.214,5.618,14.512,16.354-15.102,29.146c-24.747,14.036-47.132,27.052-74.792,37.234
							c-12.401,4.564-29.319,2.262-40.634-7.609C387.235,723.167,384.575,703.889,384.675,696.614z"/>
					</g>
				</g>
				<path fill="#FFCB53" d="M473.338,816.186c-11.187,11.853-140.33-25.295-140.33-25.295l-0.8-8.898
					c0,0,110.846-3.76,138.917,4.469C471.125,786.461,477.279,812.01,473.338,816.186z"/>
			</g>
			<g>
				<path fill="#FFCB53" d="M415.115,675.693c24.647,35.816,49.153,71.528,63.212,112.995c2.022,5.963,2.457,12.42,0.761,18.483
					c-3.316,11.86-13.322,18.869-33.618-8.506c-20.403-22.069-39.187-41.956-56.328-67.95c-7.685-11.654-9.395-29.611-1.97-43.629
					c1.25-2.358,3.536-6.806,4.964-9.331C399.672,676.034,407.608,677.344,415.115,675.693z"/>
			</g>
			<path fill="#0070D2" d="M441.305,583.727c-18.429-4.995-36.745,31.964-21.242,72.53c2.859,7.48,10.537,12.455,18.564,12.159
				c14.998-0.554,27.131-0.115,68.659-15.815l-5.397-8.362c0,0-32.837,3.87-54.301,2.762c-3.858-0.199-5.112-3.473-4.569-7.124
				C445.282,624.634,458.295,588.331,441.305,583.727z"/>
			<path opacity="0.67" fill="#0070D2" d="M441.305,583.727c-18.429-4.995-36.745,31.964-21.242,72.53
				c2.859,7.48,10.537,12.455,18.564,12.159c14.998-0.554,27.131-0.115,68.659-15.815l-5.397-8.362c0,0-32.837,3.87-54.301,2.762
				c-3.858-0.199-5.112-3.473-4.569-7.124C445.282,624.634,458.295,588.331,441.305,583.727z"/>
			<path fill="#0070D2" d="M446.962,569.965c-15.463-13.313-48.566,30.49-55.059,107.758c0,0,31.02,16.556,35.337,14.977
				C427.241,692.699,491.707,608.485,446.962,569.965z"/>
			<path fill="#B8D4F5" d="M510.254,606.815c2.654-3.999,5.414-9.39,5.836-14.958s10.01-8.564,7.461-5.957
				c-2.849,2.915,5.396,6.932,2.636,12.322c-2.76,5.392-5.414,9.391-12.638,11.643C506.325,612.118,510.254,606.815,510.254,606.815
				z"/>
			<path fill="#0070D2" d="M426.063,586.01c-18.01,4.524-13.599,41.555,17.848,71.127c5.799,5.453,14.6,6.224,21.337,1.984
				c12.587-7.92,23.168-13.515,51.674-48.451l-8.367-5.008c0,0-26.368,19.782-45.234,29.374c-3.392,1.724-5.931-0.661-7.104-4.28
				C451.324,615.647,442.668,581.84,426.063,586.01z"/>
			<path fill="#18146A" d="M455.832,662.52c-4.499,0-8.95-1.658-12.385-4.889c-16.205-15.24-26.834-34.043-28.435-50.297
				c-0.037-0.372,0.235-0.703,0.608-0.74c0.357-0.043,0.702,0.234,0.74,0.607c1.569,15.938,12.042,34.422,28.015,49.443
				c5.554,5.223,13.988,6.007,20.512,1.903l2.094-1.312c11.537-7.204,22.437-14.009,48.921-46.388l-7.694-4.606
				c-0.321-0.191-0.426-0.606-0.234-0.928c0.193-0.321,0.608-0.424,0.929-0.233l8.367,5.008c0.17,0.102,0.286,0.271,0.319,0.464
				c0.034,0.194-0.019,0.393-0.143,0.545c-26.985,33.074-38.042,39.977-49.749,47.288l-2.09,1.309
				C462.594,661.591,459.2,662.52,455.832,662.52z"/>
			<path fill="#18146A" d="M329.74,781.185c0,0,3.388-0.257,6.119,0.864c3.146,1.291,3.561,6.222,1.45,14.41
				c-2.629,10.203-11.354,21.361-11.354,21.361L329.74,781.185z"/>
			<g>
				<g>
					<path fill="#C0DFF4" d="M456.3,569.77c-1.413,1.172-4.205,10.077-5.688,13.699c-2.4,5.859-9.628-8.925-7.716-13.678
						c2.379-5.939,5.434-12.031,6.433-13.985c0.225-0.409,0.339-0.642,0.339-0.642s2.996,3.887,5.104,7.707
						C456.419,565.836,457.538,568.753,456.3,569.77z"/>
					<path fill="#B7D5F4" d="M456.547,568.585c-1.373,1.583-4.281,9.245-5.273,13.821c-1.809,0.585-1.387-6.408-3.896-9.158
						c-1.871-2.051-2.891-4.242-3.326-6.428c3.627-7.881,6.938-14.949,7.859-17.396l1.231,13.93
						C454.938,566.616,457.751,567.211,456.547,568.585z"/>
					<path fill="#C0DFF4" d="M475.463,535.051c5.152,0.482,8.657,9.82-0.59,29.847c-6.059,13.122-14.212,14.49-24.65,2.917
						c-4.606-5.107-3.79-8.943-2.733-15.091C449.174,542.926,460.442,533.644,475.463,535.051z"/>
				</g>
				<g>
					<path fill="#1C1E78" d="M483.934,548.487c-4.823,2.313-11.281-1.839-14.726-3.732c-3.457-1.897-7.032,8.64-7.032,8.64
						s-2.104-6.507-6.62-4.986c-1.251,0.424-2.21,1.427-2.796,2.606c-1.083,2.208-1.904,6.072,3.704,8.49l-8.668,5.413
						c-0.293,0.057-0.56,0.016-0.792-0.078c-1.893-0.726-1.809-5.469-1.809-5.469c-13.166-11.522-0.773-43.879,16.471-42.637
						c14.202,1.023,9.29,9.36,19.716,10.678C493.117,528.896,492.477,544.387,483.934,548.487z"/>
					<path opacity="0.18" fill="#1C1E78" d="M447.004,564.84c-1.893-0.726-1.809-5.469-1.809-5.469
						c-13.166-11.522-0.773-43.879,16.471-42.637c0.627,15.943-12.299,10.674-10.999,20.855
						C451.785,546.336,450.806,555.445,447.004,564.84z"/>
					<path fill="#1C1E78" d="M465.642,520.117l-6.394-0.375c0.184-2.354-1.123-4.43-3.171-4.871
						c-18.771-4.008-6.148,56.381-32.285,76.678c-4.332,3.367-8.658,5.02-12.727,5.368c-19.22,1.673-32.481-25.689-11.1-39.372
						c18.371-11.745,21.882-17.053,27.114-35.817c5.069-18.196,23.527-24.786,33.972-18.58c0.338,0.199,0.659,0.406,0.963,0.622
						C472.245,511.004,465.642,520.117,465.642,520.117z"/>
					<path fill="#FFA800" d="M459.493,515.902c0.056,0.479,0.049,1.211-0.32,1.918c-0.131,0.252,0.033,0.555,0.317,0.564
						l6.836,0.232c0.142,0.005,0.271-0.06,0.342-0.184c0.197-0.347,0.615-1.225,1.091-3.08c0.074-0.287-0.197-0.551-0.48-0.462
						c-1.317,0.411-4.43,1.206-7.32,0.609C459.702,515.448,459.463,515.643,459.493,515.902z"/>
					<path opacity="0.18" fill="#1C1E78" d="M411.065,596.917c-19.22,1.673-32.481-25.689-11.1-39.372
						c18.371-11.745,21.882-17.053,27.114-35.817c5.069-18.196,23.527-24.786,33.972-18.58
						c-34.667-3.681-23.115,36.508-34.158,52.657C416.447,571.113,399.558,577.23,411.065,596.917z"/>
				</g>
			</g>
			<g>
				<path fill="#1C1E79" d="M427.335,695c-0.2,0-0.405-0.041-0.598-0.131l-35.482-16.238c-0.726-0.331-1.043-1.188-0.711-1.911
					c0.331-0.726,1.188-1.05,1.911-0.712l35.481,16.238c0.726,0.331,1.044,1.187,0.711,1.911
					C428.405,694.688,427.883,695,427.335,695z"/>
			</g>
		</g>
		<g>
			<path fill="#18146A" d="M535.651,625.565l-36.766,31.999c-0.398,0.543-0.519,1.229-0.339,1.908l4.369,18.655
				c0.443,2.229,3.33,2.6,4.601,0.642l40.762-37.024c0.888-0.498,1.209-1.265,0.833-2.021l-6.75-12.494
				C541.319,625.438,537.567,624.49,535.651,625.565z"/>
			<path fill="#FFFFFF" d="M533.548,629.255l-28.937,26.463c-0.312,0.378-0.432,0.851-0.336,1.306l2.778,13.625
				c0.225,1.408,2.11,1.604,3.044,0.338l30.413-28.223c1.67-1.077,2.301-2.622,1.605-4.05l-4.5-8.689
				C537.013,628.919,534.78,628.489,533.548,629.255z"/>
			<path fill="#DAEAF4" d="M504.248,663.588c-1.238-2.642-4.241-0.566-3.677,1.488C501.427,668.299,505.498,666.331,504.248,663.588
				z"/>
			<g>
				<path fill="#18146A" d="M536.018,643.087c-0.256,0-0.501-0.146-0.614-0.392l-4.333-9.354c-0.158-0.339-0.01-0.741,0.33-0.898
					c0.341-0.158,0.743-0.008,0.897,0.33l4.333,9.353c0.156,0.339,0.01,0.741-0.33,0.898
					C536.209,643.067,536.112,643.087,536.018,643.087z"/>
				<path fill="#18146A" d="M532.732,646.566c-0.255,0-0.5-0.146-0.614-0.392l-4.331-9.354c-0.157-0.339-0.01-0.741,0.329-0.897
					c0.341-0.158,0.742-0.009,0.898,0.328l4.331,9.354c0.156,0.34,0.01,0.741-0.329,0.898
					C532.924,646.547,532.827,646.566,532.732,646.566z"/>
				<path fill="#18146A" d="M529.448,650.047c-0.255,0-0.5-0.146-0.613-0.393l-4.333-9.354c-0.156-0.339-0.01-0.741,0.329-0.897
					c0.342-0.16,0.743-0.011,0.898,0.329l4.333,9.354c0.158,0.339,0.01,0.74-0.33,0.897
					C529.641,650.027,529.544,650.047,529.448,650.047z"/>
				<path fill="#18146A" d="M524.035,650.203c-0.26,0-0.51-0.152-0.62-0.407l-2.901-6.687c-0.148-0.342,0.009-0.74,0.352-0.89
					c0.34-0.149,0.74,0.009,0.89,0.353l2.901,6.686c0.148,0.342-0.009,0.741-0.352,0.89
					C524.218,650.186,524.125,650.203,524.035,650.203z"/>
			</g>
		</g>
		<path fill="#B8D4F5" d="M512.757,649.621c0.885,0.008,1.506-0.83,1.261-1.681c-0.846-2.93,3.494-6.344,6.467-9.57
			c2.695-2.927-4.486-2.011-6.271-0.746c-4.465,3.167-14.687,7.194-13.177,12.567C501.902,653.272,508.125,649.579,512.757,649.621z
			"/>
	</g>
	<g>
		<g>
			<path fill="#006ED2" d="M4.432,262.136c0-38.611,31.412-70.023,70.023-70.023c38.612,0,70.024,31.413,70.024,70.023
				c0,38.611-31.412,70.024-70.024,70.024C35.844,332.16,4.432,300.747,4.432,262.136z M7.963,262.136
				c0,36.665,29.828,66.493,66.493,66.493s66.493-29.829,66.493-66.493c0-36.664-29.829-66.493-66.493-66.493
				S7.963,225.472,7.963,262.136z"/>
			<g>
				<path fill="#0070D2" d="M45.646,247.014c0.065,0,0.241,0.011,0.305,0.012c0.064-0.001,0.24-0.026,0.305-0.026H64.72h8.29h11.681
					h18.464c0.064,0,0.125,0.024,0.188,0.026c0.064-0.001,0.275-0.016,0.34-0.016c4.559,0,8.44,3.734,8.44,8.293v55.768
					c0,4.56-2.44,8.29-7,8.29s-7-3.73-7-8.29V264h-4v47.071c0,4.56-4.873,6.929-9.432,6.929H64.72c-4.56,0-6.597-2.369-6.597-6.929
					V264h-2v47.071c0,4.56-4.94,8.29-9.5,8.29s-9.5-3.73-9.5-8.29v-55.768C37.123,250.744,41.087,247.014,45.646,247.014z"/>
				<circle fill="#0070D2" cx="73.01" cy="229.304" r="17.71"/>
			</g>
		</g>
		<g>
			<g>
				<path fill="#006ED2" d="M275.296,292.972c0-44.798,36.446-81.244,81.244-81.244s81.244,36.446,81.244,81.244
					s-36.445,81.244-81.244,81.244S275.296,337.77,275.296,292.972z M279.393,292.972c0,42.539,34.608,77.147,77.147,77.147
					c42.539,0,77.147-34.608,77.147-77.147c0-42.54-34.608-77.147-77.147-77.147C314,215.824,279.393,250.432,279.393,292.972z"/>
				<g>
					<path fill="#00578C" d="M345.512,244.848c0.043,0,0.026,0.087,0.069,0.088c0.042-0.001,0.026,0.063,0.069,0.063h12.252h5.501
						h7.751h12.252c0.043,0,0.083-0.064,0.125-0.063c0.042-0.001,1.064-0.051,1.107-0.051c3.025,0,6.483,2.438,6.483,5.463v37.006
						c0,3.025-2.475,5.501-5.5,5.501s-5.5-2.476-5.5-5.501V257h-2v30.355c0,3.025-3.943,5.645-6.968,5.645h-13.252
						c-3.025,0-3.779-2.619-3.779-5.645V257h-2v30.355c0,3.025-2.975,5.501-6,5.501s-6-2.476-6-5.501v-37.006
						C340.123,247.323,342.486,244.848,345.512,244.848z"/>
					<circle fill="#00578C" cx="363.404" cy="234.869" r="11.752"/>
				</g>
				<g>
					<path fill="#0070D2" d="M306.953,269.669c0.043,0,0.247,0.177,0.29,0.178c0.042-0.001,0.247,0.153,0.29,0.153h12.252h5.501
						h7.751h12.252c0.043,0,0.083-0.154,0.125-0.153c0.043-0.001,0.624-0.095,0.667-0.095c3.025,0,6.042,2.393,6.042,5.418v37.007
						c0,3.025-1.475,5.501-4.5,5.501s-4.5-2.476-4.5-5.501V282h-3v30.177c0,3.025-4.061,5.823-7.086,5.823h-13.252
						c-3.025,0-3.662-2.798-3.662-5.823V282h-2v30.177c0,3.025-3.475,5.501-6.5,5.501s-6.5-2.476-6.5-5.501V275.17
						C301.123,272.145,303.928,269.669,306.953,269.669z"/>
					<circle fill="#0070D2" cx="325.286" cy="257.917" r="11.752"/>
				</g>
				<g>
					<path fill="#0070D2" d="M372.309,282.079c0.043,0-0.075-0.027-0.033-0.026c0.043-0.001-0.075-0.053-0.032-0.053h12.252h5.501
						h7.751h12.252c0.043,0,0.083,0.052,0.125,0.053c0.042-0.001,0.268,0.007,0.311,0.007c3.025,0,5.687,2.495,5.687,5.521v37.007
						c0,3.025-1.475,5.501-4.5,5.501s-4.5-2.476-4.5-5.501V294h-3v30.587c0,3.025-3.349,5.413-6.375,5.413h-13.252
						c-3.025,0-4.373-2.388-4.373-5.413V294h-1v30.587c0,3.025-2.975,5.501-6,5.501s-6-2.476-6-5.501V287.58
						C367.123,284.555,369.283,282.079,372.309,282.079z"/>
					<circle fill="#0070D2" cx="389.997" cy="270.327" r="11.752"/>
				</g>
			</g>
			<g>
				<path fill="#00578C" d="M326.204,304.241c0.043,0,0.373-0.109,0.415-0.108c0.043-0.001,0.373-0.133,0.416-0.133h12.252h5.501
					h7.751h12.252c0.043,0,0.083,0.132,0.125,0.133c0.042-0.001,0.373,0.048,0.415,0.048c3.026,0,5.792,2.536,5.792,5.562v37.006
					c0,3.026-1.975,5.501-5,5.501s-5-2.475-5-5.501V316h-2v30.749c0,3.026-3.559,6.251-6.584,6.251h-13.252
					c-3.026,0-5.164-3.226-5.164-6.251V316h-1v30.749c0,3.026-3.475,5.501-6.5,5.501s-6.5-2.475-6.5-5.501v-37.006
					C320.123,306.716,323.179,304.241,326.204,304.241z"/>
				<circle fill="#00578C" cx="344.788" cy="294.262" r="11.752"/>
			</g>
		</g>
		<g>
			<g>
				<path fill="#DBECFF" d="M303.146,395.872c0.092-0.592,0.292-1.324,0.539-2.244c1.066-3.967,0.58-8.157,3.238-11.593
					c1.551-2.004,3.496-3.407,5.543-4.824c0.497-0.344,4.522-5.031,4.278-5.099c1.734,0.485,0.27,3.682-0.183,4.651
					c-0.433,0.927-1.032,1.67-1.665,2.466c-0.207,0.26-1.162,2.068-1.319,2.112c0.473-0.132,0.858-0.668,1.289-0.991
					c3.834-2.868,8.737-4.265,13.214-5.884c1.956-0.707,3.897,0.254,5.885,0.255c2.555,0.001,7.251-0.506,4.077,3.258
					c-1.952,2.315-6.307,3.924-9.019,5.116c-1.876,0.824-3.519,1.112-5.261,2.302c-3.906,2.669-7.041,6.28-10.36,9.614
					c-2.83,2.841-2.184,4.441-6.758,3.659C303.533,398.139,302.876,397.604,303.146,395.872z"/>
				<g>
					<path fill="#FFCB53" d="M237.436,379.563c9.31-7.274,24.517,33.71,38.307,39.839c12.982,5.77,20.941-13.037,27.112-27.658
						l9.293,4.442c0,0-4.53,54.108-30.276,59.991S214.836,397.222,237.436,379.563z"/>
				</g>
				<g>
					<path fill="#FFCB53" d="M237.436,379.563c9.31-7.274,24.517,33.71,38.307,39.839c12.982,5.77,20.941-13.037,27.112-27.658
						l9.293,4.442c0,0-4.53,54.108-30.276,59.991S214.836,397.222,237.436,379.563z"/>
				</g>
			</g>
			<g>
				<path fill="#FFCB55" d="M239.165,498.68l-40.779,2.313c-7.39-39.212-25.468-75.868-11.307-118.187
					c6.594-19.705,33.194-25.497,44.619-14.778C268.455,402.513,239.165,498.68,239.165,498.68z"/>
			</g>
			<g>
				<path fill="#E8A200" d="M198.384,502.34c0.026,0,0.051-0.001,0.078-0.002l40.778-2.313c0.565-0.032,1.048-0.412,1.214-0.953
					c0.097-0.32,9.774-32.436,10.989-65.856c0.028-0.744-0.554-1.369-1.297-1.396c-0.682-0.028-1.368,0.554-1.395,1.298
					c-1.09,29.952-9.053,58.863-10.612,64.27l-39.83,2.259c-0.744,0.042-1.311,0.679-1.269,1.422
					C197.081,501.785,197.675,502.34,198.384,502.34z"/>
			</g>
			<path fill="#0070D2" d="M264.305,613.226c-1.713,23.503-21.418,135.652-19.705,156.962h9.799c0,0,49.66-137.871,43.663-156.186
				C292.065,595.687,264.305,613.226,264.305,613.226z"/>
			<path fill="#0070D2" d="M239.165,498.68c0,0,52.126,78.625,58.552,113.215c6.425,34.59-31.556,10.348-41.836-2.364
				c-11.444-14.151-39.552-52.061-43.407-64.315C208.618,532.959,239.165,498.68,239.165,498.68z"/>
			<g>
				<path fill="#0070D2" d="M239.165,498.68c0,0-2.801,66.96-17.431,144.896c-5.217,27.791-20.799,125.709-20.799,125.709
					l-10.952,0.149c0,0-8.197-172.372-7.293-219.035c0.762-39.295,15.696-49.406,15.696-49.406L239.165,498.68z"/>
				<path fill="#1C1E79" d="M200.936,770.64c0.656,0,1.231-0.476,1.337-1.143c0.155-0.979,15.638-98.217,20.792-125.672
					c7.572-40.338,11.917-77.675,14.229-101.895c0.071-0.745-0.475-1.407-1.22-1.479c-0.733-0.065-1.407,0.476-1.479,1.221
					c-2.306,24.163-6.641,61.415-14.194,101.652c-5.16,27.491-20.648,124.767-20.805,125.746c-0.117,0.739,0.387,1.433,1.125,1.552
					C200.794,770.635,200.866,770.64,200.936,770.64z"/>
				<path fill="#1C1E78" d="M189.618,777.244c0,0-0.913-6.941,1.194-10.165c2.107-3.223,31.143,2.698,37.03,9.646L189.618,777.244z"
					/>
			</g>
			<g>
				<path fill="#1C1E79" d="M198.384,502.347c0.026,0,0.051-0.001,0.078-0.002l40.778-2.313c0.748-0.042,1.319-0.683,1.277-1.43
					s-0.68-1.314-1.429-1.276l-40.779,2.313c-0.748,0.043-1.319,0.683-1.276,1.431C197.073,501.789,197.671,502.347,198.384,502.347
					z"/>
				<g>
					<path fill="#1C1E79" d="M244.599,771.543c0.037,0,0.072-0.002,0.11-0.006c0.745-0.059,1.302-0.713,1.241-1.459
						c-1.053-13.102,6.092-60.743,11.833-99.025c3.465-23.108,6.478-43.189,7.288-52.653c3.202-0.431,8.644-1.485,9.854-3.762
						c0.352-0.661,0.1-1.48-0.561-1.832c-0.664-0.352-1.482-0.099-1.832,0.561c-0.474,0.831-4.704,2.011-8.875,2.476
						c-0.649,0.072-1.154,0.597-1.202,1.248c-0.644,8.829-3.752,29.559-7.352,53.562c-6.062,40.419-12.934,86.232-11.854,99.645
						C243.306,771.004,243.899,771.543,244.599,771.543z"/>
					<path fill="#1C1E79" d="M271.36,621.122c0.73,0,1.332-0.582,1.353-1.315c0.021-0.75-0.567-1.372-1.315-1.395
						c-2.202-0.065-5.659-0.713-6.449-1.953c-0.401-0.631-1.239-0.818-1.872-0.413c-0.63,0.402-0.816,1.239-0.414,1.871
						c1.831,2.869,7.532,3.172,8.656,3.204C271.334,621.121,271.347,621.122,271.36,621.122z"/>
				</g>
			</g>
			<path fill="#DBECFF" d="M103.182,343.509c-0.091-0.198-0.181-0.382-0.266-0.545c-1.098-2.127-2.95-3.226-4.845-4.534
				c-1.649-1.138-3.235-2.464-5.229-2.968c-1.143-0.289-2.213,0.106-3.375,0.115c-2.627,0.02-5.712-0.161-7.748-2.042
				c-1.937-1.793-2.392-7.855-5.712-4.874c-1.582,1.42-2.247,4.738-1.479,6.622c1.225,3.008,3.874,5.951,6.81,7.341
				c2.8,1.325,6.137,2.717,9.274,1.81c3.688-1.068,5.752,1.66,8.586,3.526c1.247,0.82,2.539,2.17,3.986,1.136
				C104.813,347.933,103.948,345.176,103.182,343.509z"/>
			<g>
				<path fill="#FFCB53" d="M95.532,346.594c-0.04,0.732,6.913,32.136,12.919,44.104c4.413,8.794,16.053,12.655,24.989,14.688
					c13.267,3.016,29.027,3.867,42.456,2.105c12.162-1.596,45.302-8.966,38.217-28.04c-3.535-9.515-16.997-10.292-25.444-10.211
					c-14.042,0.135-27.843,3.897-41.398,7.228c-6.413,1.577-11.952,7.157-17.461,1.856c-5.788-5.569-19.975-31.529-21.692-39.075
					c-3.21,0.3-8.904,2.387-11.149,4.993C95.939,345.435,95.564,345.983,95.532,346.594z"/>
			</g>
			<path fill="#1C1E78" d="M243.592,777.429c0,0-0.913-6.942,1.193-10.165c2.107-3.223,31.143,2.697,37.03,9.645L243.592,777.429z"
				/>
		</g>
		<g>
			<g>
				<path fill="#DBECFF" d="M218.178,350.66c-0.588,1.719,0.051,5.982,0.852,9.806c0.784,3.805,2.206,9.551,2.206,9.551
					c-1.85,4.01-14.285-0.745-14.285-0.745c-0.267-3.269,1.205-6.876,0.547-11.959c-0.83-6.345-1.19-13.156-1.291-15.352
					c-0.008-0.467-0.023-0.726-0.023-0.726s4.173,1.899,7.609,4.179C216.468,347.179,218.699,349.164,218.178,350.66z"/>
				<path fill="#88BBED" d="M218.178,350.66c-0.588,1.719,0.051,5.982,0.852,9.806c-1.312,1.136-3.347,1.507-6.439,0.403
					c-2.306-0.823-3.946-2.079-5.093-3.556c-0.83-6.345-1.19-13.156-1.291-15.352l7.585,3.453
					C216.468,347.179,218.699,349.164,218.178,350.66z"/>
				<path fill="#BED9FA" d="M220.12,314.431c-6.806,1.687-13.02,8.108-14.037,18.082c-4.684-1.407-9.212,4.649-1.569,8.973
					c0.863,0.488,1.627,0.668,2.291,0.611c1.758,6.404,6.009,11.416,11.208,10.685c12.191-1.717,14.516-10.784,13.256-21.203
					C229.959,320.739,228.29,312.406,220.12,314.431z"/>
			</g>
			<path fill="#1C1E78" d="M197.55,327.358c-2.621-4.571-0.681-11.55,4.363-13.677c-3.803-3.503-4.252-10.419,2.286-13.622
				c3.544-1.736,6.741-1.196,9.017,0.472c0.253-1.428,0.305-2.833,0.088-4.126c-1.072-6.384,14.925-16.728,25.451-10.304
				c12.235,7.467,5.082,22.251-3.212,28.23s-19.522,0.917-26.645,13.845c-0.995,1.806-1.128,5.054-1.239,5.395
				c-2.369-1.711-5.256-1.265-6.435,1.525c-1.433,3.394,2.744,6.662,4.818,6.947c1.319,0.181-0.544,1.351,0.196,1.311
				C195.745,346.538,200.381,332.296,197.55,327.358z"/>
			<path fill="#1C1E78" d="M232.028,339.329c0,0-2.839-4.232-6.334-2.938c-3.495,1.295-3.517,6.722-8.409,7.065
				c-3.921,0.275-9.122-1.169-9.626-9.886c0,0,0.833,7.771-1.452,8.391c-2.285,0.621,3.379,13.244,13.699,11.061
				C230.461,350.788,231.956,345.374,232.028,339.329z"/>
		</g>
	</g>
	<g>
		<path fill="#FFCB53" d="M56.693,688.836c24.208,17.637,44.958,13.988,30.433,43.788c-14.525,29.801,11.758,45.82,11.758,45.82
			h68.475c7.608-10.546,26.975-60.416-17.292-73.796c-40.67-12.285-6.917-50.479-36.658-65.075
			c-29.741-14.596-31.816-5.474-46.341-32.233c-9.337-17.199-23.254-17.064-31.83-11.701c-1.536,0.961-2.905,2.093-4.04,3.321
			c-2.393,2.578-3.763,5.583-3.583,8.38c0.72,11.556,9.02,26.152,27.694,30.409C75.077,642.262,32.485,671.199,56.693,688.836z"/>
		<path fill="#FC9B00" d="M122.092,781.035H89.201c-0.36,0-8.878-0.081-14.488-7.104c-4.798-6.008-5.883-15.003-3.225-26.735
			c3.885-17.145-2.97-20.03-15.417-25.269c-6.905-2.906-15.498-6.523-23.721-13.599c-7.368-6.34-11.774-15.847-12.089-26.085
			c-0.231-7.532,1.835-14.175,5.528-17.769c0.806-0.785,3.257-3.175,6.348-2.609c3.705,0.677,5.682,4.905,8.419,10.756
			c5.527,11.82,13.881,29.682,40.615,32.488c15.193,1.595,19.261,11.396,22.85,20.045c2.239,5.395,4.353,10.489,8.878,13.916
			c7.251,5.491,16.045,14.242,16.768,24.757c0.411,5.98-1.882,11.514-6.816,16.448L122.092,781.035z M31.191,666.969
			c-0.127,0-0.724,0.195-1.782,1.225c-2.588,2.519-4.142,7.971-3.96,13.891c0.27,8.786,4.019,16.919,10.286,22.311
			c7.605,6.543,15.438,9.841,22.35,12.75c12.508,5.264,23.311,9.812,18.464,31.197c-2.293,10.117-1.546,17.637,2.218,22.351
			c4.069,5.095,10.371,5.153,10.434,5.153h30.711c3.323-3.617,4.863-7.537,4.58-11.663c-0.459-6.685-5.688-14.134-14.724-20.976
			c-5.646-4.275-8.133-10.27-10.538-16.064c-3.474-8.37-6.474-15.6-18.6-16.873c-29.65-3.113-39.117-23.354-44.773-35.449
			c-1.426-3.049-3.58-7.655-4.652-7.851C31.201,666.969,31.197,666.969,31.191,666.969z"/>
		<path fill="#FFFFFF" d="M31.198,598.96c10.644,5.749,33.988,31.187,56.882,59.808c24.637,30.785,55.665,75.024,59.663,119.677
			h5.561c-3.998-45.905-35.607-91.153-60.755-122.56c-22.991-28.718-44.712-53.406-57.311-60.246
			C33.702,596.6,32.333,597.731,31.198,598.96z"/>
	</g>
</g>
</svg>
