<?xml version="1.0" encoding="utf-8"?>
<!-- Generator: Adobe Illustrator 16.0.0, SVG Export Plug-In . SVG Version: 6.00 Build 0)  -->
<!DOCTYPE svg PUBLIC "-//W3C//DTD SVG 1.1//EN" "http://www.w3.org/Graphics/SVG/1.1/DTD/svg11.dtd">
<svg version="1.1" id="Layer_1" xmlns="http://www.w3.org/2000/svg" xmlns:xlink="http://www.w3.org/1999/xlink" x="0px" y="0px"
	 width="803.437px" height="535px" viewBox="0 0 803.437 535" enable-background="new 0 0 803.437 535" xml:space="preserve">
<g>
	<g>
		<g>
			<rect x="201.292" y="36.742" fill="#DAE2F2" width="249.241" height="343.194"/>
		</g>
	</g>
	<g>
		<g>
			<rect x="207.125" y="46.934" fill="#EAF0FE" width="232.576" height="30.256"/>
		</g>
	</g>
	<g>
		<g>
			<rect x="210.464" y="92.343" fill="#EAF0FE" width="88.362" height="273.062"/>
		</g>
	</g>
	<g>
		<g>
			<rect x="217.97" y="269.41" fill="#DAE2F2" width="69.178" height="79.329"/>
		</g>
	</g>
	<g>
		<g>
			<rect x="217.97" y="113.07" fill="#DAE2F2" width="69.178" height="11.195"/>
		</g>
	</g>
	<g>
		<g>
			<rect x="217.97" y="138.288" fill="#DAE2F2" width="69.178" height="11.211"/>
		</g>
	</g>
	<g>
		<g>
			<rect x="217.97" y="168.55" fill="#DAE2F2" width="69.178" height="11.205"/>
		</g>
	</g>
	<g>
		<g>
			<rect x="217.97" y="193.762" fill="#DAE2F2" width="69.178" height="11.217"/>
		</g>
	</g>
	<g>
		<g>
			<rect x="323.83" y="92.343" fill="#EAF0FE" width="115.871" height="13.439"/>
		</g>
	</g>
	<g>
		<g>
			<rect x="323.83" y="117.533" fill="#EAF0FE" width="115.871" height="13.461"/>
		</g>
	</g>
	<g>
		<g>
			<rect x="323.83" y="147.801" fill="#EAF0FE" width="115.871" height="13.465"/>
		</g>
	</g>
	<g>
		<g>
			<rect x="323.83" y="179.755" fill="#EAF0FE" width="115.871" height="177.747"/>
		</g>
	</g>
	<g>
		<g>
			<rect x="333.841" y="199.364" fill="#DAE2F2" width="98.362" height="79.963"/>
		</g>
	</g>
	<g>
		<g>
			<rect x="210.464" y="54.5" fill="#DAE2F2" width="126.287" height="14.304"/>
		</g>
	</g>
	<g>
		<g>
			<rect x="385.105" y="54.5" fill="#DAE2F2" width="50.001" height="14.304"/>
		</g>
	</g>
</g>
<g>
	<rect x="4.52" y="304.028" fill="#DEF3F9" width="46.529" height="221.972"/>
	<rect x="60.872" y="362.652" fill="#DEF3F9" width="51.282" height="163.348"/>
	<rect x="126.736" y="337.541" fill="#DEF3F9" width="46.58" height="188.459"/>
	<rect x="183.131" y="415.014" fill="#DEF3F9" width="51.264" height="110.986"/>
</g>
<g>
	<g>
		<path fill="#DAE2F2" d="M659.25,245.205c-50.842,13.427-81.173,65.495-67.739,116.336c13.413,50.828,65.492,81.153,116.319,67.732
			c50.821-13.42,81.172-65.511,67.739-116.326C762.143,262.107,710.058,231.791,659.25,245.205z M696.322,385.629
			c-26.732,7.059-54.123-8.881-61.192-35.614c-7.059-26.727,8.9-54.123,35.633-61.181c26.734-7.07,54.118,8.901,61.181,35.621
			C738.982,351.189,723.056,378.572,696.322,385.629z"/>
	</g>
	<g>
		<path fill="#DAE2F2" d="M686.273,260.942L644.8,271.895c0,0-15.845-31.199-10.618-40.176c5.398-9.283,32.838-17.299,41.474-10.955
			C684.045,226.906,686.273,260.942,686.273,260.942z"/>
	</g>
	<g>
		<path fill="#DAE2F2" d="M719.938,404.213l-41.473,10.959c0,0,1.622,34.946,10.605,40.191c9.26,5.391,37.085-1.168,41.479-10.965
			C734.791,434.917,719.938,404.213,719.938,404.213z"/>
	</g>
	<g>
		<path fill="#DAE2F2" d="M628.382,281.891l-16.709,39.51c0,0-34.372-6.559-38.286-16.191c-4.033-9.937,6.407-36.546,16.716-39.503
			C600.076,262.839,628.382,281.891,628.382,281.891z"/>
	</g>
	<g>
		<path fill="#DAE2F2" d="M610.315,340.167l4.039,42.71c0,0-33.367,10.542-41.377,3.914c-8.276-6.83-11.716-35.211-4.035-42.711
			C576.379,336.821,610.315,340.167,610.315,340.167z"/>
	</g>
	<g>
		<path fill="#DAE2F2" d="M760.18,341.884l-9.255-41.89c0,0,31.834-14.568,40.577-8.976c9.046,5.769,15.951,33.519,9.261,41.907
			C794.279,341.025,760.18,341.884,760.18,341.884z"/>
	</g>
	<g>
		<path fill="#DAE2F2" d="M703.001,260.8l34.056,26.115c0,0,26.652-22.671,25.294-32.977c-1.4-10.646-23.608-28.636-34.03-26.121
			C718.22,230.257,703.001,260.8,703.001,260.8z"/>
	</g>
	<g>
		<path fill="#DAE2F2" d="M657.603,417.583l-34.024-26.121c0,0-26.677,22.675-25.313,32.977
			c1.408,10.63,23.614,28.627,34.043,26.108C642.42,448.116,657.603,417.583,657.603,417.583z"/>
	</g>
	<g>
		<path fill="#DAE2F2" d="M740.712,397.017l16.696-39.503c0,0,34.384,6.547,38.285,16.186c4.034,9.936-6.4,36.549-16.715,39.516
			C768.984,416.08,740.712,397.017,740.712,397.017z"/>
	</g>
</g>
<g>
	<g>
		<g>
			<path fill="#C8EEFB" d="M632.213,119.133c-24.587,6.492-39.264,31.688-32.769,56.282c6.49,24.596,31.701,39.276,56.288,32.784
				c24.588-6.499,39.271-31.701,32.775-56.292C682.019,127.311,656.813,112.638,632.213,119.133z M650.166,187.077
				c-12.941,3.416-26.184-4.299-29.606-17.229c-3.421-12.935,4.3-26.187,17.246-29.605c12.928-3.418,26.172,4.308,29.594,17.236
				C670.813,170.412,663.087,183.662,650.166,187.077z"/>
		</g>
		<g>
			<path fill="#C8EEFB" d="M645.293,126.746l-20.074,5.299c0,0-7.65-15.093-5.126-19.443c2.607-4.488,15.89-8.367,20.081-5.296
				C644.231,110.277,645.293,126.746,645.293,126.746z"/>
		</g>
		<g>
			<path fill="#C8EEFB" d="M661.592,196.072l-20.074,5.299c0,0,0.782,16.911,5.133,19.446c4.493,2.607,17.952-0.565,20.079-5.302
				C668.794,210.929,661.592,196.072,661.592,196.072z"/>
		</g>
		<g>
			<path fill="#C8EEFB" d="M617.284,136.877l-8.08,19.12c0,0-16.627-3.168-18.521-7.834c-1.957-4.807,3.086-17.684,8.079-19.114
				C603.6,127.661,617.284,136.877,617.284,136.877z"/>
		</g>
		<g>
			<path fill="#C8EEFB" d="M608.548,165.078l1.957,20.67c0,0-16.16,5.101-20.017,1.896c-4.002-3.314-5.67-17.043-1.958-20.676
				C592.129,163.462,608.548,165.078,608.548,165.078z"/>
		</g>
		<g>
			<path fill="#C8EEFB" d="M681.072,165.908l-4.482-20.266c0,0,15.396-7.044,19.632-4.346c4.374,2.793,7.714,16.223,4.476,20.279
				C697.56,165.501,681.072,165.908,681.072,165.908z"/>
		</g>
		<g>
			<path fill="#C8EEFB" d="M653.392,126.676l16.481,12.631c0,0,12.89-10.965,12.234-15.952c-0.676-5.151-11.414-13.856-16.47-12.641
				C660.759,111.896,653.392,126.676,653.392,126.676z"/>
		</g>
		<g>
			<path fill="#C8EEFB" d="M631.43,202.536l-16.476-12.634c0,0-12.902,10.971-12.227,15.955c0.675,5.142,11.42,13.853,16.464,12.634
				C624.069,217.317,631.43,202.536,631.43,202.536z"/>
		</g>
		<g>
			<path fill="#C8EEFB" d="M671.635,192.588l8.08-19.114c0,0,16.634,3.169,18.533,7.831c1.95,4.807-3.094,17.688-8.087,19.124
				C685.319,201.817,671.635,192.588,671.635,192.588z"/>
		</g>
	</g>
</g>
<g>
	<g>
		<g>
			<path fill="#008AFF" d="M706.057,501.52c0,5.814-4.697,10.511-10.51,10.511h-527.85c-5.814,0-10.529-4.696-10.529-10.511V185.152
				c0-5.789,4.715-10.501,10.529-10.501h527.85c5.813,0,10.51,4.712,10.51,10.501V501.52z"/>
		</g>
	</g>
</g>
<g>
	<g>
		<rect x="188.832" y="208.817" fill="#B9DDFF" width="485.562" height="271.669"/>
	</g>
</g>
<g>
	<g>
		<path fill="#FFBE3D" d="M130.662,527.553h613.629c6.161,0,11.191-5.006,11.191-11.205v-19.839H119.458v19.839
			C119.458,522.547,124.47,527.553,130.662,527.553z"/>
	</g>
</g>
<g opacity="0.5">
	<g>
		<g>
			<rect x="223.417" y="236.166" fill="#EEF9FF" width="426.654" height="245.072"/>
		</g>
	</g>
	<g>
		<g>
			<rect x="233.404" y="243.441" fill="#9ECAEF" width="398.127" height="21.613"/>
		</g>
	</g>
	<g>
		<g>
			<rect x="239.116" y="275.869" fill="#9ECAEF" width="151.26" height="195.004"/>
		</g>
	</g>
	<g>
		<g>
			<rect x="251.956" y="402.32" fill="#EEF9FF" width="118.435" height="56.647"/>
		</g>
	</g>
	<g>
		<g>
			<rect x="251.956" y="290.665" fill="#EEF9FF" width="118.435" height="8.004"/>
		</g>
	</g>
	<g>
		<g>
			<rect x="251.956" y="308.681" fill="#EEF9FF" width="118.435" height="8.005"/>
		</g>
	</g>
	<g>
		<g>
			<rect x="251.956" y="330.294" fill="#EEF9FF" width="118.435" height="7.991"/>
		</g>
	</g>
	<g>
		<g>
			<rect x="251.956" y="348.285" fill="#EEF9FF" width="118.435" height="8.017"/>
		</g>
	</g>
	<g>
		<g>
			<rect x="433.193" y="275.869" fill="#9ECAEF" width="198.338" height="9.595"/>
		</g>
	</g>
	<g>
		<g>
			<rect x="433.193" y="293.859" fill="#9ECAEF" width="198.338" height="9.606"/>
		</g>
	</g>
	<g>
		<g>
			<rect x="433.193" y="315.473" fill="#9ECAEF" width="198.338" height="9.614"/>
		</g>
	</g>
	<g>
		<g>
			<rect x="433.193" y="338.285" fill="#9ECAEF" width="198.338" height="126.932"/>
		</g>
	</g>
	<g>
		<g>
			<rect x="450.307" y="352.3" fill="#EEF9FF" width="168.36" height="57.102"/>
		</g>
	</g>
	<g>
		<g>
			<rect x="239.116" y="248.848" fill="#EEF9FF" width="216.184" height="10.21"/>
		</g>
	</g>
	<g>
		<g>
			<rect x="538.057" y="248.848" fill="#EEF9FF" width="85.615" height="10.21"/>
		</g>
	</g>
</g>
<path fill="#FFBE3D" d="M325.913,238.518c0,62.897-50.979,113.883-113.877,113.883c-62.892,0-113.883-50.985-113.883-113.883
	c0-62.895,50.991-113.877,113.883-113.877C274.934,124.641,325.913,175.623,325.913,238.518z"/>
<path fill="#008AFF" d="M306.187,238.518c0,52.008-42.154,94.15-94.15,94.15s-94.15-42.143-94.15-94.15
	c0-51.996,42.154-94.151,94.15-94.151S306.187,186.521,306.187,238.518z"/>
<path fill="#FFBE3D" d="M285.172,238.518c0,40.399-32.736,73.142-73.136,73.142c-40.394,0-73.136-32.742-73.136-73.142
	c0-40.394,32.743-73.143,73.136-73.143C252.436,165.375,285.172,198.124,285.172,238.518z"/>
<path fill="#F3FAFF" d="M254.09,238.518c0,23.233-18.824,42.06-42.054,42.06s-42.06-18.827-42.06-42.06
	c0-23.23,18.83-42.057,42.06-42.057S254.09,215.288,254.09,238.518z"/>
<path fill="#B9DDFF" d="M228.669,238.518c0,9.194-7.448,16.643-16.633,16.643c-9.185,0-16.64-7.449-16.64-16.643
	c0-9.185,7.455-16.634,16.64-16.634C221.221,221.884,228.669,229.333,228.669,238.518z"/>
<rect x="190.842" y="190.534" transform="matrix(0.6719 -0.7406 0.7406 0.6719 -59.2786 251.3619)" fill="#00008A" width="126.495" height="4.118"/>
<path fill="#003AA5" d="M213.64,239.489c0,1.083-0.953,1.957-2.115,1.957c-1.168,0-2.121-0.874-2.121-1.957
	c0-1.085,0.953-1.963,2.121-1.963C212.687,237.526,213.64,238.404,213.64,239.489z"/>
<polygon fill="#00008A" points="301.578,118.875 303.586,132.2 318.111,132.247 282.073,176.816 265.844,179.973 266.418,162.351 
	"/>
<g>
	<path fill="#EEF9FF" d="M561.286,297.634l-0.007-146.895H344.03v254.667h172.419c2.284,10.132,11.312,17.707,22.131,17.707
		c10.832,0,19.859-7.575,22.138-17.707h0.02v-0.069c0.354-1.584,0.549-3.238,0.549-4.936V308.27c0-0.333-0.038-0.655-0.044-0.99
		L561.286,297.634z"/>
	<path fill="#FFBE3D" d="M515.868,400.401v-12.202H369.589h-9.828h-35.583v13.256c0,9.059,5.833,16.797,14.096,20.035
		c2.354,0.916,4.923,1.401,7.587,1.528c-0.076,0.019-0.132,0.063-0.195,0.095H538.58
		C526.038,423.113,515.868,412.943,515.868,400.401z"/>
</g>
<g>
	<g>
		<path fill="#9ECAEF" d="M359.129,348.442h0.449v3.087h1.477v0.38h-1.926V348.442z"/>
		<path fill="#9ECAEF" d="M363.51,350.672c0,0.833-0.505,1.274-1.124,1.274c-0.637,0-1.085-0.492-1.085-1.225
			c0-0.77,0.474-1.275,1.124-1.275C363.087,349.446,363.51,349.952,363.51,350.672z M361.623,350.709
			c0,0.518,0.29,0.979,0.776,0.979c0.499,0,0.776-0.454,0.776-1.004c0-0.479-0.247-0.984-0.764-0.984
			C361.888,349.699,361.623,350.179,361.623,350.709z"/>
		<path fill="#9ECAEF" d="M363.914,349.51c0.165-0.032,0.385-0.051,0.6-0.051c0.329,0,0.556,0.063,0.701,0.202
			c0.133,0.113,0.202,0.278,0.202,0.46c0,0.322-0.214,0.531-0.467,0.619v0.014c0.19,0.063,0.303,0.233,0.36,0.485
			c0.076,0.341,0.146,0.574,0.189,0.67h-0.322c-0.044-0.064-0.095-0.278-0.171-0.582c-0.069-0.334-0.189-0.46-0.479-0.467h-0.297
			v1.049h-0.315V349.51z M364.229,350.621h0.316c0.335,0,0.549-0.184,0.549-0.467c0-0.317-0.228-0.442-0.556-0.455
			c-0.151,0-0.259,0.024-0.31,0.031V350.621z"/>
		<path fill="#9ECAEF" d="M367.108,350.772h-0.935v0.87h1.042v0.267h-1.364v-2.432h1.319v0.266h-0.998v0.771h0.935V350.772z"/>
		<path fill="#9ECAEF" d="M369.665,350.848c-0.019-0.341-0.044-0.751-0.038-1.054h-0.013c-0.076,0.283-0.176,0.587-0.303,0.928
			l-0.423,1.174h-0.24l-0.391-1.155c-0.114-0.347-0.215-0.656-0.278-0.946h-0.013c-0.013,0.303-0.025,0.713-0.05,1.073l-0.057,1.042
			h-0.303l0.164-2.432h0.404l0.417,1.175c0.095,0.297,0.183,0.568,0.253,0.826h0.006c0.057-0.252,0.139-0.518,0.246-0.826
			l0.442-1.175h0.398l0.145,2.432h-0.303L369.665,350.848z"/>
		<path fill="#9ECAEF" d="M371.918,349.478v2.432h-0.316v-2.432H371.918z"/>
		<path fill="#9ECAEF" d="M372.468,349.51c0.145-0.025,0.347-0.051,0.587-0.051c0.315,0,0.549,0.076,0.688,0.209
			c0.133,0.106,0.208,0.289,0.208,0.504c0,0.222-0.057,0.398-0.19,0.512c-0.158,0.184-0.429,0.277-0.738,0.277
			c-0.088,0-0.17-0.012-0.246-0.024v0.973h-0.31V349.51z M372.777,350.677c0.075,0.02,0.158,0.032,0.259,0.032
			c0.372,0,0.605-0.189,0.605-0.523c0-0.315-0.227-0.474-0.574-0.474c-0.132,0-0.24,0.012-0.29,0.025V350.677z"/>
		<path fill="#9ECAEF" d="M374.33,351.529c0.146,0.089,0.348,0.151,0.568,0.151c0.316,0,0.5-0.164,0.5-0.416
			c0-0.222-0.12-0.354-0.455-0.479c-0.391-0.14-0.638-0.342-0.638-0.682c0-0.38,0.31-0.657,0.783-0.657
			c0.246,0,0.429,0.051,0.543,0.113l-0.089,0.26c-0.082-0.045-0.24-0.12-0.461-0.12c-0.334,0-0.454,0.202-0.454,0.366
			c0,0.227,0.145,0.34,0.473,0.467c0.417,0.151,0.625,0.359,0.625,0.707c0,0.379-0.277,0.707-0.852,0.707
			c-0.234,0-0.486-0.075-0.619-0.152L374.33,351.529z"/>
		<path fill="#9ECAEF" d="M376.47,349.478v1.434c0,0.549,0.227,0.776,0.556,0.776c0.359,0,0.593-0.233,0.593-0.776v-1.434h0.316
			v1.421c0,0.744-0.385,1.048-0.916,1.048c-0.492,0-0.877-0.284-0.877-1.035v-1.434H376.47z"/>
		<path fill="#9ECAEF" d="M380.529,350.848c-0.025-0.341-0.051-0.751-0.038-1.054h-0.013c-0.095,0.283-0.183,0.587-0.309,0.928
			l-0.436,1.174h-0.228l-0.397-1.155c-0.107-0.347-0.202-0.656-0.278-0.946h-0.006c-0.013,0.303-0.025,0.713-0.05,1.073l-0.07,1.042
			h-0.29l0.164-2.432h0.411l0.404,1.175c0.101,0.297,0.189,0.568,0.246,0.826h0.007c0.069-0.252,0.151-0.518,0.259-0.826
			l0.442-1.175h0.385l0.158,2.432h-0.303L380.529,350.848z"/>
		<path fill="#9ECAEF" d="M382.46,349.51c0.19-0.025,0.423-0.051,0.663-0.051c0.454,0,0.77,0.113,0.985,0.31
			c0.214,0.195,0.341,0.473,0.341,0.865c0,0.403-0.12,0.725-0.354,0.946c-0.221,0.228-0.593,0.354-1.066,0.354
			c-0.228,0-0.417-0.013-0.568-0.031V349.51z M382.77,351.656c0.088,0.018,0.196,0.018,0.315,0.018c0.676,0,1.035-0.365,1.035-1.028
			c0.007-0.568-0.322-0.934-0.978-0.934c-0.165,0-0.284,0.012-0.373,0.031V351.656z"/>
		<path fill="#9ECAEF" d="M386.93,350.672c0,0.833-0.505,1.274-1.13,1.274c-0.644,0-1.086-0.492-1.086-1.225
			c0-0.77,0.474-1.275,1.124-1.275C386.5,349.446,386.93,349.952,386.93,350.672z M385.055,350.709c0,0.518,0.271,0.979,0.764,0.979
			c0.499,0,0.776-0.454,0.776-1.004c0-0.479-0.252-0.984-0.776-0.984C385.307,349.699,385.055,350.179,385.055,350.709z"/>
		<path fill="#9ECAEF" d="M387.333,349.478h0.316v2.165h1.028v0.267h-1.345V349.478z"/>
		<path fill="#9ECAEF" d="M390.963,350.672c0,0.833-0.505,1.274-1.124,1.274c-0.637,0-1.086-0.492-1.086-1.225
			c0-0.77,0.467-1.275,1.117-1.275C390.534,349.446,390.963,349.952,390.963,350.672z M389.082,350.709
			c0,0.518,0.284,0.979,0.764,0.979c0.504,0,0.789-0.454,0.789-1.004c0-0.479-0.252-0.984-0.776-0.984
			C389.341,349.699,389.082,350.179,389.082,350.709z"/>
		<path fill="#9ECAEF" d="M391.373,349.51c0.158-0.032,0.379-0.051,0.6-0.051c0.335,0,0.543,0.063,0.701,0.202
			c0.126,0.113,0.189,0.278,0.189,0.46c0,0.322-0.202,0.531-0.461,0.619v0.014c0.189,0.063,0.303,0.233,0.36,0.485
			c0.082,0.341,0.139,0.574,0.183,0.67h-0.322c-0.038-0.064-0.095-0.278-0.158-0.582c-0.076-0.334-0.202-0.46-0.486-0.467h-0.297
			v1.049h-0.31V349.51z M391.683,350.621h0.322c0.334,0,0.543-0.184,0.543-0.467c0-0.317-0.228-0.442-0.556-0.455
			c-0.158,0-0.259,0.024-0.309,0.031V350.621z"/>
		<path fill="#9ECAEF" d="M394.353,351.529c0.139,0.089,0.348,0.151,0.556,0.151c0.322,0,0.518-0.164,0.518-0.416
			c0-0.222-0.139-0.354-0.461-0.479c-0.404-0.14-0.644-0.342-0.644-0.682c0-0.38,0.309-0.657,0.783-0.657
			c0.252,0,0.429,0.051,0.536,0.113l-0.082,0.26c-0.082-0.045-0.246-0.12-0.461-0.12c-0.334,0-0.461,0.202-0.461,0.366
			c0,0.227,0.151,0.34,0.48,0.467c0.417,0.151,0.625,0.359,0.625,0.707c0,0.379-0.278,0.707-0.853,0.707
			c-0.24,0-0.492-0.075-0.625-0.152L394.353,351.529z"/>
		<path fill="#9ECAEF" d="M396.486,349.478v2.432h-0.315v-2.432H396.486z"/>
		<path fill="#9ECAEF" d="M397.484,349.75h-0.733v-0.272h1.799v0.272h-0.745v2.159h-0.321V349.75z"/>
		<path fill="#9ECAEF" d="M400.299,351.145l-0.253,0.765h-0.328l0.827-2.432h0.385l0.82,2.432h-0.341l-0.252-0.765H400.299z
			 M401.088,350.898l-0.227-0.694c-0.063-0.158-0.095-0.303-0.133-0.442h-0.013c-0.032,0.14-0.069,0.291-0.113,0.43l-0.247,0.707
			H401.088z"/>
		<path fill="#9ECAEF" d="M404.137,350.848c-0.025-0.341-0.038-0.751-0.032-1.054h-0.019c-0.076,0.283-0.176,0.587-0.309,0.928
			l-0.417,1.174h-0.246l-0.385-1.155c-0.12-0.347-0.214-0.656-0.284-0.946h-0.012c-0.007,0.303-0.026,0.713-0.044,1.073
			l-0.069,1.042h-0.291l0.171-2.432h0.397l0.417,1.175c0.095,0.297,0.183,0.568,0.246,0.826h0.013
			c0.05-0.252,0.139-0.518,0.252-0.826l0.429-1.175h0.404l0.145,2.432h-0.302L404.137,350.848z"/>
		<path fill="#9ECAEF" d="M406.239,350.772h-0.94v0.87h1.048v0.267h-1.357v-2.432h1.307v0.266h-0.997v0.771h0.94V350.772z"/>
		<path fill="#9ECAEF" d="M407.269,349.75h-0.732v-0.272h1.793v0.272h-0.739v2.159h-0.321V349.75z"/>
		<path fill="#9ECAEF" d="M408.404,352.54c0.12-0.304,0.26-0.859,0.315-1.226l0.499-0.05c-0.119,0.429-0.341,1.004-0.492,1.237
			L408.404,352.54z"/>
		<path fill="#9ECAEF" d="M412.444,351.82c-0.113,0.063-0.347,0.126-0.644,0.126c-0.683,0-1.187-0.436-1.187-1.225
			c0-0.765,0.504-1.275,1.262-1.275c0.297,0,0.499,0.058,0.575,0.102l-0.076,0.258c-0.12-0.056-0.284-0.106-0.492-0.106
			c-0.563,0-0.947,0.366-0.947,1.01c0,0.594,0.348,0.972,0.94,0.972c0.184,0,0.379-0.038,0.511-0.101L412.444,351.82z"/>
		<path fill="#9ECAEF" d="M414.83,350.672c0,0.833-0.505,1.274-1.117,1.274c-0.644,0-1.098-0.492-1.098-1.225
			c0-0.77,0.486-1.275,1.136-1.275C414.407,349.446,414.83,349.952,414.83,350.672z M412.955,350.709
			c0,0.518,0.278,0.979,0.777,0.979c0.486,0,0.771-0.454,0.771-1.004c0-0.479-0.253-0.984-0.771-0.984
			C413.208,349.699,412.955,350.179,412.955,350.709z"/>
		<path fill="#9ECAEF" d="M415.241,351.909v-2.432h0.341l0.782,1.231c0.178,0.284,0.322,0.543,0.436,0.789l0.007-0.007
			c-0.031-0.328-0.038-0.617-0.038-0.997v-1.017h0.296v2.432h-0.315l-0.775-1.232c-0.164-0.265-0.329-0.549-0.455-0.807h-0.013
			c0.02,0.309,0.032,0.6,0.032,1.004v1.035H415.241z"/>
		<path fill="#9ECAEF" d="M417.563,351.529c0.146,0.089,0.348,0.151,0.563,0.151c0.328,0,0.511-0.164,0.511-0.416
			c0-0.222-0.126-0.354-0.46-0.479c-0.393-0.14-0.645-0.342-0.645-0.682c0-0.38,0.31-0.657,0.789-0.657
			c0.246,0,0.429,0.051,0.53,0.113l-0.075,0.26c-0.082-0.045-0.246-0.12-0.468-0.12c-0.322,0-0.461,0.202-0.461,0.366
			c0,0.227,0.151,0.34,0.486,0.467c0.416,0.151,0.618,0.359,0.618,0.707c0,0.379-0.271,0.707-0.84,0.707
			c-0.246,0-0.498-0.075-0.631-0.152L417.563,351.529z"/>
		<path fill="#9ECAEF" d="M420.638,350.772h-0.946v0.87h1.054v0.267h-1.369v-2.432h1.313v0.266h-0.997v0.771h0.946V350.772z"/>
		<path fill="#9ECAEF" d="M422.848,351.82c-0.12,0.063-0.347,0.126-0.638,0.126c-0.682,0-1.206-0.436-1.206-1.225
			c0-0.765,0.524-1.275,1.269-1.275c0.304,0,0.499,0.058,0.582,0.102l-0.076,0.258c-0.12-0.056-0.291-0.106-0.492-0.106
			c-0.563,0-0.947,0.366-0.947,1.01c0,0.594,0.341,0.972,0.928,0.972c0.195,0,0.392-0.038,0.523-0.101L422.848,351.82z"/>
		<path fill="#9ECAEF" d="M423.801,349.75h-0.739v-0.272h1.806v0.272h-0.744v2.159h-0.322V349.75z"/>
		<path fill="#9ECAEF" d="M426.382,350.772h-0.94v0.87h1.055v0.267h-1.363v-2.432h1.307v0.266h-0.998v0.771h0.94V350.772z"/>
		<path fill="#9ECAEF" d="M427.418,349.75h-0.739v-0.272h1.8v0.272h-0.751v2.159h-0.31V349.75z"/>
		<path fill="#9ECAEF" d="M429.053,349.478v1.434c0,0.549,0.245,0.776,0.567,0.776c0.36,0,0.595-0.233,0.595-0.776v-1.434h0.309
			v1.421c0,0.744-0.391,1.048-0.915,1.048c-0.493,0-0.871-0.284-0.871-1.035v-1.434H429.053z"/>
		<path fill="#9ECAEF" d="M431.066,349.51c0.164-0.032,0.386-0.051,0.6-0.051c0.348,0,0.555,0.063,0.707,0.202
			c0.12,0.113,0.189,0.278,0.189,0.46c0,0.322-0.202,0.531-0.455,0.619v0.014c0.189,0.063,0.291,0.233,0.354,0.485
			c0.082,0.341,0.14,0.574,0.195,0.67h-0.327c-0.038-0.064-0.089-0.278-0.164-0.582c-0.076-0.334-0.202-0.46-0.486-0.467h-0.297
			v1.049h-0.315V349.51z M431.382,350.621h0.321c0.335,0,0.551-0.184,0.551-0.467c0-0.317-0.235-0.442-0.563-0.455
			c-0.146,0-0.259,0.024-0.31,0.031V350.621z"/>
		<path fill="#9ECAEF" d="M434.488,351.145l-0.253,0.765h-0.322l0.814-2.432h0.385l0.827,2.432h-0.328l-0.259-0.765H434.488z
			 M435.283,350.898l-0.24-0.694c-0.051-0.158-0.088-0.303-0.126-0.442h-0.007c-0.037,0.14-0.075,0.291-0.12,0.43l-0.239,0.707
			H435.283z"/>
		<path fill="#9ECAEF" d="M436.299,349.51c0.19-0.025,0.417-0.051,0.663-0.051c0.449,0,0.77,0.113,0.984,0.31
			c0.216,0.195,0.342,0.473,0.342,0.865c0,0.403-0.126,0.725-0.348,0.946c-0.233,0.228-0.6,0.354-1.073,0.354
			c-0.227,0-0.416-0.013-0.568-0.031V349.51z M436.614,351.656c0.077,0.018,0.19,0.018,0.311,0.018c0.675,0,1.035-0.365,1.035-1.028
			c0.006-0.568-0.322-0.934-0.979-0.934c-0.17,0-0.284,0.012-0.366,0.031V351.656z"/>
		<path fill="#9ECAEF" d="M439.001,349.478v2.432h-0.31v-2.432H439.001z"/>
		<path fill="#9ECAEF" d="M439.55,349.51c0.151-0.025,0.347-0.051,0.6-0.051c0.31,0,0.543,0.076,0.683,0.209
			c0.139,0.106,0.22,0.289,0.22,0.504c0,0.222-0.069,0.398-0.195,0.512c-0.164,0.184-0.429,0.277-0.744,0.277
			c-0.082,0-0.178-0.012-0.247-0.024v0.973h-0.315V349.51z M439.865,350.677c0.069,0.02,0.158,0.032,0.26,0.032
			c0.378,0,0.606-0.189,0.606-0.523c0-0.315-0.222-0.474-0.575-0.474c-0.126,0-0.24,0.012-0.291,0.025V350.677z"/>
		<path fill="#9ECAEF" d="M441.771,349.478v2.432h-0.309v-2.432H441.771z"/>
		<path fill="#9ECAEF" d="M442.284,351.529c0.138,0.089,0.347,0.151,0.562,0.151c0.315,0,0.505-0.164,0.505-0.416
			c0-0.222-0.127-0.354-0.455-0.479c-0.397-0.14-0.645-0.342-0.645-0.682c0-0.38,0.311-0.657,0.79-0.657
			c0.247,0,0.43,0.051,0.536,0.113l-0.089,0.26c-0.081-0.045-0.245-0.12-0.46-0.12c-0.328,0-0.455,0.202-0.455,0.366
			c0,0.227,0.14,0.34,0.475,0.467c0.416,0.151,0.624,0.359,0.624,0.707c0,0.379-0.271,0.707-0.853,0.707
			c-0.233,0-0.491-0.075-0.611-0.152L442.284,351.529z"/>
		<path fill="#9ECAEF" d="M445.8,351.82c-0.12,0.063-0.348,0.126-0.644,0.126c-0.683,0-1.206-0.436-1.206-1.225
			c0-0.765,0.523-1.275,1.262-1.275c0.311,0,0.506,0.058,0.588,0.102l-0.07,0.258c-0.132-0.056-0.289-0.106-0.505-0.106
			c-0.562,0-0.935,0.366-0.935,1.01c0,0.594,0.335,0.972,0.922,0.972c0.195,0,0.386-0.038,0.518-0.101L445.8,351.82z"/>
		<path fill="#9ECAEF" d="M446.493,349.478v2.432h-0.309v-2.432H446.493z"/>
		<path fill="#9ECAEF" d="M447.049,351.909v-2.432h0.335l0.783,1.231c0.183,0.284,0.321,0.543,0.436,0.789v-0.007
			c-0.025-0.328-0.038-0.617-0.038-0.997v-1.017h0.31v2.432h-0.322l-0.771-1.232c-0.176-0.265-0.328-0.549-0.455-0.807h-0.012
			c0.025,0.309,0.025,0.6,0.025,1.004v1.035H447.049z"/>
		<path fill="#9ECAEF" d="M451.26,351.808c-0.139,0.044-0.423,0.126-0.738,0.126c-0.373,0-0.675-0.089-0.922-0.315
			c-0.208-0.209-0.335-0.53-0.335-0.909c0.007-0.719,0.5-1.256,1.307-1.256c0.297,0,0.506,0.063,0.619,0.119l-0.075,0.253
			c-0.133-0.057-0.298-0.102-0.544-0.102c-0.587,0-0.972,0.366-0.972,0.973c0,0.618,0.372,0.978,0.934,0.978
			c0.202,0,0.349-0.031,0.417-0.068v-0.72h-0.492v-0.252h0.802V351.808z"/>
		<path fill="#9ECAEF" d="M454.075,350.772h-0.935v0.87h1.055v0.267h-1.37v-2.432h1.313v0.266h-0.998v0.771h0.935V350.772z"/>
		<path fill="#9ECAEF" d="M454.6,349.478h0.309v2.165h1.042v0.267H454.6V349.478z"/>
		<path fill="#9ECAEF" d="M456.606,349.478v2.432h-0.31v-2.432H456.606z"/>
		<path fill="#9ECAEF" d="M457.616,349.75h-0.744v-0.272h1.792v0.272h-0.732v2.159h-0.315V349.75z"/>
		<path fill="#9ECAEF" d="M458.753,352.54c0.101-0.304,0.246-0.859,0.296-1.226l0.518-0.05c-0.12,0.429-0.354,1.004-0.491,1.237
			L458.753,352.54z"/>
		<path fill="#9ECAEF" d="M461.044,351.529c0.146,0.089,0.348,0.151,0.574,0.151c0.31,0,0.5-0.164,0.5-0.416
			c0-0.222-0.127-0.354-0.455-0.479c-0.392-0.14-0.638-0.342-0.638-0.682c0-0.38,0.309-0.657,0.782-0.657
			c0.246,0,0.424,0.051,0.537,0.113l-0.082,0.26c-0.089-0.045-0.246-0.12-0.467-0.12c-0.329,0-0.455,0.202-0.455,0.366
			c0,0.227,0.145,0.34,0.479,0.467c0.411,0.151,0.618,0.359,0.618,0.707c0,0.379-0.277,0.707-0.845,0.707
			c-0.233,0-0.499-0.075-0.619-0.152L461.044,351.529z"/>
		<path fill="#9ECAEF" d="M464.118,350.772h-0.934v0.87h1.055v0.267h-1.37v-2.432h1.306v0.266h-0.99v0.771h0.934V350.772z"/>
		<path fill="#9ECAEF" d="M464.642,349.51c0.184-0.025,0.411-0.051,0.664-0.051c0.441,0,0.771,0.113,0.978,0.31
			c0.222,0.195,0.342,0.473,0.342,0.865c0,0.403-0.114,0.725-0.349,0.946c-0.22,0.228-0.599,0.354-1.072,0.354
			c-0.214,0-0.41-0.013-0.563-0.031V349.51z M464.945,351.656c0.082,0.018,0.195,0.018,0.322,0.018c0.662,0,1.035-0.365,1.035-1.028
			c0-0.568-0.322-0.934-0.985-0.934c-0.163,0-0.278,0.012-0.372,0.031V351.656z"/>
		<path fill="#9ECAEF" d="M468.12,349.51c0.19-0.025,0.417-0.051,0.67-0.051c0.441,0,0.77,0.113,0.984,0.31
			c0.215,0.195,0.347,0.473,0.347,0.865c0,0.403-0.132,0.725-0.354,0.946c-0.233,0.228-0.612,0.354-1.079,0.354
			c-0.221,0-0.411-0.013-0.568-0.031V349.51z M468.436,351.656c0.077,0.018,0.196,0.018,0.322,0.018
			c0.663,0,1.036-0.365,1.036-1.028c0-0.568-0.329-0.934-0.992-0.934c-0.157,0-0.289,0.012-0.366,0.031V351.656z"/>
		<path fill="#9ECAEF" d="M472.584,350.672c0,0.833-0.506,1.274-1.117,1.274c-0.645,0-1.093-0.492-1.093-1.225
			c0-0.77,0.474-1.275,1.117-1.275C472.167,349.446,472.584,349.952,472.584,350.672z M470.709,350.709
			c0,0.518,0.277,0.979,0.775,0.979c0.493,0,0.777-0.454,0.777-1.004c0-0.479-0.253-0.984-0.777-0.984
			C470.961,349.699,470.709,350.179,470.709,350.709z"/>
		<path fill="#9ECAEF" d="M475.349,350.772h-0.947v0.87h1.055v0.267h-1.37v-2.432h1.306v0.266h-0.99v0.771h0.947V350.772z"/>
		<path fill="#9ECAEF" d="M476.175,349.478v2.432h-0.321v-2.432H476.175z"/>
		<path fill="#9ECAEF" d="M477.027,349.478v1.434c0,0.549,0.246,0.776,0.563,0.776c0.365,0,0.593-0.233,0.593-0.776v-1.434h0.322
			v1.421c0,0.744-0.397,1.048-0.922,1.048c-0.492,0-0.865-0.284-0.865-1.035v-1.434H477.027z"/>
		<path fill="#9ECAEF" d="M478.996,351.529c0.146,0.089,0.354,0.151,0.563,0.151c0.328,0,0.512-0.164,0.512-0.416
			c0-0.222-0.133-0.354-0.461-0.479c-0.392-0.14-0.645-0.342-0.645-0.682c0-0.38,0.315-0.657,0.789-0.657
			c0.24,0,0.43,0.051,0.537,0.113l-0.082,0.26c-0.082-0.045-0.246-0.12-0.467-0.12c-0.329,0-0.462,0.202-0.462,0.366
			c0,0.227,0.158,0.34,0.486,0.467c0.417,0.151,0.625,0.359,0.625,0.707c0,0.379-0.278,0.707-0.852,0.707
			c-0.229,0-0.486-0.075-0.626-0.152L478.996,351.529z"/>
		<path fill="#9ECAEF" d="M482.867,350.848c-0.02-0.341-0.045-0.751-0.039-1.054h-0.012c-0.082,0.283-0.189,0.587-0.304,0.928
			l-0.429,1.174h-0.24l-0.397-1.155c-0.114-0.347-0.202-0.656-0.278-0.946h-0.013c0,0.303-0.019,0.713-0.044,1.073l-0.057,1.042
			h-0.304l0.171-2.432h0.397l0.417,1.175c0.101,0.297,0.189,0.568,0.24,0.826h0.013c0.063-0.252,0.151-0.518,0.259-0.826
			l0.429-1.175h0.397l0.158,2.432h-0.31L482.867,350.848z"/>
		<path fill="#9ECAEF" d="M485.783,350.672c0,0.833-0.506,1.274-1.13,1.274c-0.645,0-1.08-0.492-1.08-1.225
			c0-0.77,0.474-1.275,1.111-1.275C485.354,349.446,485.783,349.952,485.783,350.672z M483.902,350.709
			c0,0.518,0.283,0.979,0.769,0.979c0.5,0,0.777-0.454,0.777-1.004c0-0.479-0.24-0.984-0.771-0.984
			C484.16,349.699,483.902,350.179,483.902,350.709z"/>
		<path fill="#9ECAEF" d="M486.187,349.51c0.189-0.025,0.417-0.051,0.663-0.051c0.454,0,0.782,0.113,0.991,0.31
			c0.208,0.195,0.335,0.473,0.335,0.865c0,0.403-0.12,0.725-0.349,0.946c-0.227,0.228-0.604,0.354-1.072,0.354
			c-0.221,0-0.416-0.013-0.568-0.031V349.51z M486.496,351.656c0.088,0.018,0.189,0.018,0.322,0.018
			c0.662,0,1.028-0.365,1.028-1.028c0.007-0.568-0.315-0.934-0.984-0.934c-0.164,0-0.278,0.012-0.366,0.031V351.656z"/>
		<path fill="#9ECAEF" d="M490.132,349.75h-0.745v-0.272h1.806v0.272h-0.745v2.159h-0.315V349.75z"/>
		<path fill="#9ECAEF" d="M492.714,350.772h-0.947v0.87h1.054v0.267h-1.369v-2.432h1.319v0.266h-1.004v0.771h0.947V350.772z"/>
		<path fill="#9ECAEF" d="M495.271,350.848c-0.013-0.341-0.032-0.751-0.032-1.054h-0.013c-0.082,0.283-0.183,0.587-0.303,0.928
			l-0.429,1.174h-0.24l-0.385-1.155c-0.12-0.347-0.221-0.656-0.29-0.946l0,0c-0.007,0.303-0.032,0.713-0.051,1.073l-0.069,1.042
			h-0.297l0.177-2.432h0.397l0.41,1.175c0.107,0.297,0.19,0.568,0.246,0.826h0.013c0.057-0.252,0.146-0.518,0.253-0.826l0.43-1.175
			h0.403l0.151,2.432h-0.303L495.271,350.848z"/>
		<path fill="#9ECAEF" d="M496.123,349.51c0.15-0.025,0.347-0.051,0.6-0.051c0.315,0,0.537,0.076,0.688,0.209
			c0.12,0.106,0.202,0.289,0.202,0.504c0,0.222-0.063,0.398-0.184,0.512c-0.169,0.184-0.441,0.277-0.737,0.277
			c-0.096,0-0.185-0.012-0.26-0.024v0.973h-0.309V349.51z M496.432,350.677c0.069,0.02,0.164,0.032,0.266,0.032
			c0.372,0,0.605-0.189,0.605-0.523c0-0.315-0.221-0.474-0.567-0.474c-0.14,0-0.246,0.012-0.304,0.025V350.677z"/>
		<path fill="#9ECAEF" d="M500.112,350.672c0,0.833-0.518,1.274-1.131,1.274c-0.649,0-1.091-0.492-1.091-1.225
			c0-0.77,0.479-1.275,1.129-1.275C499.677,349.446,500.112,349.952,500.112,350.672z M498.23,350.709
			c0,0.518,0.271,0.979,0.771,0.979c0.493,0,0.776-0.454,0.776-1.004c0-0.479-0.252-0.984-0.77-0.984
			C498.483,349.699,498.23,350.179,498.23,350.709z"/>
		<path fill="#9ECAEF" d="M500.51,349.51c0.157-0.032,0.386-0.051,0.612-0.051c0.334,0,0.536,0.063,0.7,0.202
			c0.113,0.113,0.19,0.278,0.19,0.46c0,0.322-0.202,0.531-0.468,0.619v0.014c0.202,0.063,0.304,0.233,0.359,0.485
			c0.082,0.341,0.14,0.574,0.19,0.67h-0.329c-0.031-0.064-0.095-0.278-0.157-0.582c-0.075-0.334-0.202-0.46-0.486-0.467h-0.291
			v1.049h-0.321V349.51z M500.831,350.621h0.322c0.329,0,0.543-0.184,0.543-0.467c0-0.317-0.228-0.442-0.556-0.455
			c-0.151,0-0.265,0.024-0.31,0.031V350.621z"/>
		<path fill="#9ECAEF" d="M503.854,349.478v2.432h-0.309v-2.432H503.854z"/>
		<path fill="#9ECAEF" d="M504.398,351.909v-2.432h0.34l0.79,1.231c0.17,0.284,0.31,0.543,0.423,0.789l0.006-0.007
			c-0.031-0.328-0.037-0.617-0.037-0.997v-1.017h0.303v2.432h-0.316l-0.775-1.232c-0.171-0.265-0.322-0.549-0.455-0.807h-0.013
			c0.025,0.309,0.025,0.6,0.025,1.004v1.035H504.398z"/>
		<path fill="#9ECAEF" d="M508.457,351.82c-0.114,0.063-0.348,0.126-0.638,0.126c-0.682,0-1.199-0.436-1.199-1.225
			c0-0.765,0.518-1.275,1.27-1.275c0.303,0,0.491,0.058,0.573,0.102l-0.075,0.258c-0.12-0.056-0.291-0.106-0.486-0.106
			c-0.567,0-0.953,0.366-0.953,1.01c0,0.594,0.347,0.972,0.941,0.972c0.183,0,0.378-0.038,0.504-0.101L508.457,351.82z"/>
		<path fill="#9ECAEF" d="M509.164,349.478v2.432h-0.31v-2.432H509.164z"/>
		<path fill="#9ECAEF" d="M509.707,349.51c0.195-0.025,0.424-0.051,0.669-0.051c0.448,0,0.771,0.113,0.979,0.31
			c0.228,0.195,0.347,0.473,0.347,0.865c0,0.403-0.119,0.725-0.347,0.946c-0.227,0.228-0.6,0.354-1.073,0.354
			c-0.221,0-0.403-0.013-0.574-0.031V349.51z M510.022,351.656c0.082,0.018,0.202,0.018,0.315,0.018c0.67,0,1.035-0.365,1.035-1.028
			c0.007-0.568-0.322-0.934-0.978-0.934c-0.165,0-0.291,0.012-0.373,0.031V351.656z"/>
		<path fill="#9ECAEF" d="M512.415,349.478v2.432h-0.31v-2.432H512.415z"/>
		<path fill="#9ECAEF" d="M512.97,349.51c0.19-0.025,0.417-0.051,0.664-0.051c0.448,0,0.771,0.113,0.984,0.31
			c0.215,0.195,0.341,0.473,0.341,0.865c0,0.403-0.12,0.725-0.348,0.946c-0.233,0.228-0.6,0.354-1.073,0.354
			c-0.227,0-0.409-0.013-0.568-0.031V349.51z M513.286,351.656c0.069,0.018,0.189,0.018,0.31,0.018c0.675,0,1.035-0.365,1.035-1.028
			c0.006-0.568-0.322-0.934-0.979-0.934c-0.163,0-0.289,0.012-0.365,0.031V351.656z"/>
		<path fill="#9ECAEF" d="M515.672,349.478v1.434c0,0.549,0.247,0.776,0.568,0.776c0.36,0,0.594-0.233,0.594-0.776v-1.434h0.322
			v1.421c0,0.744-0.404,1.048-0.929,1.048c-0.498,0-0.871-0.284-0.871-1.035v-1.434H515.672z"/>
		<path fill="#9ECAEF" d="M517.691,351.909v-2.432h0.342l0.782,1.231c0.178,0.284,0.311,0.543,0.431,0.789l0.005-0.007
			c-0.024-0.328-0.031-0.617-0.031-0.997v-1.017h0.297v2.432h-0.328l-0.758-1.232c-0.171-0.265-0.335-0.549-0.455-0.807h-0.018
			c0.024,0.309,0.031,0.6,0.031,1.004v1.035H517.691z"/>
		<path fill="#9ECAEF" d="M520.521,349.75h-0.739v-0.272h1.793v0.272h-0.744v2.159h-0.31V349.75z"/>
		<path fill="#9ECAEF" d="M523.247,349.478v1.434c0,0.549,0.239,0.776,0.562,0.776c0.366,0,0.595-0.233,0.595-0.776v-1.434h0.32
			v1.421c0,0.744-0.397,1.048-0.927,1.048c-0.493,0-0.865-0.284-0.865-1.035v-1.434H523.247z"/>
		<path fill="#9ECAEF" d="M525.723,349.75h-0.739v-0.272h1.799v0.272h-0.738v2.159h-0.321V349.75z"/>
		<path fill="#9ECAEF" d="M528.14,349.478h0.315v2.165h1.035v0.267h-1.351V349.478z"/>
		<path fill="#9ECAEF" d="M530.229,351.145l-0.259,0.765h-0.315l0.826-2.432h0.373l0.833,2.432h-0.334l-0.253-0.765H530.229z
			 M531.024,350.898l-0.24-0.694c-0.044-0.158-0.095-0.303-0.133-0.442l0,0c-0.031,0.14-0.082,0.291-0.106,0.43l-0.253,0.707
			H531.024z"/>
		<path fill="#9ECAEF" d="M532.034,349.51c0.146-0.025,0.36-0.051,0.581-0.051c0.303,0,0.511,0.057,0.656,0.177
			c0.132,0.095,0.209,0.239,0.209,0.43c0,0.24-0.159,0.441-0.411,0.542l0,0c0.221,0.058,0.498,0.253,0.498,0.606
			c0,0.215-0.082,0.373-0.201,0.493c-0.177,0.145-0.448,0.227-0.834,0.227c-0.227,0-0.391-0.02-0.498-0.031V349.51z M532.35,350.507
			h0.29c0.322,0,0.524-0.177,0.524-0.403c0-0.284-0.214-0.404-0.536-0.404c-0.14,0-0.229,0.024-0.278,0.024V350.507z
			 M532.35,351.669c0.057,0.012,0.151,0.012,0.266,0.012c0.328,0,0.619-0.113,0.619-0.467c0-0.328-0.284-0.467-0.619-0.467h-0.266
			V351.669z"/>
		<path fill="#9ECAEF" d="M536.068,350.672c0,0.833-0.512,1.274-1.137,1.274c-0.638,0-1.086-0.492-1.086-1.225
			c0-0.77,0.479-1.275,1.123-1.275C535.626,349.446,536.068,349.952,536.068,350.672z M534.181,350.709
			c0,0.518,0.277,0.979,0.764,0.979c0.511,0,0.776-0.454,0.776-1.004c0-0.479-0.24-0.984-0.765-0.984
			C534.439,349.699,534.181,350.179,534.181,350.709z"/>
		<path fill="#9ECAEF" d="M536.466,349.51c0.151-0.032,0.397-0.051,0.6-0.051c0.341,0,0.556,0.063,0.7,0.202
			c0.126,0.113,0.202,0.278,0.202,0.46c0,0.322-0.209,0.531-0.467,0.619v0.014c0.195,0.063,0.297,0.233,0.359,0.485
			c0.089,0.341,0.133,0.574,0.189,0.67h-0.334c-0.032-0.064-0.095-0.278-0.146-0.582c-0.082-0.334-0.215-0.46-0.505-0.467h-0.284
			v1.049h-0.315V349.51z M536.781,350.621h0.322c0.328,0,0.542-0.184,0.542-0.467c0-0.317-0.227-0.442-0.567-0.455
			c-0.133,0-0.246,0.024-0.297,0.031V350.621z"/>
		<path fill="#9ECAEF" d="M539.653,350.772h-0.94v0.87h1.054v0.267h-1.363v-2.432h1.308v0.266h-0.998v0.771h0.94V350.772z"/>
		<path fill="#9ECAEF" d="M542.519,350.772h-0.946v0.87h1.055v0.267h-1.363v-2.432h1.313v0.266h-1.004v0.771h0.946V350.772z"/>
		<path fill="#9ECAEF" d="M543.554,349.75h-0.744v-0.272h1.799v0.272h-0.738v2.159h-0.316V349.75z"/>
		<path fill="#9ECAEF" d="M352.652,355.683c0.19-0.031,0.423-0.051,0.669-0.051c0.449,0,0.757,0.102,0.985,0.304
			c0.215,0.196,0.334,0.48,0.334,0.871c0,0.397-0.12,0.72-0.347,0.946c-0.221,0.229-0.6,0.342-1.066,0.342
			c-0.234,0-0.423-0.007-0.575-0.024V355.683z M352.975,357.83c0.076,0.012,0.189,0.019,0.31,0.019c0.675,0,1.035-0.379,1.035-1.029
			c0.006-0.581-0.322-0.947-0.985-0.947c-0.164,0-0.284,0.026-0.36,0.039V357.83z"/>
		<path fill="#9ECAEF" d="M357.122,356.832c0,0.839-0.512,1.281-1.124,1.281c-0.638,0-1.092-0.498-1.092-1.23
			c0-0.771,0.48-1.275,1.13-1.275C356.692,355.607,357.122,356.112,357.122,356.832z M355.248,356.876
			c0,0.524,0.271,0.979,0.77,0.979c0.499,0,0.77-0.454,0.77-0.997c0-0.492-0.246-0.991-0.763-0.991
			C355.5,355.866,355.248,356.34,355.248,356.876z"/>
		<path fill="#9ECAEF" d="M357.526,355.646h0.315v2.172h1.035v0.258h-1.351V355.646z"/>
		<path fill="#9ECAEF" d="M361.156,356.832c0,0.839-0.505,1.281-1.117,1.281c-0.644,0-1.093-0.498-1.093-1.23
			c0-0.771,0.474-1.275,1.124-1.275C360.732,355.607,361.156,356.112,361.156,356.832z M359.281,356.876
			c0,0.524,0.278,0.979,0.77,0.979c0.493,0,0.776-0.454,0.776-0.997c0-0.492-0.252-0.991-0.77-0.991
			C359.533,355.866,359.281,356.34,359.281,356.876z"/>
		<path fill="#9ECAEF" d="M361.565,355.683c0.159-0.037,0.385-0.051,0.6-0.051c0.335,0,0.549,0.064,0.695,0.197
			c0.132,0.106,0.195,0.271,0.195,0.46c0,0.315-0.208,0.53-0.454,0.619v0.012c0.189,0.064,0.302,0.24,0.353,0.486
			c0.082,0.347,0.146,0.575,0.189,0.669h-0.321c-0.038-0.069-0.095-0.277-0.171-0.573c-0.069-0.342-0.189-0.462-0.486-0.48h-0.291
			v1.054h-0.31V355.683z M361.875,356.782h0.329c0.328,0,0.542-0.184,0.542-0.455c0-0.315-0.233-0.455-0.555-0.455
			c-0.158,0-0.259,0.013-0.316,0.026V356.782z"/>
		<path fill="#9ECAEF" d="M364.754,356.934h-0.934v0.884h1.042v0.258h-1.364v-2.43h1.319v0.266h-0.997v0.77h0.934V356.934z"/>
		<path fill="#9ECAEF" d="M368.409,357.009c-0.019-0.335-0.05-0.744-0.044-1.048h-0.006c-0.089,0.277-0.183,0.593-0.303,0.922
			l-0.436,1.174h-0.234l-0.397-1.148c-0.113-0.348-0.208-0.657-0.271-0.947h-0.013c0,0.304-0.025,0.713-0.05,1.079l-0.057,1.035
			h-0.303l0.17-2.43h0.404l0.404,1.174c0.101,0.303,0.189,0.568,0.252,0.82h0.006c0.063-0.239,0.151-0.511,0.265-0.82l0.423-1.174
			h0.391l0.164,2.43h-0.31L368.409,357.009z"/>
		<path fill="#9ECAEF" d="M369.608,357.312l-0.252,0.764h-0.322l0.827-2.43h0.379l0.82,2.43h-0.334l-0.252-0.764H369.608z
			 M370.403,357.066l-0.24-0.701c-0.05-0.151-0.088-0.303-0.12-0.442h-0.013c-0.038,0.14-0.076,0.291-0.126,0.442l-0.233,0.701
			H370.403z"/>
		<path fill="#9ECAEF" d="M373.212,357.969c-0.145,0.051-0.423,0.126-0.745,0.126c-0.373,0-0.676-0.089-0.903-0.315
			c-0.215-0.202-0.341-0.524-0.341-0.903c0.007-0.726,0.499-1.256,1.307-1.256c0.284,0,0.505,0.063,0.606,0.113l-0.082,0.259
			c-0.12-0.057-0.284-0.107-0.53-0.107c-0.587,0-0.972,0.366-0.972,0.973c0,0.618,0.373,0.984,0.941,0.984
			c0.195,0,0.334-0.024,0.41-0.063v-0.732h-0.492v-0.24h0.802V357.969z"/>
		<path fill="#9ECAEF" d="M373.686,358.075v-2.43h0.347l0.776,1.23c0.177,0.284,0.315,0.537,0.429,0.79h0.013
			c-0.032-0.329-0.038-0.619-0.038-1.004v-1.017h0.296v2.43h-0.315l-0.783-1.23c-0.158-0.278-0.322-0.549-0.449-0.809h-0.012
			c0.019,0.304,0.031,0.6,0.031,1.004v1.035H373.686z"/>
		<path fill="#9ECAEF" d="M376.444,357.312l-0.252,0.764h-0.322l0.821-2.43h0.378l0.84,2.43h-0.341l-0.265-0.764H376.444z
			 M377.246,357.066l-0.24-0.701c-0.05-0.151-0.089-0.303-0.126-0.442h-0.006c-0.038,0.14-0.082,0.291-0.126,0.442l-0.233,0.701
			H377.246z"/>
		<path fill="#9ECAEF" d="M379.733,357.312l-0.253,0.764h-0.322l0.827-2.43h0.378l0.827,2.43h-0.341l-0.253-0.764H379.733z
			 M380.535,357.066l-0.24-0.701c-0.057-0.151-0.095-0.303-0.126-0.442h-0.006c-0.038,0.14-0.076,0.291-0.12,0.442l-0.24,0.701
			H380.535z"/>
		<path fill="#9ECAEF" d="M381.545,355.646h0.315v2.172h1.035v0.258h-1.351V355.646z"/>
		<path fill="#9ECAEF" d="M383.553,355.646v2.43h-0.31v-2.43H383.553z"/>
		<path fill="#9ECAEF" d="M386.109,358.435c-0.328-0.087-0.657-0.188-0.935-0.289c-0.043-0.013-0.101-0.032-0.139-0.032
			c-0.587-0.019-1.073-0.447-1.073-1.23c0-0.771,0.467-1.275,1.13-1.275c0.657,0,1.086,0.505,1.086,1.225
			c0,0.625-0.297,1.022-0.688,1.161v0.02c0.233,0.063,0.499,0.12,0.707,0.157L386.109,358.435z M385.85,356.857
			c0-0.492-0.259-0.991-0.764-0.991c-0.537,0-0.79,0.492-0.79,1.017c0,0.518,0.278,0.972,0.771,0.972
			C385.566,357.854,385.85,357.406,385.85,356.857z"/>
		<path fill="#9ECAEF" d="M386.891,355.646v1.438c0,0.544,0.24,0.771,0.575,0.771c0.353,0,0.586-0.233,0.586-0.771v-1.438h0.316
			v1.414c0,0.744-0.398,1.054-0.916,1.054c-0.499,0-0.871-0.283-0.871-1.035v-1.433H386.891z"/>
		<path fill="#9ECAEF" d="M389.177,357.312l-0.247,0.764h-0.328l0.827-2.43h0.378l0.827,2.43H390.3l-0.259-0.764H389.177z
			 M389.979,357.066l-0.24-0.701c-0.05-0.151-0.088-0.303-0.132-0.442l0,0c-0.038,0.14-0.082,0.291-0.126,0.442l-0.233,0.701
			H389.979z"/>
		<path fill="#9ECAEF" d="M390.989,357.804c0-0.188,0.12-0.321,0.296-0.321c0.189,0,0.303,0.133,0.303,0.321
			c0,0.189-0.114,0.329-0.303,0.329C391.108,358.133,390.989,357.993,390.989,357.804z"/>
		<path fill="#9ECAEF" d="M393.709,354.61v2.052c0,0.775,0.341,1.104,0.808,1.104c0.505,0,0.833-0.341,0.833-1.104v-2.052h0.461
			v2.021c0,1.066-0.568,1.502-1.313,1.502c-0.707,0-1.244-0.404-1.244-1.478v-2.045H393.709z"/>
		<path fill="#9ECAEF" d="M396.928,355.911h-0.739v-0.266h1.793v0.266h-0.739v2.164h-0.316V355.911z"/>
		<path fill="#9ECAEF" d="M400.603,356.934h-0.94v0.884h1.042v0.258h-1.364v-2.43h1.313v0.266h-0.991v0.77h0.94V356.934z"/>
		<path fill="#9ECAEF" d="M401.114,358.075v-2.43h0.341l0.783,1.23c0.17,0.284,0.322,0.537,0.429,0.79h0.007
			c-0.031-0.329-0.031-0.619-0.031-1.004v-1.017h0.296v2.43h-0.315l-0.777-1.23c-0.17-0.278-0.328-0.549-0.448-0.809h-0.013
			c0.013,0.304,0.019,0.6,0.019,1.004v1.035H401.114z"/>
		<path fill="#9ECAEF" d="M403.79,355.646v2.43h-0.309v-2.43H403.79z"/>
		<path fill="#9ECAEF" d="M406.385,357.009c-0.02-0.335-0.038-0.744-0.032-1.048h-0.006c-0.082,0.277-0.189,0.593-0.321,0.922
			l-0.424,1.174h-0.233l-0.391-1.148c-0.12-0.348-0.215-0.657-0.284-0.947h-0.013c0,0.304-0.019,0.713-0.038,1.079l-0.069,1.035
			h-0.291l0.164-2.43h0.398l0.417,1.174c0.101,0.303,0.183,0.568,0.247,0.82h0.005c0.063-0.239,0.146-0.511,0.253-0.82l0.436-1.174
			h0.404l0.151,2.43h-0.31L406.385,357.009z"/>
		<path fill="#9ECAEF" d="M408.72,357.312l-0.258,0.764h-0.322l0.826-2.43h0.385l0.815,2.43h-0.335l-0.252-0.764H408.72z
			 M409.509,357.066l-0.233-0.701c-0.057-0.151-0.094-0.303-0.127-0.442h-0.012c-0.037,0.14-0.069,0.291-0.113,0.442l-0.246,0.701
			H409.509z"/>
		<path fill="#9ECAEF" d="M410.525,355.683c0.189-0.031,0.417-0.051,0.662-0.051c0.455,0,0.777,0.102,0.985,0.304
			c0.214,0.196,0.334,0.48,0.334,0.871c0,0.397-0.113,0.72-0.347,0.946c-0.214,0.229-0.6,0.342-1.066,0.342
			c-0.222,0-0.41-0.007-0.568-0.024V355.683z M410.834,357.83c0.083,0.012,0.196,0.019,0.322,0.019c0.664,0,1.03-0.379,1.03-1.029
			c0-0.581-0.317-0.947-0.985-0.947c-0.158,0-0.278,0.026-0.367,0.039V357.83z"/>
		<path fill="#9ECAEF" d="M416.049,357.009c-0.013-0.335-0.031-0.744-0.031-1.048h-0.013c-0.082,0.277-0.178,0.593-0.303,0.922
			l-0.43,1.174h-0.233l-0.392-1.148c-0.12-0.348-0.222-0.657-0.277-0.947h-0.014c-0.006,0.304-0.031,0.713-0.044,1.079l-0.075,1.035
			h-0.291l0.164-2.43h0.397l0.417,1.174c0.107,0.303,0.189,0.568,0.247,0.82h0.013c0.057-0.239,0.145-0.511,0.252-0.82l0.429-1.174
			h0.404l0.152,2.43h-0.297L416.049,357.009z"/>
		<path fill="#9ECAEF" d="M417.204,355.646v2.43h-0.303v-2.43H417.204z"/>
		<path fill="#9ECAEF" d="M417.76,358.075v-2.43h0.347l0.771,1.23c0.184,0.284,0.321,0.537,0.441,0.79l0,0
			c-0.024-0.329-0.031-0.619-0.031-1.004v-1.017h0.296v2.43h-0.309l-0.776-1.23c-0.17-0.278-0.328-0.549-0.454-0.809h-0.014
			c0.014,0.304,0.026,0.6,0.026,1.004v1.035H417.76z"/>
		<path fill="#9ECAEF" d="M420.449,355.646v2.43h-0.316v-2.43H420.449z"/>
		<path fill="#9ECAEF" d="M423.03,357.009c-0.019-0.335-0.038-0.744-0.038-1.048h-0.006c-0.088,0.277-0.183,0.593-0.303,0.922
			l-0.43,1.174h-0.246l-0.391-1.148c-0.108-0.348-0.209-0.657-0.278-0.947h-0.006c-0.007,0.304-0.031,0.713-0.045,1.079
			l-0.069,1.035h-0.303l0.177-2.43h0.404l0.404,1.174c0.106,0.303,0.188,0.568,0.251,0.82h0.014c0.056-0.239,0.145-0.511,0.253-0.82
			l0.436-1.174h0.397l0.151,2.43h-0.315L423.03,357.009z"/>
		<path fill="#9ECAEF" d="M425.505,358.075l-0.796-2.43h0.342l0.372,1.199c0.107,0.328,0.189,0.619,0.266,0.908h0.006
			c0.063-0.283,0.17-0.587,0.271-0.908l0.416-1.199h0.335l-0.864,2.43H425.505z"/>
		<path fill="#9ECAEF" d="M428.238,356.934h-0.953v0.884h1.054v0.258h-1.369v-2.43h1.319v0.266h-1.004v0.77h0.953V356.934z"/>
		<path fill="#9ECAEF" d="M428.743,358.075v-2.43h0.341l0.782,1.23c0.178,0.284,0.322,0.537,0.442,0.79l0,0
			c-0.025-0.329-0.038-0.619-0.038-1.004v-1.017h0.304v2.43h-0.316l-0.775-1.23c-0.171-0.278-0.336-0.549-0.455-0.809h-0.012
			c0.018,0.304,0.024,0.6,0.024,1.004v1.035H428.743z"/>
		<path fill="#9ECAEF" d="M431.426,355.646v2.43h-0.309v-2.43H431.426z"/>
		<path fill="#9ECAEF" d="M432.367,357.312l-0.253,0.764h-0.329l0.828-2.43h0.385l0.826,2.43h-0.34l-0.26-0.764H432.367z
			 M433.155,357.066l-0.233-0.701c-0.057-0.151-0.088-0.303-0.126-0.442h-0.007c-0.037,0.14-0.075,0.291-0.119,0.442l-0.24,0.701
			H433.155z"/>
		<path fill="#9ECAEF" d="M436.205,357.009c-0.026-0.335-0.031-0.744-0.031-1.048h-0.014c-0.082,0.277-0.184,0.593-0.309,0.922
			l-0.424,1.174h-0.246l-0.385-1.148c-0.12-0.348-0.215-0.657-0.284-0.947h-0.007c-0.006,0.304-0.031,0.713-0.044,1.079
			l-0.075,1.035h-0.291l0.177-2.43h0.392l0.41,1.174c0.101,0.303,0.196,0.568,0.253,0.82h0.013c0.051-0.239,0.139-0.511,0.252-0.82
			l0.43-1.174h0.397l0.152,2.43h-0.304L436.205,357.009z"/>
		<path fill="#9ECAEF" d="M436.86,358.707c0.114-0.304,0.247-0.853,0.311-1.231l0.505-0.05c-0.127,0.442-0.342,1.009-0.5,1.249
			L436.86,358.707z"/>
		<path fill="#9ECAEF" d="M441.211,358.435c-0.335-0.087-0.65-0.188-0.935-0.289c-0.044-0.013-0.102-0.032-0.146-0.032
			c-0.574-0.019-1.067-0.447-1.067-1.23c0-0.771,0.474-1.275,1.131-1.275c0.662,0,1.086,0.505,1.086,1.225
			c0,0.625-0.291,1.022-0.688,1.161v0.02c0.233,0.063,0.498,0.12,0.707,0.157L441.211,358.435z M440.951,356.857
			c0-0.492-0.259-0.991-0.776-0.991c-0.524,0-0.776,0.492-0.776,1.017c0,0.518,0.284,0.972,0.771,0.972
			C440.674,357.854,440.951,357.406,440.951,356.857z"/>
		<path fill="#9ECAEF" d="M441.993,355.646v1.438c0,0.544,0.24,0.771,0.568,0.771c0.366,0,0.587-0.233,0.587-0.771v-1.438h0.322
			v1.414c0,0.744-0.385,1.054-0.922,1.054c-0.493,0-0.864-0.283-0.864-1.035v-1.433H441.993z"/>
		<path fill="#9ECAEF" d="M444.322,355.646v2.43h-0.31v-2.43H444.322z"/>
		<path fill="#9ECAEF" d="M444.827,357.69c0.146,0.089,0.341,0.164,0.563,0.164c0.315,0,0.511-0.177,0.511-0.417
			c0-0.227-0.132-0.354-0.46-0.479c-0.398-0.139-0.638-0.354-0.638-0.693c0-0.38,0.315-0.657,0.782-0.657
			c0.253,0,0.436,0.063,0.537,0.12l-0.082,0.259c-0.082-0.051-0.24-0.114-0.468-0.114c-0.334,0-0.454,0.19-0.454,0.354
			c0,0.233,0.145,0.34,0.479,0.474c0.416,0.157,0.611,0.353,0.611,0.706c0,0.385-0.271,0.701-0.839,0.701
			c-0.233,0-0.492-0.063-0.618-0.152L444.827,357.69z"/>
		<path fill="#9ECAEF" d="M447.737,358.075v-2.43h0.335l0.782,1.23c0.177,0.284,0.322,0.537,0.43,0.79h0.013
			c-0.032-0.329-0.032-0.619-0.032-1.004v-1.017h0.291v2.43h-0.315l-0.777-1.23c-0.164-0.278-0.321-0.549-0.448-0.809h-0.012
			c0.019,0.304,0.024,0.6,0.024,1.004v1.035H447.737z"/>
		<path fill="#9ECAEF" d="M452.175,356.832c0,0.839-0.511,1.281-1.124,1.281c-0.644,0-1.091-0.498-1.091-1.23
			c0-0.771,0.479-1.275,1.124-1.275C451.746,355.607,452.175,356.112,452.175,356.832z M450.294,356.876
			c0,0.524,0.277,0.979,0.771,0.979c0.499,0,0.776-0.454,0.776-0.997c0-0.492-0.246-0.991-0.764-0.991
			C450.553,355.866,450.294,356.34,450.294,356.876z"/>
		<path fill="#9ECAEF" d="M452.535,357.69c0.139,0.089,0.348,0.164,0.568,0.164c0.321,0,0.504-0.177,0.504-0.417
			c0-0.227-0.132-0.354-0.453-0.479c-0.398-0.139-0.638-0.354-0.638-0.693c0-0.38,0.302-0.657,0.775-0.657
			c0.253,0,0.424,0.063,0.537,0.12l-0.089,0.259c-0.082-0.051-0.239-0.114-0.46-0.114c-0.328,0-0.455,0.19-0.455,0.354
			c0,0.233,0.145,0.34,0.479,0.474c0.411,0.157,0.625,0.353,0.625,0.706c0,0.385-0.284,0.701-0.858,0.701
			c-0.221,0-0.479-0.063-0.612-0.152L452.535,357.69z"/>
		<path fill="#9ECAEF" d="M454.813,355.911h-0.738v-0.266h1.8v0.266h-0.739v2.164h-0.322V355.911z"/>
		<path fill="#9ECAEF" d="M456.14,355.683c0.17-0.037,0.384-0.051,0.605-0.051c0.329,0,0.549,0.064,0.7,0.197
			c0.127,0.106,0.196,0.271,0.196,0.46c0,0.315-0.214,0.53-0.467,0.619v0.012c0.188,0.064,0.304,0.24,0.359,0.486
			c0.082,0.347,0.14,0.575,0.184,0.669h-0.322c-0.037-0.069-0.088-0.277-0.164-0.573c-0.07-0.342-0.195-0.462-0.486-0.48h-0.29
			v1.054h-0.315V355.683z M456.455,356.782h0.315c0.341,0,0.55-0.184,0.55-0.455c0-0.315-0.229-0.455-0.55-0.455
			c-0.151,0-0.271,0.013-0.315,0.026V356.782z"/>
		<path fill="#9ECAEF" d="M458.394,355.646v1.438c0,0.544,0.239,0.771,0.562,0.771c0.359,0,0.587-0.233,0.587-0.771v-1.438h0.322
			v1.414c0,0.744-0.392,1.054-0.916,1.054c-0.499,0-0.877-0.283-0.877-1.035v-1.433H458.394z"/>
		<path fill="#9ECAEF" d="M460.4,355.683c0.196-0.031,0.43-0.051,0.669-0.051c0.454,0,0.771,0.102,0.984,0.304
			c0.216,0.196,0.335,0.48,0.335,0.871c0,0.397-0.113,0.72-0.348,0.946c-0.221,0.229-0.6,0.342-1.06,0.342
			c-0.233,0-0.417-0.007-0.581-0.024V355.683z M460.722,357.83c0.077,0.012,0.19,0.019,0.311,0.019c0.675,0,1.035-0.379,1.035-1.029
			c0-0.581-0.329-0.947-0.985-0.947c-0.158,0-0.283,0.026-0.36,0.039V357.83z"/>
		<path fill="#9ECAEF" d="M465.141,356.934h-0.94v0.884h1.055v0.258h-1.364v-2.43h1.308v0.266H464.2v0.77h0.94V356.934z"/>
		<path fill="#9ECAEF" d="M466.984,358.075l-0.304-0.536c-0.132-0.202-0.207-0.335-0.283-0.479h-0.006
			c-0.064,0.145-0.14,0.271-0.267,0.479l-0.289,0.536h-0.36l0.745-1.23l-0.72-1.199h0.373l0.309,0.568
			c0.094,0.157,0.164,0.29,0.233,0.417h0.007c0.063-0.14,0.126-0.26,0.215-0.417l0.334-0.568h0.366l-0.744,1.187l0.764,1.243
			H466.984z"/>
		<path fill="#9ECAEF" d="M468.966,356.934h-0.939v0.884h1.048v0.258h-1.358v-2.43h1.313v0.266h-1.003v0.77h0.939V356.934z"/>
		<path fill="#9ECAEF" d="M469.478,355.683c0.164-0.037,0.386-0.051,0.605-0.051c0.335,0,0.556,0.064,0.708,0.197
			c0.113,0.106,0.183,0.271,0.183,0.46c0,0.315-0.195,0.53-0.455,0.619v0.012c0.19,0.064,0.298,0.24,0.36,0.486
			c0.07,0.347,0.133,0.575,0.189,0.669h-0.321c-0.051-0.069-0.102-0.277-0.165-0.573c-0.082-0.342-0.201-0.462-0.485-0.48h-0.303
			v1.054h-0.316V355.683z M469.794,356.782h0.327c0.335,0,0.544-0.184,0.544-0.455c0-0.315-0.222-0.455-0.556-0.455
			c-0.152,0-0.26,0.013-0.315,0.026V356.782z"/>
		<path fill="#9ECAEF" d="M473.119,357.993c-0.1,0.058-0.34,0.114-0.631,0.114c-0.682,0-1.199-0.43-1.199-1.225
			c0-0.758,0.518-1.275,1.264-1.275c0.296,0,0.491,0.063,0.573,0.106l-0.075,0.26c-0.114-0.063-0.284-0.102-0.486-0.102
			c-0.568,0-0.947,0.359-0.947,0.998c0,0.594,0.341,0.984,0.936,0.984c0.188,0,0.384-0.051,0.511-0.102L473.119,357.993z"/>
		<path fill="#9ECAEF" d="M473.834,355.646v2.43h-0.322v-2.43H473.834z"/>
		<path fill="#9ECAEF" d="M474.837,355.911h-0.738v-0.266h1.792v0.266h-0.738v2.164h-0.315V355.911z"/>
		<path fill="#9ECAEF" d="M476.282,357.312l-0.246,0.764h-0.328l0.827-2.43h0.373l0.826,2.43h-0.328l-0.259-0.764H476.282z
			 M477.084,357.066l-0.24-0.701c-0.056-0.151-0.095-0.303-0.126-0.442l0,0c-0.038,0.14-0.082,0.291-0.132,0.442l-0.234,0.701
			H477.084z"/>
		<path fill="#9ECAEF" d="M478.277,355.911h-0.732v-0.266h1.793v0.266h-0.745v2.164h-0.315V355.911z"/>
		<path fill="#9ECAEF" d="M479.918,355.646v2.43h-0.315v-2.43H479.918z"/>
		<path fill="#9ECAEF" d="M482.538,356.832c0,0.839-0.505,1.281-1.123,1.281c-0.638,0-1.093-0.498-1.093-1.23
			c0-0.771,0.474-1.275,1.124-1.275C482.115,355.607,482.538,356.112,482.538,356.832z M480.657,356.876
			c0,0.524,0.277,0.979,0.775,0.979c0.493,0,0.784-0.454,0.784-0.997c0-0.492-0.26-0.991-0.784-0.991
			C480.915,355.866,480.657,356.34,480.657,356.876z"/>
		<path fill="#9ECAEF" d="M482.949,358.075v-2.43h0.34l0.777,1.23c0.176,0.284,0.315,0.537,0.429,0.79h0.012
			c-0.024-0.329-0.031-0.619-0.031-1.004v-1.017h0.291v2.43h-0.315l-0.777-1.23c-0.164-0.278-0.327-0.549-0.448-0.809h-0.005
			c0.012,0.304,0.018,0.6,0.018,1.004v1.035H482.949z"/>
		<path fill="#9ECAEF" d="M486.71,355.646v1.438c0,0.544,0.247,0.771,0.575,0.771c0.359,0,0.587-0.233,0.587-0.771v-1.438h0.315
			v1.414c0,0.744-0.397,1.054-0.915,1.054c-0.505,0-0.878-0.283-0.878-1.035v-1.433H486.71z"/>
		<path fill="#9ECAEF" d="M488.73,355.646h0.31v2.172h1.035v0.258h-1.345V355.646z"/>
		<path fill="#9ECAEF" d="M490.422,355.646h0.311v2.172h1.041v0.258h-1.352V355.646z"/>
		<path fill="#9ECAEF" d="M492.518,357.312l-0.252,0.764h-0.322l0.821-2.43h0.378l0.834,2.43h-0.342l-0.252-0.764H492.518z
			 M493.313,357.066l-0.24-0.701c-0.051-0.151-0.082-0.303-0.12-0.442h-0.012c-0.039,0.14-0.076,0.291-0.121,0.442l-0.239,0.701
			H493.313z"/>
		<path fill="#9ECAEF" d="M496.35,357.009c-0.012-0.335-0.031-0.744-0.031-1.048h-0.007c-0.089,0.277-0.188,0.593-0.309,0.922
			l-0.429,1.174h-0.234l-0.392-1.148c-0.12-0.348-0.221-0.657-0.284-0.947h-0.006c-0.006,0.304-0.025,0.713-0.044,1.079l-0.07,1.035
			h-0.29l0.165-2.43h0.391l0.416,1.174c0.108,0.303,0.19,0.568,0.24,0.82h0.02c0.063-0.239,0.145-0.511,0.265-0.82l0.424-1.174
			h0.397l0.157,2.43h-0.31L496.35,357.009z"/>
		<path fill="#9ECAEF" d="M498.899,357.993c-0.113,0.058-0.347,0.114-0.643,0.114c-0.682,0-1.199-0.43-1.199-1.225
			c0-0.758,0.518-1.275,1.269-1.275c0.296,0,0.498,0.063,0.573,0.106l-0.075,0.26c-0.113-0.063-0.284-0.102-0.492-0.102
			c-0.555,0-0.941,0.359-0.941,0.998c0,0.594,0.342,0.984,0.929,0.984c0.195,0,0.392-0.051,0.511-0.102L498.899,357.993z"/>
		<path fill="#9ECAEF" d="M501.293,356.832c0,0.839-0.513,1.281-1.124,1.281c-0.65,0-1.099-0.498-1.099-1.23
			c0-0.771,0.479-1.275,1.13-1.275C500.857,355.607,501.293,356.112,501.293,356.832z M499.405,356.876
			c0,0.524,0.277,0.979,0.771,0.979c0.498,0,0.775-0.454,0.775-0.997c0-0.492-0.246-0.991-0.775-0.991
			C499.67,355.866,499.405,356.34,499.405,356.876z"/>
		<path fill="#9ECAEF" d="M502.782,355.646h0.315v2.172h1.036v0.258h-1.352V355.646z"/>
		<path fill="#9ECAEF" d="M504.878,357.312l-0.259,0.764h-0.328l0.827-2.43h0.385l0.821,2.43h-0.336l-0.258-0.764H504.878z
			 M505.667,357.066l-0.233-0.701c-0.063-0.151-0.096-0.303-0.133-0.442l0,0c-0.038,0.14-0.076,0.291-0.12,0.442l-0.245,0.701
			H505.667z"/>
		<path fill="#9ECAEF" d="M506.684,355.683c0.139-0.031,0.347-0.051,0.568-0.051c0.315,0,0.518,0.051,0.669,0.178
			c0.126,0.089,0.202,0.233,0.202,0.422c0,0.235-0.151,0.449-0.411,0.537v0.007c0.228,0.057,0.505,0.246,0.505,0.606
			c0,0.208-0.082,0.371-0.214,0.486c-0.158,0.157-0.436,0.227-0.833,0.227c-0.222,0-0.379-0.013-0.486-0.024V355.683z
			 M506.992,356.681h0.284c0.335,0,0.531-0.177,0.531-0.416c0-0.278-0.216-0.393-0.544-0.393c-0.139,0-0.221,0.007-0.271,0.026
			V356.681z M506.992,357.842c0.063,0.013,0.158,0.013,0.266,0.013c0.328,0,0.625-0.126,0.625-0.473
			c0-0.335-0.291-0.474-0.631-0.474h-0.26V357.842z"/>
		<path fill="#9ECAEF" d="M510.704,356.832c0,0.839-0.505,1.281-1.124,1.281c-0.644,0-1.091-0.498-1.091-1.23
			c0-0.771,0.479-1.275,1.117-1.275C510.281,355.607,510.704,356.112,510.704,356.832z M508.823,356.876
			c0,0.524,0.277,0.979,0.776,0.979c0.492,0,0.771-0.454,0.771-0.997c0-0.492-0.246-0.991-0.764-0.991
			C509.076,355.866,508.823,356.34,508.823,356.876z"/>
		<path fill="#9ECAEF" d="M511.115,355.683c0.157-0.037,0.384-0.051,0.593-0.051c0.335,0,0.556,0.064,0.701,0.197
			c0.132,0.106,0.195,0.271,0.195,0.46c0,0.315-0.202,0.53-0.461,0.619v0.012c0.184,0.064,0.304,0.24,0.354,0.486
			c0.088,0.347,0.152,0.575,0.189,0.669h-0.321c-0.045-0.069-0.089-0.277-0.158-0.573c-0.07-0.342-0.208-0.462-0.492-0.48h-0.298
			v1.054h-0.302V355.683z M511.417,356.782h0.329c0.328,0,0.555-0.184,0.555-0.455c0-0.315-0.239-0.455-0.568-0.455
			c-0.15,0-0.258,0.013-0.315,0.026V356.782z"/>
		<path fill="#9ECAEF" d="M513.355,355.646v2.43h-0.315v-2.43H513.355z"/>
		<path fill="#9ECAEF" d="M513.86,357.69c0.14,0.089,0.354,0.164,0.568,0.164c0.315,0,0.505-0.177,0.505-0.417
			c0-0.227-0.132-0.354-0.454-0.479c-0.397-0.139-0.644-0.354-0.644-0.693c0-0.38,0.302-0.657,0.782-0.657
			c0.246,0,0.423,0.063,0.536,0.12l-0.088,0.259c-0.076-0.051-0.24-0.114-0.461-0.114c-0.321,0-0.454,0.19-0.454,0.354
			c0,0.233,0.151,0.34,0.479,0.474c0.41,0.157,0.624,0.353,0.624,0.706c0,0.385-0.277,0.701-0.857,0.701
			c-0.229,0-0.486-0.063-0.619-0.152L513.86,357.69z"/>
		<path fill="#9ECAEF" d="M516.765,358.075v-2.43h0.341l0.783,1.23c0.176,0.284,0.315,0.537,0.44,0.79h0.007
			c-0.038-0.329-0.045-0.619-0.045-1.004v-1.017h0.304v2.43h-0.315l-0.776-1.23c-0.171-0.278-0.334-0.549-0.455-0.809h-0.006
			c0.006,0.304,0.019,0.6,0.019,1.004v1.035H516.765z"/>
		<path fill="#9ECAEF" d="M519.446,355.646v2.43h-0.315v-2.43H519.446z"/>
		<path fill="#9ECAEF" d="M519.952,357.69c0.133,0.089,0.347,0.164,0.568,0.164c0.31,0,0.498-0.177,0.498-0.417
			c0-0.227-0.126-0.354-0.454-0.479c-0.392-0.139-0.638-0.354-0.638-0.693c0-0.38,0.316-0.657,0.783-0.657
			c0.253,0,0.422,0.063,0.542,0.12l-0.094,0.259c-0.076-0.051-0.246-0.114-0.462-0.114c-0.333,0-0.453,0.19-0.453,0.354
			c0,0.233,0.145,0.34,0.473,0.474c0.416,0.157,0.632,0.353,0.632,0.706c0,0.385-0.278,0.701-0.859,0.701
			c-0.233,0-0.485-0.063-0.618-0.152L519.952,357.69z"/>
		<path fill="#9ECAEF" d="M522.085,355.646v2.43h-0.315v-2.43H522.085z"/>
		<path fill="#9ECAEF" d="M524.03,355.646v1.438c0,0.544,0.239,0.771,0.568,0.771c0.359,0,0.587-0.233,0.587-0.771v-1.438h0.315
			v1.414c0,0.744-0.379,1.054-0.922,1.054c-0.486,0-0.864-0.283-0.864-1.035v-1.433H524.03z"/>
		<path fill="#9ECAEF" d="M526.498,355.911h-0.732v-0.266h1.793v0.266h-0.738v2.164h-0.322V355.911z"/>
		<path fill="#9ECAEF" d="M529.308,357.312l-0.24,0.764h-0.322l0.82-2.43h0.373l0.826,2.43h-0.334l-0.246-0.764H529.308z
			 M530.109,357.066l-0.233-0.701c-0.051-0.151-0.089-0.303-0.127-0.442h-0.006c-0.038,0.14-0.082,0.291-0.134,0.442l-0.227,0.701
			H530.109z"/>
		<path fill="#9ECAEF" d="M531.119,355.646h0.315v2.172h1.042v0.258h-1.357V355.646z"/>
		<path fill="#9ECAEF" d="M533.139,355.646v2.43h-0.315v-2.43H533.139z"/>
		<path fill="#9ECAEF" d="M535.683,358.435c-0.334-0.087-0.656-0.188-0.928-0.289c-0.051-0.013-0.102-0.032-0.152-0.032
			c-0.573-0.019-1.06-0.447-1.06-1.23c0-0.771,0.467-1.275,1.124-1.275c0.662,0,1.091,0.505,1.091,1.225
			c0,0.625-0.289,1.022-0.688,1.161v0.02c0.228,0.063,0.499,0.12,0.714,0.157L535.683,358.435z M535.424,356.857
			c0-0.492-0.253-0.991-0.771-0.991c-0.523,0-0.782,0.492-0.782,1.017c0,0.518,0.284,0.972,0.765,0.972
			C535.146,357.854,535.424,357.406,535.424,356.857z"/>
		<path fill="#9ECAEF" d="M536.473,355.646v1.438c0,0.544,0.245,0.771,0.562,0.771c0.359,0,0.587-0.233,0.587-0.771v-1.438h0.335
			v1.414c0,0.744-0.397,1.054-0.935,1.054c-0.493,0-0.859-0.283-0.859-1.035v-1.433H536.473z"/>
		<path fill="#9ECAEF" d="M538.794,355.646v2.43h-0.309v-2.43H538.794z"/>
		<path fill="#9ECAEF" d="M539.351,355.677c0.145-0.025,0.334-0.045,0.6-0.045c0.31,0,0.543,0.077,0.682,0.202
			c0.132,0.115,0.208,0.291,0.208,0.506c0,0.214-0.063,0.392-0.183,0.518c-0.164,0.183-0.442,0.271-0.745,0.271
			c-0.095,0-0.177-0.007-0.259-0.031v0.978h-0.303V355.677z M539.653,356.845c0.069,0.025,0.164,0.025,0.277,0.025
			c0.366,0,0.6-0.184,0.6-0.512c0-0.322-0.233-0.486-0.58-0.486c-0.133,0-0.239,0.013-0.297,0.032V356.845z"/>
		<path fill="#9ECAEF" d="M543.611,356.934h-0.946v0.884h1.048v0.258h-1.358v-2.43h1.301v0.266h-0.99v0.77h0.946V356.934z"/>
		<path fill="#9ECAEF" d="M545.454,358.075l-0.315-0.536c-0.126-0.202-0.195-0.335-0.284-0.479h-0.006
			c-0.063,0.145-0.133,0.271-0.259,0.479l-0.297,0.536h-0.359l0.744-1.23l-0.707-1.199h0.36l0.321,0.568
			c0.089,0.157,0.151,0.29,0.221,0.417h0.013c0.069-0.14,0.127-0.26,0.222-0.417l0.322-0.568h0.359l-0.732,1.187l0.758,1.243
			H545.454z"/>
		<path fill="#9ECAEF" d="M548.522,356.934h-0.947v0.884h1.054v0.258h-1.357v-2.43h1.302v0.266h-0.998v0.77h0.947V356.934z"/>
		<path fill="#9ECAEF" d="M549.431,357.312l-0.265,0.764h-0.322l0.833-2.43h0.386l0.82,2.43h-0.34l-0.253-0.764H549.431z
			 M550.214,357.066l-0.227-0.701c-0.051-0.151-0.095-0.303-0.126-0.442h-0.014c-0.037,0.14-0.082,0.291-0.12,0.442l-0.239,0.701
			H550.214z"/>
		<path fill="#9ECAEF" d="M434.355,364.161c-0.12,0.063-0.348,0.119-0.645,0.119c-0.688,0-1.199-0.441-1.199-1.224
			c0-0.764,0.511-1.275,1.269-1.275c0.304,0,0.492,0.063,0.581,0.101l-0.082,0.26c-0.113-0.058-0.284-0.102-0.486-0.102
			c-0.568,0-0.953,0.359-0.953,0.997c0,0.6,0.354,0.979,0.935,0.979c0.196,0,0.392-0.044,0.512-0.102L434.355,364.161z"/>
		<path fill="#9ECAEF" d="M436.741,363.006c0,0.833-0.505,1.274-1.124,1.274c-0.638,0-1.092-0.492-1.092-1.224
			c0-0.777,0.48-1.275,1.124-1.275C436.312,361.781,436.741,362.286,436.741,363.006z M434.859,363.043
			c0,0.518,0.278,0.984,0.777,0.984c0.486,0,0.776-0.453,0.776-1.009c0-0.479-0.253-0.991-0.776-0.991
			C435.112,362.027,434.859,362.508,434.859,363.043z"/>
		<path fill="#9ECAEF" d="M439.19,363.183c-0.02-0.348-0.038-0.745-0.031-1.061h-0.02c-0.076,0.29-0.17,0.593-0.303,0.935
			l-0.429,1.173h-0.246l-0.38-1.154c-0.113-0.348-0.214-0.663-0.284-0.953h-0.006c-0.013,0.315-0.025,0.713-0.05,1.086l-0.064,1.035
			h-0.302l0.176-2.424h0.398l0.416,1.173c0.096,0.291,0.184,0.556,0.24,0.809h0.013c0.063-0.24,0.145-0.505,0.259-0.809l0.43-1.173
			h0.403l0.146,2.424h-0.304L439.19,363.183z"/>
		<path fill="#9ECAEF" d="M442.088,363.183c-0.025-0.348-0.038-0.745-0.038-1.061h-0.006c-0.089,0.29-0.19,0.593-0.315,0.935
			l-0.424,1.173h-0.239l-0.392-1.154c-0.12-0.348-0.215-0.663-0.277-0.953h-0.014c-0.006,0.315-0.024,0.713-0.051,1.086
			l-0.056,1.035h-0.304l0.164-2.424h0.404l0.424,1.173c0.087,0.291,0.176,0.556,0.239,0.809h0.007
			c0.063-0.24,0.151-0.505,0.252-0.809l0.436-1.173h0.41l0.145,2.424h-0.315L442.088,363.183z"/>
		<path fill="#9ECAEF" d="M445.01,363.006c0,0.833-0.518,1.274-1.136,1.274c-0.644,0-1.079-0.492-1.079-1.224
			c0-0.777,0.474-1.275,1.117-1.275C444.574,361.781,445.01,362.286,445.01,363.006z M443.123,363.043
			c0,0.518,0.278,0.984,0.77,0.984c0.506,0,0.777-0.453,0.777-1.009c0-0.479-0.247-0.991-0.777-0.991
			C443.388,362.027,443.123,362.508,443.123,363.043z"/>
		<path fill="#9ECAEF" d="M445.407,361.851c0.19-0.031,0.424-0.058,0.67-0.058c0.449,0,0.776,0.115,0.984,0.315
			c0.216,0.19,0.342,0.468,0.342,0.859c0,0.404-0.12,0.72-0.354,0.946c-0.221,0.222-0.593,0.354-1.073,0.354
			c-0.22,0-0.409-0.012-0.568-0.038V361.851z M445.729,363.99c0.07,0.013,0.184,0.013,0.311,0.013c0.675,0,1.035-0.366,1.035-1.022
			c0.006-0.568-0.322-0.935-0.985-0.935c-0.164,0-0.283,0.013-0.36,0.038V363.99z"/>
		<path fill="#9ECAEF" d="M449.884,363.006c0,0.833-0.518,1.274-1.137,1.274c-0.644,0-1.086-0.492-1.086-1.224
			c0-0.777,0.48-1.275,1.131-1.275C449.454,361.781,449.884,362.286,449.884,363.006z M447.996,363.043
			c0,0.518,0.284,0.984,0.776,0.984s0.771-0.453,0.771-1.009c0-0.479-0.253-0.991-0.764-0.991
			C448.255,362.027,447.996,362.508,447.996,363.043z"/>
		<path fill="#9ECAEF" d="M453.065,364.161c-0.113,0.063-0.347,0.119-0.638,0.119c-0.682,0-1.199-0.441-1.199-1.224
			c0-0.764,0.518-1.275,1.269-1.275c0.304,0,0.492,0.063,0.568,0.101l-0.069,0.26c-0.113-0.058-0.291-0.102-0.479-0.102
			c-0.582,0-0.953,0.359-0.953,0.997c0,0.6,0.34,0.979,0.927,0.979c0.195,0,0.393-0.044,0.513-0.102L453.065,364.161z"/>
		<path fill="#9ECAEF" d="M455.457,363.006c0,0.833-0.504,1.274-1.123,1.274c-0.638,0-1.086-0.492-1.086-1.224
			c0-0.777,0.468-1.275,1.117-1.275C455.028,361.781,455.457,362.286,455.457,363.006z M453.583,363.043
			c0,0.518,0.277,0.984,0.757,0.984c0.505,0,0.784-0.453,0.784-1.009c0-0.479-0.247-0.991-0.771-0.991
			C453.836,362.027,453.583,362.508,453.583,363.043z"/>
		<path fill="#9ECAEF" d="M455.861,364.243v-2.424h0.347l0.771,1.224c0.183,0.284,0.329,0.544,0.436,0.789l0.007-0.005
			c-0.025-0.322-0.031-0.619-0.031-0.999v-1.009h0.29v2.424h-0.316l-0.77-1.231c-0.17-0.271-0.321-0.549-0.454-0.814l-0.007,0.007
			c0.02,0.304,0.02,0.6,0.02,1.004v1.035H455.861z"/>
		<path fill="#9ECAEF" d="M458.185,363.864c0.139,0.082,0.347,0.151,0.568,0.151c0.31,0,0.498-0.164,0.498-0.417
			c0-0.221-0.126-0.354-0.454-0.479c-0.397-0.139-0.637-0.341-0.637-0.682c0-0.379,0.315-0.656,0.782-0.656
			c0.253,0,0.429,0.057,0.537,0.113l-0.089,0.253c-0.082-0.039-0.24-0.114-0.455-0.114c-0.335,0-0.46,0.202-0.46,0.366
			c0,0.228,0.151,0.342,0.479,0.468c0.409,0.158,0.618,0.354,0.618,0.713c0,0.372-0.277,0.7-0.846,0.7
			c-0.24,0-0.492-0.068-0.618-0.151L458.185,363.864z"/>
		<path fill="#9ECAEF" d="M461.259,363.101h-0.94v0.878h1.042v0.265h-1.352v-2.424h1.308v0.265h-0.998v0.764h0.94V363.101z"/>
		<path fill="#9ECAEF" d="M463.771,364.596c-0.321-0.088-0.65-0.176-0.928-0.277c-0.05-0.019-0.106-0.038-0.145-0.038
			c-0.58-0.018-1.066-0.441-1.066-1.224c0-0.783,0.467-1.275,1.123-1.275s1.092,0.505,1.092,1.225c0,0.624-0.296,1.021-0.688,1.161
			v0.013c0.234,0.063,0.499,0.12,0.701,0.151L463.771,364.596z M463.52,363.019c0-0.486-0.253-0.991-0.771-0.991
			c-0.53,0-0.783,0.498-0.783,1.016s0.277,0.984,0.764,0.984C463.235,364.027,463.52,363.574,463.52,363.019z"/>
		<path fill="#9ECAEF" d="M464.56,361.819v1.433c0,0.542,0.246,0.775,0.568,0.775c0.36,0,0.594-0.239,0.594-0.775v-1.433h0.315
			v1.413c0,0.739-0.398,1.048-0.921,1.048c-0.493,0-0.865-0.284-0.865-1.035v-1.426H464.56z"/>
		<path fill="#9ECAEF" d="M466.845,363.479l-0.251,0.765h-0.329l0.827-2.424h0.379l0.84,2.424h-0.342l-0.258-0.765H466.845z
			 M467.646,363.232l-0.239-0.693c-0.05-0.164-0.082-0.304-0.127-0.442h-0.005c-0.039,0.139-0.082,0.291-0.12,0.436l-0.24,0.7
			H467.646z"/>
		<path fill="#9ECAEF" d="M468.84,362.084h-0.731v-0.265h1.786v0.265h-0.745v2.159h-0.31V362.084z"/>
		<path fill="#9ECAEF" d="M470.159,363.972c0-0.184,0.133-0.322,0.31-0.322c0.183,0,0.31,0.139,0.31,0.322
			c0,0.183-0.127,0.328-0.31,0.328C470.285,364.3,470.159,364.154,470.159,363.972z"/>
	</g>
</g>
<g>
	<polygon fill="#1F75FE" points="386.822,339.063 401.126,256.34 418.145,339.063 	"/>
	<polygon fill="#FFBD07" points="416.384,339.063 430.668,286.713 447.699,339.063 	"/>
	<polygon fill="#003AA5" points="355.531,339.063 369.835,306.237 386.854,339.063 	"/>
	<polygon fill="#1F75FE" points="480.512,339.409 494.804,256.688 511.834,339.409 	"/>
	<polygon fill="#FFBD07" points="510.066,339.409 524.365,287.054 541.383,339.409 	"/>
	<polygon fill="#003AA5" points="449.214,339.409 463.52,306.579 480.544,339.409 	"/>
</g>
<g>
	<g>
		<rect x="361.042" y="177.529" fill="#1F75FE" width="5.94" height="46.087"/>
		<rect x="368.232" y="189.7" fill="#003AA5" width="6.54" height="33.917"/>
		<rect x="376.634" y="184.486" fill="#1F75FE" width="5.934" height="39.131"/>
		<rect x="383.817" y="200.573" fill="#003AA5" width="6.546" height="23.043"/>
	</g>
	<g>
		<rect x="392.125" y="177.529" fill="#1F75FE" width="5.934" height="46.087"/>
		<rect x="399.314" y="189.7" fill="#003AA5" width="6.54" height="33.917"/>
		<rect x="407.716" y="184.486" fill="#1F75FE" width="5.935" height="39.131"/>
		<rect x="414.9" y="200.573" fill="#003AA5" width="6.546" height="23.043"/>
	</g>
	<g>
		<rect x="423.207" y="177.529" fill="#1F75FE" width="5.928" height="46.087"/>
		<rect x="430.397" y="189.7" fill="#003AA5" width="6.527" height="33.917"/>
		<rect x="438.793" y="184.486" fill="#1F75FE" width="5.939" height="39.131"/>
		<rect x="445.982" y="200.573" fill="#003AA5" width="6.54" height="23.043"/>
	</g>
</g>
<g>
	<rect x="463.96" y="176.662" fill="#29B9E6" width="70.96" height="4.532"/>
</g>
<g>
	<rect x="463.96" y="186.733" fill="#29B9E6" width="56.353" height="3.598"/>
</g>
<g>
	<rect x="463.96" y="196.334" fill="#29B9E6" width="74.538" height="3.602"/>
</g>
<g>
	<rect x="463.96" y="210.32" fill="#29B9E6" width="70.96" height="4.529"/>
</g>
<g>
	<rect x="463.96" y="220.388" fill="#29B9E6" width="56.353" height="3.601"/>
</g>
<g>
	<rect x="463.96" y="229.996" fill="#29B9E6" width="74.538" height="3.595"/>
</g>
<g>
	<g>
		<g>
			<g>
				<g>
					<g>
						<path fill="#FFC190" d="M518.197,98.585c0,0-12.404-5.643-14.998-3.9c-2.19,1.464-7.437,10.125,13.975,9.307L518.197,98.585z"
							/>
					</g>
				</g>
			</g>
			<g>
				<g>
					<g>
						<g>
							<g>
								<path fill="#DAE2F2" d="M620.333,67.393l-24.802,56.301l-80.074-19.044l1.313-6.78l63.832,5.013l24.738-48.843
									c0,0,12.84-21.216,19.486-10.791C628.109,48.434,625.231,55.73,620.333,67.393z"/>
							</g>
						</g>
					</g>
				</g>
			</g>
		</g>
		<g>
			<g>
				<g>
					<path fill="#11141B" d="M625.591,10.622c0,0,10.461,0.868,12.853,7.464c2.393,6.587,5.53,10.021,13.964,14.386
						c8.407,4.369,21.758,12.29,21.342,20.459c-0.656,12.994,8.856,18.644,6.199,25.953c-2.665,7.304-11.918,5.019-15.05,1.695
						c-3.124-3.326-25.18-18.612-28.885-24.801c-3.706-6.196-11.747-0.84-15.801-4.892c-4.053-4.062-2.721-11.391-4.646-13.717
						c-7.046-8.538-3.832-16.911,0.846-22.896C621.071,8.286,625.591,10.622,625.591,10.622z"/>
				</g>
			</g>
		</g>
		<g>
			<g>
				<g>
					<path fill="#EDA629" d="M678.369,129.596l-68.11,5.448l-79.771,11.432c0,0-17.511,0.463-16.323,45.352l-1.162,80.897
						l9.185-0.142c0,0,16.456-56.645,20.472-96.976c0,0,70.592,4.327,94.402-6.237C660.878,158.807,683.735,132.579,678.369,129.596
						z"/>
				</g>
			</g>
		</g>
		<g>
			<g>
				<g>
					<path fill="#FFBE3D" d="M678.496,130.019l-124.388,37.534c0,0-16.81,4.179-2.771,48.899l21.387,82.854l9.178-2.771
						c0,0,0.007-59.905-6.009-102.255c0,0,66.539-2.983,95.047-14.32C696.189,169.875,687.233,142.401,678.496,130.019z"/>
				</g>
			</g>
		</g>
		<g>
			<g>
				<g>
					<path fill="#008AFF" d="M654.56,42.478c0,0,8.225,5.871,14.272,22.494c6.034,16.624,1.938,40.394,1.938,40.394l11.785,31.758
						l-72.296-2.08l-4.444-29.624l6.318-12.85l-7.082-11.438l12.075-39.576L654.56,42.478z"/>
				</g>
			</g>
		</g>
		<g>
			<g>
				<g>
					<polygon fill="#7A92CE" points="583.178,293.493 569.518,296.125 571.393,305.385 569.612,309.816 552.12,327.511 
						557.044,326.027 575.925,317.367 577.906,318.162 585.122,315.877 					"/>
				</g>
			</g>
		</g>
		<g>
			<g>
				<g>
					<polygon fill="#7A92CE" points="523.481,269.148 510.408,266.516 508.703,275.4 505.509,278.689 483.567,288.001 
						488.484,288.48 508.356,287.66 509.82,289.1 517.055,289.706 					"/>
				</g>
			</g>
		</g>
		<g>
			<g>
				<g>
					<path fill="#FFC190" d="M632.535,28.789l8.231,13.342c0,0-14.021,18.274-14.443,10.481c-0.404-7.228-3.465-20.891-3.465-20.891
						L632.535,28.789z"/>
				</g>
			</g>
		</g>
		<g>
			<g>
				<g>
					<path fill="#FFC190" d="M627.505,12.102c2.076,2.607,6.166,7.673,5.68,12.086c-0.505,4.421-0.908,12.154-4.866,15.178
						c-3.971,3.03-6.659-1.65-8.118-3.042c-1.445-1.373-8.787-17.104-2.783-23.224C621.948,8.485,625.919,10.116,627.505,12.102z"/>
				</g>
			</g>
		</g>
		<g>
			<g>
				<g>
					<path fill="#191D26" d="M621.166,15.984c0,0,6.748,7.474,13.213,7.48c0,0-3.207-14.039-12.108-13.247
						c0,0-10.275,2.412-7.417,15.179C614.854,25.396,621.893,20.447,621.166,15.984z"/>
				</g>
			</g>
		</g>
		<g>
			<g>
				<g>
					<g>
						<path fill="#DAE2F2" d="M608.964,153.659c0,0-12.485,5.432-12.94,8.538c-0.391,2.607,2.557,12.307,16.261-4.175
							L608.964,153.659z"/>
					</g>
				</g>
			</g>
			<g>
				<g>
					<g>
						<path fill="#DAE2F2" d="M671.129,68.961l14.419,59.88l-76.476,30.546l-2.261-4.684l54.382-33.788l-9.015-54
							c0,0-4.487-17.943,7.721-19.976C659.899,46.94,668.175,56.681,671.129,68.961z"/>
					</g>
				</g>
			</g>
		</g>
	</g>
	
		<rect x="459.23" y="79.491" transform="matrix(0.6719 -0.7406 0.7406 0.6719 111.006 413.7011)" fill="#003AA5" width="126.496" height="4.118"/>
	<polygon fill="#FFBE3D" points="569.966,7.832 571.974,21.157 586.498,21.205 550.461,65.773 534.231,68.93 534.805,51.309 	"/>
</g>
</svg>
