<?xml version="1.0" encoding="utf-8"?>
<!-- Generator: Adobe Illustrator 16.0.0, SVG Export Plug-In . SVG Version: 6.00 Build 0)  -->
<!DOCTYPE svg PUBLIC "-//W3C//DTD SVG 1.1//EN" "http://www.w3.org/Graphics/SVG/1.1/DTD/svg11.dtd">
<svg version="1.1" id="Layer_1" xmlns="http://www.w3.org/2000/svg" xmlns:xlink="http://www.w3.org/1999/xlink" x="0px" y="0px"
	 width="694px" height="560px" viewBox="0 0 694 560" enable-background="new 0 0 694 560" xml:space="preserve">
<g>
	<g>
		<g>
			<path fill="#DAE2F2" d="M422.407,30.002c-50.142,13.248-80.06,64.614-66.818,114.763c13.234,50.142,64.614,80.054,114.756,66.819
				c50.129-13.235,80.06-64.627,66.818-114.756C523.922,46.673,472.543,16.773,422.407,30.002z M458.985,168.527
				c-26.366,6.962-53.391-8.754-60.366-35.127c-6.949-26.373,8.78-53.397,35.16-60.36c26.366-6.962,53.378,8.78,60.34,35.147
				C501.075,134.553,485.353,161.564,458.985,168.527z"/>
		</g>
		<g>
			<path fill="#DAE2F2" d="M449.077,45.525L408.154,56.33c0,0-15.62-30.776-10.463-39.634c5.324-9.154,32.394-17.058,40.91-10.805
				C446.872,11.952,449.077,45.525,449.077,45.525z"/>
		</g>
		<g>
			<path fill="#DAE2F2" d="M482.29,186.861l-40.923,10.805c0,0,1.611,34.476,10.463,39.653c9.141,5.318,36.591-1.154,40.923-10.817
				C496.943,217.153,482.29,186.861,482.29,186.861z"/>
		</g>
		<g>
			<path fill="#DAE2F2" d="M391.967,66.193l-16.478,38.976c0,0-33.909-6.472-37.771-15.975c-3.978-9.799,6.312-36.049,16.484-38.963
				C364.053,47.401,391.967,66.193,391.967,66.193z"/>
		</g>
		<g>
			<path fill="#DAE2F2" d="M374.148,123.684l3.983,42.135c0,0-32.923,10.392-40.819,3.855c-8.155-6.743-11.553-34.734-3.984-42.135
				C340.665,120.383,374.148,123.684,374.148,123.684z"/>
		</g>
		<g>
			<path fill="#DAE2F2" d="M521.994,125.373l-9.141-41.323c0,0,31.407-14.363,40.033-8.857c8.922,5.699,15.724,33.071,9.129,41.349
				C555.62,124.535,521.994,125.373,521.994,125.373z"/>
		</g>
		<g>
			<path fill="#DAE2F2" d="M465.587,45.384l33.587,25.761c0,0,26.282-22.357,24.955-32.53
				c-1.387-10.495-23.292-28.249-33.574-25.761C480.595,15.259,465.587,45.384,465.587,45.384z"/>
		</g>
		<g>
			<path fill="#DAE2F2" d="M420.796,200.051l-33.574-25.761c0,0-26.314,22.357-24.961,32.523
				c1.38,10.482,23.298,28.243,33.574,25.754C405.808,230.169,420.796,200.051,420.796,200.051z"/>
		</g>
		<g>
			<path fill="#DAE2F2" d="M502.771,179.763l16.491-38.97c0,0,33.908,6.459,37.751,15.962c3.983,9.799-6.305,36.062-16.484,38.982
				C530.672,198.568,502.771,179.763,502.771,179.763z"/>
		</g>
	</g>
	<g>
		<g>
			<g>
				<path fill="#C8EEFB" d="M612.673,182.954c-24.266,6.401-38.738,31.26-32.33,55.525c6.401,24.265,31.26,38.744,55.531,32.336
					c24.252-6.408,38.737-31.266,32.329-55.524C661.796,191.019,636.938,176.553,612.673,182.954z M630.375,249.979
					c-12.765,3.372-25.838-4.235-29.203-16.993c-3.372-12.764,4.242-25.838,17.006-29.203c12.758-3.378,25.825,4.242,29.197,17
					C650.746,233.541,643.126,246.614,630.375,249.979z"/>
			</g>
			<g>
				<path fill="#C8EEFB" d="M625.579,190.464l-19.805,5.229c0,0-7.556-14.885-5.061-19.179c2.572-4.429,15.672-8.252,19.798-5.222
					C624.515,174.219,625.579,190.464,625.579,190.464z"/>
			</g>
			<g>
				<path fill="#C8EEFB" d="M641.644,258.856l-19.798,5.229c0,0,0.78,16.684,5.061,19.185c4.423,2.572,17.709-0.561,19.805-5.234
					C648.741,273.51,641.644,258.856,641.644,258.856z"/>
			</g>
			<g>
				<path fill="#C8EEFB" d="M597.948,200.47l-7.98,18.856c0,0-16.407-3.127-18.27-7.729c-1.921-4.745,3.056-17.445,7.974-18.856
					C584.437,191.367,597.948,200.47,597.948,200.47z"/>
			</g>
			<g>
				<path fill="#C8EEFB" d="M589.323,228.28l1.927,20.384c0,0-15.929,5.041-19.752,1.876c-3.945-3.269-5.589-16.806-1.928-20.391
					C573.123,226.682,589.323,228.28,589.323,228.28z"/>
			</g>
			<g>
				<path fill="#C8EEFB" d="M660.861,229.105l-4.423-19.998c0,0,15.194-6.949,19.372-4.287c4.319,2.752,7.607,16,4.416,20.003
					C677.132,228.693,660.861,229.105,660.861,229.105z"/>
			</g>
			<g>
				<path fill="#C8EEFB" d="M633.566,190.4l16.252,12.455c0,0,12.726-10.817,12.074-15.73c-0.664-5.08-11.269-13.667-16.239-12.468
					C640.831,175.818,633.566,190.4,633.566,190.4z"/>
			</g>
			<g>
				<path fill="#C8EEFB" d="M611.893,265.232l-16.239-12.468c0,0-12.738,10.824-12.081,15.743
					c0.671,5.073,11.269,13.667,16.246,12.461C604.64,279.814,611.893,265.232,611.893,265.232z"/>
			</g>
			<g>
				<path fill="#C8EEFB" d="M651.559,255.42l7.98-18.85c0,0,16.4,3.12,18.27,7.716c1.922,4.738-3.056,17.451-7.98,18.863
					C665.058,264.523,651.559,255.42,651.559,255.42z"/>
			</g>
		</g>
	</g>
	<g>
		<g>
			<path fill="#1F75FE" d="M434.354,512.582c-110.875,53.7-244.359,7.35-298.072-103.513
				c-53.7-110.934-7.349-244.43,103.552-298.149c110.914-53.732,244.358-7.375,298.11,103.526
				C591.715,325.431,545.318,458.837,434.354,512.582z"/>
			<path fill="#FFBD07" d="M465.664,129.402L337.125,311.744l221.55,25.548c4.681-40.749-1.521-83.167-20.732-122.846
				C520.893,179.189,495.654,150.528,465.664,129.402z"/>
			<path fill="#003AA5" d="M434.354,512.582c71.344-34.528,115.729-102.024,124.322-175.29l-221.55-25.548L202.888,489.825
				C267.586,538.51,356.491,550.353,434.354,512.582z"/>
			<path fill="#5E4B85" d="M268.186,99.735l68.94,212.009l7.175,0.813l143.824-164.975C429.809,94.036,345.803,74.4,268.186,99.735z
				"/>
		</g>
		<path fill="#FFFFFF" d="M472.729,311.744c0,74.884-60.721,135.599-135.585,135.599c-74.903,0-135.604-60.715-135.604-135.599
			c0-74.877,60.701-135.591,135.604-135.591C412.009,176.153,472.729,236.867,472.729,311.744z"/>
	</g>
	<rect x="5.209" y="247.149" fill="#EEF9FF" width="363.054" height="163.306"/>
	<g>
		<rect x="28.623" y="289.826" fill="#1F75FE" width="26.051" height="100.335"/>
		<rect x="60.16" y="316.321" fill="#003AA5" width="28.694" height="73.84"/>
		<rect x="97.021" y="304.976" fill="#1F75FE" width="26.038" height="85.186"/>
		<rect x="128.565" y="339.993" fill="#003AA5" width="28.681" height="50.168"/>
	</g>
	<g>
		<path fill="#003AA5" d="M203.822,336.1l19.708-12.693l12.41,6.35l20.288,18.824l17.748-12.48l6.401,3.675l8.819,5.028
			l12.042,3.777c0,0,15.852,3.152,19.662,3.778l8.245,16.367l19.649-2.521v23.956H203.822V336.1z"/>
		<polygon fill="#1F75FE" points="203.597,375.018 223.53,362.969 232.361,371.865 240.04,375.018 260.03,369.003 269.533,375.018 
			283.49,380.685 301.237,383.824 321.531,383.824 333.083,383.824 348.794,390.161 203.822,390.161 		"/>
	</g>
	<rect x="112.848" y="47.311" fill="#EEF9FF" width="203.777" height="163.318"/>
	<g>
		<path fill="#003AA5" d="M125.516,136.262l24.478-12.687l15.433,6.337l25.219,18.831l22.067-12.48l7.961,3.674l10.959,5.035
			l14.975,3.771c0,0,19.701,3.152,24.42,3.784l10.244,16.355l24.433-2.514v23.962H125.516V136.262z"/>
		<polygon fill="#1F75FE" points="125.238,175.18 149.993,163.131 160.985,172.034 170.552,175.18 195.384,169.159 207.201,175.18 
			224.535,180.853 246.608,183.986 271.815,183.986 286.178,183.986 305.705,190.329 125.516,190.329 		"/>
	</g>
	<g>
		<g>
			<g>
				<path fill="#FFBD07" d="M74.336,474.844l65.201-15.401l41.123,7.704L247.808,490l58.767-15.156l21.209,4.461l29.184,6.118
					L396.834,490c0,0,52.501,3.822,65.072,4.576l27.275,19.862l65.085-3.062v29.074H74.336V474.844z"/>
			</g>
			<polygon fill="#FFD255" points="73.607,522.078 139.537,507.47 168.792,518.255 194.269,522.078 260.43,514.773 291.915,522.078 
				338.086,528.956 396.834,532.772 464.021,532.772 502.235,532.772 554.267,540.451 74.336,540.451 			"/>
		</g>
	</g>
	<g>
		<g>
			<path fill="#1F75FE" d="M391.831,314.735c-26.044,12.61-57.388,1.734-69.997-24.31c-12.609-26.051-1.728-57.395,24.316-70.01
				c26.045-12.61,57.388-1.728,69.997,24.316C428.783,270.789,417.889,302.12,391.831,314.735z"/>
			<path fill="#FFBD07" d="M399.181,224.76l-30.189,42.818l52.03,5.996c1.096-9.567-0.354-19.533-4.874-28.842
				C412.151,236.455,406.232,229.711,399.181,224.76z"/>
			<path fill="#003AA5" d="M391.831,314.735c16.748-8.109,27.179-23.955,29.19-41.161l-52.03-5.996l-31.524,41.813
				C352.662,320.828,373.549,323.612,391.831,314.735z"/>
			<path fill="#5E4B85" d="M352.804,217.792l16.188,49.787l1.683,0.187l33.78-38.737
				C390.761,216.457,371.034,211.841,352.804,217.792z"/>
		</g>
		<g>
			<g>
				<g>
					<g>
						<g>
							<path fill="#FFC190" d="M453.112,276.107l-25.902,45.945l-66.709-22.988l1.695-5.674l54.042,9.657l25.219-39.588
								c0,0,7.42-13.996,16.361-8.297C457.818,255.163,458.264,266.592,453.112,276.107z"/>
						</g>
					</g>
				</g>
				<g>
					<g>
						<g>
							<path fill="#FFC190" d="M363.356,294.197c0,0-9.561-6.686-12.022-5.628c-2.089,0.902-7.865,7.388,10.327,10.03
								L363.356,294.197z"/>
						</g>
					</g>
				</g>
			</g>
			<g>
				<g>
					<g>
						<g>
							<path fill="#FFC190" d="M515.645,276.624l-42.405,31.388l-51.515-48.201l3.874-4.487l45.384,30.847l39.183-25.864
								c0,0,12.493-9.748,18.321-0.903C528.486,259.404,524.244,270.016,515.645,276.624z"/>
						</g>
					</g>
				</g>
				<g>
					<g>
						<g>
							<path fill="#FFC190" d="M426.333,256.536c0,0-6.015-10.011-8.702-10.043c-2.257-0.032-10.186,3.539,5.324,13.364
								L426.333,256.536z"/>
						</g>
					</g>
				</g>
			</g>
			<g>
				<g>
					<g>
						<polygon fill="#7A92CE" points="475.592,540.451 472.04,539.999 470.293,545.221 468.546,547.322 457.213,553.163 
							475.844,551.165 						"/>
					</g>
				</g>
			</g>
			<g>
				<g>
					<g>
						<polygon fill="#7A92CE" points="490.071,533.694 486.867,535.307 488.292,540.605 487.995,543.326 481.768,554.453 
							496.215,542.501 						"/>
					</g>
				</g>
			</g>
			<g>
				<g>
					<g>
						<polygon fill="#351270" points="533.115,351.152 500.572,457.147 478.325,545.53 469.899,543.765 480.949,449.373 
							492.398,342.592 						"/>
					</g>
				</g>
			</g>
			<g>
				<g>
					<g>
						<polygon fill="#351270" points="455.924,334.933 438.002,434.107 485.011,538.143 494.319,535.706 465.825,444.731 
							502.448,350.572 503.628,344.951 						"/>
					</g>
				</g>
			</g>
			<g>
				<g>
					<g>
						<g>
							<polygon fill="#FF2363" points="533.74,363.788 450.65,367.643 457.007,309.057 454.312,250.863 487.1,242.682 
								528.203,244.545 530.807,300.708 							"/>
						</g>
					</g>
				</g>
			</g>
			<g>
				<g>
					<g>
						<path fill="#FFC7CA" d="M457.754,251.004c0,0,13.887,7.085-7.717,32.794L435.9,269.874
							C435.9,269.874,445.048,248.562,457.754,251.004z"/>
					</g>
				</g>
			</g>
			<g>
				<g>
					<g>
						<path fill="#FFC7CA" d="M529.866,245.17c0,0,15.395,2.54,2.61,33.6l-17.709-8.986
							C514.768,269.784,517.018,246.705,529.866,245.17z"/>
					</g>
				</g>
			</g>
			<g>
				<g>
					<g>
						<g>
							<path fill="#FFC190" d="M494.203,245.899c0.322,2.927-11.449,3.475-11.694,0.548c-0.741-8.471,0.452-14.789,0.452-14.789
								l8.535-3.61C491.496,228.048,493.565,239.794,494.203,245.899z"/>
						</g>
					</g>
				</g>
				<g>
					<g>
						<g>
							<path fill="#FFC190" d="M484.694,236.313c-0.793,0.116-8.064,1.702-9.366-1.831c-1.315-3.533-1.521-16.774,0.013-20.075
								c1.56-3.275,7.117-5.441,9.837-4.422c2.695,1.006,10.186,8.277,6.847,21.467
								C492.024,231.452,488.988,235.681,484.694,236.313z"/>
						</g>
					</g>
				</g>
				<g>
					<g>
						<g>
							<path fill="#2E3B57" d="M473.742,214.491c0,0,0.863,4.506,4.061,3.978c3.186-0.529,8.639-1.721,9.31,0.696
								c0.677,2.437-1.231,10.869,0.6,12.848c1.824,1.979,6.246,4.261,7.046,1.193c0.793-3.075,1.824-21.854-8.2-25.741
								C486.558,207.464,476.682,205.846,473.742,214.491z"/>
						</g>
					</g>
				</g>
			</g>
		</g>
	</g>
</g>
</svg>
