<?xml version="1.0" encoding="utf-8"?>
<!-- Generator: Adobe Illustrator 16.0.0, SVG Export Plug-In . SVG Version: 6.00 Build 0)  -->
<!DOCTYPE svg PUBLIC "-//W3C//DTD SVG 1.1//EN" "http://www.w3.org/Graphics/SVG/1.1/DTD/svg11.dtd">
<svg version="1.1" id="Layer_1" xmlns="http://www.w3.org/2000/svg" xmlns:xlink="http://www.w3.org/1999/xlink" x="0px" y="0px"
	 width="451px" height="522px" viewBox="0 0 451 522" enable-background="new 0 0 451 522" xml:space="preserve">
<g>
	<g>
		<path fill="#DAE2F2" d="M182.877,33.726c-47.284,12.488-75.51,60.936-63.016,108.231c12.482,47.278,60.936,75.498,108.225,63.01
			c47.284-12.477,75.51-60.947,63.016-108.22C278.619,49.447,230.161,21.238,182.877,33.726z M217.371,164.369
			c-24.866,6.571-50.353-8.267-56.923-33.133c-6.565-24.872,8.278-50.358,33.149-56.923c24.872-6.576,50.347,8.278,56.912,33.138
			C257.068,132.334,242.237,157.792,217.371,164.369z"/>
	</g>
	<g>
		<path fill="#DAE2F2" d="M208.028,48.365l-38.595,10.188c0,0-14.738-29.027-9.864-37.376c5.017-8.634,30.547-16.1,38.578-10.193
			C205.953,16.698,208.028,48.365,208.028,48.365z"/>
	</g>
	<g>
		<path fill="#DAE2F2" d="M239.35,181.66l-38.589,10.188c0,0,1.515,32.518,9.87,37.398c8.618,5.017,34.505-1.092,38.589-10.21
			C253.172,210.226,239.35,181.66,239.35,181.66z"/>
	</g>
	<g>
		<path fill="#DAE2F2" d="M154.168,67.852l-15.545,36.761c0,0-31.98-6.109-35.62-15.063c-3.749-9.249,5.956-34.005,15.551-36.755
			C127.842,50.127,154.168,67.852,154.168,67.852z"/>
	</g>
	<g>
		<path fill="#DAE2F2" d="M137.36,122.069l3.754,39.742c0,0-31.047,9.804-38.49,3.634c-7.696-6.357-10.896-32.76-3.754-39.736
			C105.787,118.962,137.36,122.069,137.36,122.069z"/>
	</g>
	<g>
		<path fill="#DAE2F2" d="M276.797,123.667l-8.618-38.974c0,0,29.62-13.547,37.755-8.349c8.409,5.369,14.832,31.19,8.612,38.99
			C308.508,122.876,276.797,123.667,276.797,123.667z"/>
	</g>
	<g>
		<path fill="#DAE2F2" d="M223.596,48.228l31.678,24.295c0,0,24.79-21.089,23.538-30.674c-1.312-9.908-21.968-26.639-31.667-24.301
			C237.747,19.816,223.596,48.228,223.596,48.228z"/>
	</g>
	<g>
		<path fill="#DAE2F2" d="M181.356,194.093l-31.667-24.295c0,0-24.811,21.09-23.538,30.679c1.307,9.886,21.979,26.634,31.667,24.284
			C167.222,222.5,181.356,194.093,181.356,194.093z"/>
	</g>
	<g>
		<path fill="#DAE2F2" d="M258.666,174.963l15.551-36.756c0,0,31.98,6.088,35.614,15.057c3.743,9.244-5.956,34.011-15.557,36.761
			C284.976,192.698,258.666,174.963,258.666,174.963z"/>
	</g>
</g>
<g>
	<g>
		<g>
			<path fill="#C8EEFB" d="M380.845,140.814c-22.879,6.044-36.536,29.482-30.492,52.367c6.038,22.884,29.482,36.542,52.372,30.498
				c22.874-6.038,36.536-29.494,30.492-52.373C427.174,148.422,403.724,134.776,380.845,140.814z M397.532,204.034
				c-12.032,3.173-24.361-4.001-27.54-16.034c-3.178-12.032,4.008-24.361,16.045-27.539c12.033-3.184,24.356,4.007,27.534,16.034
				C416.744,188.527,409.564,200.85,397.532,204.034z"/>
		</g>
		<g>
			<path fill="#C8EEFB" d="M393.015,147.901l-18.675,4.93c0,0-7.13-14.042-4.775-18.087c2.432-4.177,14.782-7.784,18.669-4.93
				C392.01,132.581,393.015,147.901,393.015,147.901z"/>
		</g>
		<g>
			<path fill="#C8EEFB" d="M408.17,212.399l-18.674,4.929c0,0,0.735,15.737,4.775,18.092c4.172,2.426,16.698-0.527,18.674-4.929
				C414.861,226.215,408.17,212.399,408.17,212.399z"/>
		</g>
		<g>
			<path fill="#C8EEFB" d="M366.957,157.332l-7.521,17.785c0,0-15.479-2.948-17.235-7.295c-1.817-4.462,2.876-16.44,7.52-17.779
				C354.211,148.752,366.957,157.332,366.957,157.332z"/>
		</g>
		<g>
			<path fill="#C8EEFB" d="M358.822,183.564l1.816,19.229c0,0-15.023,4.749-18.624,1.762c-3.722-3.08-5.275-15.853-1.823-19.229
				C343.54,182.061,358.822,183.564,358.822,183.564z"/>
		</g>
		<g>
			<path fill="#C8EEFB" d="M426.29,184.338l-4.166-18.855c0,0,14.326-6.554,18.268-4.045c4.067,2.596,7.175,15.095,4.166,18.872
				C441.632,183.954,426.29,184.338,426.29,184.338z"/>
		</g>
		<g>
			<path fill="#C8EEFB" d="M400.551,147.841l15.326,11.752c0,0,11.999-10.21,11.385-14.849
				c-0.626-4.792-10.627-12.889-15.315-11.758C407.396,134.085,400.551,147.841,400.551,147.841z"/>
		</g>
		<g>
			<path fill="#C8EEFB" d="M380.109,218.416l-15.32-11.758c0,0-12.005,10.204-11.391,14.843c0.626,4.787,10.633,12.889,15.32,11.752
				C373.27,232.16,380.109,218.416,380.109,218.416z"/>
		</g>
		<g>
			<path fill="#C8EEFB" d="M417.519,209.161l7.525-17.785c0,0,15.469,2.948,17.23,7.284c1.812,4.468-2.882,16.457-7.525,17.791
				C430.248,217.74,417.519,209.161,417.519,209.161z"/>
		</g>
	</g>
</g>
<rect x="185.358" y="163.642" fill="#B9DDFF" width="24.685" height="331.465"/>
<g>
	<g>
		<path fill="#60D3BE" d="M422.371,370.727c-5.149-2.003,15.874-31.892-7.016-44.028c-30.081-15.957,3.058-66.32-9.606-65.097
			c-18.915,1.855-24.186,31.305-20.766,64.18c4.37,42.004-17.126,30.646-17.543,30.454c-12.23-5.527-17.561-0.176-12.17,36.092
			c5.368,36.272,19.371,64.257,31.261,62.483c0.736-0.094,1.449-0.324,2.125-0.653c0.773,0.203,1.548,0.356,2.316,0.396
			c1.768,0.065,3.513-0.346,5.209-1.153c15.002,0.769,15.93-5.576,28.517-38.072C438.448,379.79,437.499,376.573,422.371,370.727z"
			/>
	</g>
	<g>
		<polygon fill="#DAE2F2" points="422.546,506.096 369.191,506.096 363.346,444.897 428.376,444.897 		"/>
	</g>
</g>
<g>
	<path fill="#B9DDFF" d="M323.625,291.485l-0.011-166.342H77.588v288.383h195.25c2.586,11.473,12.817,20.052,25.064,20.052
		c12.257,0,22.489-8.579,25.074-20.052h0.017v-0.071c0.39-1.801,0.631-3.678,0.631-5.594V303.528c0-0.373-0.044-0.741-0.06-1.114
		L323.625,291.485z"/>
	<path fill="#29B9E6" d="M272.187,407.861V394.04H106.539H95.406H55.116v15.013c0,10.254,6.598,19.025,15.962,22.692
		c2.668,1.032,5.566,1.581,8.591,1.724c-0.083,0.021-0.148,0.071-0.225,0.109h218.459
		C283.702,433.578,272.187,422.063,272.187,407.861z"/>
</g>
<g>
	<rect x="102.465" y="148.941" fill="#1F75FE" width="12.521" height="54.052"/>
	<rect x="117.638" y="163.216" fill="#003AA5" width="13.789" height="39.778"/>
	<rect x="135.351" y="157.104" fill="#1F75FE" width="12.521" height="45.89"/>
	<rect x="150.518" y="175.967" fill="#003AA5" width="13.789" height="27.026"/>
</g>
<g>
	<rect x="168.023" y="148.941" fill="#1F75FE" width="12.516" height="54.052"/>
	<rect x="183.195" y="163.216" fill="#003AA5" width="13.789" height="39.778"/>
	<rect x="200.898" y="157.104" fill="#1F75FE" width="12.532" height="45.89"/>
	<rect x="216.07" y="175.967" fill="#003AA5" width="13.789" height="27.026"/>
</g>
<g>
	<rect x="233.58" y="148.941" fill="#1F75FE" width="12.516" height="54.052"/>
	<rect x="248.747" y="163.216" fill="#003AA5" width="13.783" height="39.778"/>
	<rect x="266.455" y="157.104" fill="#1F75FE" width="12.526" height="45.89"/>
	<rect x="281.622" y="175.967" fill="#003AA5" width="13.789" height="27.026"/>
</g>
<g>
	<g>
		<path fill="#1F75FE" d="M140.73,312.585c-15.21,7.367-33.522,1.005-40.895-14.206c-7.361-15.216-1.01-33.533,14.206-40.902
			c15.222-7.372,33.528-1.013,40.9,14.203C162.32,286.907,155.958,305.208,140.73,312.585z"/>
		<path fill="#FFBD07" d="M145.023,260.013l-17.626,25.017l30.394,3.502c0.643-5.588-0.214-11.406-2.849-16.852
			C152.604,266.838,149.14,262.908,145.023,260.013z"/>
		<path fill="#003AA5" d="M140.73,312.585c9.793-4.742,15.88-13.997,17.061-24.054l-30.394-3.502l-18.427,24.433
			C117.852,316.143,130.049,317.768,140.73,312.585z"/>
		<path fill="#5E4B85" d="M117.934,255.942l9.463,29.087l0.977,0.11l19.739-22.635C140.105,255.157,128.588,252.465,117.934,255.942
			z"/>
	</g>
	<path fill="#B9DDFF" d="M145.995,285.029c0,10.276-8.327,18.604-18.597,18.604c-10.276,0-18.608-8.327-18.608-18.604
		c0-10.275,8.333-18.603,18.608-18.603C137.667,266.427,145.995,274.754,145.995,285.029z"/>
</g>
<g>
	<g>
		<path fill="#1F75FE" d="M215.999,312.585c-15.21,7.367-33.522,1.005-40.889-14.206c-7.366-15.216-1.015-33.533,14.201-40.902
			c15.222-7.372,33.534-1.013,40.9,14.203C237.593,286.907,231.226,305.208,215.999,312.585z"/>
		<path fill="#FFBD07" d="M220.297,260.013l-17.631,25.017l30.393,3.502c0.643-5.588-0.208-11.406-2.849-16.852
			C227.877,266.838,224.414,262.908,220.297,260.013z"/>
		<path fill="#003AA5" d="M215.999,312.585c9.793-4.742,15.88-13.997,17.06-24.054l-30.393-3.502l-18.422,24.433
			C193.12,316.143,205.316,317.768,215.999,312.585z"/>
		<path fill="#5E4B85" d="M193.202,255.942l9.463,29.087l0.982,0.11l19.734-22.635C215.373,255.157,203.856,252.465,193.202,255.942
			z"/>
	</g>
	<path fill="#B9DDFF" d="M221.268,285.029c0,10.276-8.333,18.604-18.603,18.604c-10.271,0-18.608-8.327-18.608-18.604
		c0-10.275,8.338-18.603,18.608-18.603C212.936,266.427,221.268,274.754,221.268,285.029z"/>
</g>
<g>
	<g>
		<path fill="#1F75FE" d="M290.229,312.585c-15.217,7.367-33.523,1.005-40.895-14.206c-7.361-15.216-1.016-33.533,14.206-40.902
			c15.216-7.372,33.527-1.013,40.899,14.203C311.818,286.907,305.45,305.208,290.229,312.585z"/>
		<path fill="#FFBD07" d="M294.521,260.013l-17.631,25.017l30.398,3.502c0.643-5.588-0.214-11.406-2.849-16.852
			C302.103,266.838,298.639,262.908,294.521,260.013z"/>
		<path fill="#003AA5" d="M290.229,312.585c9.792-4.742,15.874-13.997,17.06-24.054l-30.398-3.502l-18.422,24.433
			C267.35,316.143,279.547,317.768,290.229,312.585z"/>
		<path fill="#5E4B85" d="M267.433,255.942l9.458,29.087l0.982,0.11l19.733-22.635C289.604,255.157,278.087,252.465,267.433,255.942
			z"/>
	</g>
	<path fill="#B9DDFF" d="M295.493,285.029c0,10.276-8.327,18.604-18.603,18.604c-10.271,0-18.604-8.327-18.604-18.604
		c0-10.275,8.333-18.603,18.604-18.603C287.166,266.427,295.493,274.754,295.493,285.029z"/>
</g>
<rect x="132.919" y="495.106" fill="#B9DDFF" width="137.818" height="14.52"/>
<g>
	<g>
		<g>
			<g>
				<polygon fill="#7A92CE" points="31.929,486.439 28.411,487.581 29.075,493.224 28.328,495.946 20.259,506.343 36.836,496.353 
									"/>
			</g>
		</g>
	</g>
	<g>
		<g>
			<g>
				<polygon fill="#7A92CE" points="34.312,480.709 38,481.005 38.637,486.67 39.965,489.14 50.175,497.451 31.775,491.468 				"/>
			</g>
		</g>
	</g>
	<g>
		<g>
			<g>
				<polygon fill="#351270" points="6.91,325.282 4.121,414.816 28.087,492.949 35.278,489.59 22.806,420.103 44.862,347.722 				
					"/>
			</g>
		</g>
	</g>
	<g>
		<g>
			<g>
				<polygon fill="#1F0B4C" points="39.471,345.104 39.471,416.743 30.963,486.23 39.471,486.23 56.367,415.661 71.693,329.021 				
					"/>
			</g>
		</g>
	</g>
	<g>
		<g>
			<g>
				<g>
					<path fill="#FFC190" d="M176.273,288.916c0,0,10.078-5.368,12.339-4.051c1.927,1.108,6.769,8.085-11.209,8.524L176.273,288.916
						z"/>
				</g>
			</g>
		</g>
		<g>
			<g>
				<g>
					<path fill="#FFC7CA" d="M89.121,268.199l23.741,45.824l66.024-20.173l-1.46-5.604l-53.168,7.569l-23.285-39.59
						c0,0-6.785-13.935-15.721-8.676C85.251,247.549,84.417,258.703,89.121,268.199z"/>
				</g>
			</g>
		</g>
	</g>
	<g>
		<g>
			<path fill="#FF2363" d="M62.114,234.708c-8.596-0.154-28.187,6.647-33.726,17.552c-5.528,10.904-8.229,38.556-8.229,38.556
				L6.91,325.282c0,0,25.942,36.607,64.827,12.833c0,0,9.463-35.378,15.875-50.309c3.744-8.684,15.776-32.29,5.319-40.779
				C77.632,234.608,70.858,234.858,62.114,234.708z"/>
		</g>
	</g>
	<g>
		<g>
			<g>
				<path fill="#FFC190" d="M72.944,223.797l-6.499,12.348c0,0,13.569,15.359,13.471,8.415c-0.094-6.442,1.8-18.762,1.8-18.762
					L72.944,223.797z"/>
			</g>
		</g>
	</g>
	<g>
		<g>
			<g>
				<path fill="#FFC190" d="M76.381,208.658c-1.68,2.443-5.001,7.199-4.292,11.085c0.713,3.9,1.548,10.734,5.258,13.18
					c3.689,2.437,6.9-0.618,7.916-2.088c1.652-2.375,5.852-16.841,0.143-21.899C81.102,205.121,77.676,206.789,76.381,208.658z"/>
			</g>
		</g>
	</g>
	<g>
		<g>
			<g>
				<path fill="#171B23" d="M87.414,212.221c0,0-3.524,2.177-7.772,0.036c-4.238-2.138-4.688,2.446-4.798,2.945
					c-0.115,0.483-0.791,7.007-2.36,6.754c-1.603-0.255-1.877-8.635,1.614-13.43C77.578,203.729,86.272,204.945,87.414,212.221z"/>
			</g>
		</g>
	</g>
	<g>
		<g>
			<g>
				<path fill="#171B23" d="M72.988,224.514c0,0,3.557,5.457,8.388,5.945c3.058,0.324,5.769-4.528,6.016-5.643
					c0.242-1.109-0.823,10.204-7.454,9.087C73.307,232.778,72.988,224.514,72.988,224.514z"/>
			</g>
		</g>
	</g>
	<g>
		<g>
			<g>
				<g>
					<path fill="#FFC190" d="M108.625,309.27c0,0,10.967-3.217,12.921-1.46c1.647,1.477,4.973,9.299-12.718,6.061L108.625,309.27z"
						/>
				</g>
			</g>
		</g>
		<g>
			<g>
				<g>
					<path fill="#FFC7CA" d="M27.554,271.186l13.882,49.699l68.747-6.269l-0.296-5.774l-53.602-3.453l-14.706-43.504
						c0,0-6.433-19.212-13.602-11.717C24.354,253.977,24.881,260.921,27.554,271.186z"/>
				</g>
			</g>
		</g>
	</g>
</g>
</svg>
