<?xml version="1.0" encoding="utf-8"?>
<!-- Generator: Adobe Illustrator 16.0.0, SVG Export Plug-In . SVG Version: 6.00 Build 0)  -->
<!DOCTYPE svg PUBLIC "-//W3C//DTD SVG 1.1//EN" "http://www.w3.org/Graphics/SVG/1.1/DTD/svg11.dtd">
<svg version="1.1" id="Layer_1" xmlns="http://www.w3.org/2000/svg" xmlns:xlink="http://www.w3.org/1999/xlink" x="0px" y="0px"
	 width="770px" height="560px" viewBox="0 0 770 560" enable-background="new 0 0 770 560" xml:space="preserve">
<g>
	<g>
		<g>
			<path fill="#DAE2F2" d="M290.623,187.6c-63.664,16.814-101.659,82.041-84.846,145.719
				c16.807,63.671,82.044,101.659,145.723,84.853c63.656-16.806,101.659-82.066,84.845-145.719
				C419.531,208.77,354.286,170.793,290.623,187.6z M337.066,363.495c-33.473,8.847-67.788-11.123-76.642-44.61
				c-8.832-33.48,11.146-67.795,44.633-76.638c33.487-8.851,67.788,11.149,76.627,44.622
				C390.516,320.362,370.545,354.655,337.066,363.495z"/>
		</g>
		<g>
			<path fill="#DAE2F2" d="M324.487,207.307l-51.964,13.725c0,0-19.836-39.085-13.281-50.327
				c6.755-11.626,41.129-21.673,51.949-13.721C321.693,164.673,324.487,207.307,324.487,207.307z"/>
		</g>
		<g>
			<path fill="#DAE2F2" d="M366.666,386.775L314.709,400.5c0,0,2.04,43.775,13.273,50.346c11.611,6.755,46.458-1.456,51.964-13.739
				C385.268,425.237,366.666,386.775,366.666,386.775z"/>
		</g>
		<g>
			<path fill="#DAE2F2" d="M251.969,233.544l-20.931,49.495c0,0-43.058-8.214-47.951-20.28
				c-5.055-12.446,8.012-45.778,20.931-49.484C216.523,209.687,251.969,233.544,251.969,233.544z"/>
		</g>
		<g>
			<path fill="#DAE2F2" d="M229.339,306.557l5.063,53.502c0,0-41.81,13.192-51.831,4.893c-10.354-8.559-14.663-44.108-5.063-53.502
				C186.827,302.358,229.339,306.557,229.339,306.557z"/>
		</g>
		<g>
			<path fill="#DAE2F2" d="M417.077,308.7l-11.603-52.471c0,0,39.872-18.244,50.84-11.249c11.323,7.228,19.963,41.991,11.589,52.5
				C459.773,307.636,417.077,308.7,417.077,308.7z"/>
		</g>
		<g>
			<path fill="#DAE2F2" d="M345.447,207.129l42.652,32.711c0,0,33.384-28.395,31.698-41.307
				c-1.773-13.333-29.577-35.867-42.637-32.715C364.507,168.872,345.447,207.129,345.447,207.129z"/>
		</g>
		<g>
			<path fill="#DAE2F2" d="M288.575,403.523l-42.637-32.712c0,0-33.406,28.396-31.691,41.3
				c1.759,13.311,29.592,35.859,42.637,32.703C269.544,441.77,288.575,403.523,288.575,403.523z"/>
		</g>
		<g>
			<path fill="#DAE2F2" d="M392.666,377.759l20.945-49.488c0,0,43.059,8.204,47.937,20.28c5.055,12.446-8.012,45.785-20.931,49.496
				C428.09,401.646,392.666,377.759,392.666,377.759z"/>
		</g>
	</g>
	<g>
		<g>
			<path fill="#DAE2F2" d="M495.346,32.76c-44.012,11.622-70.279,56.713-58.646,100.728c11.61,44.004,56.709,70.268,100.728,58.646
				c43.997-11.615,70.256-56.72,58.638-100.717C584.44,47.394,539.342,21.146,495.346,32.76z M527.443,154.349
				c-23.141,6.108-46.857-7.694-52.97-30.834c-6.112-23.147,7.694-46.864,30.849-52.98c23.148-6.119,46.857,7.708,52.962,30.845
				C564.39,124.531,550.591,148.233,527.443,154.349z"/>
		</g>
		<g>
			<path fill="#DAE2F2" d="M518.752,46.385l-35.919,9.486c0,0-13.718-27.013-9.18-34.788c4.664-8.034,28.425-14.981,35.911-9.486
				C516.815,16.915,518.752,46.385,518.752,46.385z"/>
		</g>
		<g>
			<path fill="#DAE2F2" d="M547.9,170.442l-35.911,9.482c0,0,1.404,30.261,9.179,34.799c8.02,4.667,32.113-1.009,35.919-9.497
				C560.761,197.026,547.9,170.442,547.9,170.442z"/>
		</g>
		<g>
			<path fill="#DAE2F2" d="M468.62,64.522l-14.456,34.211c0,0-29.77-5.68-33.154-14.02c-3.496-8.603,5.543-31.643,14.471-34.204
				C444.12,48.03,468.62,64.522,468.62,64.522z"/>
		</g>
		<g>
			<path fill="#DAE2F2" d="M452.981,114.986l3.496,36.983c0,0-28.897,9.12-35.823,3.381c-7.161-5.916-10.132-30.487-3.503-36.983
				C423.596,112.089,452.981,114.986,452.981,114.986z"/>
		</g>
		<g>
			<path fill="#DAE2F2" d="M582.748,116.468l-8.02-36.267c0,0,27.561-12.612,35.136-7.775c7.834,4.996,13.813,29.023,8.019,36.285
				C612.267,115.732,582.748,116.468,582.748,116.468z"/>
		</g>
		<g>
			<path fill="#DAE2F2" d="M533.237,46.26l29.481,22.612c0,0,23.074-19.626,21.914-28.55c-1.228-9.216-20.45-24.792-29.475-22.616
				C546.407,19.819,533.237,46.26,533.237,46.26z"/>
		</g>
		<g>
			<path fill="#DAE2F2" d="M493.934,182.008L464.452,159.4c0,0-23.089,19.626-21.898,28.55c1.212,9.198,20.457,24.789,29.467,22.601
				C480.778,208.449,493.934,182.008,493.934,182.008z"/>
		</g>
		<g>
			<path fill="#DAE2F2" d="M565.875,164.204L580.354,130c0,0,29.762,5.669,33.14,14.013c3.488,8.603-5.543,31.651-14.471,34.215
				C590.36,180.715,565.875,164.204,565.875,164.204z"/>
		</g>
	</g>
	<g>
		<polygon fill="#1F75FE" points="133.895,490.689 192.104,154.094 261.34,490.689 		"/>
		<polygon fill="#FFBD07" points="254.164,490.689 312.336,277.685 381.587,490.689 		"/>
		<polygon fill="#003AA5" points="6.583,490.689 64.762,357.116 134.013,490.689 		"/>
		<polygon fill="#1F75FE" points="515.108,492.094 573.303,155.498 642.568,492.094 		"/>
		<polygon fill="#FFBD07" points="635.399,492.094 693.557,279.085 762.801,492.094 		"/>
		<polygon fill="#003AA5" points="387.803,492.094 445.976,358.506 515.227,492.094 		"/>
	</g>
	<g>
		<polygon fill="#C8EEFB" points="447.38,351.241 310.555,267.412 190.988,150.021 78.206,327.517 71.82,323.459 189.614,138.071 
			315.551,261.706 444.955,340.887 572.874,138.008 678.295,244.061 672.93,249.397 574.204,150.084 		"/>
	</g>
	<path fill="#003AA5" d="M200.345,144.05c0,5.543-4.493,10.044-10.044,10.044c-5.55,0-10.044-4.501-10.044-10.044
		c0-5.55,4.494-10.051,10.044-10.051C195.852,133.999,200.345,138.5,200.345,144.05z"/>
	<path fill="#003AA5" d="M583.583,144.05c0,5.543-4.493,10.044-10.044,10.044s-10.044-4.501-10.044-10.044
		c0-5.55,4.493-10.051,10.044-10.051S583.583,138.5,583.583,144.05z"/>
	<path fill="#003AA5" d="M456.211,346.067c0,5.543-4.5,10.044-10.044,10.044c-5.55,0-10.051-4.501-10.051-10.044
		c0-5.55,4.501-10.051,10.051-10.051C451.711,336.017,456.211,340.518,456.211,346.067z"/>
	<path fill="#003AA5" d="M323.252,264.71c0,5.547-4.494,10.044-10.044,10.044s-10.044-4.497-10.044-10.044
		c0-5.55,4.494-10.051,10.044-10.051S323.252,259.16,323.252,264.71z"/>
	<path fill="#003AA5" d="M75.013,342.461c0,5.543-4.501,10.044-10.051,10.044c-5.551,0-10.044-4.501-10.044-10.044
		c0-5.551,4.493-10.052,10.044-10.052C70.512,332.409,75.013,336.91,75.013,342.461z"/>
	<path fill="#003AA5" d="M703.526,264.71c0,5.547-4.501,10.044-10.051,10.044c-5.543,0-10.044-4.497-10.044-10.044
		c0-5.55,4.501-10.051,10.044-10.051C699.025,254.659,703.526,259.16,703.526,264.71z"/>
	<g>
		<g>
			<g>
				<g>
					<g>
						<path fill="#FFC190" d="M479.677,329.83c0,0-17.509-7.93-21.174-5.469c-3.104,2.062-10.466,14.315,19.763,13.089
							L479.677,329.83z"/>
					</g>
				</g>
			</g>
			<g>
				<g>
					<g>
						<path fill="#FFC7CA" d="M623.641,285.435l-34.788,79.523l-113.041-26.584l1.862-9.557l90.056,6.844l34.722-68.992
							c0,0,15.247-30.486,25.417-16.326C633.012,257.534,630.499,268.975,623.641,285.435z"/>
					</g>
				</g>
			</g>
		</g>
		<g>
			<g>
				<g>
					<polygon fill="#1F0B4C" points="589.466,383.465 502.573,525.64 490.526,523.541 527.976,389.592 					"/>
				</g>
			</g>
		</g>
		<g>
			<g>
				<g>
					<path fill="#351270" d="M644.46,362.46c0,0,32.497,59.2-32.94,58.594c-65.438-0.628-79.805,2.003-79.805,2.003l49.496,74.129
						l-4.279,11.204c0,0-97.794-104.076-99.191-116.248C476.329,379.983,458.296,368.011,644.46,362.46z"/>
				</g>
			</g>
		</g>
		<g>
			<g>
				<g>
					<polygon fill="#E11D8D" points="581.721,492.071 569.984,503.896 578.077,511.789 579.304,517.354 573.916,546.651 
						577.789,541.854 590.634,520.577 593.117,520.045 598.719,512.92 					"/>
				</g>
			</g>
		</g>
		<g>
			<g>
				<g>
					<polygon fill="#E11D8D" points="505.219,524.494 488.73,522.174 487.252,533.378 483.513,537.709 456.861,550.96 
						463.011,551.189 487.748,548.699 489.677,550.392 498.737,550.591 					"/>
				</g>
			</g>
		</g>
		<g>
			<g>
				<g>
					<path fill="#FFC190" d="M588.136,250.979c0.864,3.429-13.082,6.075-13.872,2.639c-2.328-9.985-1.974-17.723-1.974-17.723
						l9.578-5.765C581.868,230.129,586.332,243.795,588.136,250.979z"/>
				</g>
			</g>
			<g>
				<g>
					<path fill="#FFC190" d="M575.143,241.156c-0.916,0.266-9.313,3.385-11.485-0.613c-2.143-3.983-4.663-19.748-3.385-23.931
						c1.301-4.19,7.583-7.708,10.982-6.962c3.378,0.754,13.555,8.152,11.811,24.456
						C583.065,234.105,580.168,239.678,575.143,241.156z"/>
				</g>
			</g>
			<g>
				<g>
					<g>
						<path fill="#171B23" d="M558.396,216.967c0,0,1.788,5.225,5.514,4.057c3.717-1.167,9.992-3.525,11.219-0.747
							c1.212,2.787,0.369,13.178,2.883,15.232c2.527,2.047,8.188,4.006,8.617,0.214c0.443-3.799-1.53-26.37-14.131-29.326
							C572.497,206.398,560.405,206.139,558.396,216.967z"/>
					</g>
				</g>
			</g>
		</g>
		<g>
			<polygon fill="#FF2363" points="546.43,260.217 571.596,368.402 652.523,373.473 621.749,246.588 			"/>
		</g>
		<g>
			<g>
				<g>
					<g>
						<path fill="#FFC190" d="M437.069,339.733c0,0-14.951-5.085-17.774-2.786c-2.357,1.944-7.428,12.564,17.228,9.149
							L437.069,339.733z"/>
					</g>
				</g>
			</g>
			<g>
				<g>
					<g>
						<path fill="#FFC7CA" d="M551.492,291.908l-22.18,67.921l-94.697-12.778l0.739-7.982l74.336-1.574l22.94-59.281
							c0,0,10.06-26.185,19.526-15.387C556.954,268.302,555.794,277.881,551.492,291.908z"/>
					</g>
				</g>
			</g>
		</g>
	</g>
</g>
</svg>
